G04 #@! TF.GenerationSoftware,KiCad,Pcbnew,5.1.2-f72e74a~84~ubuntu18.04.1*
G04 #@! TF.CreationDate,2019-08-30T12:47:12+08:00*
G04 #@! TF.ProjectId,handyfan,68616e64-7966-4616-9e2e-6b696361645f,rev?*
G04 #@! TF.SameCoordinates,Original*
G04 #@! TF.FileFunction,Legend,Top*
G04 #@! TF.FilePolarity,Positive*
%FSLAX46Y46*%
G04 Gerber Fmt 4.6, Leading zero omitted, Abs format (unit mm)*
G04 Created by KiCad (PCBNEW 5.1.2-f72e74a~84~ubuntu18.04.1) date 2019-08-30 12:47:12*
%MOMM*%
%LPD*%
G04 APERTURE LIST*
%ADD10C,0.150000*%
%ADD11C,0.125000*%
%ADD12C,0.100000*%
%ADD13C,0.120000*%
G04 APERTURE END LIST*
D10*
X93950000Y-125061904D02*
X93902380Y-125157142D01*
X93902380Y-125300000D01*
X93950000Y-125442857D01*
X94045238Y-125538095D01*
X94140476Y-125585714D01*
X94330952Y-125633333D01*
X94473809Y-125633333D01*
X94664285Y-125585714D01*
X94759523Y-125538095D01*
X94854761Y-125442857D01*
X94902380Y-125300000D01*
X94902380Y-125204761D01*
X94854761Y-125061904D01*
X94807142Y-125014285D01*
X94473809Y-125014285D01*
X94473809Y-125204761D01*
X94902380Y-124585714D02*
X93902380Y-124585714D01*
X94902380Y-124014285D01*
X93902380Y-124014285D01*
X94902380Y-123538095D02*
X93902380Y-123538095D01*
X93902380Y-123300000D01*
X93950000Y-123157142D01*
X94045238Y-123061904D01*
X94140476Y-123014285D01*
X94330952Y-122966666D01*
X94473809Y-122966666D01*
X94664285Y-123014285D01*
X94759523Y-123061904D01*
X94854761Y-123157142D01*
X94902380Y-123300000D01*
X94902380Y-123538095D01*
X104850000Y-124961904D02*
X104802380Y-125057142D01*
X104802380Y-125200000D01*
X104850000Y-125342857D01*
X104945238Y-125438095D01*
X105040476Y-125485714D01*
X105230952Y-125533333D01*
X105373809Y-125533333D01*
X105564285Y-125485714D01*
X105659523Y-125438095D01*
X105754761Y-125342857D01*
X105802380Y-125200000D01*
X105802380Y-125104761D01*
X105754761Y-124961904D01*
X105707142Y-124914285D01*
X105373809Y-124914285D01*
X105373809Y-125104761D01*
X105802380Y-124485714D02*
X104802380Y-124485714D01*
X105802380Y-123914285D01*
X104802380Y-123914285D01*
X105802380Y-123438095D02*
X104802380Y-123438095D01*
X104802380Y-123200000D01*
X104850000Y-123057142D01*
X104945238Y-122961904D01*
X105040476Y-122914285D01*
X105230952Y-122866666D01*
X105373809Y-122866666D01*
X105564285Y-122914285D01*
X105659523Y-122961904D01*
X105754761Y-123057142D01*
X105802380Y-123200000D01*
X105802380Y-123438095D01*
D11*
X98056845Y-66155357D02*
X98056845Y-66488690D01*
X98056845Y-66202976D02*
X98080654Y-66179166D01*
X98128273Y-66155357D01*
X98199702Y-66155357D01*
X98247321Y-66179166D01*
X98271130Y-66226785D01*
X98271130Y-66488690D01*
X98794940Y-66488690D02*
X98628273Y-66250595D01*
X98509226Y-66488690D02*
X98509226Y-65988690D01*
X98699702Y-65988690D01*
X98747321Y-66012500D01*
X98771130Y-66036309D01*
X98794940Y-66083928D01*
X98794940Y-66155357D01*
X98771130Y-66202976D01*
X98747321Y-66226785D01*
X98699702Y-66250595D01*
X98509226Y-66250595D01*
X99175892Y-66226785D02*
X99009226Y-66226785D01*
X99009226Y-66488690D02*
X99009226Y-65988690D01*
X99247321Y-65988690D01*
X99318750Y-66536309D02*
X99699702Y-66536309D01*
X99818750Y-66488690D02*
X99818750Y-65988690D01*
X99985416Y-66345833D01*
X100152083Y-65988690D01*
X100152083Y-66488690D01*
X100461607Y-66488690D02*
X100413988Y-66464880D01*
X100390178Y-66441071D01*
X100366369Y-66393452D01*
X100366369Y-66250595D01*
X100390178Y-66202976D01*
X100413988Y-66179166D01*
X100461607Y-66155357D01*
X100533035Y-66155357D01*
X100580654Y-66179166D01*
X100604464Y-66202976D01*
X100628273Y-66250595D01*
X100628273Y-66393452D01*
X100604464Y-66441071D01*
X100580654Y-66464880D01*
X100533035Y-66488690D01*
X100461607Y-66488690D01*
X101056845Y-66488690D02*
X101056845Y-65988690D01*
X101056845Y-66464880D02*
X101009226Y-66488690D01*
X100913988Y-66488690D01*
X100866369Y-66464880D01*
X100842559Y-66441071D01*
X100818750Y-66393452D01*
X100818750Y-66250595D01*
X100842559Y-66202976D01*
X100866369Y-66179166D01*
X100913988Y-66155357D01*
X101009226Y-66155357D01*
X101056845Y-66179166D01*
X101509226Y-66155357D02*
X101509226Y-66488690D01*
X101294940Y-66155357D02*
X101294940Y-66417261D01*
X101318750Y-66464880D01*
X101366369Y-66488690D01*
X101437797Y-66488690D01*
X101485416Y-66464880D01*
X101509226Y-66441071D01*
X101818750Y-66488690D02*
X101771130Y-66464880D01*
X101747321Y-66417261D01*
X101747321Y-65988690D01*
X102199702Y-66464880D02*
X102152083Y-66488690D01*
X102056845Y-66488690D01*
X102009226Y-66464880D01*
X101985416Y-66417261D01*
X101985416Y-66226785D01*
X102009226Y-66179166D01*
X102056845Y-66155357D01*
X102152083Y-66155357D01*
X102199702Y-66179166D01*
X102223511Y-66226785D01*
X102223511Y-66274404D01*
X101985416Y-66322023D01*
X98937797Y-67363690D02*
X98937797Y-66863690D01*
X99128273Y-66863690D01*
X99175892Y-66887500D01*
X99199702Y-66911309D01*
X99223511Y-66958928D01*
X99223511Y-67030357D01*
X99199702Y-67077976D01*
X99175892Y-67101785D01*
X99128273Y-67125595D01*
X98937797Y-67125595D01*
X99533035Y-66863690D02*
X99580654Y-66863690D01*
X99628273Y-66887500D01*
X99652083Y-66911309D01*
X99675892Y-66958928D01*
X99699702Y-67054166D01*
X99699702Y-67173214D01*
X99675892Y-67268452D01*
X99652083Y-67316071D01*
X99628273Y-67339880D01*
X99580654Y-67363690D01*
X99533035Y-67363690D01*
X99485416Y-67339880D01*
X99461607Y-67316071D01*
X99437797Y-67268452D01*
X99413988Y-67173214D01*
X99413988Y-67054166D01*
X99437797Y-66958928D01*
X99461607Y-66911309D01*
X99485416Y-66887500D01*
X99533035Y-66863690D01*
X100128273Y-67030357D02*
X100128273Y-67363690D01*
X100009226Y-66839880D02*
X99890178Y-67197023D01*
X100199702Y-67197023D01*
X100271130Y-67411309D02*
X100652083Y-67411309D01*
X100747321Y-67220833D02*
X100985416Y-67220833D01*
X100699702Y-67363690D02*
X100866369Y-66863690D01*
X101033035Y-67363690D01*
X101199702Y-67363690D02*
X101199702Y-66863690D01*
X101437797Y-67363690D02*
X101437797Y-66863690D01*
X101723511Y-67363690D01*
X101723511Y-66863690D01*
X101937797Y-66911309D02*
X101961607Y-66887500D01*
X102009226Y-66863690D01*
X102128273Y-66863690D01*
X102175892Y-66887500D01*
X102199702Y-66911309D01*
X102223511Y-66958928D01*
X102223511Y-67006547D01*
X102199702Y-67077976D01*
X101913988Y-67363690D01*
X102223511Y-67363690D01*
D10*
X110902380Y-77042857D02*
X110426190Y-77376190D01*
X110902380Y-77614285D02*
X109902380Y-77614285D01*
X109902380Y-77233333D01*
X109950000Y-77138095D01*
X109997619Y-77090476D01*
X110092857Y-77042857D01*
X110235714Y-77042857D01*
X110330952Y-77090476D01*
X110378571Y-77138095D01*
X110426190Y-77233333D01*
X110426190Y-77614285D01*
X110378571Y-76614285D02*
X110378571Y-76280952D01*
X110902380Y-76138095D02*
X110902380Y-76614285D01*
X109902380Y-76614285D01*
X109902380Y-76138095D01*
X110902380Y-75709523D02*
X109902380Y-75709523D01*
X109902380Y-75471428D01*
X109950000Y-75328571D01*
X110045238Y-75233333D01*
X110140476Y-75185714D01*
X110330952Y-75138095D01*
X110473809Y-75138095D01*
X110664285Y-75185714D01*
X110759523Y-75233333D01*
X110854761Y-75328571D01*
X110902380Y-75471428D01*
X110902380Y-75709523D01*
X110452380Y-73142857D02*
X109976190Y-73476190D01*
X110452380Y-73714285D02*
X109452380Y-73714285D01*
X109452380Y-73333333D01*
X109500000Y-73238095D01*
X109547619Y-73190476D01*
X109642857Y-73142857D01*
X109785714Y-73142857D01*
X109880952Y-73190476D01*
X109928571Y-73238095D01*
X109976190Y-73333333D01*
X109976190Y-73714285D01*
X109928571Y-72714285D02*
X109928571Y-72380952D01*
X110452380Y-72238095D02*
X110452380Y-72714285D01*
X109452380Y-72714285D01*
X109452380Y-72238095D01*
X110452380Y-71809523D02*
X109452380Y-71809523D01*
X109452380Y-71571428D01*
X109500000Y-71428571D01*
X109595238Y-71333333D01*
X109690476Y-71285714D01*
X109880952Y-71238095D01*
X110023809Y-71238095D01*
X110214285Y-71285714D01*
X110309523Y-71333333D01*
X110404761Y-71428571D01*
X110452380Y-71571428D01*
X110452380Y-71809523D01*
D12*
X90291666Y-105033333D02*
X89958333Y-105266666D01*
X90291666Y-105433333D02*
X89591666Y-105433333D01*
X89591666Y-105166666D01*
X89625000Y-105100000D01*
X89658333Y-105066666D01*
X89725000Y-105033333D01*
X89825000Y-105033333D01*
X89891666Y-105066666D01*
X89925000Y-105100000D01*
X89958333Y-105166666D01*
X89958333Y-105433333D01*
X89591666Y-104400000D02*
X89591666Y-104733333D01*
X89925000Y-104766666D01*
X89891666Y-104733333D01*
X89858333Y-104666666D01*
X89858333Y-104500000D01*
X89891666Y-104433333D01*
X89925000Y-104400000D01*
X89991666Y-104366666D01*
X90158333Y-104366666D01*
X90225000Y-104400000D01*
X90258333Y-104433333D01*
X90291666Y-104500000D01*
X90291666Y-104666666D01*
X90258333Y-104733333D01*
X90225000Y-104766666D01*
X90025000Y-104066666D02*
X90025000Y-103533333D01*
X90291666Y-102800000D02*
X89958333Y-103033333D01*
X90291666Y-103200000D02*
X89591666Y-103200000D01*
X89591666Y-102933333D01*
X89625000Y-102866666D01*
X89658333Y-102833333D01*
X89725000Y-102800000D01*
X89825000Y-102800000D01*
X89891666Y-102833333D01*
X89925000Y-102866666D01*
X89958333Y-102933333D01*
X89958333Y-103200000D01*
X89891666Y-102400000D02*
X89858333Y-102466666D01*
X89825000Y-102500000D01*
X89758333Y-102533333D01*
X89725000Y-102533333D01*
X89658333Y-102500000D01*
X89625000Y-102466666D01*
X89591666Y-102400000D01*
X89591666Y-102266666D01*
X89625000Y-102200000D01*
X89658333Y-102166666D01*
X89725000Y-102133333D01*
X89758333Y-102133333D01*
X89825000Y-102166666D01*
X89858333Y-102200000D01*
X89891666Y-102266666D01*
X89891666Y-102400000D01*
X89925000Y-102466666D01*
X89958333Y-102500000D01*
X90025000Y-102533333D01*
X90158333Y-102533333D01*
X90225000Y-102500000D01*
X90258333Y-102466666D01*
X90291666Y-102400000D01*
X90291666Y-102266666D01*
X90258333Y-102200000D01*
X90225000Y-102166666D01*
X90158333Y-102133333D01*
X90025000Y-102133333D01*
X89958333Y-102166666D01*
X89925000Y-102200000D01*
X89891666Y-102266666D01*
X91441666Y-105366666D02*
X91441666Y-105766666D01*
X91441666Y-105566666D02*
X90741666Y-105566666D01*
X90841666Y-105633333D01*
X90908333Y-105700000D01*
X90941666Y-105766666D01*
X90741666Y-104933333D02*
X90741666Y-104866666D01*
X90775000Y-104800000D01*
X90808333Y-104766666D01*
X90875000Y-104733333D01*
X91008333Y-104700000D01*
X91175000Y-104700000D01*
X91308333Y-104733333D01*
X91375000Y-104766666D01*
X91408333Y-104800000D01*
X91441666Y-104866666D01*
X91441666Y-104933333D01*
X91408333Y-105000000D01*
X91375000Y-105033333D01*
X91308333Y-105066666D01*
X91175000Y-105100000D01*
X91008333Y-105100000D01*
X90875000Y-105066666D01*
X90808333Y-105033333D01*
X90775000Y-105000000D01*
X90741666Y-104933333D01*
X91441666Y-104400000D02*
X90741666Y-104400000D01*
X91175000Y-104333333D02*
X91441666Y-104133333D01*
X90975000Y-104133333D02*
X91241666Y-104400000D01*
X91441666Y-103366666D02*
X90975000Y-103000000D01*
X90975000Y-103366666D02*
X91441666Y-103000000D01*
X90975000Y-101900000D02*
X91441666Y-101900000D01*
X90708333Y-102066666D02*
X91208333Y-102233333D01*
X91208333Y-101800000D01*
D10*
X109714285Y-102200000D02*
X109742857Y-102228571D01*
X109771428Y-102314285D01*
X109771428Y-102371428D01*
X109742857Y-102457142D01*
X109685714Y-102514285D01*
X109628571Y-102542857D01*
X109514285Y-102571428D01*
X109428571Y-102571428D01*
X109314285Y-102542857D01*
X109257142Y-102514285D01*
X109200000Y-102457142D01*
X109171428Y-102371428D01*
X109171428Y-102314285D01*
X109200000Y-102228571D01*
X109228571Y-102200000D01*
X109771428Y-101657142D02*
X109771428Y-101942857D01*
X109171428Y-101942857D01*
X109771428Y-101457142D02*
X109171428Y-101457142D01*
X109771428Y-101114285D02*
X109428571Y-101371428D01*
X109171428Y-101114285D02*
X109514285Y-101457142D01*
X109171428Y-99200000D02*
X109171428Y-99485714D01*
X109457142Y-99514285D01*
X109428571Y-99485714D01*
X109400000Y-99428571D01*
X109400000Y-99285714D01*
X109428571Y-99228571D01*
X109457142Y-99200000D01*
X109514285Y-99171428D01*
X109657142Y-99171428D01*
X109714285Y-99200000D01*
X109742857Y-99228571D01*
X109771428Y-99285714D01*
X109771428Y-99428571D01*
X109742857Y-99485714D01*
X109714285Y-99514285D01*
X109171428Y-99000000D02*
X109771428Y-98800000D01*
X109171428Y-98600000D01*
X109771428Y-97485714D02*
X109171428Y-97485714D01*
X109171428Y-97342857D01*
X109200000Y-97257142D01*
X109257142Y-97200000D01*
X109314285Y-97171428D01*
X109428571Y-97142857D01*
X109514285Y-97142857D01*
X109628571Y-97171428D01*
X109685714Y-97200000D01*
X109742857Y-97257142D01*
X109771428Y-97342857D01*
X109771428Y-97485714D01*
X109600000Y-96914285D02*
X109600000Y-96628571D01*
X109771428Y-96971428D02*
X109171428Y-96771428D01*
X109771428Y-96571428D01*
X109171428Y-96457142D02*
X109171428Y-96114285D01*
X109771428Y-96285714D02*
X109171428Y-96285714D01*
X109200000Y-94685714D02*
X109171428Y-94742857D01*
X109171428Y-94828571D01*
X109200000Y-94914285D01*
X109257142Y-94971428D01*
X109314285Y-95000000D01*
X109428571Y-95028571D01*
X109514285Y-95028571D01*
X109628571Y-95000000D01*
X109685714Y-94971428D01*
X109742857Y-94914285D01*
X109771428Y-94828571D01*
X109771428Y-94771428D01*
X109742857Y-94685714D01*
X109714285Y-94657142D01*
X109514285Y-94657142D01*
X109514285Y-94771428D01*
X109771428Y-94400000D02*
X109171428Y-94400000D01*
X109771428Y-94057142D01*
X109171428Y-94057142D01*
X109771428Y-93771428D02*
X109171428Y-93771428D01*
X109171428Y-93628571D01*
X109200000Y-93542857D01*
X109257142Y-93485714D01*
X109314285Y-93457142D01*
X109428571Y-93428571D01*
X109514285Y-93428571D01*
X109628571Y-93457142D01*
X109685714Y-93485714D01*
X109742857Y-93542857D01*
X109771428Y-93628571D01*
X109771428Y-93771428D01*
D11*
X107357142Y-83726190D02*
X107023809Y-83488095D01*
X106785714Y-83726190D02*
X106785714Y-83226190D01*
X107166666Y-83226190D01*
X107261904Y-83250000D01*
X107309523Y-83273809D01*
X107357142Y-83321428D01*
X107357142Y-83392857D01*
X107309523Y-83440476D01*
X107261904Y-83464285D01*
X107166666Y-83488095D01*
X106785714Y-83488095D01*
X107785714Y-83464285D02*
X108119047Y-83464285D01*
X108261904Y-83726190D02*
X107785714Y-83726190D01*
X107785714Y-83226190D01*
X108261904Y-83226190D01*
X108690476Y-83726190D02*
X108690476Y-83226190D01*
X108928571Y-83226190D01*
X109071428Y-83250000D01*
X109166666Y-83297619D01*
X109214285Y-83345238D01*
X109261904Y-83440476D01*
X109261904Y-83511904D01*
X109214285Y-83607142D01*
X109166666Y-83654761D01*
X109071428Y-83702380D01*
X108928571Y-83726190D01*
X108690476Y-83726190D01*
X107357142Y-82976190D02*
X107023809Y-82738095D01*
X106785714Y-82976190D02*
X106785714Y-82476190D01*
X107166666Y-82476190D01*
X107261904Y-82500000D01*
X107309523Y-82523809D01*
X107357142Y-82571428D01*
X107357142Y-82642857D01*
X107309523Y-82690476D01*
X107261904Y-82714285D01*
X107166666Y-82738095D01*
X106785714Y-82738095D01*
X107785714Y-82714285D02*
X108119047Y-82714285D01*
X108261904Y-82976190D02*
X107785714Y-82976190D01*
X107785714Y-82476190D01*
X108261904Y-82476190D01*
X108690476Y-82976190D02*
X108690476Y-82476190D01*
X108928571Y-82476190D01*
X109071428Y-82500000D01*
X109166666Y-82547619D01*
X109214285Y-82595238D01*
X109261904Y-82690476D01*
X109261904Y-82761904D01*
X109214285Y-82857142D01*
X109166666Y-82904761D01*
X109071428Y-82952380D01*
X108928571Y-82976190D01*
X108690476Y-82976190D01*
D10*
X103152380Y-63492857D02*
X102676190Y-63826190D01*
X103152380Y-64064285D02*
X102152380Y-64064285D01*
X102152380Y-63683333D01*
X102200000Y-63588095D01*
X102247619Y-63540476D01*
X102342857Y-63492857D01*
X102485714Y-63492857D01*
X102580952Y-63540476D01*
X102628571Y-63588095D01*
X102676190Y-63683333D01*
X102676190Y-64064285D01*
X102628571Y-63064285D02*
X102628571Y-62730952D01*
X103152380Y-62588095D02*
X103152380Y-63064285D01*
X102152380Y-63064285D01*
X102152380Y-62588095D01*
X103152380Y-62159523D02*
X102152380Y-62159523D01*
X102152380Y-61921428D01*
X102200000Y-61778571D01*
X102295238Y-61683333D01*
X102390476Y-61635714D01*
X102580952Y-61588095D01*
X102723809Y-61588095D01*
X102914285Y-61635714D01*
X103009523Y-61683333D01*
X103104761Y-61778571D01*
X103152380Y-61921428D01*
X103152380Y-62159523D01*
X94357142Y-65452380D02*
X94023809Y-64976190D01*
X93785714Y-65452380D02*
X93785714Y-64452380D01*
X94166666Y-64452380D01*
X94261904Y-64500000D01*
X94309523Y-64547619D01*
X94357142Y-64642857D01*
X94357142Y-64785714D01*
X94309523Y-64880952D01*
X94261904Y-64928571D01*
X94166666Y-64976190D01*
X93785714Y-64976190D01*
X94785714Y-64928571D02*
X95119047Y-64928571D01*
X95261904Y-65452380D02*
X94785714Y-65452380D01*
X94785714Y-64452380D01*
X95261904Y-64452380D01*
X95690476Y-65452380D02*
X95690476Y-64452380D01*
X95928571Y-64452380D01*
X96071428Y-64500000D01*
X96166666Y-64595238D01*
X96214285Y-64690476D01*
X96261904Y-64880952D01*
X96261904Y-65023809D01*
X96214285Y-65214285D01*
X96166666Y-65309523D01*
X96071428Y-65404761D01*
X95928571Y-65452380D01*
X95690476Y-65452380D01*
D13*
X100000000Y-90000000D02*
X100000000Y-128000000D01*
X91110000Y-159510000D02*
X91110000Y-126490000D01*
X91110000Y-126490000D02*
X108890000Y-126490000D01*
X108890000Y-126490000D02*
X108890000Y-159510000D01*
X108890000Y-159510000D02*
X91110000Y-159510000D01*
X103810000Y-160780000D02*
X103810000Y-156970000D01*
X103810000Y-156970000D02*
X96190000Y-156970000D01*
X96190000Y-156970000D02*
X96190000Y-160780000D01*
X96190000Y-160780000D02*
X103810000Y-160780000D01*
X97670000Y-64330000D02*
X100330000Y-64330000D01*
X97670000Y-64270000D02*
X97670000Y-64330000D01*
X100330000Y-64270000D02*
X100330000Y-64330000D01*
X97670000Y-64270000D02*
X100330000Y-64270000D01*
X97670000Y-63000000D02*
X97670000Y-61670000D01*
X97670000Y-61670000D02*
X99000000Y-61670000D01*
X108870000Y-64330000D02*
X108870000Y-61670000D01*
X106270000Y-64330000D02*
X108870000Y-64330000D01*
X106270000Y-61670000D02*
X108870000Y-61670000D01*
X106270000Y-64330000D02*
X106270000Y-61670000D01*
X105000000Y-64330000D02*
X103670000Y-64330000D01*
X103670000Y-64330000D02*
X103670000Y-63000000D01*
X91130000Y-61670000D02*
X91130000Y-64330000D01*
X93730000Y-61670000D02*
X91130000Y-61670000D01*
X93730000Y-64330000D02*
X91130000Y-64330000D01*
X93730000Y-61670000D02*
X93730000Y-64330000D01*
X95000000Y-61670000D02*
X96330000Y-61670000D01*
X96330000Y-61670000D02*
X96330000Y-63000000D01*
X104530000Y-77330000D02*
X104530000Y-76000000D01*
X105860000Y-77330000D02*
X104530000Y-77330000D01*
X107130000Y-77330000D02*
X107130000Y-74670000D01*
X107130000Y-74670000D02*
X109730000Y-74670000D01*
X107130000Y-77330000D02*
X109730000Y-77330000D01*
X109730000Y-77330000D02*
X109730000Y-74670000D01*
X109230000Y-65890000D02*
X106570000Y-65890000D01*
X109230000Y-71030000D02*
X109230000Y-65890000D01*
X106570000Y-71030000D02*
X106570000Y-65890000D01*
X109230000Y-71030000D02*
X106570000Y-71030000D01*
X109230000Y-72300000D02*
X109230000Y-73630000D01*
X109230000Y-73630000D02*
X107900000Y-73630000D01*
X90000000Y-115810000D02*
X90000000Y-105810000D01*
X90000000Y-105810000D02*
X110000000Y-105810000D01*
X110000000Y-105810000D02*
X110000000Y-125810000D01*
X110000000Y-125810000D02*
X90000000Y-125810000D01*
X90000000Y-125810000D02*
X90000000Y-115810000D01*
X95155000Y-97940000D02*
X94225000Y-97940000D01*
X91995000Y-97940000D02*
X92925000Y-97940000D01*
X91995000Y-97940000D02*
X91995000Y-100100000D01*
X95155000Y-97940000D02*
X95155000Y-99400000D01*
X99890000Y-94425279D02*
X99890000Y-94099721D01*
X100910000Y-94425279D02*
X100910000Y-94099721D01*
X106670000Y-93070000D02*
X108000000Y-93070000D01*
X106670000Y-94400000D02*
X106670000Y-93070000D01*
X106670000Y-95670000D02*
X109330000Y-95670000D01*
X109330000Y-95670000D02*
X109330000Y-103350000D01*
X106670000Y-95670000D02*
X106670000Y-103350000D01*
X106670000Y-103350000D02*
X109330000Y-103350000D01*
X102670000Y-68130000D02*
X105330000Y-68130000D01*
X102670000Y-68070000D02*
X102670000Y-68130000D01*
X105330000Y-68070000D02*
X105330000Y-68130000D01*
X102670000Y-68070000D02*
X105330000Y-68070000D01*
X102670000Y-66800000D02*
X102670000Y-65470000D01*
X102670000Y-65470000D02*
X104000000Y-65470000D01*
X104690000Y-102300279D02*
X104690000Y-101974721D01*
X105710000Y-102300279D02*
X105710000Y-101974721D01*
X105710000Y-98350279D02*
X105710000Y-98024721D01*
X104690000Y-98350279D02*
X104690000Y-98024721D01*
X103300000Y-96410000D02*
X105100000Y-96410000D01*
X105100000Y-93190000D02*
X102650000Y-93190000D01*
X89250000Y-91500000D02*
X109950000Y-91500000D01*
X109950000Y-91500000D02*
X109950000Y-78500000D01*
X109950000Y-78500000D02*
X89250000Y-78500000D01*
X89250000Y-91500000D02*
X89250000Y-78500000D01*
X96250000Y-91500000D02*
X96250000Y-78500000D01*
X92560000Y-94849721D02*
X92560000Y-95175279D01*
X91540000Y-94849721D02*
X91540000Y-95175279D01*
X98960000Y-94450279D02*
X98960000Y-94124721D01*
X97940000Y-94450279D02*
X97940000Y-94124721D01*
X95549721Y-96810000D02*
X95875279Y-96810000D01*
X95549721Y-95790000D02*
X95875279Y-95790000D01*
X95540000Y-104175279D02*
X95540000Y-103849721D01*
X96560000Y-104175279D02*
X96560000Y-103849721D01*
X93462779Y-101960000D02*
X93137221Y-101960000D01*
X93462779Y-100940000D02*
X93137221Y-100940000D01*
X91840000Y-104225279D02*
X91840000Y-103899721D01*
X92860000Y-104225279D02*
X92860000Y-103899721D01*
X94760000Y-104162779D02*
X94760000Y-103837221D01*
X93740000Y-104162779D02*
X93740000Y-103837221D01*
X95475279Y-94090000D02*
X95149721Y-94090000D01*
X95475279Y-95110000D02*
X95149721Y-95110000D01*
D10*
X99238095Y-124672380D02*
X99238095Y-125481904D01*
X99285714Y-125577142D01*
X99333333Y-125624761D01*
X99428571Y-125672380D01*
X99619047Y-125672380D01*
X99714285Y-125624761D01*
X99761904Y-125577142D01*
X99809523Y-125481904D01*
X99809523Y-124672380D01*
X100238095Y-124767619D02*
X100285714Y-124720000D01*
X100380952Y-124672380D01*
X100619047Y-124672380D01*
X100714285Y-124720000D01*
X100761904Y-124767619D01*
X100809523Y-124862857D01*
X100809523Y-124958095D01*
X100761904Y-125100952D01*
X100190476Y-125672380D01*
X100809523Y-125672380D01*
X98666666Y-91052380D02*
X98333333Y-90576190D01*
X98095238Y-91052380D02*
X98095238Y-90052380D01*
X98476190Y-90052380D01*
X98571428Y-90100000D01*
X98619047Y-90147619D01*
X98666666Y-90242857D01*
X98666666Y-90385714D01*
X98619047Y-90480952D01*
X98571428Y-90528571D01*
X98476190Y-90576190D01*
X98095238Y-90576190D01*
X99095238Y-90528571D02*
X99428571Y-90528571D01*
X99571428Y-91052380D02*
X99095238Y-91052380D01*
X99095238Y-90052380D01*
X99571428Y-90052380D01*
X100333333Y-90528571D02*
X100000000Y-90528571D01*
X100000000Y-91052380D02*
X100000000Y-90052380D01*
X100476190Y-90052380D01*
X101000000Y-90052380D02*
X101000000Y-90290476D01*
X100761904Y-90195238D02*
X101000000Y-90290476D01*
X101238095Y-90195238D01*
X100857142Y-90480952D02*
X101000000Y-90290476D01*
X101142857Y-90480952D01*
X101761904Y-90052380D02*
X101761904Y-90290476D01*
X101523809Y-90195238D02*
X101761904Y-90290476D01*
X102000000Y-90195238D01*
X101619047Y-90480952D02*
X101761904Y-90290476D01*
X101904761Y-90480952D01*
D11*
X97130952Y-65452380D02*
X97130952Y-64452380D01*
X97321428Y-64452380D01*
X97369047Y-64500000D01*
X97392857Y-64547619D01*
X97416666Y-64642857D01*
X97416666Y-64785714D01*
X97392857Y-64880952D01*
X97369047Y-64928571D01*
X97321428Y-64976190D01*
X97130952Y-64976190D01*
X97726190Y-64452380D02*
X97821428Y-64452380D01*
X97869047Y-64500000D01*
X97916666Y-64595238D01*
X97940476Y-64785714D01*
X97940476Y-65119047D01*
X97916666Y-65309523D01*
X97869047Y-65404761D01*
X97821428Y-65452380D01*
X97726190Y-65452380D01*
X97678571Y-65404761D01*
X97630952Y-65309523D01*
X97607142Y-65119047D01*
X97607142Y-64785714D01*
X97630952Y-64595238D01*
X97678571Y-64500000D01*
X97726190Y-64452380D01*
X98107142Y-64452380D02*
X98226190Y-65452380D01*
X98321428Y-64738095D01*
X98416666Y-65452380D01*
X98535714Y-64452380D01*
X98726190Y-64928571D02*
X98892857Y-64928571D01*
X98964285Y-65452380D02*
X98726190Y-65452380D01*
X98726190Y-64452380D01*
X98964285Y-64452380D01*
X99464285Y-65452380D02*
X99297619Y-64976190D01*
X99178571Y-65452380D02*
X99178571Y-64452380D01*
X99369047Y-64452380D01*
X99416666Y-64500000D01*
X99440476Y-64547619D01*
X99464285Y-64642857D01*
X99464285Y-64785714D01*
X99440476Y-64880952D01*
X99416666Y-64928571D01*
X99369047Y-64976190D01*
X99178571Y-64976190D01*
X99559523Y-65547619D02*
X99940476Y-65547619D01*
X100035714Y-65404761D02*
X100107142Y-65452380D01*
X100226190Y-65452380D01*
X100273809Y-65404761D01*
X100297619Y-65357142D01*
X100321428Y-65261904D01*
X100321428Y-65166666D01*
X100297619Y-65071428D01*
X100273809Y-65023809D01*
X100226190Y-64976190D01*
X100130952Y-64928571D01*
X100083333Y-64880952D01*
X100059523Y-64833333D01*
X100035714Y-64738095D01*
X100035714Y-64642857D01*
X100059523Y-64547619D01*
X100083333Y-64500000D01*
X100130952Y-64452380D01*
X100250000Y-64452380D01*
X100321428Y-64500000D01*
X100488095Y-64452380D02*
X100607142Y-65452380D01*
X100702380Y-64738095D01*
X100797619Y-65452380D01*
X100916666Y-64452380D01*
D10*
X104230476Y-65452380D02*
X104230476Y-64452380D01*
X104611428Y-64452380D01*
X104706666Y-64500000D01*
X104754285Y-64547619D01*
X104801904Y-64642857D01*
X104801904Y-64785714D01*
X104754285Y-64880952D01*
X104706666Y-64928571D01*
X104611428Y-64976190D01*
X104230476Y-64976190D01*
X105420952Y-64452380D02*
X105611428Y-64452380D01*
X105706666Y-64500000D01*
X105801904Y-64595238D01*
X105849523Y-64785714D01*
X105849523Y-65119047D01*
X105801904Y-65309523D01*
X105706666Y-65404761D01*
X105611428Y-65452380D01*
X105420952Y-65452380D01*
X105325714Y-65404761D01*
X105230476Y-65309523D01*
X105182857Y-65119047D01*
X105182857Y-64785714D01*
X105230476Y-64595238D01*
X105325714Y-64500000D01*
X105420952Y-64452380D01*
X106182857Y-64452380D02*
X106420952Y-65452380D01*
X106611428Y-64738095D01*
X106801904Y-65452380D01*
X107040000Y-64452380D01*
X107420952Y-64928571D02*
X107754285Y-64928571D01*
X107897142Y-65452380D02*
X107420952Y-65452380D01*
X107420952Y-64452380D01*
X107897142Y-64452380D01*
X108897142Y-65452380D02*
X108563809Y-64976190D01*
X108325714Y-65452380D02*
X108325714Y-64452380D01*
X108706666Y-64452380D01*
X108801904Y-64500000D01*
X108849523Y-64547619D01*
X108897142Y-64642857D01*
X108897142Y-64785714D01*
X108849523Y-64880952D01*
X108801904Y-64928571D01*
X108706666Y-64976190D01*
X108325714Y-64976190D01*
X90452380Y-66261904D02*
X89452380Y-66261904D01*
X90166666Y-65928571D01*
X89452380Y-65595238D01*
X90452380Y-65595238D01*
X89452380Y-64928571D02*
X89452380Y-64738095D01*
X89500000Y-64642857D01*
X89595238Y-64547619D01*
X89785714Y-64500000D01*
X90119047Y-64500000D01*
X90309523Y-64547619D01*
X90404761Y-64642857D01*
X90452380Y-64738095D01*
X90452380Y-64928571D01*
X90404761Y-65023809D01*
X90309523Y-65119047D01*
X90119047Y-65166666D01*
X89785714Y-65166666D01*
X89595238Y-65119047D01*
X89500000Y-65023809D01*
X89452380Y-64928571D01*
X89452380Y-64214285D02*
X89452380Y-63642857D01*
X90452380Y-63928571D02*
X89452380Y-63928571D01*
X89452380Y-63119047D02*
X89452380Y-62928571D01*
X89500000Y-62833333D01*
X89595238Y-62738095D01*
X89785714Y-62690476D01*
X90119047Y-62690476D01*
X90309523Y-62738095D01*
X90404761Y-62833333D01*
X90452380Y-62928571D01*
X90452380Y-63119047D01*
X90404761Y-63214285D01*
X90309523Y-63309523D01*
X90119047Y-63357142D01*
X89785714Y-63357142D01*
X89595238Y-63309523D01*
X89500000Y-63214285D01*
X89452380Y-63119047D01*
X90452380Y-61690476D02*
X89976190Y-62023809D01*
X90452380Y-62261904D02*
X89452380Y-62261904D01*
X89452380Y-61880952D01*
X89500000Y-61785714D01*
X89547619Y-61738095D01*
X89642857Y-61690476D01*
X89785714Y-61690476D01*
X89880952Y-61738095D01*
X89928571Y-61785714D01*
X89976190Y-61880952D01*
X89976190Y-62261904D01*
X97730952Y-77604761D02*
X97873809Y-77652380D01*
X98111904Y-77652380D01*
X98207142Y-77604761D01*
X98254761Y-77557142D01*
X98302380Y-77461904D01*
X98302380Y-77366666D01*
X98254761Y-77271428D01*
X98207142Y-77223809D01*
X98111904Y-77176190D01*
X97921428Y-77128571D01*
X97826190Y-77080952D01*
X97778571Y-77033333D01*
X97730952Y-76938095D01*
X97730952Y-76842857D01*
X97778571Y-76747619D01*
X97826190Y-76700000D01*
X97921428Y-76652380D01*
X98159523Y-76652380D01*
X98302380Y-76700000D01*
X98730952Y-77652380D02*
X98730952Y-76652380D01*
X99111904Y-76652380D01*
X99207142Y-76700000D01*
X99254761Y-76747619D01*
X99302380Y-76842857D01*
X99302380Y-76985714D01*
X99254761Y-77080952D01*
X99207142Y-77128571D01*
X99111904Y-77176190D01*
X98730952Y-77176190D01*
X99730952Y-77128571D02*
X100064285Y-77128571D01*
X100207142Y-77652380D02*
X99730952Y-77652380D01*
X99730952Y-76652380D01*
X100207142Y-76652380D01*
X100588095Y-77366666D02*
X101064285Y-77366666D01*
X100492857Y-77652380D02*
X100826190Y-76652380D01*
X101159523Y-77652380D01*
X101492857Y-77652380D02*
X101492857Y-76652380D01*
X102064285Y-77652380D02*
X101635714Y-77080952D01*
X102064285Y-76652380D02*
X101492857Y-77223809D01*
X102492857Y-77128571D02*
X102826190Y-77128571D01*
X102969047Y-77652380D02*
X102492857Y-77652380D01*
X102492857Y-76652380D01*
X102969047Y-76652380D01*
X103969047Y-77652380D02*
X103635714Y-77176190D01*
X103397619Y-77652380D02*
X103397619Y-76652380D01*
X103778571Y-76652380D01*
X103873809Y-76700000D01*
X103921428Y-76747619D01*
X103969047Y-76842857D01*
X103969047Y-76985714D01*
X103921428Y-77080952D01*
X103873809Y-77128571D01*
X103778571Y-77176190D01*
X103397619Y-77176190D01*
X106352380Y-73300000D02*
X105352380Y-73300000D01*
X106352380Y-72728571D01*
X105352380Y-72728571D01*
X106304761Y-71871428D02*
X106352380Y-71966666D01*
X106352380Y-72157142D01*
X106304761Y-72252380D01*
X106209523Y-72300000D01*
X105828571Y-72300000D01*
X105733333Y-72252380D01*
X105685714Y-72157142D01*
X105685714Y-71966666D01*
X105733333Y-71871428D01*
X105828571Y-71823809D01*
X105923809Y-71823809D01*
X106019047Y-72300000D01*
X106352380Y-71252380D02*
X106304761Y-71347619D01*
X106257142Y-71395238D01*
X106161904Y-71442857D01*
X105876190Y-71442857D01*
X105780952Y-71395238D01*
X105733333Y-71347619D01*
X105685714Y-71252380D01*
X105685714Y-71109523D01*
X105733333Y-71014285D01*
X105780952Y-70966666D01*
X105876190Y-70919047D01*
X106161904Y-70919047D01*
X106257142Y-70966666D01*
X106304761Y-71014285D01*
X106352380Y-71109523D01*
X106352380Y-71252380D01*
X106352380Y-70490476D02*
X105352380Y-70490476D01*
X105352380Y-70109523D01*
X105400000Y-70014285D01*
X105447619Y-69966666D01*
X105542857Y-69919047D01*
X105685714Y-69919047D01*
X105780952Y-69966666D01*
X105828571Y-70014285D01*
X105876190Y-70109523D01*
X105876190Y-70490476D01*
X106352380Y-69490476D02*
X105685714Y-69490476D01*
X105352380Y-69490476D02*
X105400000Y-69538095D01*
X105447619Y-69490476D01*
X105400000Y-69442857D01*
X105352380Y-69490476D01*
X105447619Y-69490476D01*
X106352380Y-69109523D02*
X105685714Y-68585714D01*
X105685714Y-69109523D02*
X106352380Y-68585714D01*
X106304761Y-67823809D02*
X106352380Y-67919047D01*
X106352380Y-68109523D01*
X106304761Y-68204761D01*
X106209523Y-68252380D01*
X105828571Y-68252380D01*
X105733333Y-68204761D01*
X105685714Y-68109523D01*
X105685714Y-67919047D01*
X105733333Y-67823809D01*
X105828571Y-67776190D01*
X105923809Y-67776190D01*
X106019047Y-68252380D01*
X106352380Y-67204761D02*
X106304761Y-67300000D01*
X106209523Y-67347619D01*
X105352380Y-67347619D01*
X91622619Y-98795238D02*
X91575000Y-98890476D01*
X91479761Y-98985714D01*
X91336904Y-99128571D01*
X91289285Y-99223809D01*
X91289285Y-99319047D01*
X91527380Y-99271428D02*
X91479761Y-99366666D01*
X91384523Y-99461904D01*
X91194047Y-99509523D01*
X90860714Y-99509523D01*
X90670238Y-99461904D01*
X90575000Y-99366666D01*
X90527380Y-99271428D01*
X90527380Y-99080952D01*
X90575000Y-98985714D01*
X90670238Y-98890476D01*
X90860714Y-98842857D01*
X91194047Y-98842857D01*
X91384523Y-98890476D01*
X91479761Y-98985714D01*
X91527380Y-99080952D01*
X91527380Y-99271428D01*
X91527380Y-97890476D02*
X91527380Y-98461904D01*
X91527380Y-98176190D02*
X90527380Y-98176190D01*
X90670238Y-98271428D01*
X90765476Y-98366666D01*
X90813095Y-98461904D01*
X102057142Y-92966666D02*
X102104761Y-93014285D01*
X102152380Y-93157142D01*
X102152380Y-93252380D01*
X102104761Y-93395238D01*
X102009523Y-93490476D01*
X101914285Y-93538095D01*
X101723809Y-93585714D01*
X101580952Y-93585714D01*
X101390476Y-93538095D01*
X101295238Y-93490476D01*
X101200000Y-93395238D01*
X101152380Y-93252380D01*
X101152380Y-93157142D01*
X101200000Y-93014285D01*
X101247619Y-92966666D01*
X102152380Y-92014285D02*
X102152380Y-92585714D01*
X102152380Y-92300000D02*
X101152380Y-92300000D01*
X101295238Y-92395238D01*
X101390476Y-92490476D01*
X101438095Y-92585714D01*
X101152380Y-95861904D02*
X101152380Y-95766666D01*
X101200000Y-95671428D01*
X101247619Y-95623809D01*
X101342857Y-95576190D01*
X101533333Y-95528571D01*
X101771428Y-95528571D01*
X101961904Y-95576190D01*
X102057142Y-95623809D01*
X102104761Y-95671428D01*
X102152380Y-95766666D01*
X102152380Y-95861904D01*
X102104761Y-95957142D01*
X102057142Y-96004761D01*
X101961904Y-96052380D01*
X101771428Y-96100000D01*
X101533333Y-96100000D01*
X101342857Y-96052380D01*
X101247619Y-96004761D01*
X101200000Y-95957142D01*
X101152380Y-95861904D01*
X102057142Y-95100000D02*
X102104761Y-95052380D01*
X102152380Y-95100000D01*
X102104761Y-95147619D01*
X102057142Y-95100000D01*
X102152380Y-95100000D01*
X102152380Y-94100000D02*
X102152380Y-94671428D01*
X102152380Y-94385714D02*
X101152380Y-94385714D01*
X101295238Y-94480952D01*
X101390476Y-94576190D01*
X101438095Y-94671428D01*
X107766666Y-91952380D02*
X107766666Y-92666666D01*
X107719047Y-92809523D01*
X107623809Y-92904761D01*
X107480952Y-92952380D01*
X107385714Y-92952380D01*
X108385714Y-92380952D02*
X108290476Y-92333333D01*
X108242857Y-92285714D01*
X108195238Y-92190476D01*
X108195238Y-92142857D01*
X108242857Y-92047619D01*
X108290476Y-92000000D01*
X108385714Y-91952380D01*
X108576190Y-91952380D01*
X108671428Y-92000000D01*
X108719047Y-92047619D01*
X108766666Y-92142857D01*
X108766666Y-92190476D01*
X108719047Y-92285714D01*
X108671428Y-92333333D01*
X108576190Y-92380952D01*
X108385714Y-92380952D01*
X108290476Y-92428571D01*
X108242857Y-92476190D01*
X108195238Y-92571428D01*
X108195238Y-92761904D01*
X108242857Y-92857142D01*
X108290476Y-92904761D01*
X108385714Y-92952380D01*
X108576190Y-92952380D01*
X108671428Y-92904761D01*
X108719047Y-92857142D01*
X108766666Y-92761904D01*
X108766666Y-92571428D01*
X108719047Y-92476190D01*
X108671428Y-92428571D01*
X108576190Y-92380952D01*
X104033333Y-105052380D02*
X103461904Y-105052380D01*
X103747619Y-105052380D02*
X103747619Y-104052380D01*
X103652380Y-104195238D01*
X103557142Y-104290476D01*
X103461904Y-104338095D01*
X104414285Y-104147619D02*
X104461904Y-104100000D01*
X104557142Y-104052380D01*
X104795238Y-104052380D01*
X104890476Y-104100000D01*
X104938095Y-104147619D01*
X104985714Y-104242857D01*
X104985714Y-104338095D01*
X104938095Y-104480952D01*
X104366666Y-105052380D01*
X104985714Y-105052380D01*
X105604761Y-104052380D02*
X105700000Y-104052380D01*
X105795238Y-104100000D01*
X105842857Y-104147619D01*
X105890476Y-104242857D01*
X105938095Y-104433333D01*
X105938095Y-104671428D01*
X105890476Y-104861904D01*
X105842857Y-104957142D01*
X105795238Y-105004761D01*
X105700000Y-105052380D01*
X105604761Y-105052380D01*
X105509523Y-105004761D01*
X105461904Y-104957142D01*
X105414285Y-104861904D01*
X105366666Y-104671428D01*
X105366666Y-104433333D01*
X105414285Y-104242857D01*
X105461904Y-104147619D01*
X105509523Y-104100000D01*
X105604761Y-104052380D01*
X104011904Y-99847619D02*
X104059523Y-99800000D01*
X104154761Y-99752380D01*
X104392857Y-99752380D01*
X104488095Y-99800000D01*
X104535714Y-99847619D01*
X104583333Y-99942857D01*
X104583333Y-100038095D01*
X104535714Y-100180952D01*
X103964285Y-100752380D01*
X104583333Y-100752380D01*
X104916666Y-99752380D02*
X105583333Y-99752380D01*
X105154761Y-100752380D01*
X106154761Y-99752380D02*
X106250000Y-99752380D01*
X106345238Y-99800000D01*
X106392857Y-99847619D01*
X106440476Y-99942857D01*
X106488095Y-100133333D01*
X106488095Y-100371428D01*
X106440476Y-100561904D01*
X106392857Y-100657142D01*
X106345238Y-100704761D01*
X106250000Y-100752380D01*
X106154761Y-100752380D01*
X106059523Y-100704761D01*
X106011904Y-100657142D01*
X105964285Y-100561904D01*
X105916666Y-100371428D01*
X105916666Y-100133333D01*
X105964285Y-99942857D01*
X106011904Y-99847619D01*
X106059523Y-99800000D01*
X106154761Y-99752380D01*
X99742380Y-85761904D02*
X100551904Y-85761904D01*
X100647142Y-85714285D01*
X100694761Y-85666666D01*
X100742380Y-85571428D01*
X100742380Y-85380952D01*
X100694761Y-85285714D01*
X100647142Y-85238095D01*
X100551904Y-85190476D01*
X99742380Y-85190476D01*
X100075714Y-84285714D02*
X100742380Y-84285714D01*
X99694761Y-84523809D02*
X100409047Y-84761904D01*
X100409047Y-84142857D01*
X91072380Y-95679166D02*
X91072380Y-96250595D01*
X91072380Y-95964880D02*
X90072380Y-95964880D01*
X90215238Y-96060119D01*
X90310476Y-96155357D01*
X90358095Y-96250595D01*
X90167619Y-95298214D02*
X90120000Y-95250595D01*
X90072380Y-95155357D01*
X90072380Y-94917261D01*
X90120000Y-94822023D01*
X90167619Y-94774404D01*
X90262857Y-94726785D01*
X90358095Y-94726785D01*
X90500952Y-94774404D01*
X91072380Y-95345833D01*
X91072380Y-94726785D01*
X90072380Y-94107738D02*
X90072380Y-94012500D01*
X90120000Y-93917261D01*
X90167619Y-93869642D01*
X90262857Y-93822023D01*
X90453333Y-93774404D01*
X90691428Y-93774404D01*
X90881904Y-93822023D01*
X90977142Y-93869642D01*
X91024761Y-93917261D01*
X91072380Y-94012500D01*
X91072380Y-94107738D01*
X91024761Y-94202976D01*
X90977142Y-94250595D01*
X90881904Y-94298214D01*
X90691428Y-94345833D01*
X90453333Y-94345833D01*
X90262857Y-94298214D01*
X90167619Y-94250595D01*
X90120000Y-94202976D01*
X90072380Y-94107738D01*
X96454761Y-92952380D02*
X95883333Y-92952380D01*
X96169047Y-92952380D02*
X96169047Y-91952380D01*
X96073809Y-92095238D01*
X95978571Y-92190476D01*
X95883333Y-92238095D01*
X97073809Y-91952380D02*
X97169047Y-91952380D01*
X97264285Y-92000000D01*
X97311904Y-92047619D01*
X97359523Y-92142857D01*
X97407142Y-92333333D01*
X97407142Y-92571428D01*
X97359523Y-92761904D01*
X97311904Y-92857142D01*
X97264285Y-92904761D01*
X97169047Y-92952380D01*
X97073809Y-92952380D01*
X96978571Y-92904761D01*
X96930952Y-92857142D01*
X96883333Y-92761904D01*
X96835714Y-92571428D01*
X96835714Y-92333333D01*
X96883333Y-92142857D01*
X96930952Y-92047619D01*
X96978571Y-92000000D01*
X97073809Y-91952380D01*
X97835714Y-92952380D02*
X97835714Y-91952380D01*
X97930952Y-92571428D02*
X98216666Y-92952380D01*
X98216666Y-92285714D02*
X97835714Y-92666666D01*
X95045833Y-97952380D02*
X94474404Y-97952380D01*
X94760119Y-97952380D02*
X94760119Y-96952380D01*
X94664880Y-97095238D01*
X94569642Y-97190476D01*
X94474404Y-97238095D01*
X95426785Y-97047619D02*
X95474404Y-97000000D01*
X95569642Y-96952380D01*
X95807738Y-96952380D01*
X95902976Y-97000000D01*
X95950595Y-97047619D01*
X95998214Y-97142857D01*
X95998214Y-97238095D01*
X95950595Y-97380952D01*
X95379166Y-97952380D01*
X95998214Y-97952380D01*
X96617261Y-96952380D02*
X96712500Y-96952380D01*
X96807738Y-97000000D01*
X96855357Y-97047619D01*
X96902976Y-97142857D01*
X96950595Y-97333333D01*
X96950595Y-97571428D01*
X96902976Y-97761904D01*
X96855357Y-97857142D01*
X96807738Y-97904761D01*
X96712500Y-97952380D01*
X96617261Y-97952380D01*
X96522023Y-97904761D01*
X96474404Y-97857142D01*
X96426785Y-97761904D01*
X96379166Y-97571428D01*
X96379166Y-97333333D01*
X96426785Y-97142857D01*
X96474404Y-97047619D01*
X96522023Y-97000000D01*
X96617261Y-96952380D01*
X94154761Y-93752380D02*
X93583333Y-93752380D01*
X93869047Y-93752380D02*
X93869047Y-92752380D01*
X93773809Y-92895238D01*
X93678571Y-92990476D01*
X93583333Y-93038095D01*
X94773809Y-92752380D02*
X94869047Y-92752380D01*
X94964285Y-92800000D01*
X95011904Y-92847619D01*
X95059523Y-92942857D01*
X95107142Y-93133333D01*
X95107142Y-93371428D01*
X95059523Y-93561904D01*
X95011904Y-93657142D01*
X94964285Y-93704761D01*
X94869047Y-93752380D01*
X94773809Y-93752380D01*
X94678571Y-93704761D01*
X94630952Y-93657142D01*
X94583333Y-93561904D01*
X94535714Y-93371428D01*
X94535714Y-93133333D01*
X94583333Y-92942857D01*
X94630952Y-92847619D01*
X94678571Y-92800000D01*
X94773809Y-92752380D01*
X95535714Y-93752380D02*
X95535714Y-92752380D01*
X95630952Y-93371428D02*
X95916666Y-93752380D01*
X95916666Y-93085714D02*
X95535714Y-93466666D01*
M02*
