M48
; DRILL file {KiCad 5.1.2-f72e74a~84~ubuntu18.04.1} date 2019年08月29日 19時11分45秒
; FORMAT={-:-/ absolute / inch / decimal}
; #@! TF.CreationDate,2019-08-29T19:11:45+08:00
; #@! TF.GenerationSoftware,Kicad,Pcbnew,5.1.2-f72e74a~84~ubuntu18.04.1
; #@! TF.FileFunction,Plated,1,2,PTH
FMAT,2
INCH
T1C0.0118
T2C0.0157
T3C0.0276
T4C0.0295
T5C0.0394
T6C0.0472
T7C0.0591
%
G90
G05
T1
X3.7717Y-3.8543
X3.8307Y-3.7441
X3.8832Y-3.4997
X3.8937Y-3.0354
X3.9567Y-3.0394
X4.0551Y-3.0
X4.062Y-3.5108
X4.1071Y-3.7028
X4.1071Y-3.7827
T2
X3.578Y-4.1189
X3.5827Y-4.0617
X3.6772Y-4.0945
X3.6775Y-3.7835
X3.7008Y-4.2205
X3.7326Y-3.7682
X3.7441Y-4.1575
X3.8364Y-4.266
X3.8402Y-4.3061
X3.8413Y-3.7974
X3.8502Y-4.1415
X3.8773Y-4.2604
X3.9055Y-3.4747
X3.919Y-3.4161
X3.9954Y-3.689
X4.0133Y-3.752
X4.063Y-3.4409
X4.065Y-3.8169
X4.0732Y-3.4022
X4.0889Y-4.2405
X4.0945Y-4.2874
X4.1142Y-4.1614
X4.1306Y-4.1972
X4.1849Y-3.257
X4.1863Y-4.2621
X4.2Y-3.3
X4.2201Y-4.122
X4.2405Y-3.4354
X4.3024Y-3.6667
X4.3046Y-3.3976
X4.3091Y-3.3465
X4.3455Y-3.8031
T3
X3.9724Y-3.189
T4
X3.6299Y-2.6772
X3.6299Y-2.7559
X3.6299Y-2.8346
X3.6299Y-2.9134
T5
X4.1677Y-2.9921
X4.2677Y-2.9921
X4.248Y-2.6465
X4.248Y-2.7465
X4.248Y-2.8465
X4.252Y-3.7165
X4.252Y-3.8165
X4.252Y-3.9165
X4.252Y-4.0165
X4.1339Y-2.4803
X4.2339Y-2.4803
X3.8976Y-2.4803
X4.0945Y-2.6299
X3.6402Y-2.4803
X3.7402Y-2.4803
T6
X3.637Y-5.0299
X3.637Y-5.1299
X3.637Y-5.2299
X3.637Y-5.3299
X3.637Y-5.4299
X3.637Y-5.5299
X3.637Y-5.6299
X3.637Y-5.7299
X3.637Y-5.8299
X3.637Y-5.9299
X3.637Y-6.0299
X3.637Y-6.1299
X4.237Y-5.0299
X4.237Y-5.1299
X4.237Y-5.2299
X4.237Y-5.3299
X4.237Y-5.4299
X4.237Y-5.5299
X4.237Y-5.6299
X4.237Y-5.7299
X4.237Y-5.8299
X4.237Y-5.9299
X4.237Y-6.0299
X4.237Y-6.1299
T7
X3.637Y-4.2094
X3.637Y-4.3094
X3.637Y-4.4094
X3.637Y-4.5094
X3.637Y-4.6094
X3.637Y-4.7094
X3.637Y-4.8094
X3.637Y-4.9094
X4.237Y-4.2094
X4.237Y-4.3094
X4.237Y-4.4094
X4.237Y-4.5094
X4.237Y-4.6094
X4.237Y-4.7094
X4.237Y-4.8094
X4.237Y-4.9094
T0
M30
