G04 #@! TF.GenerationSoftware,KiCad,Pcbnew,5.1.2-f72e74a~84~ubuntu18.04.1*
G04 #@! TF.CreationDate,2019-08-30T12:47:12+08:00*
G04 #@! TF.ProjectId,handyfan,68616e64-7966-4616-9e2e-6b696361645f,rev?*
G04 #@! TF.SameCoordinates,Original*
G04 #@! TF.FileFunction,Profile,NP*
%FSLAX46Y46*%
G04 Gerber Fmt 4.6, Leading zero omitted, Abs format (unit mm)*
G04 Created by KiCad (PCBNEW 5.1.2-f72e74a~84~ubuntu18.04.1) date 2019-08-30 12:47:12*
%MOMM*%
%LPD*%
G04 APERTURE LIST*
%ADD10C,0.050000*%
G04 APERTURE END LIST*
D10*
X110000000Y-99500000D02*
X110000000Y-158000000D01*
X110000000Y-98500000D02*
X110000000Y-99500000D01*
X111000000Y-97000000D02*
X110000000Y-98500000D01*
X90000000Y-97000000D02*
X90000000Y-102000000D01*
X90000000Y-126000000D02*
X90000000Y-158000000D01*
X89000000Y-126000000D02*
X90000000Y-126000000D01*
X89000000Y-102000000D02*
X89000000Y-126000000D01*
X90000000Y-102000000D02*
X89000000Y-102000000D01*
X104500000Y-158000000D02*
X104500000Y-110500000D01*
X105000000Y-158000000D02*
X104500000Y-158000000D01*
X104000000Y-110000000D02*
X104500000Y-110500000D01*
X96000000Y-110000000D02*
X104000000Y-110000000D01*
X95500000Y-110500000D02*
X96000000Y-110000000D01*
X95500000Y-158000000D02*
X95500000Y-110500000D01*
X89000000Y-97000000D02*
X90000000Y-97000000D01*
X89000000Y-61000000D02*
X89000000Y-97000000D01*
X90000000Y-61000000D02*
X89000000Y-61000000D01*
X111000000Y-61000000D02*
X110000000Y-61000000D01*
X111000000Y-97000000D02*
X111000000Y-61000000D01*
X96000000Y-110000000D02*
X104000000Y-110000000D01*
X95500000Y-158000000D02*
X95000000Y-158000000D01*
X90000000Y-61000000D02*
X110000000Y-61000000D01*
X107000000Y-158000000D02*
X110000000Y-158000000D01*
X90000000Y-158000000D02*
X95000000Y-158000000D01*
X105000000Y-158000000D02*
X107000000Y-158000000D01*
M02*
