G04 #@! TF.GenerationSoftware,KiCad,Pcbnew,5.1.2-f72e74a~84~ubuntu18.04.1*
G04 #@! TF.CreationDate,2019-08-30T12:47:12+08:00*
G04 #@! TF.ProjectId,handyfan,68616e64-7966-4616-9e2e-6b696361645f,rev?*
G04 #@! TF.SameCoordinates,Original*
G04 #@! TF.FileFunction,Copper,L2,Bot*
G04 #@! TF.FilePolarity,Positive*
%FSLAX46Y46*%
G04 Gerber Fmt 4.6, Leading zero omitted, Abs format (unit mm)*
G04 Created by KiCad (PCBNEW 5.1.2-f72e74a~84~ubuntu18.04.1) date 2019-08-30 12:47:12*
%MOMM*%
%LPD*%
G04 APERTURE LIST*
%ADD10C,2.100000*%
%ADD11R,1.700000X1.700000*%
%ADD12O,1.700000X1.700000*%
%ADD13C,0.100000*%
%ADD14C,1.200000*%
%ADD15O,1.750000X1.200000*%
%ADD16O,2.000000X2.000000*%
%ADD17C,0.800000*%
%ADD18C,0.500000*%
%ADD19C,1.000000*%
%ADD20C,0.200000*%
%ADD21C,0.600000*%
%ADD22C,0.400000*%
%ADD23C,0.250000*%
G04 APERTURE END LIST*
D10*
X107620000Y-155700000D03*
X107620000Y-153160000D03*
X107620000Y-150620000D03*
X107620000Y-148080000D03*
X107620000Y-145540000D03*
X107620000Y-143000000D03*
X107620000Y-140460000D03*
X107620000Y-137920000D03*
X107620000Y-135380000D03*
X107620000Y-132840000D03*
X107620000Y-130300000D03*
X107620000Y-127760000D03*
X92380000Y-127760000D03*
X92380000Y-130300000D03*
X92380000Y-132840000D03*
X92380000Y-135380000D03*
X92380000Y-137920000D03*
X92380000Y-140460000D03*
X92380000Y-143000000D03*
X92380000Y-145540000D03*
X92380000Y-148080000D03*
X92380000Y-150620000D03*
X92380000Y-153160000D03*
X92380000Y-155700000D03*
D11*
X99000000Y-63000000D03*
X105000000Y-63000000D03*
D12*
X107540000Y-63000000D03*
D11*
X95000000Y-63000000D03*
D12*
X92460000Y-63000000D03*
X108400000Y-76000000D03*
D11*
X105860000Y-76000000D03*
X107900000Y-72300000D03*
D12*
X107900000Y-69760000D03*
X107900000Y-67220000D03*
D13*
G36*
X92849505Y-67401204D02*
G01*
X92873773Y-67404804D01*
X92897572Y-67410765D01*
X92920671Y-67419030D01*
X92942850Y-67429520D01*
X92963893Y-67442132D01*
X92983599Y-67456747D01*
X93001777Y-67473223D01*
X93018253Y-67491401D01*
X93032868Y-67511107D01*
X93045480Y-67532150D01*
X93055970Y-67554329D01*
X93064235Y-67577428D01*
X93070196Y-67601227D01*
X93073796Y-67625495D01*
X93075000Y-67649999D01*
X93075000Y-68350001D01*
X93073796Y-68374505D01*
X93070196Y-68398773D01*
X93064235Y-68422572D01*
X93055970Y-68445671D01*
X93045480Y-68467850D01*
X93032868Y-68488893D01*
X93018253Y-68508599D01*
X93001777Y-68526777D01*
X92983599Y-68543253D01*
X92963893Y-68557868D01*
X92942850Y-68570480D01*
X92920671Y-68580970D01*
X92897572Y-68589235D01*
X92873773Y-68595196D01*
X92849505Y-68598796D01*
X92825001Y-68600000D01*
X91574999Y-68600000D01*
X91550495Y-68598796D01*
X91526227Y-68595196D01*
X91502428Y-68589235D01*
X91479329Y-68580970D01*
X91457150Y-68570480D01*
X91436107Y-68557868D01*
X91416401Y-68543253D01*
X91398223Y-68526777D01*
X91381747Y-68508599D01*
X91367132Y-68488893D01*
X91354520Y-68467850D01*
X91344030Y-68445671D01*
X91335765Y-68422572D01*
X91329804Y-68398773D01*
X91326204Y-68374505D01*
X91325000Y-68350001D01*
X91325000Y-67649999D01*
X91326204Y-67625495D01*
X91329804Y-67601227D01*
X91335765Y-67577428D01*
X91344030Y-67554329D01*
X91354520Y-67532150D01*
X91367132Y-67511107D01*
X91381747Y-67491401D01*
X91398223Y-67473223D01*
X91416401Y-67456747D01*
X91436107Y-67442132D01*
X91457150Y-67429520D01*
X91479329Y-67419030D01*
X91502428Y-67410765D01*
X91526227Y-67404804D01*
X91550495Y-67401204D01*
X91574999Y-67400000D01*
X92825001Y-67400000D01*
X92849505Y-67401204D01*
X92849505Y-67401204D01*
G37*
D14*
X92200000Y-68000000D03*
D15*
X92200000Y-70000000D03*
X92200000Y-72000000D03*
X92200000Y-74000000D03*
D16*
X92380000Y-106920000D03*
X92380000Y-109460000D03*
X92380000Y-112000000D03*
X92380000Y-114540000D03*
X92380000Y-117080000D03*
X92380000Y-119620000D03*
X92380000Y-122160000D03*
X92380000Y-124700000D03*
X107620000Y-124700000D03*
X107620000Y-122160000D03*
X107620000Y-119620000D03*
X107620000Y-117080000D03*
X107620000Y-114540000D03*
X107620000Y-112000000D03*
X107620000Y-109460000D03*
X107620000Y-106920000D03*
D12*
X108000000Y-102020000D03*
X108000000Y-99480000D03*
X108000000Y-96940000D03*
D11*
X108000000Y-94400000D03*
X104000000Y-66800000D03*
D17*
X97568227Y-96453665D03*
X107189792Y-104700010D03*
D18*
X95800000Y-97900000D03*
X97300000Y-95100000D03*
D19*
X100900000Y-81000000D03*
D17*
X90879999Y-104620001D03*
X91000000Y-103167998D03*
D18*
X103000000Y-76200000D03*
D17*
X103251058Y-96948144D03*
X97540000Y-109375000D03*
X103859142Y-107709142D03*
X98483746Y-108213606D03*
X97794982Y-105194982D03*
D18*
X104319988Y-94049990D03*
X104319988Y-96080012D03*
X103175332Y-89175323D03*
X98633994Y-88892261D03*
D17*
X104916540Y-106609129D03*
X103459597Y-86416828D03*
X99542133Y-86770128D03*
D18*
X100500000Y-77200000D03*
D17*
X104500000Y-105700010D03*
X103200021Y-87397736D03*
X99199990Y-88258094D03*
D18*
X98900000Y-77100000D03*
D17*
X109450000Y-85000000D03*
X110375000Y-96600000D03*
X104000000Y-108900000D03*
X97444318Y-108355990D03*
X93408891Y-96100012D03*
X94806940Y-95711632D03*
X95099594Y-105599990D03*
X93400000Y-104000000D03*
X106332482Y-108257482D03*
X94000000Y-107200000D03*
X101938331Y-95299990D03*
X101482201Y-93699812D03*
X106295950Y-82726748D03*
X106680000Y-83820000D03*
X107708148Y-87260394D03*
X109281990Y-93133600D03*
X109336423Y-86299585D03*
D20*
X101700002Y-77199269D02*
X101000734Y-76500001D01*
X101000734Y-76500001D02*
X97867403Y-76500001D01*
X97867403Y-76500001D02*
X95499999Y-74132597D01*
X95499999Y-74132597D02*
X95499999Y-67550001D01*
X99000000Y-64050000D02*
X99000000Y-63000000D01*
X97568227Y-96453665D02*
X101700002Y-92321890D01*
X101700002Y-92321890D02*
X101700002Y-77199269D01*
X95499999Y-67550001D02*
X99000000Y-64050000D01*
D21*
X90750000Y-151530000D02*
X92380000Y-153160000D01*
X90750000Y-125120000D02*
X90750000Y-151530000D01*
X90965787Y-124700000D02*
X90750000Y-124915787D01*
X90750000Y-124915787D02*
X90750000Y-125120000D01*
X92380000Y-124700000D02*
X90965787Y-124700000D01*
X92380000Y-111730000D02*
X92380000Y-111410002D01*
X107620000Y-150620000D02*
X108380000Y-150620000D01*
X108380000Y-150620000D02*
X109170001Y-149829999D01*
X107620000Y-148080000D02*
X108700000Y-147000000D01*
X109170001Y-146529999D02*
X107620000Y-148080000D01*
X109170001Y-146170001D02*
X109170001Y-146529999D01*
X109170001Y-149829999D02*
X109170001Y-146170001D01*
X108619999Y-123680001D02*
X109170001Y-123129999D01*
X107620000Y-124700000D02*
X108619999Y-123700001D01*
X108619999Y-123700001D02*
X108619999Y-123680001D01*
X109170001Y-146170001D02*
X109170001Y-123129999D01*
X107540000Y-66860000D02*
X107900000Y-67220000D01*
X108000000Y-94400000D02*
X109020000Y-94400000D01*
X109170001Y-120439999D02*
X109120001Y-120389999D01*
X109170001Y-123129999D02*
X109170001Y-120439999D01*
X109381989Y-103009471D02*
X109381989Y-94761989D01*
X109120001Y-103271459D02*
X109381989Y-103009471D01*
X109381989Y-94761989D02*
X109110000Y-94490000D01*
X108400000Y-76000000D02*
X108400000Y-85831162D01*
X108935987Y-92072554D02*
X108000000Y-93008541D01*
X108000000Y-93008541D02*
X108000000Y-94400000D01*
X108935987Y-87231153D02*
X108935987Y-92072554D01*
X108436421Y-86731587D02*
X108935987Y-87231153D01*
X108436421Y-85867583D02*
X108436421Y-86731587D01*
X108400000Y-85831162D02*
X108436421Y-85867583D01*
X109120001Y-120389999D02*
X109120001Y-105179999D01*
X109120001Y-105179999D02*
X109120001Y-103271459D01*
X108640012Y-104700010D02*
X107755477Y-104700010D01*
X107755477Y-104700010D02*
X107189792Y-104700010D01*
X109120001Y-105179999D02*
X108640012Y-104700010D01*
D22*
X96768226Y-96069664D02*
X96768226Y-96531774D01*
X97646336Y-95653664D02*
X97184226Y-95653664D01*
X97184226Y-95653664D02*
X96768226Y-96069664D01*
X95800000Y-97500000D02*
X95800000Y-97900000D01*
X96768226Y-96531774D02*
X95800000Y-97500000D01*
D20*
X97646336Y-95446336D02*
X97646336Y-95653664D01*
X97300000Y-95100000D02*
X97646336Y-95446336D01*
D22*
X98700000Y-94600000D02*
X97646336Y-95653664D01*
X98700000Y-92759857D02*
X98700000Y-94600000D01*
X99999991Y-91459866D02*
X98700000Y-92759857D01*
X99999991Y-87443656D02*
X99999991Y-91459866D01*
X100900000Y-86543647D02*
X99999991Y-87443656D01*
X100900000Y-80700000D02*
X100900000Y-81000000D01*
X100900000Y-81000000D02*
X100900000Y-86543647D01*
D21*
X90879999Y-104620001D02*
X90879999Y-113039999D01*
X90879999Y-113039999D02*
X91380001Y-113540001D01*
X91380001Y-113540001D02*
X92380000Y-114540000D01*
X91932001Y-103567999D02*
X90879999Y-104620001D01*
X90824990Y-74455639D02*
X90824990Y-67175010D01*
X93851469Y-93599989D02*
X95738519Y-93599989D01*
X95738519Y-93599989D02*
X97300020Y-92038488D01*
X97300020Y-92038488D02*
X97300020Y-77961513D01*
X91899969Y-95551489D02*
X93851469Y-93599989D01*
X97300020Y-77961513D02*
X95938518Y-76600011D01*
X95938518Y-76600011D02*
X92969362Y-76600011D01*
X92969362Y-76600011D02*
X90824990Y-74455639D01*
X90824990Y-67175010D02*
X95000000Y-63000000D01*
X91899969Y-99000031D02*
X91899969Y-100335967D01*
X91899969Y-99586795D02*
X91899969Y-99000031D01*
X91899969Y-100335967D02*
X91932001Y-100367999D01*
X91932001Y-100367999D02*
X91932001Y-103567999D01*
X91932001Y-100099999D02*
X91932001Y-100367999D01*
X91899969Y-99000031D02*
X91899969Y-95551489D01*
X91000000Y-103167998D02*
X89979998Y-104188000D01*
X91380001Y-116080001D02*
X92380000Y-117080000D01*
X89979998Y-104188000D02*
X89979998Y-105052002D01*
X89979998Y-105052002D02*
X90079986Y-105151990D01*
X90079986Y-114779986D02*
X91380001Y-116080001D01*
X90079986Y-105151990D02*
X90079986Y-114779986D01*
X95707121Y-77500000D02*
X96500009Y-78292888D01*
X89985010Y-65474990D02*
X89985010Y-74747045D01*
X96500009Y-91707113D02*
X95407144Y-92799978D01*
X95407144Y-92799978D02*
X92200022Y-92799978D01*
X92737965Y-77500000D02*
X95707121Y-77500000D01*
X96500009Y-78292888D02*
X96500009Y-91707113D01*
X91000000Y-102602313D02*
X91000000Y-103167998D01*
X92460000Y-63000000D02*
X89985010Y-65474990D01*
X91000000Y-94000000D02*
X91000000Y-102602313D01*
X89985010Y-74747045D02*
X92737965Y-77500000D01*
X92200022Y-92799978D02*
X91000000Y-94000000D01*
D20*
X102750001Y-76449999D02*
X102750001Y-86557121D01*
X102199978Y-94299978D02*
X103251058Y-95351058D01*
X102750001Y-86557121D02*
X102400011Y-86907111D01*
X103251058Y-95351058D02*
X103251058Y-96382459D01*
X102400011Y-88607111D02*
X102199978Y-88807144D01*
X102199978Y-88807144D02*
X102199978Y-94299978D01*
X103251058Y-96382459D02*
X103251058Y-96948144D01*
X102400011Y-86907111D02*
X102400011Y-88607111D01*
X103000000Y-76200000D02*
X102750001Y-76449999D01*
X105900011Y-112820011D02*
X105900011Y-109034311D01*
X103859142Y-107709142D02*
X103850000Y-107700000D01*
X104574842Y-107709142D02*
X103859142Y-107709142D01*
X105900011Y-109034311D02*
X104574842Y-107709142D01*
X107620000Y-114540000D02*
X105900011Y-112820011D01*
D21*
X98483746Y-108996939D02*
X98483746Y-108779291D01*
X97540000Y-109375000D02*
X98105685Y-109375000D01*
X98483746Y-108779291D02*
X98483746Y-108213606D01*
X98483746Y-104699748D02*
X98483746Y-107647921D01*
X98105685Y-109375000D02*
X98483746Y-108996939D01*
X98483746Y-107647921D02*
X98483746Y-108213606D01*
D22*
X98194981Y-104794983D02*
X97794982Y-105194982D01*
X98290216Y-104699748D02*
X98194981Y-104794983D01*
X98483746Y-104699748D02*
X98290216Y-104699748D01*
D21*
X93675000Y-70000000D02*
X92200000Y-70000000D01*
X94899989Y-71224989D02*
X93675000Y-70000000D01*
X94899989Y-74381129D02*
X94899989Y-71224989D01*
X95400000Y-74881140D02*
X94899989Y-74381129D01*
X95400000Y-74930106D02*
X95400000Y-74881140D01*
X98100031Y-77630137D02*
X95400000Y-74930106D01*
X98100031Y-88899969D02*
X98100031Y-77630137D01*
D22*
X103100000Y-93500000D02*
X103174994Y-93574994D01*
X103100000Y-93500000D02*
X103769998Y-93500000D01*
X103769998Y-93500000D02*
X104069989Y-93799991D01*
X104069989Y-93799991D02*
X104319988Y-94049990D01*
X104319988Y-94049990D02*
X104319988Y-96080012D01*
X103100000Y-93500000D02*
X103175332Y-93424668D01*
X103175332Y-89528876D02*
X103175332Y-89175323D01*
X103175332Y-93424668D02*
X103175332Y-89528876D01*
X98107739Y-88892261D02*
X98280441Y-88892261D01*
X98280441Y-88892261D02*
X98633994Y-88892261D01*
X98100031Y-88899969D02*
X98107739Y-88892261D01*
D21*
X98100031Y-92369861D02*
X98100031Y-88899969D01*
X98483746Y-104699748D02*
X95200000Y-101416002D01*
X94699990Y-97909994D02*
X94699990Y-97110046D01*
X96549999Y-93919893D02*
X98100031Y-92369861D01*
X96549999Y-95260037D02*
X96549999Y-93919893D01*
X94699990Y-97110046D02*
X96549999Y-95260037D01*
X95200000Y-98410004D02*
X94699990Y-97909994D01*
X95200000Y-101416002D02*
X95200000Y-98410004D01*
D20*
X107480000Y-135380000D02*
X104825010Y-132725010D01*
X107620000Y-135380000D02*
X107480000Y-135380000D01*
X104825010Y-132725010D02*
X104825010Y-113974990D01*
X104825010Y-113974990D02*
X104825010Y-113874990D01*
X105800000Y-106761673D02*
X105800000Y-93045700D01*
X105252542Y-107309131D02*
X105800000Y-106761673D01*
X105800000Y-93045700D02*
X104709999Y-91955699D01*
X104580538Y-107309131D02*
X105252542Y-107309131D01*
X106025989Y-70431930D02*
X106697919Y-69760000D01*
X104134302Y-109600002D02*
X103663998Y-109600002D01*
X104825010Y-110290710D02*
X104134302Y-109600002D01*
X106025989Y-73594009D02*
X106025989Y-70431930D01*
X104825010Y-113974990D02*
X104825010Y-110290710D01*
X104280548Y-107009141D02*
X104580538Y-107309131D01*
X103159141Y-109095145D02*
X103159141Y-107373141D01*
X104709999Y-91955699D02*
X104709999Y-74909999D01*
X106697919Y-69760000D02*
X107900000Y-69760000D01*
X104709999Y-74909999D02*
X106025989Y-73594009D01*
X103523141Y-107009141D02*
X104280548Y-107009141D01*
X103159141Y-107373141D02*
X103523141Y-107009141D01*
X103663998Y-109600002D02*
X103159141Y-109095145D01*
X92200000Y-72000000D02*
X92475000Y-72000000D01*
X103459597Y-86416828D02*
X103900022Y-86857253D01*
X105316539Y-106209130D02*
X104916540Y-106609129D01*
X103859596Y-87774163D02*
X103859596Y-92775596D01*
X103900022Y-87733737D02*
X103859596Y-87774163D01*
X105316539Y-104880537D02*
X105316539Y-106209130D01*
X105024719Y-93940719D02*
X105024719Y-104588717D01*
X103900022Y-86857253D02*
X103900022Y-87733737D01*
X105024719Y-104588717D02*
X105316539Y-104880537D01*
X103859596Y-92775596D02*
X105024719Y-93940719D01*
X99542133Y-77707877D02*
X99550001Y-77700009D01*
X99550001Y-77700009D02*
X99800000Y-77450010D01*
X99542133Y-86770128D02*
X99542133Y-77707877D01*
X99800000Y-77450010D02*
X100249990Y-77450010D01*
X100249990Y-77450010D02*
X100500000Y-77200000D01*
X103699990Y-95234290D02*
X102599989Y-94134289D01*
X103200021Y-87963421D02*
X103200021Y-87397736D01*
X102599989Y-94134289D02*
X102599989Y-88972833D01*
X103200021Y-88372801D02*
X103200021Y-87963421D01*
X102599989Y-88972833D02*
X103200021Y-88372801D01*
X103699990Y-96407112D02*
X103699990Y-95234290D01*
X104500000Y-105700010D02*
X104500000Y-97207122D01*
X104500000Y-97207122D02*
X103699990Y-96407112D01*
X98799991Y-87858095D02*
X99199990Y-88258094D01*
X98799991Y-77850493D02*
X98799991Y-87858095D01*
X98888549Y-77761935D02*
X98799991Y-77850493D01*
X98799991Y-77850493D02*
X98751429Y-77801931D01*
X98751429Y-77801931D02*
X98751429Y-77794960D01*
X99001428Y-77544961D02*
X99055039Y-77544961D01*
X98900000Y-77600000D02*
X98923194Y-77623194D01*
X98900000Y-77100000D02*
X98900000Y-77600000D01*
X98751429Y-77794960D02*
X98923194Y-77623194D01*
X98923194Y-77623194D02*
X99001428Y-77544961D01*
X109450000Y-85273962D02*
X110214111Y-86038073D01*
X109450000Y-85000000D02*
X109450000Y-85273962D01*
X110214111Y-86038073D02*
X110214111Y-86338111D01*
X110214111Y-86338111D02*
X109982000Y-86570222D01*
X109982000Y-96012000D02*
X110236000Y-96266000D01*
X109982000Y-90932000D02*
X109982000Y-96012000D01*
X109982000Y-86570222D02*
X109982000Y-90932000D01*
X110236000Y-96266000D02*
X110236000Y-96461000D01*
X110236000Y-96461000D02*
X110375000Y-96600000D01*
X107620000Y-132840000D02*
X105500000Y-130720000D01*
X105225021Y-110825021D02*
X105500000Y-111100000D01*
X105225021Y-110125021D02*
X105225021Y-110825021D01*
X104000000Y-108900000D02*
X105225021Y-110125021D01*
X105500000Y-130720000D02*
X105500000Y-111100000D01*
X94599989Y-100499989D02*
X94599989Y-100300011D01*
X94599989Y-103498681D02*
X97444318Y-106343010D01*
X94599989Y-100499989D02*
X94599989Y-103498681D01*
X97444318Y-106343010D02*
X97444318Y-107790305D01*
X97444318Y-107790305D02*
X97444318Y-108355990D01*
X94599989Y-100499989D02*
X93408891Y-99308891D01*
X93408891Y-96665697D02*
X93408891Y-96100012D01*
X93408891Y-99308891D02*
X93408891Y-96665697D01*
X95499999Y-107199999D02*
X92700000Y-104400000D01*
X93106666Y-95311633D02*
X94406941Y-95311633D01*
X94299999Y-136000001D02*
X94299999Y-110100002D01*
X94406941Y-95311633D02*
X94806940Y-95711632D01*
X95499999Y-108900003D02*
X95499999Y-107199999D01*
X94534321Y-109865681D02*
X95499999Y-108900003D01*
X92380000Y-137920000D02*
X94299999Y-136000001D01*
X92700000Y-104400000D02*
X92700000Y-95718299D01*
X92700000Y-95718299D02*
X93106666Y-95311633D01*
X94299999Y-110100002D02*
X94534321Y-109865681D01*
D23*
X92380000Y-140460000D02*
X94675022Y-138164978D01*
D20*
X92380000Y-140460000D02*
X94700009Y-138139991D01*
X95499593Y-105999989D02*
X95099594Y-105599990D01*
X95900010Y-106400406D02*
X95499593Y-105999989D01*
X94700009Y-110265691D02*
X95900010Y-109065692D01*
X95900010Y-109065692D02*
X95900010Y-106400406D01*
X94700009Y-138139991D02*
X94700009Y-110265691D01*
X93429999Y-141950001D02*
X92380000Y-143000000D01*
D23*
X92380000Y-143000000D02*
X95149990Y-140230010D01*
X95149990Y-140230010D02*
X95149990Y-127223887D01*
X95149990Y-127223887D02*
X95149990Y-117550010D01*
X95149990Y-117550010D02*
X95149990Y-117350010D01*
D20*
X95149990Y-117550010D02*
X95149990Y-110550010D01*
X95149990Y-110550010D02*
X95149990Y-110390377D01*
X94535608Y-104000000D02*
X93965685Y-104000000D01*
X93965685Y-104000000D02*
X93400000Y-104000000D01*
X96400000Y-109140366D02*
X96400000Y-105864392D01*
X96400000Y-105864392D02*
X94535608Y-104000000D01*
X95149990Y-110550010D02*
X95149990Y-110390376D01*
X95149990Y-110390376D02*
X96400000Y-109140366D01*
D21*
X92380000Y-121890000D02*
X92380000Y-121880000D01*
D20*
X106300021Y-110680021D02*
X106300021Y-108855628D01*
X107620000Y-112000000D02*
X106300021Y-110680021D01*
X106332482Y-108823167D02*
X106332482Y-108257482D01*
X106300021Y-108855628D02*
X106332482Y-108823167D01*
X92380000Y-127760000D02*
X93680001Y-126459999D01*
X93680001Y-110219999D02*
X93680001Y-110019999D01*
X93680001Y-126459999D02*
X93680001Y-110219999D01*
X94000000Y-109700000D02*
X93850000Y-109850000D01*
X94000000Y-107200000D02*
X94000000Y-109700000D01*
X93680001Y-110019999D02*
X93850000Y-109850000D01*
X101938331Y-95299990D02*
X101482201Y-94843860D01*
X101482201Y-94843860D02*
X101482201Y-94265497D01*
X101482201Y-94265497D02*
X101482201Y-93699812D01*
X108000000Y-102500000D02*
X107305998Y-102500000D01*
X105979998Y-84156002D02*
X105979998Y-83042700D01*
X107448310Y-92137990D02*
X107448310Y-88602258D01*
X106200011Y-100220011D02*
X106200011Y-93386289D01*
X107448310Y-88602258D02*
X106307892Y-87461840D01*
X106307892Y-84483896D02*
X105979998Y-84156002D01*
X106307892Y-87461840D02*
X106307892Y-84483896D01*
X108000000Y-102020000D02*
X106200011Y-100220011D01*
X105979998Y-83042700D02*
X106295950Y-82726748D01*
X106200011Y-93386289D02*
X107448310Y-92137990D01*
X107008147Y-87596395D02*
X107008147Y-84148147D01*
X106849999Y-93309999D02*
X107949999Y-92209999D01*
X107008147Y-84148147D02*
X106680000Y-83820000D01*
X107949999Y-92209999D02*
X107949999Y-88538247D01*
X106849999Y-95789999D02*
X106849999Y-93309999D01*
X108000000Y-96940000D02*
X106849999Y-95789999D01*
X107949999Y-88538247D02*
X107008147Y-87596395D01*
X107708148Y-86694709D02*
X107708148Y-87260394D01*
X104000000Y-66800000D02*
X105050000Y-66800000D01*
X105050000Y-66800000D02*
X106830000Y-68580000D01*
X106830000Y-68580000D02*
X108422002Y-68580000D01*
X108422002Y-68580000D02*
X109050001Y-69207999D01*
X109050001Y-69207999D02*
X109050001Y-70273999D01*
X109050001Y-70273999D02*
X108413999Y-70910001D01*
X108413999Y-70910001D02*
X107049997Y-70910001D01*
X107708148Y-77010150D02*
X107708148Y-86694709D01*
X106426000Y-73066002D02*
X107010001Y-73650003D01*
X107049997Y-70910001D02*
X106426000Y-71533998D01*
X107010001Y-73650003D02*
X107010001Y-76312003D01*
X107010001Y-76312003D02*
X107708148Y-77010150D01*
X106426000Y-71533998D02*
X106426000Y-73066002D01*
X109535998Y-92879592D02*
X109281990Y-93133600D01*
X109535998Y-86499160D02*
X109535998Y-92879592D01*
X109336423Y-86299585D02*
X109535998Y-86499160D01*
M02*
