G04 #@! TF.GenerationSoftware,KiCad,Pcbnew,5.1.2-f72e74a~84~ubuntu18.04.1*
G04 #@! TF.CreationDate,2019-08-30T12:47:12+08:00*
G04 #@! TF.ProjectId,handyfan,68616e64-7966-4616-9e2e-6b696361645f,rev?*
G04 #@! TF.SameCoordinates,Original*
G04 #@! TF.FileFunction,Copper,L1,Top*
G04 #@! TF.FilePolarity,Positive*
%FSLAX46Y46*%
G04 Gerber Fmt 4.6, Leading zero omitted, Abs format (unit mm)*
G04 Created by KiCad (PCBNEW 5.1.2-f72e74a~84~ubuntu18.04.1) date 2019-08-30 12:47:12*
%MOMM*%
%LPD*%
G04 APERTURE LIST*
%ADD10C,2.100000*%
%ADD11R,1.700000X1.700000*%
%ADD12O,1.700000X1.700000*%
%ADD13C,0.100000*%
%ADD14C,1.200000*%
%ADD15O,1.750000X1.200000*%
%ADD16O,2.000000X2.000000*%
%ADD17R,0.800000X0.900000*%
%ADD18C,0.875000*%
%ADD19R,1.060000X0.650000*%
%ADD20C,0.900000*%
%ADD21C,0.800000*%
%ADD22C,0.500000*%
%ADD23C,1.000000*%
%ADD24C,0.200000*%
%ADD25C,0.600000*%
%ADD26C,0.400000*%
G04 APERTURE END LIST*
D10*
X107620000Y-155700000D03*
X107620000Y-153160000D03*
X107620000Y-150620000D03*
X107620000Y-148080000D03*
X107620000Y-145540000D03*
X107620000Y-143000000D03*
X107620000Y-140460000D03*
X107620000Y-137920000D03*
X107620000Y-135380000D03*
X107620000Y-132840000D03*
X107620000Y-130300000D03*
X107620000Y-127760000D03*
X92380000Y-127760000D03*
X92380000Y-130300000D03*
X92380000Y-132840000D03*
X92380000Y-135380000D03*
X92380000Y-137920000D03*
X92380000Y-140460000D03*
X92380000Y-143000000D03*
X92380000Y-145540000D03*
X92380000Y-148080000D03*
X92380000Y-150620000D03*
X92380000Y-153160000D03*
X92380000Y-155700000D03*
D11*
X99000000Y-63000000D03*
X105000000Y-63000000D03*
D12*
X107540000Y-63000000D03*
D11*
X95000000Y-63000000D03*
D12*
X92460000Y-63000000D03*
X108400000Y-76000000D03*
D11*
X105860000Y-76000000D03*
X107900000Y-72300000D03*
D12*
X107900000Y-69760000D03*
X107900000Y-67220000D03*
D13*
G36*
X92849505Y-67401204D02*
G01*
X92873773Y-67404804D01*
X92897572Y-67410765D01*
X92920671Y-67419030D01*
X92942850Y-67429520D01*
X92963893Y-67442132D01*
X92983599Y-67456747D01*
X93001777Y-67473223D01*
X93018253Y-67491401D01*
X93032868Y-67511107D01*
X93045480Y-67532150D01*
X93055970Y-67554329D01*
X93064235Y-67577428D01*
X93070196Y-67601227D01*
X93073796Y-67625495D01*
X93075000Y-67649999D01*
X93075000Y-68350001D01*
X93073796Y-68374505D01*
X93070196Y-68398773D01*
X93064235Y-68422572D01*
X93055970Y-68445671D01*
X93045480Y-68467850D01*
X93032868Y-68488893D01*
X93018253Y-68508599D01*
X93001777Y-68526777D01*
X92983599Y-68543253D01*
X92963893Y-68557868D01*
X92942850Y-68570480D01*
X92920671Y-68580970D01*
X92897572Y-68589235D01*
X92873773Y-68595196D01*
X92849505Y-68598796D01*
X92825001Y-68600000D01*
X91574999Y-68600000D01*
X91550495Y-68598796D01*
X91526227Y-68595196D01*
X91502428Y-68589235D01*
X91479329Y-68580970D01*
X91457150Y-68570480D01*
X91436107Y-68557868D01*
X91416401Y-68543253D01*
X91398223Y-68526777D01*
X91381747Y-68508599D01*
X91367132Y-68488893D01*
X91354520Y-68467850D01*
X91344030Y-68445671D01*
X91335765Y-68422572D01*
X91329804Y-68398773D01*
X91326204Y-68374505D01*
X91325000Y-68350001D01*
X91325000Y-67649999D01*
X91326204Y-67625495D01*
X91329804Y-67601227D01*
X91335765Y-67577428D01*
X91344030Y-67554329D01*
X91354520Y-67532150D01*
X91367132Y-67511107D01*
X91381747Y-67491401D01*
X91398223Y-67473223D01*
X91416401Y-67456747D01*
X91436107Y-67442132D01*
X91457150Y-67429520D01*
X91479329Y-67419030D01*
X91502428Y-67410765D01*
X91526227Y-67404804D01*
X91550495Y-67401204D01*
X91574999Y-67400000D01*
X92825001Y-67400000D01*
X92849505Y-67401204D01*
X92849505Y-67401204D01*
G37*
D14*
X92200000Y-68000000D03*
D15*
X92200000Y-70000000D03*
X92200000Y-72000000D03*
X92200000Y-74000000D03*
D16*
X92380000Y-106920000D03*
X92380000Y-109460000D03*
X92380000Y-112000000D03*
X92380000Y-114540000D03*
X92380000Y-117080000D03*
X92380000Y-119620000D03*
X92380000Y-122160000D03*
X92380000Y-124700000D03*
X107620000Y-124700000D03*
X107620000Y-122160000D03*
X107620000Y-119620000D03*
X107620000Y-117080000D03*
X107620000Y-114540000D03*
X107620000Y-112000000D03*
X107620000Y-109460000D03*
X107620000Y-106920000D03*
D17*
X92625000Y-99700000D03*
X94525000Y-99700000D03*
X93575000Y-97700000D03*
D13*
G36*
X100677691Y-94613553D02*
G01*
X100698926Y-94616703D01*
X100719750Y-94621919D01*
X100739962Y-94629151D01*
X100759368Y-94638330D01*
X100777781Y-94649366D01*
X100795024Y-94662154D01*
X100810930Y-94676570D01*
X100825346Y-94692476D01*
X100838134Y-94709719D01*
X100849170Y-94728132D01*
X100858349Y-94747538D01*
X100865581Y-94767750D01*
X100870797Y-94788574D01*
X100873947Y-94809809D01*
X100875000Y-94831250D01*
X100875000Y-95268750D01*
X100873947Y-95290191D01*
X100870797Y-95311426D01*
X100865581Y-95332250D01*
X100858349Y-95352462D01*
X100849170Y-95371868D01*
X100838134Y-95390281D01*
X100825346Y-95407524D01*
X100810930Y-95423430D01*
X100795024Y-95437846D01*
X100777781Y-95450634D01*
X100759368Y-95461670D01*
X100739962Y-95470849D01*
X100719750Y-95478081D01*
X100698926Y-95483297D01*
X100677691Y-95486447D01*
X100656250Y-95487500D01*
X100143750Y-95487500D01*
X100122309Y-95486447D01*
X100101074Y-95483297D01*
X100080250Y-95478081D01*
X100060038Y-95470849D01*
X100040632Y-95461670D01*
X100022219Y-95450634D01*
X100004976Y-95437846D01*
X99989070Y-95423430D01*
X99974654Y-95407524D01*
X99961866Y-95390281D01*
X99950830Y-95371868D01*
X99941651Y-95352462D01*
X99934419Y-95332250D01*
X99929203Y-95311426D01*
X99926053Y-95290191D01*
X99925000Y-95268750D01*
X99925000Y-94831250D01*
X99926053Y-94809809D01*
X99929203Y-94788574D01*
X99934419Y-94767750D01*
X99941651Y-94747538D01*
X99950830Y-94728132D01*
X99961866Y-94709719D01*
X99974654Y-94692476D01*
X99989070Y-94676570D01*
X100004976Y-94662154D01*
X100022219Y-94649366D01*
X100040632Y-94638330D01*
X100060038Y-94629151D01*
X100080250Y-94621919D01*
X100101074Y-94616703D01*
X100122309Y-94613553D01*
X100143750Y-94612500D01*
X100656250Y-94612500D01*
X100677691Y-94613553D01*
X100677691Y-94613553D01*
G37*
D18*
X100400000Y-95050000D03*
D13*
G36*
X100677691Y-93038553D02*
G01*
X100698926Y-93041703D01*
X100719750Y-93046919D01*
X100739962Y-93054151D01*
X100759368Y-93063330D01*
X100777781Y-93074366D01*
X100795024Y-93087154D01*
X100810930Y-93101570D01*
X100825346Y-93117476D01*
X100838134Y-93134719D01*
X100849170Y-93153132D01*
X100858349Y-93172538D01*
X100865581Y-93192750D01*
X100870797Y-93213574D01*
X100873947Y-93234809D01*
X100875000Y-93256250D01*
X100875000Y-93693750D01*
X100873947Y-93715191D01*
X100870797Y-93736426D01*
X100865581Y-93757250D01*
X100858349Y-93777462D01*
X100849170Y-93796868D01*
X100838134Y-93815281D01*
X100825346Y-93832524D01*
X100810930Y-93848430D01*
X100795024Y-93862846D01*
X100777781Y-93875634D01*
X100759368Y-93886670D01*
X100739962Y-93895849D01*
X100719750Y-93903081D01*
X100698926Y-93908297D01*
X100677691Y-93911447D01*
X100656250Y-93912500D01*
X100143750Y-93912500D01*
X100122309Y-93911447D01*
X100101074Y-93908297D01*
X100080250Y-93903081D01*
X100060038Y-93895849D01*
X100040632Y-93886670D01*
X100022219Y-93875634D01*
X100004976Y-93862846D01*
X99989070Y-93848430D01*
X99974654Y-93832524D01*
X99961866Y-93815281D01*
X99950830Y-93796868D01*
X99941651Y-93777462D01*
X99934419Y-93757250D01*
X99929203Y-93736426D01*
X99926053Y-93715191D01*
X99925000Y-93693750D01*
X99925000Y-93256250D01*
X99926053Y-93234809D01*
X99929203Y-93213574D01*
X99934419Y-93192750D01*
X99941651Y-93172538D01*
X99950830Y-93153132D01*
X99961866Y-93134719D01*
X99974654Y-93117476D01*
X99989070Y-93101570D01*
X100004976Y-93087154D01*
X100022219Y-93074366D01*
X100040632Y-93063330D01*
X100060038Y-93054151D01*
X100080250Y-93046919D01*
X100101074Y-93041703D01*
X100122309Y-93038553D01*
X100143750Y-93037500D01*
X100656250Y-93037500D01*
X100677691Y-93038553D01*
X100677691Y-93038553D01*
G37*
D18*
X100400000Y-93475000D03*
D12*
X108000000Y-102020000D03*
X108000000Y-99480000D03*
X108000000Y-96940000D03*
D11*
X108000000Y-94400000D03*
X104000000Y-66800000D03*
D13*
G36*
X105477691Y-102488553D02*
G01*
X105498926Y-102491703D01*
X105519750Y-102496919D01*
X105539962Y-102504151D01*
X105559368Y-102513330D01*
X105577781Y-102524366D01*
X105595024Y-102537154D01*
X105610930Y-102551570D01*
X105625346Y-102567476D01*
X105638134Y-102584719D01*
X105649170Y-102603132D01*
X105658349Y-102622538D01*
X105665581Y-102642750D01*
X105670797Y-102663574D01*
X105673947Y-102684809D01*
X105675000Y-102706250D01*
X105675000Y-103143750D01*
X105673947Y-103165191D01*
X105670797Y-103186426D01*
X105665581Y-103207250D01*
X105658349Y-103227462D01*
X105649170Y-103246868D01*
X105638134Y-103265281D01*
X105625346Y-103282524D01*
X105610930Y-103298430D01*
X105595024Y-103312846D01*
X105577781Y-103325634D01*
X105559368Y-103336670D01*
X105539962Y-103345849D01*
X105519750Y-103353081D01*
X105498926Y-103358297D01*
X105477691Y-103361447D01*
X105456250Y-103362500D01*
X104943750Y-103362500D01*
X104922309Y-103361447D01*
X104901074Y-103358297D01*
X104880250Y-103353081D01*
X104860038Y-103345849D01*
X104840632Y-103336670D01*
X104822219Y-103325634D01*
X104804976Y-103312846D01*
X104789070Y-103298430D01*
X104774654Y-103282524D01*
X104761866Y-103265281D01*
X104750830Y-103246868D01*
X104741651Y-103227462D01*
X104734419Y-103207250D01*
X104729203Y-103186426D01*
X104726053Y-103165191D01*
X104725000Y-103143750D01*
X104725000Y-102706250D01*
X104726053Y-102684809D01*
X104729203Y-102663574D01*
X104734419Y-102642750D01*
X104741651Y-102622538D01*
X104750830Y-102603132D01*
X104761866Y-102584719D01*
X104774654Y-102567476D01*
X104789070Y-102551570D01*
X104804976Y-102537154D01*
X104822219Y-102524366D01*
X104840632Y-102513330D01*
X104860038Y-102504151D01*
X104880250Y-102496919D01*
X104901074Y-102491703D01*
X104922309Y-102488553D01*
X104943750Y-102487500D01*
X105456250Y-102487500D01*
X105477691Y-102488553D01*
X105477691Y-102488553D01*
G37*
D18*
X105200000Y-102925000D03*
D13*
G36*
X105477691Y-100913553D02*
G01*
X105498926Y-100916703D01*
X105519750Y-100921919D01*
X105539962Y-100929151D01*
X105559368Y-100938330D01*
X105577781Y-100949366D01*
X105595024Y-100962154D01*
X105610930Y-100976570D01*
X105625346Y-100992476D01*
X105638134Y-101009719D01*
X105649170Y-101028132D01*
X105658349Y-101047538D01*
X105665581Y-101067750D01*
X105670797Y-101088574D01*
X105673947Y-101109809D01*
X105675000Y-101131250D01*
X105675000Y-101568750D01*
X105673947Y-101590191D01*
X105670797Y-101611426D01*
X105665581Y-101632250D01*
X105658349Y-101652462D01*
X105649170Y-101671868D01*
X105638134Y-101690281D01*
X105625346Y-101707524D01*
X105610930Y-101723430D01*
X105595024Y-101737846D01*
X105577781Y-101750634D01*
X105559368Y-101761670D01*
X105539962Y-101770849D01*
X105519750Y-101778081D01*
X105498926Y-101783297D01*
X105477691Y-101786447D01*
X105456250Y-101787500D01*
X104943750Y-101787500D01*
X104922309Y-101786447D01*
X104901074Y-101783297D01*
X104880250Y-101778081D01*
X104860038Y-101770849D01*
X104840632Y-101761670D01*
X104822219Y-101750634D01*
X104804976Y-101737846D01*
X104789070Y-101723430D01*
X104774654Y-101707524D01*
X104761866Y-101690281D01*
X104750830Y-101671868D01*
X104741651Y-101652462D01*
X104734419Y-101632250D01*
X104729203Y-101611426D01*
X104726053Y-101590191D01*
X104725000Y-101568750D01*
X104725000Y-101131250D01*
X104726053Y-101109809D01*
X104729203Y-101088574D01*
X104734419Y-101067750D01*
X104741651Y-101047538D01*
X104750830Y-101028132D01*
X104761866Y-101009719D01*
X104774654Y-100992476D01*
X104789070Y-100976570D01*
X104804976Y-100962154D01*
X104822219Y-100949366D01*
X104840632Y-100938330D01*
X104860038Y-100929151D01*
X104880250Y-100921919D01*
X104901074Y-100916703D01*
X104922309Y-100913553D01*
X104943750Y-100912500D01*
X105456250Y-100912500D01*
X105477691Y-100913553D01*
X105477691Y-100913553D01*
G37*
D18*
X105200000Y-101350000D03*
D13*
G36*
X105477691Y-96963553D02*
G01*
X105498926Y-96966703D01*
X105519750Y-96971919D01*
X105539962Y-96979151D01*
X105559368Y-96988330D01*
X105577781Y-96999366D01*
X105595024Y-97012154D01*
X105610930Y-97026570D01*
X105625346Y-97042476D01*
X105638134Y-97059719D01*
X105649170Y-97078132D01*
X105658349Y-97097538D01*
X105665581Y-97117750D01*
X105670797Y-97138574D01*
X105673947Y-97159809D01*
X105675000Y-97181250D01*
X105675000Y-97618750D01*
X105673947Y-97640191D01*
X105670797Y-97661426D01*
X105665581Y-97682250D01*
X105658349Y-97702462D01*
X105649170Y-97721868D01*
X105638134Y-97740281D01*
X105625346Y-97757524D01*
X105610930Y-97773430D01*
X105595024Y-97787846D01*
X105577781Y-97800634D01*
X105559368Y-97811670D01*
X105539962Y-97820849D01*
X105519750Y-97828081D01*
X105498926Y-97833297D01*
X105477691Y-97836447D01*
X105456250Y-97837500D01*
X104943750Y-97837500D01*
X104922309Y-97836447D01*
X104901074Y-97833297D01*
X104880250Y-97828081D01*
X104860038Y-97820849D01*
X104840632Y-97811670D01*
X104822219Y-97800634D01*
X104804976Y-97787846D01*
X104789070Y-97773430D01*
X104774654Y-97757524D01*
X104761866Y-97740281D01*
X104750830Y-97721868D01*
X104741651Y-97702462D01*
X104734419Y-97682250D01*
X104729203Y-97661426D01*
X104726053Y-97640191D01*
X104725000Y-97618750D01*
X104725000Y-97181250D01*
X104726053Y-97159809D01*
X104729203Y-97138574D01*
X104734419Y-97117750D01*
X104741651Y-97097538D01*
X104750830Y-97078132D01*
X104761866Y-97059719D01*
X104774654Y-97042476D01*
X104789070Y-97026570D01*
X104804976Y-97012154D01*
X104822219Y-96999366D01*
X104840632Y-96988330D01*
X104860038Y-96979151D01*
X104880250Y-96971919D01*
X104901074Y-96966703D01*
X104922309Y-96963553D01*
X104943750Y-96962500D01*
X105456250Y-96962500D01*
X105477691Y-96963553D01*
X105477691Y-96963553D01*
G37*
D18*
X105200000Y-97400000D03*
D13*
G36*
X105477691Y-98538553D02*
G01*
X105498926Y-98541703D01*
X105519750Y-98546919D01*
X105539962Y-98554151D01*
X105559368Y-98563330D01*
X105577781Y-98574366D01*
X105595024Y-98587154D01*
X105610930Y-98601570D01*
X105625346Y-98617476D01*
X105638134Y-98634719D01*
X105649170Y-98653132D01*
X105658349Y-98672538D01*
X105665581Y-98692750D01*
X105670797Y-98713574D01*
X105673947Y-98734809D01*
X105675000Y-98756250D01*
X105675000Y-99193750D01*
X105673947Y-99215191D01*
X105670797Y-99236426D01*
X105665581Y-99257250D01*
X105658349Y-99277462D01*
X105649170Y-99296868D01*
X105638134Y-99315281D01*
X105625346Y-99332524D01*
X105610930Y-99348430D01*
X105595024Y-99362846D01*
X105577781Y-99375634D01*
X105559368Y-99386670D01*
X105539962Y-99395849D01*
X105519750Y-99403081D01*
X105498926Y-99408297D01*
X105477691Y-99411447D01*
X105456250Y-99412500D01*
X104943750Y-99412500D01*
X104922309Y-99411447D01*
X104901074Y-99408297D01*
X104880250Y-99403081D01*
X104860038Y-99395849D01*
X104840632Y-99386670D01*
X104822219Y-99375634D01*
X104804976Y-99362846D01*
X104789070Y-99348430D01*
X104774654Y-99332524D01*
X104761866Y-99315281D01*
X104750830Y-99296868D01*
X104741651Y-99277462D01*
X104734419Y-99257250D01*
X104729203Y-99236426D01*
X104726053Y-99215191D01*
X104725000Y-99193750D01*
X104725000Y-98756250D01*
X104726053Y-98734809D01*
X104729203Y-98713574D01*
X104734419Y-98692750D01*
X104741651Y-98672538D01*
X104750830Y-98653132D01*
X104761866Y-98634719D01*
X104774654Y-98617476D01*
X104789070Y-98601570D01*
X104804976Y-98587154D01*
X104822219Y-98574366D01*
X104840632Y-98563330D01*
X104860038Y-98554151D01*
X104880250Y-98546919D01*
X104901074Y-98541703D01*
X104922309Y-98538553D01*
X104943750Y-98537500D01*
X105456250Y-98537500D01*
X105477691Y-98538553D01*
X105477691Y-98538553D01*
G37*
D18*
X105200000Y-98975000D03*
D19*
X103100000Y-93850000D03*
X103100000Y-94800000D03*
X103100000Y-95750000D03*
X105300000Y-95750000D03*
X105300000Y-93850000D03*
D13*
G36*
X98767054Y-90001083D02*
G01*
X98788895Y-90004323D01*
X98810314Y-90009688D01*
X98831104Y-90017127D01*
X98851064Y-90026568D01*
X98870003Y-90037919D01*
X98887738Y-90051073D01*
X98904099Y-90065901D01*
X98918927Y-90082262D01*
X98932081Y-90099997D01*
X98943432Y-90118936D01*
X98952873Y-90138896D01*
X98960312Y-90159686D01*
X98965677Y-90181105D01*
X98968917Y-90202946D01*
X98970000Y-90225000D01*
X98970000Y-91775000D01*
X98968917Y-91797054D01*
X98965677Y-91818895D01*
X98960312Y-91840314D01*
X98952873Y-91861104D01*
X98943432Y-91881064D01*
X98932081Y-91900003D01*
X98918927Y-91917738D01*
X98904099Y-91934099D01*
X98887738Y-91948927D01*
X98870003Y-91962081D01*
X98851064Y-91973432D01*
X98831104Y-91982873D01*
X98810314Y-91990312D01*
X98788895Y-91995677D01*
X98767054Y-91998917D01*
X98745000Y-92000000D01*
X98295000Y-92000000D01*
X98272946Y-91998917D01*
X98251105Y-91995677D01*
X98229686Y-91990312D01*
X98208896Y-91982873D01*
X98188936Y-91973432D01*
X98169997Y-91962081D01*
X98152262Y-91948927D01*
X98135901Y-91934099D01*
X98121073Y-91917738D01*
X98107919Y-91900003D01*
X98096568Y-91881064D01*
X98087127Y-91861104D01*
X98079688Y-91840314D01*
X98074323Y-91818895D01*
X98071083Y-91797054D01*
X98070000Y-91775000D01*
X98070000Y-90225000D01*
X98071083Y-90202946D01*
X98074323Y-90181105D01*
X98079688Y-90159686D01*
X98087127Y-90138896D01*
X98096568Y-90118936D01*
X98107919Y-90099997D01*
X98121073Y-90082262D01*
X98135901Y-90065901D01*
X98152262Y-90051073D01*
X98169997Y-90037919D01*
X98188936Y-90026568D01*
X98208896Y-90017127D01*
X98229686Y-90009688D01*
X98251105Y-90004323D01*
X98272946Y-90001083D01*
X98295000Y-90000000D01*
X98745000Y-90000000D01*
X98767054Y-90001083D01*
X98767054Y-90001083D01*
G37*
D20*
X98520000Y-91000000D03*
D13*
G36*
X100037054Y-90001083D02*
G01*
X100058895Y-90004323D01*
X100080314Y-90009688D01*
X100101104Y-90017127D01*
X100121064Y-90026568D01*
X100140003Y-90037919D01*
X100157738Y-90051073D01*
X100174099Y-90065901D01*
X100188927Y-90082262D01*
X100202081Y-90099997D01*
X100213432Y-90118936D01*
X100222873Y-90138896D01*
X100230312Y-90159686D01*
X100235677Y-90181105D01*
X100238917Y-90202946D01*
X100240000Y-90225000D01*
X100240000Y-91775000D01*
X100238917Y-91797054D01*
X100235677Y-91818895D01*
X100230312Y-91840314D01*
X100222873Y-91861104D01*
X100213432Y-91881064D01*
X100202081Y-91900003D01*
X100188927Y-91917738D01*
X100174099Y-91934099D01*
X100157738Y-91948927D01*
X100140003Y-91962081D01*
X100121064Y-91973432D01*
X100101104Y-91982873D01*
X100080314Y-91990312D01*
X100058895Y-91995677D01*
X100037054Y-91998917D01*
X100015000Y-92000000D01*
X99565000Y-92000000D01*
X99542946Y-91998917D01*
X99521105Y-91995677D01*
X99499686Y-91990312D01*
X99478896Y-91982873D01*
X99458936Y-91973432D01*
X99439997Y-91962081D01*
X99422262Y-91948927D01*
X99405901Y-91934099D01*
X99391073Y-91917738D01*
X99377919Y-91900003D01*
X99366568Y-91881064D01*
X99357127Y-91861104D01*
X99349688Y-91840314D01*
X99344323Y-91818895D01*
X99341083Y-91797054D01*
X99340000Y-91775000D01*
X99340000Y-90225000D01*
X99341083Y-90202946D01*
X99344323Y-90181105D01*
X99349688Y-90159686D01*
X99357127Y-90138896D01*
X99366568Y-90118936D01*
X99377919Y-90099997D01*
X99391073Y-90082262D01*
X99405901Y-90065901D01*
X99422262Y-90051073D01*
X99439997Y-90037919D01*
X99458936Y-90026568D01*
X99478896Y-90017127D01*
X99499686Y-90009688D01*
X99521105Y-90004323D01*
X99542946Y-90001083D01*
X99565000Y-90000000D01*
X100015000Y-90000000D01*
X100037054Y-90001083D01*
X100037054Y-90001083D01*
G37*
D20*
X99790000Y-91000000D03*
D13*
G36*
X101307054Y-90001083D02*
G01*
X101328895Y-90004323D01*
X101350314Y-90009688D01*
X101371104Y-90017127D01*
X101391064Y-90026568D01*
X101410003Y-90037919D01*
X101427738Y-90051073D01*
X101444099Y-90065901D01*
X101458927Y-90082262D01*
X101472081Y-90099997D01*
X101483432Y-90118936D01*
X101492873Y-90138896D01*
X101500312Y-90159686D01*
X101505677Y-90181105D01*
X101508917Y-90202946D01*
X101510000Y-90225000D01*
X101510000Y-91775000D01*
X101508917Y-91797054D01*
X101505677Y-91818895D01*
X101500312Y-91840314D01*
X101492873Y-91861104D01*
X101483432Y-91881064D01*
X101472081Y-91900003D01*
X101458927Y-91917738D01*
X101444099Y-91934099D01*
X101427738Y-91948927D01*
X101410003Y-91962081D01*
X101391064Y-91973432D01*
X101371104Y-91982873D01*
X101350314Y-91990312D01*
X101328895Y-91995677D01*
X101307054Y-91998917D01*
X101285000Y-92000000D01*
X100835000Y-92000000D01*
X100812946Y-91998917D01*
X100791105Y-91995677D01*
X100769686Y-91990312D01*
X100748896Y-91982873D01*
X100728936Y-91973432D01*
X100709997Y-91962081D01*
X100692262Y-91948927D01*
X100675901Y-91934099D01*
X100661073Y-91917738D01*
X100647919Y-91900003D01*
X100636568Y-91881064D01*
X100627127Y-91861104D01*
X100619688Y-91840314D01*
X100614323Y-91818895D01*
X100611083Y-91797054D01*
X100610000Y-91775000D01*
X100610000Y-90225000D01*
X100611083Y-90202946D01*
X100614323Y-90181105D01*
X100619688Y-90159686D01*
X100627127Y-90138896D01*
X100636568Y-90118936D01*
X100647919Y-90099997D01*
X100661073Y-90082262D01*
X100675901Y-90065901D01*
X100692262Y-90051073D01*
X100709997Y-90037919D01*
X100728936Y-90026568D01*
X100748896Y-90017127D01*
X100769686Y-90009688D01*
X100791105Y-90004323D01*
X100812946Y-90001083D01*
X100835000Y-90000000D01*
X101285000Y-90000000D01*
X101307054Y-90001083D01*
X101307054Y-90001083D01*
G37*
D20*
X101060000Y-91000000D03*
D13*
G36*
X102577054Y-90001083D02*
G01*
X102598895Y-90004323D01*
X102620314Y-90009688D01*
X102641104Y-90017127D01*
X102661064Y-90026568D01*
X102680003Y-90037919D01*
X102697738Y-90051073D01*
X102714099Y-90065901D01*
X102728927Y-90082262D01*
X102742081Y-90099997D01*
X102753432Y-90118936D01*
X102762873Y-90138896D01*
X102770312Y-90159686D01*
X102775677Y-90181105D01*
X102778917Y-90202946D01*
X102780000Y-90225000D01*
X102780000Y-91775000D01*
X102778917Y-91797054D01*
X102775677Y-91818895D01*
X102770312Y-91840314D01*
X102762873Y-91861104D01*
X102753432Y-91881064D01*
X102742081Y-91900003D01*
X102728927Y-91917738D01*
X102714099Y-91934099D01*
X102697738Y-91948927D01*
X102680003Y-91962081D01*
X102661064Y-91973432D01*
X102641104Y-91982873D01*
X102620314Y-91990312D01*
X102598895Y-91995677D01*
X102577054Y-91998917D01*
X102555000Y-92000000D01*
X102105000Y-92000000D01*
X102082946Y-91998917D01*
X102061105Y-91995677D01*
X102039686Y-91990312D01*
X102018896Y-91982873D01*
X101998936Y-91973432D01*
X101979997Y-91962081D01*
X101962262Y-91948927D01*
X101945901Y-91934099D01*
X101931073Y-91917738D01*
X101917919Y-91900003D01*
X101906568Y-91881064D01*
X101897127Y-91861104D01*
X101889688Y-91840314D01*
X101884323Y-91818895D01*
X101881083Y-91797054D01*
X101880000Y-91775000D01*
X101880000Y-90225000D01*
X101881083Y-90202946D01*
X101884323Y-90181105D01*
X101889688Y-90159686D01*
X101897127Y-90138896D01*
X101906568Y-90118936D01*
X101917919Y-90099997D01*
X101931073Y-90082262D01*
X101945901Y-90065901D01*
X101962262Y-90051073D01*
X101979997Y-90037919D01*
X101998936Y-90026568D01*
X102018896Y-90017127D01*
X102039686Y-90009688D01*
X102061105Y-90004323D01*
X102082946Y-90001083D01*
X102105000Y-90000000D01*
X102555000Y-90000000D01*
X102577054Y-90001083D01*
X102577054Y-90001083D01*
G37*
D20*
X102330000Y-91000000D03*
D13*
G36*
X103847054Y-90001083D02*
G01*
X103868895Y-90004323D01*
X103890314Y-90009688D01*
X103911104Y-90017127D01*
X103931064Y-90026568D01*
X103950003Y-90037919D01*
X103967738Y-90051073D01*
X103984099Y-90065901D01*
X103998927Y-90082262D01*
X104012081Y-90099997D01*
X104023432Y-90118936D01*
X104032873Y-90138896D01*
X104040312Y-90159686D01*
X104045677Y-90181105D01*
X104048917Y-90202946D01*
X104050000Y-90225000D01*
X104050000Y-91775000D01*
X104048917Y-91797054D01*
X104045677Y-91818895D01*
X104040312Y-91840314D01*
X104032873Y-91861104D01*
X104023432Y-91881064D01*
X104012081Y-91900003D01*
X103998927Y-91917738D01*
X103984099Y-91934099D01*
X103967738Y-91948927D01*
X103950003Y-91962081D01*
X103931064Y-91973432D01*
X103911104Y-91982873D01*
X103890314Y-91990312D01*
X103868895Y-91995677D01*
X103847054Y-91998917D01*
X103825000Y-92000000D01*
X103375000Y-92000000D01*
X103352946Y-91998917D01*
X103331105Y-91995677D01*
X103309686Y-91990312D01*
X103288896Y-91982873D01*
X103268936Y-91973432D01*
X103249997Y-91962081D01*
X103232262Y-91948927D01*
X103215901Y-91934099D01*
X103201073Y-91917738D01*
X103187919Y-91900003D01*
X103176568Y-91881064D01*
X103167127Y-91861104D01*
X103159688Y-91840314D01*
X103154323Y-91818895D01*
X103151083Y-91797054D01*
X103150000Y-91775000D01*
X103150000Y-90225000D01*
X103151083Y-90202946D01*
X103154323Y-90181105D01*
X103159688Y-90159686D01*
X103167127Y-90138896D01*
X103176568Y-90118936D01*
X103187919Y-90099997D01*
X103201073Y-90082262D01*
X103215901Y-90065901D01*
X103232262Y-90051073D01*
X103249997Y-90037919D01*
X103268936Y-90026568D01*
X103288896Y-90017127D01*
X103309686Y-90009688D01*
X103331105Y-90004323D01*
X103352946Y-90001083D01*
X103375000Y-90000000D01*
X103825000Y-90000000D01*
X103847054Y-90001083D01*
X103847054Y-90001083D01*
G37*
D20*
X103600000Y-91000000D03*
D13*
G36*
X105117054Y-90001083D02*
G01*
X105138895Y-90004323D01*
X105160314Y-90009688D01*
X105181104Y-90017127D01*
X105201064Y-90026568D01*
X105220003Y-90037919D01*
X105237738Y-90051073D01*
X105254099Y-90065901D01*
X105268927Y-90082262D01*
X105282081Y-90099997D01*
X105293432Y-90118936D01*
X105302873Y-90138896D01*
X105310312Y-90159686D01*
X105315677Y-90181105D01*
X105318917Y-90202946D01*
X105320000Y-90225000D01*
X105320000Y-91775000D01*
X105318917Y-91797054D01*
X105315677Y-91818895D01*
X105310312Y-91840314D01*
X105302873Y-91861104D01*
X105293432Y-91881064D01*
X105282081Y-91900003D01*
X105268927Y-91917738D01*
X105254099Y-91934099D01*
X105237738Y-91948927D01*
X105220003Y-91962081D01*
X105201064Y-91973432D01*
X105181104Y-91982873D01*
X105160314Y-91990312D01*
X105138895Y-91995677D01*
X105117054Y-91998917D01*
X105095000Y-92000000D01*
X104645000Y-92000000D01*
X104622946Y-91998917D01*
X104601105Y-91995677D01*
X104579686Y-91990312D01*
X104558896Y-91982873D01*
X104538936Y-91973432D01*
X104519997Y-91962081D01*
X104502262Y-91948927D01*
X104485901Y-91934099D01*
X104471073Y-91917738D01*
X104457919Y-91900003D01*
X104446568Y-91881064D01*
X104437127Y-91861104D01*
X104429688Y-91840314D01*
X104424323Y-91818895D01*
X104421083Y-91797054D01*
X104420000Y-91775000D01*
X104420000Y-90225000D01*
X104421083Y-90202946D01*
X104424323Y-90181105D01*
X104429688Y-90159686D01*
X104437127Y-90138896D01*
X104446568Y-90118936D01*
X104457919Y-90099997D01*
X104471073Y-90082262D01*
X104485901Y-90065901D01*
X104502262Y-90051073D01*
X104519997Y-90037919D01*
X104538936Y-90026568D01*
X104558896Y-90017127D01*
X104579686Y-90009688D01*
X104601105Y-90004323D01*
X104622946Y-90001083D01*
X104645000Y-90000000D01*
X105095000Y-90000000D01*
X105117054Y-90001083D01*
X105117054Y-90001083D01*
G37*
D20*
X104870000Y-91000000D03*
D13*
G36*
X106387054Y-90001083D02*
G01*
X106408895Y-90004323D01*
X106430314Y-90009688D01*
X106451104Y-90017127D01*
X106471064Y-90026568D01*
X106490003Y-90037919D01*
X106507738Y-90051073D01*
X106524099Y-90065901D01*
X106538927Y-90082262D01*
X106552081Y-90099997D01*
X106563432Y-90118936D01*
X106572873Y-90138896D01*
X106580312Y-90159686D01*
X106585677Y-90181105D01*
X106588917Y-90202946D01*
X106590000Y-90225000D01*
X106590000Y-91775000D01*
X106588917Y-91797054D01*
X106585677Y-91818895D01*
X106580312Y-91840314D01*
X106572873Y-91861104D01*
X106563432Y-91881064D01*
X106552081Y-91900003D01*
X106538927Y-91917738D01*
X106524099Y-91934099D01*
X106507738Y-91948927D01*
X106490003Y-91962081D01*
X106471064Y-91973432D01*
X106451104Y-91982873D01*
X106430314Y-91990312D01*
X106408895Y-91995677D01*
X106387054Y-91998917D01*
X106365000Y-92000000D01*
X105915000Y-92000000D01*
X105892946Y-91998917D01*
X105871105Y-91995677D01*
X105849686Y-91990312D01*
X105828896Y-91982873D01*
X105808936Y-91973432D01*
X105789997Y-91962081D01*
X105772262Y-91948927D01*
X105755901Y-91934099D01*
X105741073Y-91917738D01*
X105727919Y-91900003D01*
X105716568Y-91881064D01*
X105707127Y-91861104D01*
X105699688Y-91840314D01*
X105694323Y-91818895D01*
X105691083Y-91797054D01*
X105690000Y-91775000D01*
X105690000Y-90225000D01*
X105691083Y-90202946D01*
X105694323Y-90181105D01*
X105699688Y-90159686D01*
X105707127Y-90138896D01*
X105716568Y-90118936D01*
X105727919Y-90099997D01*
X105741073Y-90082262D01*
X105755901Y-90065901D01*
X105772262Y-90051073D01*
X105789997Y-90037919D01*
X105808936Y-90026568D01*
X105828896Y-90017127D01*
X105849686Y-90009688D01*
X105871105Y-90004323D01*
X105892946Y-90001083D01*
X105915000Y-90000000D01*
X106365000Y-90000000D01*
X106387054Y-90001083D01*
X106387054Y-90001083D01*
G37*
D20*
X106140000Y-91000000D03*
D13*
G36*
X101307054Y-78001083D02*
G01*
X101328895Y-78004323D01*
X101350314Y-78009688D01*
X101371104Y-78017127D01*
X101391064Y-78026568D01*
X101410003Y-78037919D01*
X101427738Y-78051073D01*
X101444099Y-78065901D01*
X101458927Y-78082262D01*
X101472081Y-78099997D01*
X101483432Y-78118936D01*
X101492873Y-78138896D01*
X101500312Y-78159686D01*
X101505677Y-78181105D01*
X101508917Y-78202946D01*
X101510000Y-78225000D01*
X101510000Y-79775000D01*
X101508917Y-79797054D01*
X101505677Y-79818895D01*
X101500312Y-79840314D01*
X101492873Y-79861104D01*
X101483432Y-79881064D01*
X101472081Y-79900003D01*
X101458927Y-79917738D01*
X101444099Y-79934099D01*
X101427738Y-79948927D01*
X101410003Y-79962081D01*
X101391064Y-79973432D01*
X101371104Y-79982873D01*
X101350314Y-79990312D01*
X101328895Y-79995677D01*
X101307054Y-79998917D01*
X101285000Y-80000000D01*
X100835000Y-80000000D01*
X100812946Y-79998917D01*
X100791105Y-79995677D01*
X100769686Y-79990312D01*
X100748896Y-79982873D01*
X100728936Y-79973432D01*
X100709997Y-79962081D01*
X100692262Y-79948927D01*
X100675901Y-79934099D01*
X100661073Y-79917738D01*
X100647919Y-79900003D01*
X100636568Y-79881064D01*
X100627127Y-79861104D01*
X100619688Y-79840314D01*
X100614323Y-79818895D01*
X100611083Y-79797054D01*
X100610000Y-79775000D01*
X100610000Y-78225000D01*
X100611083Y-78202946D01*
X100614323Y-78181105D01*
X100619688Y-78159686D01*
X100627127Y-78138896D01*
X100636568Y-78118936D01*
X100647919Y-78099997D01*
X100661073Y-78082262D01*
X100675901Y-78065901D01*
X100692262Y-78051073D01*
X100709997Y-78037919D01*
X100728936Y-78026568D01*
X100748896Y-78017127D01*
X100769686Y-78009688D01*
X100791105Y-78004323D01*
X100812946Y-78001083D01*
X100835000Y-78000000D01*
X101285000Y-78000000D01*
X101307054Y-78001083D01*
X101307054Y-78001083D01*
G37*
D20*
X101060000Y-79000000D03*
D13*
G36*
X103847054Y-78001083D02*
G01*
X103868895Y-78004323D01*
X103890314Y-78009688D01*
X103911104Y-78017127D01*
X103931064Y-78026568D01*
X103950003Y-78037919D01*
X103967738Y-78051073D01*
X103984099Y-78065901D01*
X103998927Y-78082262D01*
X104012081Y-78099997D01*
X104023432Y-78118936D01*
X104032873Y-78138896D01*
X104040312Y-78159686D01*
X104045677Y-78181105D01*
X104048917Y-78202946D01*
X104050000Y-78225000D01*
X104050000Y-79775000D01*
X104048917Y-79797054D01*
X104045677Y-79818895D01*
X104040312Y-79840314D01*
X104032873Y-79861104D01*
X104023432Y-79881064D01*
X104012081Y-79900003D01*
X103998927Y-79917738D01*
X103984099Y-79934099D01*
X103967738Y-79948927D01*
X103950003Y-79962081D01*
X103931064Y-79973432D01*
X103911104Y-79982873D01*
X103890314Y-79990312D01*
X103868895Y-79995677D01*
X103847054Y-79998917D01*
X103825000Y-80000000D01*
X103375000Y-80000000D01*
X103352946Y-79998917D01*
X103331105Y-79995677D01*
X103309686Y-79990312D01*
X103288896Y-79982873D01*
X103268936Y-79973432D01*
X103249997Y-79962081D01*
X103232262Y-79948927D01*
X103215901Y-79934099D01*
X103201073Y-79917738D01*
X103187919Y-79900003D01*
X103176568Y-79881064D01*
X103167127Y-79861104D01*
X103159688Y-79840314D01*
X103154323Y-79818895D01*
X103151083Y-79797054D01*
X103150000Y-79775000D01*
X103150000Y-78225000D01*
X103151083Y-78202946D01*
X103154323Y-78181105D01*
X103159688Y-78159686D01*
X103167127Y-78138896D01*
X103176568Y-78118936D01*
X103187919Y-78099997D01*
X103201073Y-78082262D01*
X103215901Y-78065901D01*
X103232262Y-78051073D01*
X103249997Y-78037919D01*
X103268936Y-78026568D01*
X103288896Y-78017127D01*
X103309686Y-78009688D01*
X103331105Y-78004323D01*
X103352946Y-78001083D01*
X103375000Y-78000000D01*
X103825000Y-78000000D01*
X103847054Y-78001083D01*
X103847054Y-78001083D01*
G37*
D20*
X103600000Y-79000000D03*
D13*
G36*
X106387054Y-78001083D02*
G01*
X106408895Y-78004323D01*
X106430314Y-78009688D01*
X106451104Y-78017127D01*
X106471064Y-78026568D01*
X106490003Y-78037919D01*
X106507738Y-78051073D01*
X106524099Y-78065901D01*
X106538927Y-78082262D01*
X106552081Y-78099997D01*
X106563432Y-78118936D01*
X106572873Y-78138896D01*
X106580312Y-78159686D01*
X106585677Y-78181105D01*
X106588917Y-78202946D01*
X106590000Y-78225000D01*
X106590000Y-79775000D01*
X106588917Y-79797054D01*
X106585677Y-79818895D01*
X106580312Y-79840314D01*
X106572873Y-79861104D01*
X106563432Y-79881064D01*
X106552081Y-79900003D01*
X106538927Y-79917738D01*
X106524099Y-79934099D01*
X106507738Y-79948927D01*
X106490003Y-79962081D01*
X106471064Y-79973432D01*
X106451104Y-79982873D01*
X106430314Y-79990312D01*
X106408895Y-79995677D01*
X106387054Y-79998917D01*
X106365000Y-80000000D01*
X105915000Y-80000000D01*
X105892946Y-79998917D01*
X105871105Y-79995677D01*
X105849686Y-79990312D01*
X105828896Y-79982873D01*
X105808936Y-79973432D01*
X105789997Y-79962081D01*
X105772262Y-79948927D01*
X105755901Y-79934099D01*
X105741073Y-79917738D01*
X105727919Y-79900003D01*
X105716568Y-79881064D01*
X105707127Y-79861104D01*
X105699688Y-79840314D01*
X105694323Y-79818895D01*
X105691083Y-79797054D01*
X105690000Y-79775000D01*
X105690000Y-78225000D01*
X105691083Y-78202946D01*
X105694323Y-78181105D01*
X105699688Y-78159686D01*
X105707127Y-78138896D01*
X105716568Y-78118936D01*
X105727919Y-78099997D01*
X105741073Y-78082262D01*
X105755901Y-78065901D01*
X105772262Y-78051073D01*
X105789997Y-78037919D01*
X105808936Y-78026568D01*
X105828896Y-78017127D01*
X105849686Y-78009688D01*
X105871105Y-78004323D01*
X105892946Y-78001083D01*
X105915000Y-78000000D01*
X106365000Y-78000000D01*
X106387054Y-78001083D01*
X106387054Y-78001083D01*
G37*
D20*
X106140000Y-79000000D03*
D13*
G36*
X105117054Y-78001083D02*
G01*
X105138895Y-78004323D01*
X105160314Y-78009688D01*
X105181104Y-78017127D01*
X105201064Y-78026568D01*
X105220003Y-78037919D01*
X105237738Y-78051073D01*
X105254099Y-78065901D01*
X105268927Y-78082262D01*
X105282081Y-78099997D01*
X105293432Y-78118936D01*
X105302873Y-78138896D01*
X105310312Y-78159686D01*
X105315677Y-78181105D01*
X105318917Y-78202946D01*
X105320000Y-78225000D01*
X105320000Y-79775000D01*
X105318917Y-79797054D01*
X105315677Y-79818895D01*
X105310312Y-79840314D01*
X105302873Y-79861104D01*
X105293432Y-79881064D01*
X105282081Y-79900003D01*
X105268927Y-79917738D01*
X105254099Y-79934099D01*
X105237738Y-79948927D01*
X105220003Y-79962081D01*
X105201064Y-79973432D01*
X105181104Y-79982873D01*
X105160314Y-79990312D01*
X105138895Y-79995677D01*
X105117054Y-79998917D01*
X105095000Y-80000000D01*
X104645000Y-80000000D01*
X104622946Y-79998917D01*
X104601105Y-79995677D01*
X104579686Y-79990312D01*
X104558896Y-79982873D01*
X104538936Y-79973432D01*
X104519997Y-79962081D01*
X104502262Y-79948927D01*
X104485901Y-79934099D01*
X104471073Y-79917738D01*
X104457919Y-79900003D01*
X104446568Y-79881064D01*
X104437127Y-79861104D01*
X104429688Y-79840314D01*
X104424323Y-79818895D01*
X104421083Y-79797054D01*
X104420000Y-79775000D01*
X104420000Y-78225000D01*
X104421083Y-78202946D01*
X104424323Y-78181105D01*
X104429688Y-78159686D01*
X104437127Y-78138896D01*
X104446568Y-78118936D01*
X104457919Y-78099997D01*
X104471073Y-78082262D01*
X104485901Y-78065901D01*
X104502262Y-78051073D01*
X104519997Y-78037919D01*
X104538936Y-78026568D01*
X104558896Y-78017127D01*
X104579686Y-78009688D01*
X104601105Y-78004323D01*
X104622946Y-78001083D01*
X104645000Y-78000000D01*
X105095000Y-78000000D01*
X105117054Y-78001083D01*
X105117054Y-78001083D01*
G37*
D20*
X104870000Y-79000000D03*
D13*
G36*
X100037054Y-78001083D02*
G01*
X100058895Y-78004323D01*
X100080314Y-78009688D01*
X100101104Y-78017127D01*
X100121064Y-78026568D01*
X100140003Y-78037919D01*
X100157738Y-78051073D01*
X100174099Y-78065901D01*
X100188927Y-78082262D01*
X100202081Y-78099997D01*
X100213432Y-78118936D01*
X100222873Y-78138896D01*
X100230312Y-78159686D01*
X100235677Y-78181105D01*
X100238917Y-78202946D01*
X100240000Y-78225000D01*
X100240000Y-79775000D01*
X100238917Y-79797054D01*
X100235677Y-79818895D01*
X100230312Y-79840314D01*
X100222873Y-79861104D01*
X100213432Y-79881064D01*
X100202081Y-79900003D01*
X100188927Y-79917738D01*
X100174099Y-79934099D01*
X100157738Y-79948927D01*
X100140003Y-79962081D01*
X100121064Y-79973432D01*
X100101104Y-79982873D01*
X100080314Y-79990312D01*
X100058895Y-79995677D01*
X100037054Y-79998917D01*
X100015000Y-80000000D01*
X99565000Y-80000000D01*
X99542946Y-79998917D01*
X99521105Y-79995677D01*
X99499686Y-79990312D01*
X99478896Y-79982873D01*
X99458936Y-79973432D01*
X99439997Y-79962081D01*
X99422262Y-79948927D01*
X99405901Y-79934099D01*
X99391073Y-79917738D01*
X99377919Y-79900003D01*
X99366568Y-79881064D01*
X99357127Y-79861104D01*
X99349688Y-79840314D01*
X99344323Y-79818895D01*
X99341083Y-79797054D01*
X99340000Y-79775000D01*
X99340000Y-78225000D01*
X99341083Y-78202946D01*
X99344323Y-78181105D01*
X99349688Y-78159686D01*
X99357127Y-78138896D01*
X99366568Y-78118936D01*
X99377919Y-78099997D01*
X99391073Y-78082262D01*
X99405901Y-78065901D01*
X99422262Y-78051073D01*
X99439997Y-78037919D01*
X99458936Y-78026568D01*
X99478896Y-78017127D01*
X99499686Y-78009688D01*
X99521105Y-78004323D01*
X99542946Y-78001083D01*
X99565000Y-78000000D01*
X100015000Y-78000000D01*
X100037054Y-78001083D01*
X100037054Y-78001083D01*
G37*
D20*
X99790000Y-79000000D03*
D13*
G36*
X102577054Y-78001083D02*
G01*
X102598895Y-78004323D01*
X102620314Y-78009688D01*
X102641104Y-78017127D01*
X102661064Y-78026568D01*
X102680003Y-78037919D01*
X102697738Y-78051073D01*
X102714099Y-78065901D01*
X102728927Y-78082262D01*
X102742081Y-78099997D01*
X102753432Y-78118936D01*
X102762873Y-78138896D01*
X102770312Y-78159686D01*
X102775677Y-78181105D01*
X102778917Y-78202946D01*
X102780000Y-78225000D01*
X102780000Y-79775000D01*
X102778917Y-79797054D01*
X102775677Y-79818895D01*
X102770312Y-79840314D01*
X102762873Y-79861104D01*
X102753432Y-79881064D01*
X102742081Y-79900003D01*
X102728927Y-79917738D01*
X102714099Y-79934099D01*
X102697738Y-79948927D01*
X102680003Y-79962081D01*
X102661064Y-79973432D01*
X102641104Y-79982873D01*
X102620314Y-79990312D01*
X102598895Y-79995677D01*
X102577054Y-79998917D01*
X102555000Y-80000000D01*
X102105000Y-80000000D01*
X102082946Y-79998917D01*
X102061105Y-79995677D01*
X102039686Y-79990312D01*
X102018896Y-79982873D01*
X101998936Y-79973432D01*
X101979997Y-79962081D01*
X101962262Y-79948927D01*
X101945901Y-79934099D01*
X101931073Y-79917738D01*
X101917919Y-79900003D01*
X101906568Y-79881064D01*
X101897127Y-79861104D01*
X101889688Y-79840314D01*
X101884323Y-79818895D01*
X101881083Y-79797054D01*
X101880000Y-79775000D01*
X101880000Y-78225000D01*
X101881083Y-78202946D01*
X101884323Y-78181105D01*
X101889688Y-78159686D01*
X101897127Y-78138896D01*
X101906568Y-78118936D01*
X101917919Y-78099997D01*
X101931073Y-78082262D01*
X101945901Y-78065901D01*
X101962262Y-78051073D01*
X101979997Y-78037919D01*
X101998936Y-78026568D01*
X102018896Y-78017127D01*
X102039686Y-78009688D01*
X102061105Y-78004323D01*
X102082946Y-78001083D01*
X102105000Y-78000000D01*
X102555000Y-78000000D01*
X102577054Y-78001083D01*
X102577054Y-78001083D01*
G37*
D20*
X102330000Y-79000000D03*
D13*
G36*
X98767054Y-78001083D02*
G01*
X98788895Y-78004323D01*
X98810314Y-78009688D01*
X98831104Y-78017127D01*
X98851064Y-78026568D01*
X98870003Y-78037919D01*
X98887738Y-78051073D01*
X98904099Y-78065901D01*
X98918927Y-78082262D01*
X98932081Y-78099997D01*
X98943432Y-78118936D01*
X98952873Y-78138896D01*
X98960312Y-78159686D01*
X98965677Y-78181105D01*
X98968917Y-78202946D01*
X98970000Y-78225000D01*
X98970000Y-79775000D01*
X98968917Y-79797054D01*
X98965677Y-79818895D01*
X98960312Y-79840314D01*
X98952873Y-79861104D01*
X98943432Y-79881064D01*
X98932081Y-79900003D01*
X98918927Y-79917738D01*
X98904099Y-79934099D01*
X98887738Y-79948927D01*
X98870003Y-79962081D01*
X98851064Y-79973432D01*
X98831104Y-79982873D01*
X98810314Y-79990312D01*
X98788895Y-79995677D01*
X98767054Y-79998917D01*
X98745000Y-80000000D01*
X98295000Y-80000000D01*
X98272946Y-79998917D01*
X98251105Y-79995677D01*
X98229686Y-79990312D01*
X98208896Y-79982873D01*
X98188936Y-79973432D01*
X98169997Y-79962081D01*
X98152262Y-79948927D01*
X98135901Y-79934099D01*
X98121073Y-79917738D01*
X98107919Y-79900003D01*
X98096568Y-79881064D01*
X98087127Y-79861104D01*
X98079688Y-79840314D01*
X98074323Y-79818895D01*
X98071083Y-79797054D01*
X98070000Y-79775000D01*
X98070000Y-78225000D01*
X98071083Y-78202946D01*
X98074323Y-78181105D01*
X98079688Y-78159686D01*
X98087127Y-78138896D01*
X98096568Y-78118936D01*
X98107919Y-78099997D01*
X98121073Y-78082262D01*
X98135901Y-78065901D01*
X98152262Y-78051073D01*
X98169997Y-78037919D01*
X98188936Y-78026568D01*
X98208896Y-78017127D01*
X98229686Y-78009688D01*
X98251105Y-78004323D01*
X98272946Y-78001083D01*
X98295000Y-78000000D01*
X98745000Y-78000000D01*
X98767054Y-78001083D01*
X98767054Y-78001083D01*
G37*
D20*
X98520000Y-79000000D03*
D13*
G36*
X107657054Y-90001083D02*
G01*
X107678895Y-90004323D01*
X107700314Y-90009688D01*
X107721104Y-90017127D01*
X107741064Y-90026568D01*
X107760003Y-90037919D01*
X107777738Y-90051073D01*
X107794099Y-90065901D01*
X107808927Y-90082262D01*
X107822081Y-90099997D01*
X107833432Y-90118936D01*
X107842873Y-90138896D01*
X107850312Y-90159686D01*
X107855677Y-90181105D01*
X107858917Y-90202946D01*
X107860000Y-90225000D01*
X107860000Y-91775000D01*
X107858917Y-91797054D01*
X107855677Y-91818895D01*
X107850312Y-91840314D01*
X107842873Y-91861104D01*
X107833432Y-91881064D01*
X107822081Y-91900003D01*
X107808927Y-91917738D01*
X107794099Y-91934099D01*
X107777738Y-91948927D01*
X107760003Y-91962081D01*
X107741064Y-91973432D01*
X107721104Y-91982873D01*
X107700314Y-91990312D01*
X107678895Y-91995677D01*
X107657054Y-91998917D01*
X107635000Y-92000000D01*
X107185000Y-92000000D01*
X107162946Y-91998917D01*
X107141105Y-91995677D01*
X107119686Y-91990312D01*
X107098896Y-91982873D01*
X107078936Y-91973432D01*
X107059997Y-91962081D01*
X107042262Y-91948927D01*
X107025901Y-91934099D01*
X107011073Y-91917738D01*
X106997919Y-91900003D01*
X106986568Y-91881064D01*
X106977127Y-91861104D01*
X106969688Y-91840314D01*
X106964323Y-91818895D01*
X106961083Y-91797054D01*
X106960000Y-91775000D01*
X106960000Y-90225000D01*
X106961083Y-90202946D01*
X106964323Y-90181105D01*
X106969688Y-90159686D01*
X106977127Y-90138896D01*
X106986568Y-90118936D01*
X106997919Y-90099997D01*
X107011073Y-90082262D01*
X107025901Y-90065901D01*
X107042262Y-90051073D01*
X107059997Y-90037919D01*
X107078936Y-90026568D01*
X107098896Y-90017127D01*
X107119686Y-90009688D01*
X107141105Y-90004323D01*
X107162946Y-90001083D01*
X107185000Y-90000000D01*
X107635000Y-90000000D01*
X107657054Y-90001083D01*
X107657054Y-90001083D01*
G37*
D20*
X107410000Y-91000000D03*
D13*
G36*
X107657054Y-78001083D02*
G01*
X107678895Y-78004323D01*
X107700314Y-78009688D01*
X107721104Y-78017127D01*
X107741064Y-78026568D01*
X107760003Y-78037919D01*
X107777738Y-78051073D01*
X107794099Y-78065901D01*
X107808927Y-78082262D01*
X107822081Y-78099997D01*
X107833432Y-78118936D01*
X107842873Y-78138896D01*
X107850312Y-78159686D01*
X107855677Y-78181105D01*
X107858917Y-78202946D01*
X107860000Y-78225000D01*
X107860000Y-79775000D01*
X107858917Y-79797054D01*
X107855677Y-79818895D01*
X107850312Y-79840314D01*
X107842873Y-79861104D01*
X107833432Y-79881064D01*
X107822081Y-79900003D01*
X107808927Y-79917738D01*
X107794099Y-79934099D01*
X107777738Y-79948927D01*
X107760003Y-79962081D01*
X107741064Y-79973432D01*
X107721104Y-79982873D01*
X107700314Y-79990312D01*
X107678895Y-79995677D01*
X107657054Y-79998917D01*
X107635000Y-80000000D01*
X107185000Y-80000000D01*
X107162946Y-79998917D01*
X107141105Y-79995677D01*
X107119686Y-79990312D01*
X107098896Y-79982873D01*
X107078936Y-79973432D01*
X107059997Y-79962081D01*
X107042262Y-79948927D01*
X107025901Y-79934099D01*
X107011073Y-79917738D01*
X106997919Y-79900003D01*
X106986568Y-79881064D01*
X106977127Y-79861104D01*
X106969688Y-79840314D01*
X106964323Y-79818895D01*
X106961083Y-79797054D01*
X106960000Y-79775000D01*
X106960000Y-78225000D01*
X106961083Y-78202946D01*
X106964323Y-78181105D01*
X106969688Y-78159686D01*
X106977127Y-78138896D01*
X106986568Y-78118936D01*
X106997919Y-78099997D01*
X107011073Y-78082262D01*
X107025901Y-78065901D01*
X107042262Y-78051073D01*
X107059997Y-78037919D01*
X107078936Y-78026568D01*
X107098896Y-78017127D01*
X107119686Y-78009688D01*
X107141105Y-78004323D01*
X107162946Y-78001083D01*
X107185000Y-78000000D01*
X107635000Y-78000000D01*
X107657054Y-78001083D01*
X107657054Y-78001083D01*
G37*
D20*
X107410000Y-79000000D03*
D13*
G36*
X110247054Y-88361083D02*
G01*
X110268895Y-88364323D01*
X110290314Y-88369688D01*
X110311104Y-88377127D01*
X110331064Y-88386568D01*
X110350003Y-88397919D01*
X110367738Y-88411073D01*
X110384099Y-88425901D01*
X110398927Y-88442262D01*
X110412081Y-88459997D01*
X110423432Y-88478936D01*
X110432873Y-88498896D01*
X110440312Y-88519686D01*
X110445677Y-88541105D01*
X110448917Y-88562946D01*
X110450000Y-88585000D01*
X110450000Y-89035000D01*
X110448917Y-89057054D01*
X110445677Y-89078895D01*
X110440312Y-89100314D01*
X110432873Y-89121104D01*
X110423432Y-89141064D01*
X110412081Y-89160003D01*
X110398927Y-89177738D01*
X110384099Y-89194099D01*
X110367738Y-89208927D01*
X110350003Y-89222081D01*
X110331064Y-89233432D01*
X110311104Y-89242873D01*
X110290314Y-89250312D01*
X110268895Y-89255677D01*
X110247054Y-89258917D01*
X110225000Y-89260000D01*
X108675000Y-89260000D01*
X108652946Y-89258917D01*
X108631105Y-89255677D01*
X108609686Y-89250312D01*
X108588896Y-89242873D01*
X108568936Y-89233432D01*
X108549997Y-89222081D01*
X108532262Y-89208927D01*
X108515901Y-89194099D01*
X108501073Y-89177738D01*
X108487919Y-89160003D01*
X108476568Y-89141064D01*
X108467127Y-89121104D01*
X108459688Y-89100314D01*
X108454323Y-89078895D01*
X108451083Y-89057054D01*
X108450000Y-89035000D01*
X108450000Y-88585000D01*
X108451083Y-88562946D01*
X108454323Y-88541105D01*
X108459688Y-88519686D01*
X108467127Y-88498896D01*
X108476568Y-88478936D01*
X108487919Y-88459997D01*
X108501073Y-88442262D01*
X108515901Y-88425901D01*
X108532262Y-88411073D01*
X108549997Y-88397919D01*
X108568936Y-88386568D01*
X108588896Y-88377127D01*
X108609686Y-88369688D01*
X108631105Y-88364323D01*
X108652946Y-88361083D01*
X108675000Y-88360000D01*
X110225000Y-88360000D01*
X110247054Y-88361083D01*
X110247054Y-88361083D01*
G37*
D20*
X109450000Y-88810000D03*
D13*
G36*
X110247054Y-84551083D02*
G01*
X110268895Y-84554323D01*
X110290314Y-84559688D01*
X110311104Y-84567127D01*
X110331064Y-84576568D01*
X110350003Y-84587919D01*
X110367738Y-84601073D01*
X110384099Y-84615901D01*
X110398927Y-84632262D01*
X110412081Y-84649997D01*
X110423432Y-84668936D01*
X110432873Y-84688896D01*
X110440312Y-84709686D01*
X110445677Y-84731105D01*
X110448917Y-84752946D01*
X110450000Y-84775000D01*
X110450000Y-85225000D01*
X110448917Y-85247054D01*
X110445677Y-85268895D01*
X110440312Y-85290314D01*
X110432873Y-85311104D01*
X110423432Y-85331064D01*
X110412081Y-85350003D01*
X110398927Y-85367738D01*
X110384099Y-85384099D01*
X110367738Y-85398927D01*
X110350003Y-85412081D01*
X110331064Y-85423432D01*
X110311104Y-85432873D01*
X110290314Y-85440312D01*
X110268895Y-85445677D01*
X110247054Y-85448917D01*
X110225000Y-85450000D01*
X108675000Y-85450000D01*
X108652946Y-85448917D01*
X108631105Y-85445677D01*
X108609686Y-85440312D01*
X108588896Y-85432873D01*
X108568936Y-85423432D01*
X108549997Y-85412081D01*
X108532262Y-85398927D01*
X108515901Y-85384099D01*
X108501073Y-85367738D01*
X108487919Y-85350003D01*
X108476568Y-85331064D01*
X108467127Y-85311104D01*
X108459688Y-85290314D01*
X108454323Y-85268895D01*
X108451083Y-85247054D01*
X108450000Y-85225000D01*
X108450000Y-84775000D01*
X108451083Y-84752946D01*
X108454323Y-84731105D01*
X108459688Y-84709686D01*
X108467127Y-84688896D01*
X108476568Y-84668936D01*
X108487919Y-84649997D01*
X108501073Y-84632262D01*
X108515901Y-84615901D01*
X108532262Y-84601073D01*
X108549997Y-84587919D01*
X108568936Y-84576568D01*
X108588896Y-84567127D01*
X108609686Y-84559688D01*
X108631105Y-84554323D01*
X108652946Y-84551083D01*
X108675000Y-84550000D01*
X110225000Y-84550000D01*
X110247054Y-84551083D01*
X110247054Y-84551083D01*
G37*
D20*
X109450000Y-85000000D03*
D13*
G36*
X110247054Y-85821083D02*
G01*
X110268895Y-85824323D01*
X110290314Y-85829688D01*
X110311104Y-85837127D01*
X110331064Y-85846568D01*
X110350003Y-85857919D01*
X110367738Y-85871073D01*
X110384099Y-85885901D01*
X110398927Y-85902262D01*
X110412081Y-85919997D01*
X110423432Y-85938936D01*
X110432873Y-85958896D01*
X110440312Y-85979686D01*
X110445677Y-86001105D01*
X110448917Y-86022946D01*
X110450000Y-86045000D01*
X110450000Y-86495000D01*
X110448917Y-86517054D01*
X110445677Y-86538895D01*
X110440312Y-86560314D01*
X110432873Y-86581104D01*
X110423432Y-86601064D01*
X110412081Y-86620003D01*
X110398927Y-86637738D01*
X110384099Y-86654099D01*
X110367738Y-86668927D01*
X110350003Y-86682081D01*
X110331064Y-86693432D01*
X110311104Y-86702873D01*
X110290314Y-86710312D01*
X110268895Y-86715677D01*
X110247054Y-86718917D01*
X110225000Y-86720000D01*
X108675000Y-86720000D01*
X108652946Y-86718917D01*
X108631105Y-86715677D01*
X108609686Y-86710312D01*
X108588896Y-86702873D01*
X108568936Y-86693432D01*
X108549997Y-86682081D01*
X108532262Y-86668927D01*
X108515901Y-86654099D01*
X108501073Y-86637738D01*
X108487919Y-86620003D01*
X108476568Y-86601064D01*
X108467127Y-86581104D01*
X108459688Y-86560314D01*
X108454323Y-86538895D01*
X108451083Y-86517054D01*
X108450000Y-86495000D01*
X108450000Y-86045000D01*
X108451083Y-86022946D01*
X108454323Y-86001105D01*
X108459688Y-85979686D01*
X108467127Y-85958896D01*
X108476568Y-85938936D01*
X108487919Y-85919997D01*
X108501073Y-85902262D01*
X108515901Y-85885901D01*
X108532262Y-85871073D01*
X108549997Y-85857919D01*
X108568936Y-85846568D01*
X108588896Y-85837127D01*
X108609686Y-85829688D01*
X108631105Y-85824323D01*
X108652946Y-85821083D01*
X108675000Y-85820000D01*
X110225000Y-85820000D01*
X110247054Y-85821083D01*
X110247054Y-85821083D01*
G37*
D20*
X109450000Y-86270000D03*
D13*
G36*
X110247054Y-87091083D02*
G01*
X110268895Y-87094323D01*
X110290314Y-87099688D01*
X110311104Y-87107127D01*
X110331064Y-87116568D01*
X110350003Y-87127919D01*
X110367738Y-87141073D01*
X110384099Y-87155901D01*
X110398927Y-87172262D01*
X110412081Y-87189997D01*
X110423432Y-87208936D01*
X110432873Y-87228896D01*
X110440312Y-87249686D01*
X110445677Y-87271105D01*
X110448917Y-87292946D01*
X110450000Y-87315000D01*
X110450000Y-87765000D01*
X110448917Y-87787054D01*
X110445677Y-87808895D01*
X110440312Y-87830314D01*
X110432873Y-87851104D01*
X110423432Y-87871064D01*
X110412081Y-87890003D01*
X110398927Y-87907738D01*
X110384099Y-87924099D01*
X110367738Y-87938927D01*
X110350003Y-87952081D01*
X110331064Y-87963432D01*
X110311104Y-87972873D01*
X110290314Y-87980312D01*
X110268895Y-87985677D01*
X110247054Y-87988917D01*
X110225000Y-87990000D01*
X108675000Y-87990000D01*
X108652946Y-87988917D01*
X108631105Y-87985677D01*
X108609686Y-87980312D01*
X108588896Y-87972873D01*
X108568936Y-87963432D01*
X108549997Y-87952081D01*
X108532262Y-87938927D01*
X108515901Y-87924099D01*
X108501073Y-87907738D01*
X108487919Y-87890003D01*
X108476568Y-87871064D01*
X108467127Y-87851104D01*
X108459688Y-87830314D01*
X108454323Y-87808895D01*
X108451083Y-87787054D01*
X108450000Y-87765000D01*
X108450000Y-87315000D01*
X108451083Y-87292946D01*
X108454323Y-87271105D01*
X108459688Y-87249686D01*
X108467127Y-87228896D01*
X108476568Y-87208936D01*
X108487919Y-87189997D01*
X108501073Y-87172262D01*
X108515901Y-87155901D01*
X108532262Y-87141073D01*
X108549997Y-87127919D01*
X108568936Y-87116568D01*
X108588896Y-87107127D01*
X108609686Y-87099688D01*
X108631105Y-87094323D01*
X108652946Y-87091083D01*
X108675000Y-87090000D01*
X110225000Y-87090000D01*
X110247054Y-87091083D01*
X110247054Y-87091083D01*
G37*
D20*
X109450000Y-87540000D03*
D13*
G36*
X110247054Y-83281083D02*
G01*
X110268895Y-83284323D01*
X110290314Y-83289688D01*
X110311104Y-83297127D01*
X110331064Y-83306568D01*
X110350003Y-83317919D01*
X110367738Y-83331073D01*
X110384099Y-83345901D01*
X110398927Y-83362262D01*
X110412081Y-83379997D01*
X110423432Y-83398936D01*
X110432873Y-83418896D01*
X110440312Y-83439686D01*
X110445677Y-83461105D01*
X110448917Y-83482946D01*
X110450000Y-83505000D01*
X110450000Y-83955000D01*
X110448917Y-83977054D01*
X110445677Y-83998895D01*
X110440312Y-84020314D01*
X110432873Y-84041104D01*
X110423432Y-84061064D01*
X110412081Y-84080003D01*
X110398927Y-84097738D01*
X110384099Y-84114099D01*
X110367738Y-84128927D01*
X110350003Y-84142081D01*
X110331064Y-84153432D01*
X110311104Y-84162873D01*
X110290314Y-84170312D01*
X110268895Y-84175677D01*
X110247054Y-84178917D01*
X110225000Y-84180000D01*
X108675000Y-84180000D01*
X108652946Y-84178917D01*
X108631105Y-84175677D01*
X108609686Y-84170312D01*
X108588896Y-84162873D01*
X108568936Y-84153432D01*
X108549997Y-84142081D01*
X108532262Y-84128927D01*
X108515901Y-84114099D01*
X108501073Y-84097738D01*
X108487919Y-84080003D01*
X108476568Y-84061064D01*
X108467127Y-84041104D01*
X108459688Y-84020314D01*
X108454323Y-83998895D01*
X108451083Y-83977054D01*
X108450000Y-83955000D01*
X108450000Y-83505000D01*
X108451083Y-83482946D01*
X108454323Y-83461105D01*
X108459688Y-83439686D01*
X108467127Y-83418896D01*
X108476568Y-83398936D01*
X108487919Y-83379997D01*
X108501073Y-83362262D01*
X108515901Y-83345901D01*
X108532262Y-83331073D01*
X108549997Y-83317919D01*
X108568936Y-83306568D01*
X108588896Y-83297127D01*
X108609686Y-83289688D01*
X108631105Y-83284323D01*
X108652946Y-83281083D01*
X108675000Y-83280000D01*
X110225000Y-83280000D01*
X110247054Y-83281083D01*
X110247054Y-83281083D01*
G37*
D20*
X109450000Y-83730000D03*
D13*
G36*
X110247054Y-82011083D02*
G01*
X110268895Y-82014323D01*
X110290314Y-82019688D01*
X110311104Y-82027127D01*
X110331064Y-82036568D01*
X110350003Y-82047919D01*
X110367738Y-82061073D01*
X110384099Y-82075901D01*
X110398927Y-82092262D01*
X110412081Y-82109997D01*
X110423432Y-82128936D01*
X110432873Y-82148896D01*
X110440312Y-82169686D01*
X110445677Y-82191105D01*
X110448917Y-82212946D01*
X110450000Y-82235000D01*
X110450000Y-82685000D01*
X110448917Y-82707054D01*
X110445677Y-82728895D01*
X110440312Y-82750314D01*
X110432873Y-82771104D01*
X110423432Y-82791064D01*
X110412081Y-82810003D01*
X110398927Y-82827738D01*
X110384099Y-82844099D01*
X110367738Y-82858927D01*
X110350003Y-82872081D01*
X110331064Y-82883432D01*
X110311104Y-82892873D01*
X110290314Y-82900312D01*
X110268895Y-82905677D01*
X110247054Y-82908917D01*
X110225000Y-82910000D01*
X108675000Y-82910000D01*
X108652946Y-82908917D01*
X108631105Y-82905677D01*
X108609686Y-82900312D01*
X108588896Y-82892873D01*
X108568936Y-82883432D01*
X108549997Y-82872081D01*
X108532262Y-82858927D01*
X108515901Y-82844099D01*
X108501073Y-82827738D01*
X108487919Y-82810003D01*
X108476568Y-82791064D01*
X108467127Y-82771104D01*
X108459688Y-82750314D01*
X108454323Y-82728895D01*
X108451083Y-82707054D01*
X108450000Y-82685000D01*
X108450000Y-82235000D01*
X108451083Y-82212946D01*
X108454323Y-82191105D01*
X108459688Y-82169686D01*
X108467127Y-82148896D01*
X108476568Y-82128936D01*
X108487919Y-82109997D01*
X108501073Y-82092262D01*
X108515901Y-82075901D01*
X108532262Y-82061073D01*
X108549997Y-82047919D01*
X108568936Y-82036568D01*
X108588896Y-82027127D01*
X108609686Y-82019688D01*
X108631105Y-82014323D01*
X108652946Y-82011083D01*
X108675000Y-82010000D01*
X110225000Y-82010000D01*
X110247054Y-82011083D01*
X110247054Y-82011083D01*
G37*
D20*
X109450000Y-82460000D03*
D13*
G36*
X110247054Y-80741083D02*
G01*
X110268895Y-80744323D01*
X110290314Y-80749688D01*
X110311104Y-80757127D01*
X110331064Y-80766568D01*
X110350003Y-80777919D01*
X110367738Y-80791073D01*
X110384099Y-80805901D01*
X110398927Y-80822262D01*
X110412081Y-80839997D01*
X110423432Y-80858936D01*
X110432873Y-80878896D01*
X110440312Y-80899686D01*
X110445677Y-80921105D01*
X110448917Y-80942946D01*
X110450000Y-80965000D01*
X110450000Y-81415000D01*
X110448917Y-81437054D01*
X110445677Y-81458895D01*
X110440312Y-81480314D01*
X110432873Y-81501104D01*
X110423432Y-81521064D01*
X110412081Y-81540003D01*
X110398927Y-81557738D01*
X110384099Y-81574099D01*
X110367738Y-81588927D01*
X110350003Y-81602081D01*
X110331064Y-81613432D01*
X110311104Y-81622873D01*
X110290314Y-81630312D01*
X110268895Y-81635677D01*
X110247054Y-81638917D01*
X110225000Y-81640000D01*
X108675000Y-81640000D01*
X108652946Y-81638917D01*
X108631105Y-81635677D01*
X108609686Y-81630312D01*
X108588896Y-81622873D01*
X108568936Y-81613432D01*
X108549997Y-81602081D01*
X108532262Y-81588927D01*
X108515901Y-81574099D01*
X108501073Y-81557738D01*
X108487919Y-81540003D01*
X108476568Y-81521064D01*
X108467127Y-81501104D01*
X108459688Y-81480314D01*
X108454323Y-81458895D01*
X108451083Y-81437054D01*
X108450000Y-81415000D01*
X108450000Y-80965000D01*
X108451083Y-80942946D01*
X108454323Y-80921105D01*
X108459688Y-80899686D01*
X108467127Y-80878896D01*
X108476568Y-80858936D01*
X108487919Y-80839997D01*
X108501073Y-80822262D01*
X108515901Y-80805901D01*
X108532262Y-80791073D01*
X108549997Y-80777919D01*
X108568936Y-80766568D01*
X108588896Y-80757127D01*
X108609686Y-80749688D01*
X108631105Y-80744323D01*
X108652946Y-80741083D01*
X108675000Y-80740000D01*
X110225000Y-80740000D01*
X110247054Y-80741083D01*
X110247054Y-80741083D01*
G37*
D20*
X109450000Y-81190000D03*
D13*
G36*
X92327691Y-93788553D02*
G01*
X92348926Y-93791703D01*
X92369750Y-93796919D01*
X92389962Y-93804151D01*
X92409368Y-93813330D01*
X92427781Y-93824366D01*
X92445024Y-93837154D01*
X92460930Y-93851570D01*
X92475346Y-93867476D01*
X92488134Y-93884719D01*
X92499170Y-93903132D01*
X92508349Y-93922538D01*
X92515581Y-93942750D01*
X92520797Y-93963574D01*
X92523947Y-93984809D01*
X92525000Y-94006250D01*
X92525000Y-94443750D01*
X92523947Y-94465191D01*
X92520797Y-94486426D01*
X92515581Y-94507250D01*
X92508349Y-94527462D01*
X92499170Y-94546868D01*
X92488134Y-94565281D01*
X92475346Y-94582524D01*
X92460930Y-94598430D01*
X92445024Y-94612846D01*
X92427781Y-94625634D01*
X92409368Y-94636670D01*
X92389962Y-94645849D01*
X92369750Y-94653081D01*
X92348926Y-94658297D01*
X92327691Y-94661447D01*
X92306250Y-94662500D01*
X91793750Y-94662500D01*
X91772309Y-94661447D01*
X91751074Y-94658297D01*
X91730250Y-94653081D01*
X91710038Y-94645849D01*
X91690632Y-94636670D01*
X91672219Y-94625634D01*
X91654976Y-94612846D01*
X91639070Y-94598430D01*
X91624654Y-94582524D01*
X91611866Y-94565281D01*
X91600830Y-94546868D01*
X91591651Y-94527462D01*
X91584419Y-94507250D01*
X91579203Y-94486426D01*
X91576053Y-94465191D01*
X91575000Y-94443750D01*
X91575000Y-94006250D01*
X91576053Y-93984809D01*
X91579203Y-93963574D01*
X91584419Y-93942750D01*
X91591651Y-93922538D01*
X91600830Y-93903132D01*
X91611866Y-93884719D01*
X91624654Y-93867476D01*
X91639070Y-93851570D01*
X91654976Y-93837154D01*
X91672219Y-93824366D01*
X91690632Y-93813330D01*
X91710038Y-93804151D01*
X91730250Y-93796919D01*
X91751074Y-93791703D01*
X91772309Y-93788553D01*
X91793750Y-93787500D01*
X92306250Y-93787500D01*
X92327691Y-93788553D01*
X92327691Y-93788553D01*
G37*
D18*
X92050000Y-94225000D03*
D13*
G36*
X92327691Y-95363553D02*
G01*
X92348926Y-95366703D01*
X92369750Y-95371919D01*
X92389962Y-95379151D01*
X92409368Y-95388330D01*
X92427781Y-95399366D01*
X92445024Y-95412154D01*
X92460930Y-95426570D01*
X92475346Y-95442476D01*
X92488134Y-95459719D01*
X92499170Y-95478132D01*
X92508349Y-95497538D01*
X92515581Y-95517750D01*
X92520797Y-95538574D01*
X92523947Y-95559809D01*
X92525000Y-95581250D01*
X92525000Y-96018750D01*
X92523947Y-96040191D01*
X92520797Y-96061426D01*
X92515581Y-96082250D01*
X92508349Y-96102462D01*
X92499170Y-96121868D01*
X92488134Y-96140281D01*
X92475346Y-96157524D01*
X92460930Y-96173430D01*
X92445024Y-96187846D01*
X92427781Y-96200634D01*
X92409368Y-96211670D01*
X92389962Y-96220849D01*
X92369750Y-96228081D01*
X92348926Y-96233297D01*
X92327691Y-96236447D01*
X92306250Y-96237500D01*
X91793750Y-96237500D01*
X91772309Y-96236447D01*
X91751074Y-96233297D01*
X91730250Y-96228081D01*
X91710038Y-96220849D01*
X91690632Y-96211670D01*
X91672219Y-96200634D01*
X91654976Y-96187846D01*
X91639070Y-96173430D01*
X91624654Y-96157524D01*
X91611866Y-96140281D01*
X91600830Y-96121868D01*
X91591651Y-96102462D01*
X91584419Y-96082250D01*
X91579203Y-96061426D01*
X91576053Y-96040191D01*
X91575000Y-96018750D01*
X91575000Y-95581250D01*
X91576053Y-95559809D01*
X91579203Y-95538574D01*
X91584419Y-95517750D01*
X91591651Y-95497538D01*
X91600830Y-95478132D01*
X91611866Y-95459719D01*
X91624654Y-95442476D01*
X91639070Y-95426570D01*
X91654976Y-95412154D01*
X91672219Y-95399366D01*
X91690632Y-95388330D01*
X91710038Y-95379151D01*
X91730250Y-95371919D01*
X91751074Y-95366703D01*
X91772309Y-95363553D01*
X91793750Y-95362500D01*
X92306250Y-95362500D01*
X92327691Y-95363553D01*
X92327691Y-95363553D01*
G37*
D18*
X92050000Y-95800000D03*
D13*
G36*
X98727691Y-93063553D02*
G01*
X98748926Y-93066703D01*
X98769750Y-93071919D01*
X98789962Y-93079151D01*
X98809368Y-93088330D01*
X98827781Y-93099366D01*
X98845024Y-93112154D01*
X98860930Y-93126570D01*
X98875346Y-93142476D01*
X98888134Y-93159719D01*
X98899170Y-93178132D01*
X98908349Y-93197538D01*
X98915581Y-93217750D01*
X98920797Y-93238574D01*
X98923947Y-93259809D01*
X98925000Y-93281250D01*
X98925000Y-93718750D01*
X98923947Y-93740191D01*
X98920797Y-93761426D01*
X98915581Y-93782250D01*
X98908349Y-93802462D01*
X98899170Y-93821868D01*
X98888134Y-93840281D01*
X98875346Y-93857524D01*
X98860930Y-93873430D01*
X98845024Y-93887846D01*
X98827781Y-93900634D01*
X98809368Y-93911670D01*
X98789962Y-93920849D01*
X98769750Y-93928081D01*
X98748926Y-93933297D01*
X98727691Y-93936447D01*
X98706250Y-93937500D01*
X98193750Y-93937500D01*
X98172309Y-93936447D01*
X98151074Y-93933297D01*
X98130250Y-93928081D01*
X98110038Y-93920849D01*
X98090632Y-93911670D01*
X98072219Y-93900634D01*
X98054976Y-93887846D01*
X98039070Y-93873430D01*
X98024654Y-93857524D01*
X98011866Y-93840281D01*
X98000830Y-93821868D01*
X97991651Y-93802462D01*
X97984419Y-93782250D01*
X97979203Y-93761426D01*
X97976053Y-93740191D01*
X97975000Y-93718750D01*
X97975000Y-93281250D01*
X97976053Y-93259809D01*
X97979203Y-93238574D01*
X97984419Y-93217750D01*
X97991651Y-93197538D01*
X98000830Y-93178132D01*
X98011866Y-93159719D01*
X98024654Y-93142476D01*
X98039070Y-93126570D01*
X98054976Y-93112154D01*
X98072219Y-93099366D01*
X98090632Y-93088330D01*
X98110038Y-93079151D01*
X98130250Y-93071919D01*
X98151074Y-93066703D01*
X98172309Y-93063553D01*
X98193750Y-93062500D01*
X98706250Y-93062500D01*
X98727691Y-93063553D01*
X98727691Y-93063553D01*
G37*
D18*
X98450000Y-93500000D03*
D13*
G36*
X98727691Y-94638553D02*
G01*
X98748926Y-94641703D01*
X98769750Y-94646919D01*
X98789962Y-94654151D01*
X98809368Y-94663330D01*
X98827781Y-94674366D01*
X98845024Y-94687154D01*
X98860930Y-94701570D01*
X98875346Y-94717476D01*
X98888134Y-94734719D01*
X98899170Y-94753132D01*
X98908349Y-94772538D01*
X98915581Y-94792750D01*
X98920797Y-94813574D01*
X98923947Y-94834809D01*
X98925000Y-94856250D01*
X98925000Y-95293750D01*
X98923947Y-95315191D01*
X98920797Y-95336426D01*
X98915581Y-95357250D01*
X98908349Y-95377462D01*
X98899170Y-95396868D01*
X98888134Y-95415281D01*
X98875346Y-95432524D01*
X98860930Y-95448430D01*
X98845024Y-95462846D01*
X98827781Y-95475634D01*
X98809368Y-95486670D01*
X98789962Y-95495849D01*
X98769750Y-95503081D01*
X98748926Y-95508297D01*
X98727691Y-95511447D01*
X98706250Y-95512500D01*
X98193750Y-95512500D01*
X98172309Y-95511447D01*
X98151074Y-95508297D01*
X98130250Y-95503081D01*
X98110038Y-95495849D01*
X98090632Y-95486670D01*
X98072219Y-95475634D01*
X98054976Y-95462846D01*
X98039070Y-95448430D01*
X98024654Y-95432524D01*
X98011866Y-95415281D01*
X98000830Y-95396868D01*
X97991651Y-95377462D01*
X97984419Y-95357250D01*
X97979203Y-95336426D01*
X97976053Y-95315191D01*
X97975000Y-95293750D01*
X97975000Y-94856250D01*
X97976053Y-94834809D01*
X97979203Y-94813574D01*
X97984419Y-94792750D01*
X97991651Y-94772538D01*
X98000830Y-94753132D01*
X98011866Y-94734719D01*
X98024654Y-94717476D01*
X98039070Y-94701570D01*
X98054976Y-94687154D01*
X98072219Y-94674366D01*
X98090632Y-94663330D01*
X98110038Y-94654151D01*
X98130250Y-94646919D01*
X98151074Y-94641703D01*
X98172309Y-94638553D01*
X98193750Y-94637500D01*
X98706250Y-94637500D01*
X98727691Y-94638553D01*
X98727691Y-94638553D01*
G37*
D18*
X98450000Y-95075000D03*
D13*
G36*
X96740191Y-95826053D02*
G01*
X96761426Y-95829203D01*
X96782250Y-95834419D01*
X96802462Y-95841651D01*
X96821868Y-95850830D01*
X96840281Y-95861866D01*
X96857524Y-95874654D01*
X96873430Y-95889070D01*
X96887846Y-95904976D01*
X96900634Y-95922219D01*
X96911670Y-95940632D01*
X96920849Y-95960038D01*
X96928081Y-95980250D01*
X96933297Y-96001074D01*
X96936447Y-96022309D01*
X96937500Y-96043750D01*
X96937500Y-96556250D01*
X96936447Y-96577691D01*
X96933297Y-96598926D01*
X96928081Y-96619750D01*
X96920849Y-96639962D01*
X96911670Y-96659368D01*
X96900634Y-96677781D01*
X96887846Y-96695024D01*
X96873430Y-96710930D01*
X96857524Y-96725346D01*
X96840281Y-96738134D01*
X96821868Y-96749170D01*
X96802462Y-96758349D01*
X96782250Y-96765581D01*
X96761426Y-96770797D01*
X96740191Y-96773947D01*
X96718750Y-96775000D01*
X96281250Y-96775000D01*
X96259809Y-96773947D01*
X96238574Y-96770797D01*
X96217750Y-96765581D01*
X96197538Y-96758349D01*
X96178132Y-96749170D01*
X96159719Y-96738134D01*
X96142476Y-96725346D01*
X96126570Y-96710930D01*
X96112154Y-96695024D01*
X96099366Y-96677781D01*
X96088330Y-96659368D01*
X96079151Y-96639962D01*
X96071919Y-96619750D01*
X96066703Y-96598926D01*
X96063553Y-96577691D01*
X96062500Y-96556250D01*
X96062500Y-96043750D01*
X96063553Y-96022309D01*
X96066703Y-96001074D01*
X96071919Y-95980250D01*
X96079151Y-95960038D01*
X96088330Y-95940632D01*
X96099366Y-95922219D01*
X96112154Y-95904976D01*
X96126570Y-95889070D01*
X96142476Y-95874654D01*
X96159719Y-95861866D01*
X96178132Y-95850830D01*
X96197538Y-95841651D01*
X96217750Y-95834419D01*
X96238574Y-95829203D01*
X96259809Y-95826053D01*
X96281250Y-95825000D01*
X96718750Y-95825000D01*
X96740191Y-95826053D01*
X96740191Y-95826053D01*
G37*
D18*
X96500000Y-96300000D03*
D13*
G36*
X95165191Y-95826053D02*
G01*
X95186426Y-95829203D01*
X95207250Y-95834419D01*
X95227462Y-95841651D01*
X95246868Y-95850830D01*
X95265281Y-95861866D01*
X95282524Y-95874654D01*
X95298430Y-95889070D01*
X95312846Y-95904976D01*
X95325634Y-95922219D01*
X95336670Y-95940632D01*
X95345849Y-95960038D01*
X95353081Y-95980250D01*
X95358297Y-96001074D01*
X95361447Y-96022309D01*
X95362500Y-96043750D01*
X95362500Y-96556250D01*
X95361447Y-96577691D01*
X95358297Y-96598926D01*
X95353081Y-96619750D01*
X95345849Y-96639962D01*
X95336670Y-96659368D01*
X95325634Y-96677781D01*
X95312846Y-96695024D01*
X95298430Y-96710930D01*
X95282524Y-96725346D01*
X95265281Y-96738134D01*
X95246868Y-96749170D01*
X95227462Y-96758349D01*
X95207250Y-96765581D01*
X95186426Y-96770797D01*
X95165191Y-96773947D01*
X95143750Y-96775000D01*
X94706250Y-96775000D01*
X94684809Y-96773947D01*
X94663574Y-96770797D01*
X94642750Y-96765581D01*
X94622538Y-96758349D01*
X94603132Y-96749170D01*
X94584719Y-96738134D01*
X94567476Y-96725346D01*
X94551570Y-96710930D01*
X94537154Y-96695024D01*
X94524366Y-96677781D01*
X94513330Y-96659368D01*
X94504151Y-96639962D01*
X94496919Y-96619750D01*
X94491703Y-96598926D01*
X94488553Y-96577691D01*
X94487500Y-96556250D01*
X94487500Y-96043750D01*
X94488553Y-96022309D01*
X94491703Y-96001074D01*
X94496919Y-95980250D01*
X94504151Y-95960038D01*
X94513330Y-95940632D01*
X94524366Y-95922219D01*
X94537154Y-95904976D01*
X94551570Y-95889070D01*
X94567476Y-95874654D01*
X94584719Y-95861866D01*
X94603132Y-95850830D01*
X94622538Y-95841651D01*
X94642750Y-95834419D01*
X94663574Y-95829203D01*
X94684809Y-95826053D01*
X94706250Y-95825000D01*
X95143750Y-95825000D01*
X95165191Y-95826053D01*
X95165191Y-95826053D01*
G37*
D18*
X94925000Y-96300000D03*
D13*
G36*
X96327691Y-104363553D02*
G01*
X96348926Y-104366703D01*
X96369750Y-104371919D01*
X96389962Y-104379151D01*
X96409368Y-104388330D01*
X96427781Y-104399366D01*
X96445024Y-104412154D01*
X96460930Y-104426570D01*
X96475346Y-104442476D01*
X96488134Y-104459719D01*
X96499170Y-104478132D01*
X96508349Y-104497538D01*
X96515581Y-104517750D01*
X96520797Y-104538574D01*
X96523947Y-104559809D01*
X96525000Y-104581250D01*
X96525000Y-105018750D01*
X96523947Y-105040191D01*
X96520797Y-105061426D01*
X96515581Y-105082250D01*
X96508349Y-105102462D01*
X96499170Y-105121868D01*
X96488134Y-105140281D01*
X96475346Y-105157524D01*
X96460930Y-105173430D01*
X96445024Y-105187846D01*
X96427781Y-105200634D01*
X96409368Y-105211670D01*
X96389962Y-105220849D01*
X96369750Y-105228081D01*
X96348926Y-105233297D01*
X96327691Y-105236447D01*
X96306250Y-105237500D01*
X95793750Y-105237500D01*
X95772309Y-105236447D01*
X95751074Y-105233297D01*
X95730250Y-105228081D01*
X95710038Y-105220849D01*
X95690632Y-105211670D01*
X95672219Y-105200634D01*
X95654976Y-105187846D01*
X95639070Y-105173430D01*
X95624654Y-105157524D01*
X95611866Y-105140281D01*
X95600830Y-105121868D01*
X95591651Y-105102462D01*
X95584419Y-105082250D01*
X95579203Y-105061426D01*
X95576053Y-105040191D01*
X95575000Y-105018750D01*
X95575000Y-104581250D01*
X95576053Y-104559809D01*
X95579203Y-104538574D01*
X95584419Y-104517750D01*
X95591651Y-104497538D01*
X95600830Y-104478132D01*
X95611866Y-104459719D01*
X95624654Y-104442476D01*
X95639070Y-104426570D01*
X95654976Y-104412154D01*
X95672219Y-104399366D01*
X95690632Y-104388330D01*
X95710038Y-104379151D01*
X95730250Y-104371919D01*
X95751074Y-104366703D01*
X95772309Y-104363553D01*
X95793750Y-104362500D01*
X96306250Y-104362500D01*
X96327691Y-104363553D01*
X96327691Y-104363553D01*
G37*
D18*
X96050000Y-104800000D03*
D13*
G36*
X96327691Y-102788553D02*
G01*
X96348926Y-102791703D01*
X96369750Y-102796919D01*
X96389962Y-102804151D01*
X96409368Y-102813330D01*
X96427781Y-102824366D01*
X96445024Y-102837154D01*
X96460930Y-102851570D01*
X96475346Y-102867476D01*
X96488134Y-102884719D01*
X96499170Y-102903132D01*
X96508349Y-102922538D01*
X96515581Y-102942750D01*
X96520797Y-102963574D01*
X96523947Y-102984809D01*
X96525000Y-103006250D01*
X96525000Y-103443750D01*
X96523947Y-103465191D01*
X96520797Y-103486426D01*
X96515581Y-103507250D01*
X96508349Y-103527462D01*
X96499170Y-103546868D01*
X96488134Y-103565281D01*
X96475346Y-103582524D01*
X96460930Y-103598430D01*
X96445024Y-103612846D01*
X96427781Y-103625634D01*
X96409368Y-103636670D01*
X96389962Y-103645849D01*
X96369750Y-103653081D01*
X96348926Y-103658297D01*
X96327691Y-103661447D01*
X96306250Y-103662500D01*
X95793750Y-103662500D01*
X95772309Y-103661447D01*
X95751074Y-103658297D01*
X95730250Y-103653081D01*
X95710038Y-103645849D01*
X95690632Y-103636670D01*
X95672219Y-103625634D01*
X95654976Y-103612846D01*
X95639070Y-103598430D01*
X95624654Y-103582524D01*
X95611866Y-103565281D01*
X95600830Y-103546868D01*
X95591651Y-103527462D01*
X95584419Y-103507250D01*
X95579203Y-103486426D01*
X95576053Y-103465191D01*
X95575000Y-103443750D01*
X95575000Y-103006250D01*
X95576053Y-102984809D01*
X95579203Y-102963574D01*
X95584419Y-102942750D01*
X95591651Y-102922538D01*
X95600830Y-102903132D01*
X95611866Y-102884719D01*
X95624654Y-102867476D01*
X95639070Y-102851570D01*
X95654976Y-102837154D01*
X95672219Y-102824366D01*
X95690632Y-102813330D01*
X95710038Y-102804151D01*
X95730250Y-102796919D01*
X95751074Y-102791703D01*
X95772309Y-102788553D01*
X95793750Y-102787500D01*
X96306250Y-102787500D01*
X96327691Y-102788553D01*
X96327691Y-102788553D01*
G37*
D18*
X96050000Y-103225000D03*
D13*
G36*
X94327691Y-100976053D02*
G01*
X94348926Y-100979203D01*
X94369750Y-100984419D01*
X94389962Y-100991651D01*
X94409368Y-101000830D01*
X94427781Y-101011866D01*
X94445024Y-101024654D01*
X94460930Y-101039070D01*
X94475346Y-101054976D01*
X94488134Y-101072219D01*
X94499170Y-101090632D01*
X94508349Y-101110038D01*
X94515581Y-101130250D01*
X94520797Y-101151074D01*
X94523947Y-101172309D01*
X94525000Y-101193750D01*
X94525000Y-101706250D01*
X94523947Y-101727691D01*
X94520797Y-101748926D01*
X94515581Y-101769750D01*
X94508349Y-101789962D01*
X94499170Y-101809368D01*
X94488134Y-101827781D01*
X94475346Y-101845024D01*
X94460930Y-101860930D01*
X94445024Y-101875346D01*
X94427781Y-101888134D01*
X94409368Y-101899170D01*
X94389962Y-101908349D01*
X94369750Y-101915581D01*
X94348926Y-101920797D01*
X94327691Y-101923947D01*
X94306250Y-101925000D01*
X93868750Y-101925000D01*
X93847309Y-101923947D01*
X93826074Y-101920797D01*
X93805250Y-101915581D01*
X93785038Y-101908349D01*
X93765632Y-101899170D01*
X93747219Y-101888134D01*
X93729976Y-101875346D01*
X93714070Y-101860930D01*
X93699654Y-101845024D01*
X93686866Y-101827781D01*
X93675830Y-101809368D01*
X93666651Y-101789962D01*
X93659419Y-101769750D01*
X93654203Y-101748926D01*
X93651053Y-101727691D01*
X93650000Y-101706250D01*
X93650000Y-101193750D01*
X93651053Y-101172309D01*
X93654203Y-101151074D01*
X93659419Y-101130250D01*
X93666651Y-101110038D01*
X93675830Y-101090632D01*
X93686866Y-101072219D01*
X93699654Y-101054976D01*
X93714070Y-101039070D01*
X93729976Y-101024654D01*
X93747219Y-101011866D01*
X93765632Y-101000830D01*
X93785038Y-100991651D01*
X93805250Y-100984419D01*
X93826074Y-100979203D01*
X93847309Y-100976053D01*
X93868750Y-100975000D01*
X94306250Y-100975000D01*
X94327691Y-100976053D01*
X94327691Y-100976053D01*
G37*
D18*
X94087500Y-101450000D03*
D13*
G36*
X92752691Y-100976053D02*
G01*
X92773926Y-100979203D01*
X92794750Y-100984419D01*
X92814962Y-100991651D01*
X92834368Y-101000830D01*
X92852781Y-101011866D01*
X92870024Y-101024654D01*
X92885930Y-101039070D01*
X92900346Y-101054976D01*
X92913134Y-101072219D01*
X92924170Y-101090632D01*
X92933349Y-101110038D01*
X92940581Y-101130250D01*
X92945797Y-101151074D01*
X92948947Y-101172309D01*
X92950000Y-101193750D01*
X92950000Y-101706250D01*
X92948947Y-101727691D01*
X92945797Y-101748926D01*
X92940581Y-101769750D01*
X92933349Y-101789962D01*
X92924170Y-101809368D01*
X92913134Y-101827781D01*
X92900346Y-101845024D01*
X92885930Y-101860930D01*
X92870024Y-101875346D01*
X92852781Y-101888134D01*
X92834368Y-101899170D01*
X92814962Y-101908349D01*
X92794750Y-101915581D01*
X92773926Y-101920797D01*
X92752691Y-101923947D01*
X92731250Y-101925000D01*
X92293750Y-101925000D01*
X92272309Y-101923947D01*
X92251074Y-101920797D01*
X92230250Y-101915581D01*
X92210038Y-101908349D01*
X92190632Y-101899170D01*
X92172219Y-101888134D01*
X92154976Y-101875346D01*
X92139070Y-101860930D01*
X92124654Y-101845024D01*
X92111866Y-101827781D01*
X92100830Y-101809368D01*
X92091651Y-101789962D01*
X92084419Y-101769750D01*
X92079203Y-101748926D01*
X92076053Y-101727691D01*
X92075000Y-101706250D01*
X92075000Y-101193750D01*
X92076053Y-101172309D01*
X92079203Y-101151074D01*
X92084419Y-101130250D01*
X92091651Y-101110038D01*
X92100830Y-101090632D01*
X92111866Y-101072219D01*
X92124654Y-101054976D01*
X92139070Y-101039070D01*
X92154976Y-101024654D01*
X92172219Y-101011866D01*
X92190632Y-101000830D01*
X92210038Y-100991651D01*
X92230250Y-100984419D01*
X92251074Y-100979203D01*
X92272309Y-100976053D01*
X92293750Y-100975000D01*
X92731250Y-100975000D01*
X92752691Y-100976053D01*
X92752691Y-100976053D01*
G37*
D18*
X92512500Y-101450000D03*
D13*
G36*
X92627691Y-104413553D02*
G01*
X92648926Y-104416703D01*
X92669750Y-104421919D01*
X92689962Y-104429151D01*
X92709368Y-104438330D01*
X92727781Y-104449366D01*
X92745024Y-104462154D01*
X92760930Y-104476570D01*
X92775346Y-104492476D01*
X92788134Y-104509719D01*
X92799170Y-104528132D01*
X92808349Y-104547538D01*
X92815581Y-104567750D01*
X92820797Y-104588574D01*
X92823947Y-104609809D01*
X92825000Y-104631250D01*
X92825000Y-105068750D01*
X92823947Y-105090191D01*
X92820797Y-105111426D01*
X92815581Y-105132250D01*
X92808349Y-105152462D01*
X92799170Y-105171868D01*
X92788134Y-105190281D01*
X92775346Y-105207524D01*
X92760930Y-105223430D01*
X92745024Y-105237846D01*
X92727781Y-105250634D01*
X92709368Y-105261670D01*
X92689962Y-105270849D01*
X92669750Y-105278081D01*
X92648926Y-105283297D01*
X92627691Y-105286447D01*
X92606250Y-105287500D01*
X92093750Y-105287500D01*
X92072309Y-105286447D01*
X92051074Y-105283297D01*
X92030250Y-105278081D01*
X92010038Y-105270849D01*
X91990632Y-105261670D01*
X91972219Y-105250634D01*
X91954976Y-105237846D01*
X91939070Y-105223430D01*
X91924654Y-105207524D01*
X91911866Y-105190281D01*
X91900830Y-105171868D01*
X91891651Y-105152462D01*
X91884419Y-105132250D01*
X91879203Y-105111426D01*
X91876053Y-105090191D01*
X91875000Y-105068750D01*
X91875000Y-104631250D01*
X91876053Y-104609809D01*
X91879203Y-104588574D01*
X91884419Y-104567750D01*
X91891651Y-104547538D01*
X91900830Y-104528132D01*
X91911866Y-104509719D01*
X91924654Y-104492476D01*
X91939070Y-104476570D01*
X91954976Y-104462154D01*
X91972219Y-104449366D01*
X91990632Y-104438330D01*
X92010038Y-104429151D01*
X92030250Y-104421919D01*
X92051074Y-104416703D01*
X92072309Y-104413553D01*
X92093750Y-104412500D01*
X92606250Y-104412500D01*
X92627691Y-104413553D01*
X92627691Y-104413553D01*
G37*
D18*
X92350000Y-104850000D03*
D13*
G36*
X92627691Y-102838553D02*
G01*
X92648926Y-102841703D01*
X92669750Y-102846919D01*
X92689962Y-102854151D01*
X92709368Y-102863330D01*
X92727781Y-102874366D01*
X92745024Y-102887154D01*
X92760930Y-102901570D01*
X92775346Y-102917476D01*
X92788134Y-102934719D01*
X92799170Y-102953132D01*
X92808349Y-102972538D01*
X92815581Y-102992750D01*
X92820797Y-103013574D01*
X92823947Y-103034809D01*
X92825000Y-103056250D01*
X92825000Y-103493750D01*
X92823947Y-103515191D01*
X92820797Y-103536426D01*
X92815581Y-103557250D01*
X92808349Y-103577462D01*
X92799170Y-103596868D01*
X92788134Y-103615281D01*
X92775346Y-103632524D01*
X92760930Y-103648430D01*
X92745024Y-103662846D01*
X92727781Y-103675634D01*
X92709368Y-103686670D01*
X92689962Y-103695849D01*
X92669750Y-103703081D01*
X92648926Y-103708297D01*
X92627691Y-103711447D01*
X92606250Y-103712500D01*
X92093750Y-103712500D01*
X92072309Y-103711447D01*
X92051074Y-103708297D01*
X92030250Y-103703081D01*
X92010038Y-103695849D01*
X91990632Y-103686670D01*
X91972219Y-103675634D01*
X91954976Y-103662846D01*
X91939070Y-103648430D01*
X91924654Y-103632524D01*
X91911866Y-103615281D01*
X91900830Y-103596868D01*
X91891651Y-103577462D01*
X91884419Y-103557250D01*
X91879203Y-103536426D01*
X91876053Y-103515191D01*
X91875000Y-103493750D01*
X91875000Y-103056250D01*
X91876053Y-103034809D01*
X91879203Y-103013574D01*
X91884419Y-102992750D01*
X91891651Y-102972538D01*
X91900830Y-102953132D01*
X91911866Y-102934719D01*
X91924654Y-102917476D01*
X91939070Y-102901570D01*
X91954976Y-102887154D01*
X91972219Y-102874366D01*
X91990632Y-102863330D01*
X92010038Y-102854151D01*
X92030250Y-102846919D01*
X92051074Y-102841703D01*
X92072309Y-102838553D01*
X92093750Y-102837500D01*
X92606250Y-102837500D01*
X92627691Y-102838553D01*
X92627691Y-102838553D01*
G37*
D18*
X92350000Y-103275000D03*
D13*
G36*
X94527691Y-102776053D02*
G01*
X94548926Y-102779203D01*
X94569750Y-102784419D01*
X94589962Y-102791651D01*
X94609368Y-102800830D01*
X94627781Y-102811866D01*
X94645024Y-102824654D01*
X94660930Y-102839070D01*
X94675346Y-102854976D01*
X94688134Y-102872219D01*
X94699170Y-102890632D01*
X94708349Y-102910038D01*
X94715581Y-102930250D01*
X94720797Y-102951074D01*
X94723947Y-102972309D01*
X94725000Y-102993750D01*
X94725000Y-103431250D01*
X94723947Y-103452691D01*
X94720797Y-103473926D01*
X94715581Y-103494750D01*
X94708349Y-103514962D01*
X94699170Y-103534368D01*
X94688134Y-103552781D01*
X94675346Y-103570024D01*
X94660930Y-103585930D01*
X94645024Y-103600346D01*
X94627781Y-103613134D01*
X94609368Y-103624170D01*
X94589962Y-103633349D01*
X94569750Y-103640581D01*
X94548926Y-103645797D01*
X94527691Y-103648947D01*
X94506250Y-103650000D01*
X93993750Y-103650000D01*
X93972309Y-103648947D01*
X93951074Y-103645797D01*
X93930250Y-103640581D01*
X93910038Y-103633349D01*
X93890632Y-103624170D01*
X93872219Y-103613134D01*
X93854976Y-103600346D01*
X93839070Y-103585930D01*
X93824654Y-103570024D01*
X93811866Y-103552781D01*
X93800830Y-103534368D01*
X93791651Y-103514962D01*
X93784419Y-103494750D01*
X93779203Y-103473926D01*
X93776053Y-103452691D01*
X93775000Y-103431250D01*
X93775000Y-102993750D01*
X93776053Y-102972309D01*
X93779203Y-102951074D01*
X93784419Y-102930250D01*
X93791651Y-102910038D01*
X93800830Y-102890632D01*
X93811866Y-102872219D01*
X93824654Y-102854976D01*
X93839070Y-102839070D01*
X93854976Y-102824654D01*
X93872219Y-102811866D01*
X93890632Y-102800830D01*
X93910038Y-102791651D01*
X93930250Y-102784419D01*
X93951074Y-102779203D01*
X93972309Y-102776053D01*
X93993750Y-102775000D01*
X94506250Y-102775000D01*
X94527691Y-102776053D01*
X94527691Y-102776053D01*
G37*
D18*
X94250000Y-103212500D03*
D13*
G36*
X94527691Y-104351053D02*
G01*
X94548926Y-104354203D01*
X94569750Y-104359419D01*
X94589962Y-104366651D01*
X94609368Y-104375830D01*
X94627781Y-104386866D01*
X94645024Y-104399654D01*
X94660930Y-104414070D01*
X94675346Y-104429976D01*
X94688134Y-104447219D01*
X94699170Y-104465632D01*
X94708349Y-104485038D01*
X94715581Y-104505250D01*
X94720797Y-104526074D01*
X94723947Y-104547309D01*
X94725000Y-104568750D01*
X94725000Y-105006250D01*
X94723947Y-105027691D01*
X94720797Y-105048926D01*
X94715581Y-105069750D01*
X94708349Y-105089962D01*
X94699170Y-105109368D01*
X94688134Y-105127781D01*
X94675346Y-105145024D01*
X94660930Y-105160930D01*
X94645024Y-105175346D01*
X94627781Y-105188134D01*
X94609368Y-105199170D01*
X94589962Y-105208349D01*
X94569750Y-105215581D01*
X94548926Y-105220797D01*
X94527691Y-105223947D01*
X94506250Y-105225000D01*
X93993750Y-105225000D01*
X93972309Y-105223947D01*
X93951074Y-105220797D01*
X93930250Y-105215581D01*
X93910038Y-105208349D01*
X93890632Y-105199170D01*
X93872219Y-105188134D01*
X93854976Y-105175346D01*
X93839070Y-105160930D01*
X93824654Y-105145024D01*
X93811866Y-105127781D01*
X93800830Y-105109368D01*
X93791651Y-105089962D01*
X93784419Y-105069750D01*
X93779203Y-105048926D01*
X93776053Y-105027691D01*
X93775000Y-105006250D01*
X93775000Y-104568750D01*
X93776053Y-104547309D01*
X93779203Y-104526074D01*
X93784419Y-104505250D01*
X93791651Y-104485038D01*
X93800830Y-104465632D01*
X93811866Y-104447219D01*
X93824654Y-104429976D01*
X93839070Y-104414070D01*
X93854976Y-104399654D01*
X93872219Y-104386866D01*
X93890632Y-104375830D01*
X93910038Y-104366651D01*
X93930250Y-104359419D01*
X93951074Y-104354203D01*
X93972309Y-104351053D01*
X93993750Y-104350000D01*
X94506250Y-104350000D01*
X94527691Y-104351053D01*
X94527691Y-104351053D01*
G37*
D18*
X94250000Y-104787500D03*
D13*
G36*
X94765191Y-94126053D02*
G01*
X94786426Y-94129203D01*
X94807250Y-94134419D01*
X94827462Y-94141651D01*
X94846868Y-94150830D01*
X94865281Y-94161866D01*
X94882524Y-94174654D01*
X94898430Y-94189070D01*
X94912846Y-94204976D01*
X94925634Y-94222219D01*
X94936670Y-94240632D01*
X94945849Y-94260038D01*
X94953081Y-94280250D01*
X94958297Y-94301074D01*
X94961447Y-94322309D01*
X94962500Y-94343750D01*
X94962500Y-94856250D01*
X94961447Y-94877691D01*
X94958297Y-94898926D01*
X94953081Y-94919750D01*
X94945849Y-94939962D01*
X94936670Y-94959368D01*
X94925634Y-94977781D01*
X94912846Y-94995024D01*
X94898430Y-95010930D01*
X94882524Y-95025346D01*
X94865281Y-95038134D01*
X94846868Y-95049170D01*
X94827462Y-95058349D01*
X94807250Y-95065581D01*
X94786426Y-95070797D01*
X94765191Y-95073947D01*
X94743750Y-95075000D01*
X94306250Y-95075000D01*
X94284809Y-95073947D01*
X94263574Y-95070797D01*
X94242750Y-95065581D01*
X94222538Y-95058349D01*
X94203132Y-95049170D01*
X94184719Y-95038134D01*
X94167476Y-95025346D01*
X94151570Y-95010930D01*
X94137154Y-94995024D01*
X94124366Y-94977781D01*
X94113330Y-94959368D01*
X94104151Y-94939962D01*
X94096919Y-94919750D01*
X94091703Y-94898926D01*
X94088553Y-94877691D01*
X94087500Y-94856250D01*
X94087500Y-94343750D01*
X94088553Y-94322309D01*
X94091703Y-94301074D01*
X94096919Y-94280250D01*
X94104151Y-94260038D01*
X94113330Y-94240632D01*
X94124366Y-94222219D01*
X94137154Y-94204976D01*
X94151570Y-94189070D01*
X94167476Y-94174654D01*
X94184719Y-94161866D01*
X94203132Y-94150830D01*
X94222538Y-94141651D01*
X94242750Y-94134419D01*
X94263574Y-94129203D01*
X94284809Y-94126053D01*
X94306250Y-94125000D01*
X94743750Y-94125000D01*
X94765191Y-94126053D01*
X94765191Y-94126053D01*
G37*
D18*
X94525000Y-94600000D03*
D13*
G36*
X96340191Y-94126053D02*
G01*
X96361426Y-94129203D01*
X96382250Y-94134419D01*
X96402462Y-94141651D01*
X96421868Y-94150830D01*
X96440281Y-94161866D01*
X96457524Y-94174654D01*
X96473430Y-94189070D01*
X96487846Y-94204976D01*
X96500634Y-94222219D01*
X96511670Y-94240632D01*
X96520849Y-94260038D01*
X96528081Y-94280250D01*
X96533297Y-94301074D01*
X96536447Y-94322309D01*
X96537500Y-94343750D01*
X96537500Y-94856250D01*
X96536447Y-94877691D01*
X96533297Y-94898926D01*
X96528081Y-94919750D01*
X96520849Y-94939962D01*
X96511670Y-94959368D01*
X96500634Y-94977781D01*
X96487846Y-94995024D01*
X96473430Y-95010930D01*
X96457524Y-95025346D01*
X96440281Y-95038134D01*
X96421868Y-95049170D01*
X96402462Y-95058349D01*
X96382250Y-95065581D01*
X96361426Y-95070797D01*
X96340191Y-95073947D01*
X96318750Y-95075000D01*
X95881250Y-95075000D01*
X95859809Y-95073947D01*
X95838574Y-95070797D01*
X95817750Y-95065581D01*
X95797538Y-95058349D01*
X95778132Y-95049170D01*
X95759719Y-95038134D01*
X95742476Y-95025346D01*
X95726570Y-95010930D01*
X95712154Y-94995024D01*
X95699366Y-94977781D01*
X95688330Y-94959368D01*
X95679151Y-94939962D01*
X95671919Y-94919750D01*
X95666703Y-94898926D01*
X95663553Y-94877691D01*
X95662500Y-94856250D01*
X95662500Y-94343750D01*
X95663553Y-94322309D01*
X95666703Y-94301074D01*
X95671919Y-94280250D01*
X95679151Y-94260038D01*
X95688330Y-94240632D01*
X95699366Y-94222219D01*
X95712154Y-94204976D01*
X95726570Y-94189070D01*
X95742476Y-94174654D01*
X95759719Y-94161866D01*
X95778132Y-94150830D01*
X95797538Y-94141651D01*
X95817750Y-94134419D01*
X95838574Y-94129203D01*
X95859809Y-94126053D01*
X95881250Y-94125000D01*
X96318750Y-94125000D01*
X96340191Y-94126053D01*
X96340191Y-94126053D01*
G37*
D18*
X96100000Y-94600000D03*
D21*
X97568227Y-96453665D03*
X107189792Y-104700010D03*
D22*
X95800000Y-97900000D03*
X97300000Y-95100000D03*
D23*
X100900000Y-81000000D03*
D21*
X90879999Y-104620001D03*
X91000000Y-103167998D03*
D22*
X103000000Y-76200000D03*
D21*
X103251058Y-96948144D03*
X97540000Y-109375000D03*
X103859142Y-107709142D03*
X98483746Y-108213606D03*
X97794982Y-105194982D03*
D22*
X104319988Y-94049990D03*
X104319988Y-96080012D03*
X103175332Y-89175323D03*
X98633994Y-88892261D03*
D21*
X104916540Y-106609129D03*
X103459597Y-86416828D03*
X99542133Y-86770128D03*
D22*
X100500000Y-77200000D03*
D21*
X104500000Y-105700010D03*
X103200021Y-87397736D03*
X99199990Y-88258094D03*
D22*
X98900000Y-77100000D03*
D21*
X109450000Y-85000000D03*
X110375000Y-96600000D03*
X104000000Y-108900000D03*
X97444318Y-108355990D03*
X93408891Y-96100012D03*
X94806940Y-95711632D03*
X95099594Y-105599990D03*
X93400000Y-104000000D03*
X106332482Y-108257482D03*
X94000000Y-107200000D03*
X101938331Y-95299990D03*
X101482201Y-93699812D03*
X106295950Y-82726748D03*
X106680000Y-83820000D03*
X107708148Y-87260394D03*
X109281990Y-93133600D03*
X109336423Y-86299585D03*
D24*
X94799990Y-97075010D02*
X97024990Y-97075010D01*
X93575000Y-97700000D02*
X94175000Y-97700000D01*
X94175000Y-97700000D02*
X94799990Y-97075010D01*
X97568227Y-96531773D02*
X97568227Y-96453665D01*
X97024990Y-97075010D02*
X97568227Y-96531773D01*
D25*
X93000000Y-106530000D02*
X92500000Y-106530000D01*
X92380000Y-106650000D02*
X92880000Y-106650000D01*
X92500000Y-106530000D02*
X92380000Y-106650000D01*
X90599999Y-100567999D02*
X90624990Y-100543008D01*
X90599999Y-102231115D02*
X90599999Y-100567999D01*
X90750000Y-124750000D02*
X89700000Y-123700000D01*
X90750000Y-154070000D02*
X90750000Y-124750000D01*
X92380000Y-155700000D02*
X90750000Y-154070000D01*
X89700000Y-103131114D02*
X90599999Y-102231115D01*
X89820000Y-106920000D02*
X92380000Y-106920000D01*
X89700000Y-106800000D02*
X89820000Y-106920000D01*
X89700000Y-123700000D02*
X89700000Y-106800000D01*
X89700000Y-106800000D02*
X89700000Y-103131114D01*
X95049999Y-92749999D02*
X95149999Y-92649999D01*
X102199999Y-61649999D02*
X103550000Y-63000000D01*
X90599999Y-76900001D02*
X90599999Y-62900001D01*
X103550000Y-63000000D02*
X105000000Y-63000000D01*
X91850001Y-61649999D02*
X102199999Y-61649999D01*
X96500000Y-78073543D02*
X95826469Y-77400011D01*
X95149999Y-92649999D02*
X95652932Y-92649999D01*
X90599999Y-93900001D02*
X91500000Y-93000000D01*
X90599999Y-62900001D02*
X91850001Y-61649999D01*
X91500000Y-93000000D02*
X95049999Y-93000000D01*
X91100009Y-77400011D02*
X90599999Y-76900001D01*
X95826469Y-77400011D02*
X91100009Y-77400011D01*
X90599999Y-100567999D02*
X90599999Y-93900001D01*
X96651465Y-91651465D02*
X96500000Y-91500000D01*
X95049999Y-93000000D02*
X95049999Y-92749999D01*
X96500000Y-91500000D02*
X96500000Y-78073543D01*
X95652932Y-92649999D02*
X96651465Y-91651465D01*
X92380000Y-124700000D02*
X90600000Y-122920000D01*
X90600000Y-113780000D02*
X92380000Y-112000000D01*
X90600000Y-122920000D02*
X90600000Y-113780000D01*
X105090001Y-65449999D02*
X106690001Y-63849999D01*
X94750001Y-65449999D02*
X105090001Y-65449999D01*
X106690001Y-63849999D02*
X107540000Y-63000000D01*
X92200000Y-68000000D02*
X94750001Y-65449999D01*
X109249999Y-75150001D02*
X109249999Y-73350001D01*
X108400000Y-76000000D02*
X109249999Y-75150001D01*
X109249999Y-73350001D02*
X109400000Y-73200000D01*
X109400000Y-64860000D02*
X107540000Y-63000000D01*
X107900000Y-67220000D02*
X109220000Y-67220000D01*
X109220000Y-67220000D02*
X109400000Y-67400000D01*
X109400000Y-73200000D02*
X109400000Y-67400000D01*
X109400000Y-67400000D02*
X109400000Y-64860000D01*
X109450000Y-77050000D02*
X108400000Y-76000000D01*
X109450000Y-81190000D02*
X109450000Y-77050000D01*
D24*
X108000000Y-94600000D02*
X108000000Y-94400000D01*
X105200000Y-97400000D02*
X108000000Y-94600000D01*
X94525000Y-99650000D02*
X94525000Y-99700000D01*
X95125000Y-99050000D02*
X94525000Y-99650000D01*
X95175000Y-99050000D02*
X95125000Y-99050000D01*
X94262500Y-99700000D02*
X94525000Y-99700000D01*
X92512500Y-101450000D02*
X94262500Y-99700000D01*
X100375000Y-93500000D02*
X100400000Y-93475000D01*
X98450000Y-93500000D02*
X100375000Y-93500000D01*
X92512500Y-101475000D02*
X92512500Y-101450000D01*
X94250000Y-103212500D02*
X92512500Y-101475000D01*
X99236612Y-94286612D02*
X98450000Y-93500000D01*
D25*
X93900000Y-109989965D02*
X95589934Y-108300031D01*
X106624107Y-104700010D02*
X107189792Y-104700010D01*
X92380000Y-112000000D02*
X93900000Y-110480000D01*
X96162756Y-108300031D02*
X99762777Y-104700010D01*
X95589934Y-108300031D02*
X96162756Y-108300031D01*
X93900000Y-110480000D02*
X93900000Y-109989965D01*
X99762777Y-104700010D02*
X106624107Y-104700010D01*
X109450000Y-81190000D02*
X103690000Y-81190000D01*
D24*
X104738388Y-96938388D02*
X105200000Y-97400000D01*
D25*
X107600000Y-94800000D02*
X108000000Y-94400000D01*
X103100000Y-94800000D02*
X107600000Y-94800000D01*
D26*
X103690000Y-81190000D02*
X102410000Y-81190000D01*
X102410000Y-81190000D02*
X102100000Y-81500000D01*
D24*
X100400000Y-93653615D02*
X101346373Y-94599988D01*
X100400000Y-93475000D02*
X100400000Y-93653615D01*
X102899988Y-94599988D02*
X103100000Y-94800000D01*
X101346373Y-94599988D02*
X102899988Y-94599988D01*
D26*
X102100000Y-81500000D02*
X101700000Y-81500000D01*
X101700000Y-81500000D02*
X100900000Y-80700000D01*
D24*
X95662500Y-98391053D02*
X95662500Y-98562500D01*
X95800000Y-98253553D02*
X95662500Y-98391053D01*
X95800000Y-97900000D02*
X95800000Y-98253553D01*
X95662500Y-98562500D02*
X95175000Y-99050000D01*
X96561612Y-95061612D02*
X96961612Y-95061612D01*
X96100000Y-94600000D02*
X96561612Y-95061612D01*
X97000000Y-95100000D02*
X97300000Y-95100000D01*
X96961612Y-95061612D02*
X97000000Y-95100000D01*
X95199190Y-106500000D02*
X96050000Y-105649190D01*
X96050000Y-105649190D02*
X96050000Y-104800000D01*
X91100000Y-104840002D02*
X91100000Y-105100000D01*
X90879999Y-104620001D02*
X91100000Y-104840002D01*
X91100000Y-105100000D02*
X91587510Y-105587510D01*
X91587510Y-105587510D02*
X92971512Y-105587510D01*
X92971512Y-105587510D02*
X93884002Y-106500000D01*
X93884002Y-106500000D02*
X95199190Y-106500000D01*
X91888388Y-104388388D02*
X91888388Y-104088388D01*
X92350000Y-104850000D02*
X91888388Y-104388388D01*
X91888388Y-104088388D02*
X91000000Y-103200000D01*
X91000000Y-103200000D02*
X91000000Y-103167998D01*
X96450000Y-96325000D02*
X96707669Y-96325000D01*
X94800000Y-94600000D02*
X96500000Y-96300000D01*
X94525000Y-94600000D02*
X94800000Y-94600000D01*
X105660000Y-76200000D02*
X105860000Y-76000000D01*
X103000000Y-76200000D02*
X105660000Y-76200000D01*
X97046337Y-95753663D02*
X97904229Y-95753663D01*
X101737229Y-96000000D02*
X102685373Y-96948144D01*
X97904229Y-95753663D02*
X98150566Y-96000000D01*
X98150566Y-96000000D02*
X101737229Y-96000000D01*
X96500000Y-96300000D02*
X97046337Y-95753663D01*
X102685373Y-96948144D02*
X103251058Y-96948144D01*
D25*
X93675000Y-70000000D02*
X96475000Y-67200000D01*
X92200000Y-70000000D02*
X93675000Y-70000000D01*
X107100000Y-72300000D02*
X107900000Y-72300000D01*
X96475000Y-67200000D02*
X101799998Y-67200000D01*
X101799998Y-67200000D02*
X102749999Y-68150001D01*
X102749999Y-68150001D02*
X102950001Y-68150001D01*
X102950001Y-68150001D02*
X107100000Y-72300000D01*
X97540000Y-109460000D02*
X97540000Y-109375000D01*
X94974990Y-110282534D02*
X95882524Y-109375000D01*
X95882524Y-109375000D02*
X96974315Y-109375000D01*
X92380000Y-148080000D02*
X94974990Y-145485010D01*
X94974990Y-145485010D02*
X94974990Y-110282534D01*
X96974315Y-109375000D02*
X97540000Y-109375000D01*
D24*
X98883745Y-107813607D02*
X98483746Y-108213606D01*
X103859142Y-107709142D02*
X98988210Y-107709142D01*
X98988210Y-107709142D02*
X98883745Y-107813607D01*
D26*
X97394983Y-105594981D02*
X97794982Y-105194982D01*
X94339999Y-108460001D02*
X95199980Y-107600020D01*
X92380000Y-109460000D02*
X93379999Y-108460001D01*
X95872802Y-107600020D02*
X97394983Y-106077839D01*
X95199980Y-107600020D02*
X95872802Y-107600020D01*
X97394983Y-106077839D02*
X97394983Y-105594981D01*
X93379999Y-108460001D02*
X94339999Y-108460001D01*
D25*
X92200000Y-70000000D02*
X92475000Y-70000000D01*
D26*
X104119998Y-93850000D02*
X104319988Y-94049990D01*
X103100000Y-93850000D02*
X104119998Y-93850000D01*
X103989976Y-95750000D02*
X104319988Y-96080012D01*
X103100000Y-95750000D02*
X103989976Y-95750000D01*
X103175332Y-89175323D02*
X98917056Y-89175323D01*
X98883993Y-89142260D02*
X98633994Y-88892261D01*
X98917056Y-89175323D02*
X98883993Y-89142260D01*
D24*
X107620000Y-145540000D02*
X104899989Y-142819989D01*
X104899989Y-106625680D02*
X104916540Y-106609129D01*
X104899989Y-142819989D02*
X104899989Y-106625680D01*
X99895433Y-86416828D02*
X99542133Y-86770128D01*
X103459597Y-86416828D02*
X99895433Y-86416828D01*
X99800001Y-76500001D02*
X100250001Y-76950001D01*
X96700001Y-76500001D02*
X99800001Y-76500001D01*
X96600000Y-76400000D02*
X96700001Y-76500001D01*
X92200000Y-72000000D02*
X96600000Y-76400000D01*
X100250001Y-76950001D02*
X100500000Y-77200000D01*
X106971999Y-142891999D02*
X107620000Y-143540000D01*
X106971999Y-142350001D02*
X106971999Y-142891999D01*
X106324967Y-106190667D02*
X105834310Y-105700010D01*
X105300000Y-107215633D02*
X106324967Y-106190667D01*
X105834310Y-105700010D02*
X104500000Y-105700010D01*
X105300000Y-140680000D02*
X105300000Y-107215633D01*
X107620000Y-143000000D02*
X105300000Y-140680000D01*
X93275000Y-74000000D02*
X96471250Y-77196250D01*
X92200000Y-74000000D02*
X93275000Y-74000000D01*
X99765675Y-88258094D02*
X99199990Y-88258094D01*
X102339663Y-88258094D02*
X99765675Y-88258094D01*
X103200021Y-87397736D02*
X102339663Y-88258094D01*
X96896250Y-77196250D02*
X97244961Y-77544961D01*
X96471250Y-77196250D02*
X96603750Y-77196250D01*
X96603750Y-77196250D02*
X98603750Y-77196250D01*
X96603750Y-77196250D02*
X96896250Y-77196250D01*
X98603750Y-77196250D02*
X98700000Y-77100000D01*
X98700000Y-77100000D02*
X98900000Y-77100000D01*
X109600000Y-104868600D02*
X109600000Y-153720000D01*
X109600000Y-153720000D02*
X108669999Y-154650001D01*
X107447999Y-103170001D02*
X107901401Y-103170001D01*
X108669999Y-154650001D02*
X107620000Y-155700000D01*
X105200000Y-102925000D02*
X107202998Y-102925000D01*
X107901401Y-103170001D02*
X109600000Y-104868600D01*
X107202998Y-102925000D02*
X107447999Y-103170001D01*
X107620000Y-153160000D02*
X109200000Y-151580000D01*
X109200000Y-151580000D02*
X109200000Y-107100000D01*
X109200000Y-107100000D02*
X109200000Y-106800000D01*
X109500000Y-98426581D02*
X109975001Y-97951580D01*
X107735712Y-103570012D02*
X105763628Y-103570012D01*
X108552001Y-100630001D02*
X109500000Y-99682002D01*
X104728870Y-103662510D02*
X104424990Y-103358630D01*
X106230488Y-102087510D02*
X107687997Y-100630001D01*
X105763628Y-103570012D02*
X105671130Y-103662510D01*
X104424990Y-102491370D02*
X104828850Y-102087510D01*
X105671130Y-103662510D02*
X104728870Y-103662510D01*
X104828850Y-102087510D02*
X106230488Y-102087510D01*
X109975001Y-97951580D02*
X109975001Y-96999999D01*
X104424990Y-103358630D02*
X104424990Y-102491370D01*
X109200000Y-105034300D02*
X107735712Y-103570012D01*
X109500000Y-99682002D02*
X109500000Y-98426581D01*
X109200000Y-107100000D02*
X109200000Y-105034300D01*
X109975001Y-96999999D02*
X110375000Y-96600000D01*
X107687997Y-100630001D02*
X108552001Y-100630001D01*
X92050000Y-99125000D02*
X92625000Y-99700000D01*
X92050000Y-95800000D02*
X92050000Y-99125000D01*
X97988388Y-94613388D02*
X98450000Y-95075000D01*
X94132287Y-96072981D02*
X94106939Y-96047633D01*
X94132287Y-96436012D02*
X94132287Y-96072981D01*
X93768287Y-96800012D02*
X94132287Y-96436012D01*
X93716370Y-93724990D02*
X97099990Y-93724990D01*
X93412490Y-94971130D02*
X93412490Y-94028870D01*
X94106939Y-95665579D02*
X93412490Y-94971130D01*
X94106939Y-96047633D02*
X94106939Y-95665579D01*
X93050012Y-96800012D02*
X93768287Y-96800012D01*
X97099990Y-93724990D02*
X97988388Y-94613388D01*
X92050000Y-95800000D02*
X93050012Y-96800012D01*
X93412490Y-94028870D02*
X93716370Y-93724990D01*
X98522610Y-109299999D02*
X97578601Y-108355990D01*
X104000000Y-108900000D02*
X103600001Y-109299999D01*
X97578601Y-108355990D02*
X97444318Y-108355990D01*
X103600001Y-109299999D02*
X98522610Y-109299999D01*
X93408891Y-95583891D02*
X93408891Y-96100012D01*
X92050000Y-94225000D02*
X93408891Y-95583891D01*
X94911632Y-95711632D02*
X94806940Y-95711632D01*
X94925000Y-95725000D02*
X94911632Y-95711632D01*
X94925000Y-96300000D02*
X94925000Y-95725000D01*
X95862500Y-103225000D02*
X96050000Y-103225000D01*
X94087500Y-101450000D02*
X95862500Y-103225000D01*
X95099594Y-105034305D02*
X95099594Y-105599990D01*
X95099594Y-104175406D02*
X95099594Y-105034305D01*
X96050000Y-103225000D02*
X95099594Y-104175406D01*
X92675000Y-103275000D02*
X93400000Y-104000000D01*
X92350000Y-103275000D02*
X92675000Y-103275000D01*
X93462500Y-104000000D02*
X94250000Y-104787500D01*
X93400000Y-104000000D02*
X93462500Y-104000000D01*
D25*
X107472476Y-111730000D02*
X107620000Y-111730000D01*
D24*
X106000009Y-112869711D02*
X105875001Y-112744703D01*
X105875001Y-108714963D02*
X105932483Y-108657481D01*
X105932483Y-108657481D02*
X106332482Y-108257482D01*
X105875001Y-112744703D02*
X105875001Y-108714963D01*
X107620000Y-130300000D02*
X105700011Y-128380011D01*
X105700011Y-128380011D02*
X105700011Y-113765689D01*
X106000009Y-113465691D02*
X106000009Y-112869711D01*
X106275000Y-108200000D02*
X106332482Y-108257482D01*
X105700011Y-113765689D02*
X106000009Y-113465691D01*
X106275012Y-112359312D02*
X106275012Y-110804988D01*
X106400020Y-113631380D02*
X106400020Y-112484320D01*
X106275012Y-110804988D02*
X106620001Y-110459999D01*
X107300000Y-127440000D02*
X106100022Y-126240022D01*
X106620001Y-110459999D02*
X107620000Y-109460000D01*
X106400020Y-112484320D02*
X106275012Y-112359312D01*
X106100022Y-113931378D02*
X106400020Y-113631380D01*
X106100022Y-126240022D02*
X106100022Y-113931378D01*
X107620000Y-106920000D02*
X108619999Y-105920001D01*
X95765691Y-107000009D02*
X94765676Y-107000009D01*
X94765676Y-107000009D02*
X94565685Y-107200000D01*
X94565685Y-107200000D02*
X94000000Y-107200000D01*
X96825010Y-105174990D02*
X96825010Y-105940690D01*
X97900000Y-104100000D02*
X96825010Y-105174990D01*
X108619999Y-105920001D02*
X108619999Y-105019999D01*
X96825010Y-105940690D02*
X95765691Y-107000009D01*
X105899340Y-104000000D02*
X105799340Y-104100000D01*
X105799340Y-104100000D02*
X97900000Y-104100000D01*
X108619999Y-105019999D02*
X107600000Y-104000000D01*
X107600000Y-104000000D02*
X105899340Y-104000000D01*
D25*
X106854990Y-92500010D02*
X105505000Y-93850000D01*
X107935310Y-92500010D02*
X106854990Y-92500010D01*
X108712000Y-91723320D02*
X107935310Y-92500010D01*
X105505000Y-93850000D02*
X105300000Y-93850000D01*
X108350000Y-82460000D02*
X107580001Y-83229999D01*
X109450000Y-82460000D02*
X108350000Y-82460000D01*
X108712000Y-90276680D02*
X108712000Y-91723320D01*
X107580001Y-86056537D02*
X106808146Y-86828392D01*
X106808146Y-86828392D02*
X106808146Y-88372826D01*
X106808146Y-88372826D02*
X108712000Y-90276680D01*
X107580001Y-83229999D02*
X107580001Y-86056537D01*
X109202615Y-91723320D02*
X108712000Y-91723320D01*
X108000000Y-99480000D02*
X108849999Y-98630001D01*
X109350001Y-97588001D02*
X109350001Y-96138544D01*
X108849999Y-98630001D02*
X108849999Y-98088003D01*
X108849999Y-98088003D02*
X109350001Y-97588001D01*
X109350001Y-96138544D02*
X110196580Y-95291965D01*
X110196580Y-92717285D02*
X109202615Y-91723320D01*
X110196580Y-95291965D02*
X110196580Y-92717285D01*
D24*
X101688341Y-95050000D02*
X101938331Y-95299990D01*
X100400000Y-95050000D02*
X101688341Y-95050000D01*
X101882200Y-93299813D02*
X101482201Y-93699812D01*
X102090047Y-93091966D02*
X101882200Y-93299813D01*
X104336966Y-93091966D02*
X102090047Y-93091966D01*
X105095000Y-93850000D02*
X104336966Y-93091966D01*
X105300000Y-93850000D02*
X105095000Y-93850000D01*
X105730265Y-82726748D02*
X106295950Y-82726748D01*
X99790000Y-79000000D02*
X99790000Y-81074002D01*
X101442746Y-82726748D02*
X105730265Y-82726748D01*
X99790000Y-81074002D02*
X101442746Y-82726748D01*
X98520000Y-80100000D02*
X98520000Y-79000000D01*
X101970298Y-83820000D02*
X98520000Y-80369702D01*
X98520000Y-80369702D02*
X98520000Y-80100000D01*
X106680000Y-83820000D02*
X101970298Y-83820000D01*
X109450000Y-87540000D02*
X109423802Y-87513802D01*
X109423802Y-87513802D02*
X109376767Y-87513802D01*
X109376767Y-87513802D02*
X108811082Y-87513802D01*
X109450000Y-87540000D02*
X107987754Y-87540000D01*
X107987754Y-87540000D02*
X107708148Y-87260394D01*
X105200000Y-101350000D02*
X105200000Y-100628000D01*
X105200000Y-101350000D02*
X105200000Y-99778000D01*
X105200000Y-99778000D02*
X105200000Y-98975000D01*
X109090001Y-95550001D02*
X109281990Y-95358012D01*
X109281990Y-95358012D02*
X109281990Y-93699285D01*
X105975010Y-97262988D02*
X107687997Y-95550001D01*
X105975010Y-99002990D02*
X105975010Y-97262988D01*
X109281990Y-93699285D02*
X109281990Y-93133600D01*
X105200000Y-99778000D02*
X105975010Y-99002990D01*
X107687997Y-95550001D02*
X109090001Y-95550001D01*
M02*
