G04 #@! TF.GenerationSoftware,KiCad,Pcbnew,5.1.2-f72e74a~84~ubuntu18.04.1*
G04 #@! TF.CreationDate,2019-08-30T12:47:12+08:00*
G04 #@! TF.ProjectId,handyfan,68616e64-7966-4616-9e2e-6b696361645f,rev?*
G04 #@! TF.SameCoordinates,Original*
G04 #@! TF.FileFunction,Soldermask,Top*
G04 #@! TF.FilePolarity,Negative*
%FSLAX46Y46*%
G04 Gerber Fmt 4.6, Leading zero omitted, Abs format (unit mm)*
G04 Created by KiCad (PCBNEW 5.1.2-f72e74a~84~ubuntu18.04.1) date 2019-08-30 12:47:12*
%MOMM*%
%LPD*%
G04 APERTURE LIST*
%ADD10C,0.100000*%
G04 APERTURE END LIST*
D10*
G36*
X107834794Y-154620155D02*
G01*
X107941150Y-154641311D01*
X108141520Y-154724307D01*
X108321844Y-154844795D01*
X108475205Y-154998156D01*
X108595693Y-155178480D01*
X108678689Y-155378851D01*
X108721000Y-155591560D01*
X108721000Y-155808440D01*
X108678689Y-156021149D01*
X108595693Y-156221520D01*
X108475205Y-156401844D01*
X108321844Y-156555205D01*
X108141520Y-156675693D01*
X108041334Y-156717191D01*
X107941150Y-156758689D01*
X107834795Y-156779844D01*
X107728440Y-156801000D01*
X107511560Y-156801000D01*
X107405205Y-156779844D01*
X107298850Y-156758689D01*
X107198666Y-156717191D01*
X107098480Y-156675693D01*
X106918156Y-156555205D01*
X106764795Y-156401844D01*
X106644307Y-156221520D01*
X106561311Y-156021149D01*
X106519000Y-155808440D01*
X106519000Y-155591560D01*
X106561311Y-155378851D01*
X106644307Y-155178480D01*
X106764795Y-154998156D01*
X106918156Y-154844795D01*
X107098480Y-154724307D01*
X107298850Y-154641311D01*
X107405206Y-154620155D01*
X107511560Y-154599000D01*
X107728440Y-154599000D01*
X107834794Y-154620155D01*
X107834794Y-154620155D01*
G37*
G36*
X92594794Y-154620155D02*
G01*
X92701150Y-154641311D01*
X92901520Y-154724307D01*
X93081844Y-154844795D01*
X93235205Y-154998156D01*
X93355693Y-155178480D01*
X93438689Y-155378851D01*
X93481000Y-155591560D01*
X93481000Y-155808440D01*
X93438689Y-156021149D01*
X93355693Y-156221520D01*
X93235205Y-156401844D01*
X93081844Y-156555205D01*
X92901520Y-156675693D01*
X92801334Y-156717191D01*
X92701150Y-156758689D01*
X92594795Y-156779844D01*
X92488440Y-156801000D01*
X92271560Y-156801000D01*
X92165205Y-156779844D01*
X92058850Y-156758689D01*
X91958666Y-156717191D01*
X91858480Y-156675693D01*
X91678156Y-156555205D01*
X91524795Y-156401844D01*
X91404307Y-156221520D01*
X91321311Y-156021149D01*
X91279000Y-155808440D01*
X91279000Y-155591560D01*
X91321311Y-155378851D01*
X91404307Y-155178480D01*
X91524795Y-154998156D01*
X91678156Y-154844795D01*
X91858480Y-154724307D01*
X92058850Y-154641311D01*
X92165206Y-154620155D01*
X92271560Y-154599000D01*
X92488440Y-154599000D01*
X92594794Y-154620155D01*
X92594794Y-154620155D01*
G37*
G36*
X92594795Y-152080156D02*
G01*
X92701150Y-152101311D01*
X92801334Y-152142809D01*
X92901520Y-152184307D01*
X93081844Y-152304795D01*
X93235205Y-152458156D01*
X93355693Y-152638480D01*
X93438689Y-152838851D01*
X93481000Y-153051560D01*
X93481000Y-153268440D01*
X93438689Y-153481149D01*
X93355693Y-153681520D01*
X93235205Y-153861844D01*
X93081844Y-154015205D01*
X92901520Y-154135693D01*
X92701150Y-154218689D01*
X92594794Y-154239845D01*
X92488440Y-154261000D01*
X92271560Y-154261000D01*
X92165206Y-154239845D01*
X92058850Y-154218689D01*
X91858480Y-154135693D01*
X91678156Y-154015205D01*
X91524795Y-153861844D01*
X91404307Y-153681520D01*
X91321311Y-153481149D01*
X91279000Y-153268440D01*
X91279000Y-153051560D01*
X91321311Y-152838851D01*
X91404307Y-152638480D01*
X91524795Y-152458156D01*
X91678156Y-152304795D01*
X91858480Y-152184307D01*
X91958666Y-152142809D01*
X92058850Y-152101311D01*
X92165205Y-152080156D01*
X92271560Y-152059000D01*
X92488440Y-152059000D01*
X92594795Y-152080156D01*
X92594795Y-152080156D01*
G37*
G36*
X107834795Y-152080156D02*
G01*
X107941150Y-152101311D01*
X108041334Y-152142809D01*
X108141520Y-152184307D01*
X108321844Y-152304795D01*
X108475205Y-152458156D01*
X108595693Y-152638480D01*
X108678689Y-152838851D01*
X108721000Y-153051560D01*
X108721000Y-153268440D01*
X108678689Y-153481149D01*
X108595693Y-153681520D01*
X108475205Y-153861844D01*
X108321844Y-154015205D01*
X108141520Y-154135693D01*
X107941150Y-154218689D01*
X107834794Y-154239845D01*
X107728440Y-154261000D01*
X107511560Y-154261000D01*
X107405206Y-154239845D01*
X107298850Y-154218689D01*
X107098480Y-154135693D01*
X106918156Y-154015205D01*
X106764795Y-153861844D01*
X106644307Y-153681520D01*
X106561311Y-153481149D01*
X106519000Y-153268440D01*
X106519000Y-153051560D01*
X106561311Y-152838851D01*
X106644307Y-152638480D01*
X106764795Y-152458156D01*
X106918156Y-152304795D01*
X107098480Y-152184307D01*
X107198666Y-152142809D01*
X107298850Y-152101311D01*
X107405205Y-152080156D01*
X107511560Y-152059000D01*
X107728440Y-152059000D01*
X107834795Y-152080156D01*
X107834795Y-152080156D01*
G37*
G36*
X107834794Y-149540155D02*
G01*
X107941150Y-149561311D01*
X108141520Y-149644307D01*
X108321844Y-149764795D01*
X108475205Y-149918156D01*
X108595693Y-150098480D01*
X108678689Y-150298851D01*
X108721000Y-150511560D01*
X108721000Y-150728440D01*
X108678689Y-150941149D01*
X108595693Y-151141520D01*
X108475205Y-151321844D01*
X108321844Y-151475205D01*
X108141520Y-151595693D01*
X108041334Y-151637191D01*
X107941150Y-151678689D01*
X107834795Y-151699844D01*
X107728440Y-151721000D01*
X107511560Y-151721000D01*
X107405205Y-151699844D01*
X107298850Y-151678689D01*
X107198666Y-151637191D01*
X107098480Y-151595693D01*
X106918156Y-151475205D01*
X106764795Y-151321844D01*
X106644307Y-151141520D01*
X106561311Y-150941149D01*
X106519000Y-150728440D01*
X106519000Y-150511560D01*
X106561311Y-150298851D01*
X106644307Y-150098480D01*
X106764795Y-149918156D01*
X106918156Y-149764795D01*
X107098480Y-149644307D01*
X107298850Y-149561311D01*
X107405206Y-149540155D01*
X107511560Y-149519000D01*
X107728440Y-149519000D01*
X107834794Y-149540155D01*
X107834794Y-149540155D01*
G37*
G36*
X92594794Y-149540155D02*
G01*
X92701150Y-149561311D01*
X92901520Y-149644307D01*
X93081844Y-149764795D01*
X93235205Y-149918156D01*
X93355693Y-150098480D01*
X93438689Y-150298851D01*
X93481000Y-150511560D01*
X93481000Y-150728440D01*
X93438689Y-150941149D01*
X93355693Y-151141520D01*
X93235205Y-151321844D01*
X93081844Y-151475205D01*
X92901520Y-151595693D01*
X92801334Y-151637191D01*
X92701150Y-151678689D01*
X92594795Y-151699844D01*
X92488440Y-151721000D01*
X92271560Y-151721000D01*
X92165205Y-151699844D01*
X92058850Y-151678689D01*
X91958666Y-151637191D01*
X91858480Y-151595693D01*
X91678156Y-151475205D01*
X91524795Y-151321844D01*
X91404307Y-151141520D01*
X91321311Y-150941149D01*
X91279000Y-150728440D01*
X91279000Y-150511560D01*
X91321311Y-150298851D01*
X91404307Y-150098480D01*
X91524795Y-149918156D01*
X91678156Y-149764795D01*
X91858480Y-149644307D01*
X92058850Y-149561311D01*
X92165206Y-149540155D01*
X92271560Y-149519000D01*
X92488440Y-149519000D01*
X92594794Y-149540155D01*
X92594794Y-149540155D01*
G37*
G36*
X92594794Y-147000155D02*
G01*
X92701150Y-147021311D01*
X92801334Y-147062809D01*
X92901520Y-147104307D01*
X93081844Y-147224795D01*
X93235205Y-147378156D01*
X93355693Y-147558480D01*
X93438689Y-147758851D01*
X93481000Y-147971560D01*
X93481000Y-148188440D01*
X93438689Y-148401149D01*
X93355693Y-148601520D01*
X93235205Y-148781844D01*
X93081844Y-148935205D01*
X92901520Y-149055693D01*
X92701150Y-149138689D01*
X92594795Y-149159844D01*
X92488440Y-149181000D01*
X92271560Y-149181000D01*
X92165205Y-149159844D01*
X92058850Y-149138689D01*
X91858480Y-149055693D01*
X91678156Y-148935205D01*
X91524795Y-148781844D01*
X91404307Y-148601520D01*
X91321311Y-148401149D01*
X91279000Y-148188440D01*
X91279000Y-147971560D01*
X91321311Y-147758851D01*
X91404307Y-147558480D01*
X91524795Y-147378156D01*
X91678156Y-147224795D01*
X91858480Y-147104307D01*
X91958666Y-147062809D01*
X92058850Y-147021311D01*
X92165206Y-147000155D01*
X92271560Y-146979000D01*
X92488440Y-146979000D01*
X92594794Y-147000155D01*
X92594794Y-147000155D01*
G37*
G36*
X107834794Y-147000155D02*
G01*
X107941150Y-147021311D01*
X108041334Y-147062809D01*
X108141520Y-147104307D01*
X108321844Y-147224795D01*
X108475205Y-147378156D01*
X108595693Y-147558480D01*
X108678689Y-147758851D01*
X108721000Y-147971560D01*
X108721000Y-148188440D01*
X108678689Y-148401149D01*
X108595693Y-148601520D01*
X108475205Y-148781844D01*
X108321844Y-148935205D01*
X108141520Y-149055693D01*
X107941150Y-149138689D01*
X107834795Y-149159844D01*
X107728440Y-149181000D01*
X107511560Y-149181000D01*
X107405205Y-149159844D01*
X107298850Y-149138689D01*
X107098480Y-149055693D01*
X106918156Y-148935205D01*
X106764795Y-148781844D01*
X106644307Y-148601520D01*
X106561311Y-148401149D01*
X106519000Y-148188440D01*
X106519000Y-147971560D01*
X106561311Y-147758851D01*
X106644307Y-147558480D01*
X106764795Y-147378156D01*
X106918156Y-147224795D01*
X107098480Y-147104307D01*
X107198666Y-147062809D01*
X107298850Y-147021311D01*
X107405206Y-147000155D01*
X107511560Y-146979000D01*
X107728440Y-146979000D01*
X107834794Y-147000155D01*
X107834794Y-147000155D01*
G37*
G36*
X107834795Y-144460156D02*
G01*
X107941150Y-144481311D01*
X108141520Y-144564307D01*
X108321844Y-144684795D01*
X108475205Y-144838156D01*
X108595693Y-145018480D01*
X108678689Y-145218851D01*
X108721000Y-145431560D01*
X108721000Y-145648440D01*
X108678689Y-145861149D01*
X108595693Y-146061520D01*
X108475205Y-146241844D01*
X108321844Y-146395205D01*
X108141520Y-146515693D01*
X108041334Y-146557191D01*
X107941150Y-146598689D01*
X107834794Y-146619845D01*
X107728440Y-146641000D01*
X107511560Y-146641000D01*
X107405206Y-146619845D01*
X107298850Y-146598689D01*
X107198666Y-146557191D01*
X107098480Y-146515693D01*
X106918156Y-146395205D01*
X106764795Y-146241844D01*
X106644307Y-146061520D01*
X106561311Y-145861149D01*
X106519000Y-145648440D01*
X106519000Y-145431560D01*
X106561311Y-145218851D01*
X106644307Y-145018480D01*
X106764795Y-144838156D01*
X106918156Y-144684795D01*
X107098480Y-144564307D01*
X107298850Y-144481311D01*
X107405205Y-144460156D01*
X107511560Y-144439000D01*
X107728440Y-144439000D01*
X107834795Y-144460156D01*
X107834795Y-144460156D01*
G37*
G36*
X92594795Y-144460156D02*
G01*
X92701150Y-144481311D01*
X92901520Y-144564307D01*
X93081844Y-144684795D01*
X93235205Y-144838156D01*
X93355693Y-145018480D01*
X93438689Y-145218851D01*
X93481000Y-145431560D01*
X93481000Y-145648440D01*
X93438689Y-145861149D01*
X93355693Y-146061520D01*
X93235205Y-146241844D01*
X93081844Y-146395205D01*
X92901520Y-146515693D01*
X92801334Y-146557191D01*
X92701150Y-146598689D01*
X92594794Y-146619845D01*
X92488440Y-146641000D01*
X92271560Y-146641000D01*
X92165206Y-146619845D01*
X92058850Y-146598689D01*
X91958666Y-146557191D01*
X91858480Y-146515693D01*
X91678156Y-146395205D01*
X91524795Y-146241844D01*
X91404307Y-146061520D01*
X91321311Y-145861149D01*
X91279000Y-145648440D01*
X91279000Y-145431560D01*
X91321311Y-145218851D01*
X91404307Y-145018480D01*
X91524795Y-144838156D01*
X91678156Y-144684795D01*
X91858480Y-144564307D01*
X92058850Y-144481311D01*
X92165205Y-144460156D01*
X92271560Y-144439000D01*
X92488440Y-144439000D01*
X92594795Y-144460156D01*
X92594795Y-144460156D01*
G37*
G36*
X107834795Y-141920156D02*
G01*
X107941150Y-141941311D01*
X108141520Y-142024307D01*
X108321844Y-142144795D01*
X108475205Y-142298156D01*
X108595693Y-142478480D01*
X108678689Y-142678851D01*
X108721000Y-142891560D01*
X108721000Y-143108440D01*
X108678689Y-143321149D01*
X108595693Y-143521520D01*
X108475205Y-143701844D01*
X108321844Y-143855205D01*
X108141520Y-143975693D01*
X107941150Y-144058689D01*
X107834794Y-144079845D01*
X107728440Y-144101000D01*
X107511560Y-144101000D01*
X107405206Y-144079845D01*
X107298850Y-144058689D01*
X107098480Y-143975693D01*
X106918156Y-143855205D01*
X106764795Y-143701844D01*
X106644307Y-143521520D01*
X106561311Y-143321149D01*
X106519000Y-143108440D01*
X106519000Y-142891560D01*
X106561311Y-142678851D01*
X106644307Y-142478480D01*
X106764795Y-142298156D01*
X106918156Y-142144795D01*
X107098480Y-142024307D01*
X107298850Y-141941311D01*
X107405205Y-141920156D01*
X107511560Y-141899000D01*
X107728440Y-141899000D01*
X107834795Y-141920156D01*
X107834795Y-141920156D01*
G37*
G36*
X92594795Y-141920156D02*
G01*
X92701150Y-141941311D01*
X92901520Y-142024307D01*
X93081844Y-142144795D01*
X93235205Y-142298156D01*
X93355693Y-142478480D01*
X93438689Y-142678851D01*
X93481000Y-142891560D01*
X93481000Y-143108440D01*
X93438689Y-143321149D01*
X93355693Y-143521520D01*
X93235205Y-143701844D01*
X93081844Y-143855205D01*
X92901520Y-143975693D01*
X92701150Y-144058689D01*
X92594794Y-144079845D01*
X92488440Y-144101000D01*
X92271560Y-144101000D01*
X92165206Y-144079845D01*
X92058850Y-144058689D01*
X91858480Y-143975693D01*
X91678156Y-143855205D01*
X91524795Y-143701844D01*
X91404307Y-143521520D01*
X91321311Y-143321149D01*
X91279000Y-143108440D01*
X91279000Y-142891560D01*
X91321311Y-142678851D01*
X91404307Y-142478480D01*
X91524795Y-142298156D01*
X91678156Y-142144795D01*
X91858480Y-142024307D01*
X92058850Y-141941311D01*
X92165205Y-141920156D01*
X92271560Y-141899000D01*
X92488440Y-141899000D01*
X92594795Y-141920156D01*
X92594795Y-141920156D01*
G37*
G36*
X107834794Y-139380155D02*
G01*
X107941150Y-139401311D01*
X108141520Y-139484307D01*
X108321844Y-139604795D01*
X108475205Y-139758156D01*
X108595693Y-139938480D01*
X108678689Y-140138851D01*
X108721000Y-140351560D01*
X108721000Y-140568440D01*
X108678689Y-140781149D01*
X108595693Y-140981520D01*
X108475205Y-141161844D01*
X108321844Y-141315205D01*
X108141520Y-141435693D01*
X108041334Y-141477191D01*
X107941150Y-141518689D01*
X107834795Y-141539844D01*
X107728440Y-141561000D01*
X107511560Y-141561000D01*
X107405205Y-141539844D01*
X107298850Y-141518689D01*
X107198666Y-141477191D01*
X107098480Y-141435693D01*
X106918156Y-141315205D01*
X106764795Y-141161844D01*
X106644307Y-140981520D01*
X106561311Y-140781149D01*
X106519000Y-140568440D01*
X106519000Y-140351560D01*
X106561311Y-140138851D01*
X106644307Y-139938480D01*
X106764795Y-139758156D01*
X106918156Y-139604795D01*
X107098480Y-139484307D01*
X107298850Y-139401311D01*
X107405206Y-139380155D01*
X107511560Y-139359000D01*
X107728440Y-139359000D01*
X107834794Y-139380155D01*
X107834794Y-139380155D01*
G37*
G36*
X92594794Y-139380155D02*
G01*
X92701150Y-139401311D01*
X92901520Y-139484307D01*
X93081844Y-139604795D01*
X93235205Y-139758156D01*
X93355693Y-139938480D01*
X93438689Y-140138851D01*
X93481000Y-140351560D01*
X93481000Y-140568440D01*
X93438689Y-140781149D01*
X93355693Y-140981520D01*
X93235205Y-141161844D01*
X93081844Y-141315205D01*
X92901520Y-141435693D01*
X92801334Y-141477191D01*
X92701150Y-141518689D01*
X92594795Y-141539844D01*
X92488440Y-141561000D01*
X92271560Y-141561000D01*
X92165205Y-141539844D01*
X92058850Y-141518689D01*
X91958666Y-141477191D01*
X91858480Y-141435693D01*
X91678156Y-141315205D01*
X91524795Y-141161844D01*
X91404307Y-140981520D01*
X91321311Y-140781149D01*
X91279000Y-140568440D01*
X91279000Y-140351560D01*
X91321311Y-140138851D01*
X91404307Y-139938480D01*
X91524795Y-139758156D01*
X91678156Y-139604795D01*
X91858480Y-139484307D01*
X92058850Y-139401311D01*
X92165206Y-139380155D01*
X92271560Y-139359000D01*
X92488440Y-139359000D01*
X92594794Y-139380155D01*
X92594794Y-139380155D01*
G37*
G36*
X92594794Y-136840155D02*
G01*
X92701150Y-136861311D01*
X92801334Y-136902809D01*
X92901520Y-136944307D01*
X93081844Y-137064795D01*
X93235205Y-137218156D01*
X93355693Y-137398480D01*
X93438689Y-137598851D01*
X93481000Y-137811560D01*
X93481000Y-138028440D01*
X93438689Y-138241149D01*
X93355693Y-138441520D01*
X93235205Y-138621844D01*
X93081844Y-138775205D01*
X92901520Y-138895693D01*
X92701150Y-138978689D01*
X92594795Y-138999844D01*
X92488440Y-139021000D01*
X92271560Y-139021000D01*
X92165205Y-138999844D01*
X92058850Y-138978689D01*
X91858480Y-138895693D01*
X91678156Y-138775205D01*
X91524795Y-138621844D01*
X91404307Y-138441520D01*
X91321311Y-138241149D01*
X91279000Y-138028440D01*
X91279000Y-137811560D01*
X91321311Y-137598851D01*
X91404307Y-137398480D01*
X91524795Y-137218156D01*
X91678156Y-137064795D01*
X91858480Y-136944307D01*
X91958666Y-136902809D01*
X92058850Y-136861311D01*
X92165206Y-136840155D01*
X92271560Y-136819000D01*
X92488440Y-136819000D01*
X92594794Y-136840155D01*
X92594794Y-136840155D01*
G37*
G36*
X107834794Y-136840155D02*
G01*
X107941150Y-136861311D01*
X108041334Y-136902809D01*
X108141520Y-136944307D01*
X108321844Y-137064795D01*
X108475205Y-137218156D01*
X108595693Y-137398480D01*
X108678689Y-137598851D01*
X108721000Y-137811560D01*
X108721000Y-138028440D01*
X108678689Y-138241149D01*
X108595693Y-138441520D01*
X108475205Y-138621844D01*
X108321844Y-138775205D01*
X108141520Y-138895693D01*
X107941150Y-138978689D01*
X107834795Y-138999844D01*
X107728440Y-139021000D01*
X107511560Y-139021000D01*
X107405205Y-138999844D01*
X107298850Y-138978689D01*
X107098480Y-138895693D01*
X106918156Y-138775205D01*
X106764795Y-138621844D01*
X106644307Y-138441520D01*
X106561311Y-138241149D01*
X106519000Y-138028440D01*
X106519000Y-137811560D01*
X106561311Y-137598851D01*
X106644307Y-137398480D01*
X106764795Y-137218156D01*
X106918156Y-137064795D01*
X107098480Y-136944307D01*
X107198666Y-136902809D01*
X107298850Y-136861311D01*
X107405206Y-136840155D01*
X107511560Y-136819000D01*
X107728440Y-136819000D01*
X107834794Y-136840155D01*
X107834794Y-136840155D01*
G37*
G36*
X107834795Y-134300156D02*
G01*
X107941150Y-134321311D01*
X108141520Y-134404307D01*
X108321844Y-134524795D01*
X108475205Y-134678156D01*
X108595693Y-134858480D01*
X108678689Y-135058851D01*
X108721000Y-135271560D01*
X108721000Y-135488440D01*
X108678689Y-135701149D01*
X108595693Y-135901520D01*
X108475205Y-136081844D01*
X108321844Y-136235205D01*
X108141520Y-136355693D01*
X107941150Y-136438689D01*
X107834794Y-136459845D01*
X107728440Y-136481000D01*
X107511560Y-136481000D01*
X107405206Y-136459845D01*
X107298850Y-136438689D01*
X107098480Y-136355693D01*
X106918156Y-136235205D01*
X106764795Y-136081844D01*
X106644307Y-135901520D01*
X106561311Y-135701149D01*
X106519000Y-135488440D01*
X106519000Y-135271560D01*
X106561311Y-135058851D01*
X106644307Y-134858480D01*
X106764795Y-134678156D01*
X106918156Y-134524795D01*
X107098480Y-134404307D01*
X107298850Y-134321311D01*
X107405205Y-134300156D01*
X107511560Y-134279000D01*
X107728440Y-134279000D01*
X107834795Y-134300156D01*
X107834795Y-134300156D01*
G37*
G36*
X92594795Y-134300156D02*
G01*
X92701150Y-134321311D01*
X92901520Y-134404307D01*
X93081844Y-134524795D01*
X93235205Y-134678156D01*
X93355693Y-134858480D01*
X93438689Y-135058851D01*
X93481000Y-135271560D01*
X93481000Y-135488440D01*
X93438689Y-135701149D01*
X93355693Y-135901520D01*
X93235205Y-136081844D01*
X93081844Y-136235205D01*
X92901520Y-136355693D01*
X92701150Y-136438689D01*
X92594794Y-136459845D01*
X92488440Y-136481000D01*
X92271560Y-136481000D01*
X92165206Y-136459845D01*
X92058850Y-136438689D01*
X91858480Y-136355693D01*
X91678156Y-136235205D01*
X91524795Y-136081844D01*
X91404307Y-135901520D01*
X91321311Y-135701149D01*
X91279000Y-135488440D01*
X91279000Y-135271560D01*
X91321311Y-135058851D01*
X91404307Y-134858480D01*
X91524795Y-134678156D01*
X91678156Y-134524795D01*
X91858480Y-134404307D01*
X92058850Y-134321311D01*
X92165205Y-134300156D01*
X92271560Y-134279000D01*
X92488440Y-134279000D01*
X92594795Y-134300156D01*
X92594795Y-134300156D01*
G37*
G36*
X92594794Y-131760155D02*
G01*
X92701150Y-131781311D01*
X92901520Y-131864307D01*
X93081844Y-131984795D01*
X93235205Y-132138156D01*
X93355693Y-132318480D01*
X93438689Y-132518851D01*
X93481000Y-132731560D01*
X93481000Y-132948440D01*
X93438689Y-133161149D01*
X93355693Y-133361520D01*
X93235205Y-133541844D01*
X93081844Y-133695205D01*
X92901520Y-133815693D01*
X92801334Y-133857191D01*
X92701150Y-133898689D01*
X92594794Y-133919845D01*
X92488440Y-133941000D01*
X92271560Y-133941000D01*
X92165206Y-133919845D01*
X92058850Y-133898689D01*
X91958666Y-133857191D01*
X91858480Y-133815693D01*
X91678156Y-133695205D01*
X91524795Y-133541844D01*
X91404307Y-133361520D01*
X91321311Y-133161149D01*
X91279000Y-132948440D01*
X91279000Y-132731560D01*
X91321311Y-132518851D01*
X91404307Y-132318480D01*
X91524795Y-132138156D01*
X91678156Y-131984795D01*
X91858480Y-131864307D01*
X92058850Y-131781311D01*
X92165206Y-131760155D01*
X92271560Y-131739000D01*
X92488440Y-131739000D01*
X92594794Y-131760155D01*
X92594794Y-131760155D01*
G37*
G36*
X107834794Y-131760155D02*
G01*
X107941150Y-131781311D01*
X108141520Y-131864307D01*
X108321844Y-131984795D01*
X108475205Y-132138156D01*
X108595693Y-132318480D01*
X108678689Y-132518851D01*
X108721000Y-132731560D01*
X108721000Y-132948440D01*
X108678689Y-133161149D01*
X108595693Y-133361520D01*
X108475205Y-133541844D01*
X108321844Y-133695205D01*
X108141520Y-133815693D01*
X108041334Y-133857191D01*
X107941150Y-133898689D01*
X107834794Y-133919845D01*
X107728440Y-133941000D01*
X107511560Y-133941000D01*
X107405206Y-133919845D01*
X107298850Y-133898689D01*
X107198666Y-133857191D01*
X107098480Y-133815693D01*
X106918156Y-133695205D01*
X106764795Y-133541844D01*
X106644307Y-133361520D01*
X106561311Y-133161149D01*
X106519000Y-132948440D01*
X106519000Y-132731560D01*
X106561311Y-132518851D01*
X106644307Y-132318480D01*
X106764795Y-132138156D01*
X106918156Y-131984795D01*
X107098480Y-131864307D01*
X107298850Y-131781311D01*
X107405206Y-131760155D01*
X107511560Y-131739000D01*
X107728440Y-131739000D01*
X107834794Y-131760155D01*
X107834794Y-131760155D01*
G37*
G36*
X92594794Y-129220155D02*
G01*
X92701150Y-129241311D01*
X92801334Y-129282809D01*
X92901520Y-129324307D01*
X93081844Y-129444795D01*
X93235205Y-129598156D01*
X93355693Y-129778480D01*
X93438689Y-129978851D01*
X93481000Y-130191560D01*
X93481000Y-130408440D01*
X93438689Y-130621149D01*
X93355693Y-130821520D01*
X93235205Y-131001844D01*
X93081844Y-131155205D01*
X92901520Y-131275693D01*
X92701150Y-131358689D01*
X92594795Y-131379844D01*
X92488440Y-131401000D01*
X92271560Y-131401000D01*
X92165205Y-131379844D01*
X92058850Y-131358689D01*
X91858480Y-131275693D01*
X91678156Y-131155205D01*
X91524795Y-131001844D01*
X91404307Y-130821520D01*
X91321311Y-130621149D01*
X91279000Y-130408440D01*
X91279000Y-130191560D01*
X91321311Y-129978851D01*
X91404307Y-129778480D01*
X91524795Y-129598156D01*
X91678156Y-129444795D01*
X91858480Y-129324307D01*
X91958666Y-129282809D01*
X92058850Y-129241311D01*
X92165206Y-129220155D01*
X92271560Y-129199000D01*
X92488440Y-129199000D01*
X92594794Y-129220155D01*
X92594794Y-129220155D01*
G37*
G36*
X107834794Y-129220155D02*
G01*
X107941150Y-129241311D01*
X108041334Y-129282809D01*
X108141520Y-129324307D01*
X108321844Y-129444795D01*
X108475205Y-129598156D01*
X108595693Y-129778480D01*
X108678689Y-129978851D01*
X108721000Y-130191560D01*
X108721000Y-130408440D01*
X108678689Y-130621149D01*
X108595693Y-130821520D01*
X108475205Y-131001844D01*
X108321844Y-131155205D01*
X108141520Y-131275693D01*
X107941150Y-131358689D01*
X107834795Y-131379844D01*
X107728440Y-131401000D01*
X107511560Y-131401000D01*
X107405205Y-131379844D01*
X107298850Y-131358689D01*
X107098480Y-131275693D01*
X106918156Y-131155205D01*
X106764795Y-131001844D01*
X106644307Y-130821520D01*
X106561311Y-130621149D01*
X106519000Y-130408440D01*
X106519000Y-130191560D01*
X106561311Y-129978851D01*
X106644307Y-129778480D01*
X106764795Y-129598156D01*
X106918156Y-129444795D01*
X107098480Y-129324307D01*
X107198666Y-129282809D01*
X107298850Y-129241311D01*
X107405206Y-129220155D01*
X107511560Y-129199000D01*
X107728440Y-129199000D01*
X107834794Y-129220155D01*
X107834794Y-129220155D01*
G37*
G36*
X92594795Y-126680156D02*
G01*
X92701150Y-126701311D01*
X92901520Y-126784307D01*
X93081844Y-126904795D01*
X93235205Y-127058156D01*
X93355693Y-127238480D01*
X93438689Y-127438851D01*
X93481000Y-127651560D01*
X93481000Y-127868440D01*
X93438689Y-128081149D01*
X93355693Y-128281520D01*
X93235205Y-128461844D01*
X93081844Y-128615205D01*
X92901520Y-128735693D01*
X92701150Y-128818689D01*
X92594794Y-128839845D01*
X92488440Y-128861000D01*
X92271560Y-128861000D01*
X92165206Y-128839845D01*
X92058850Y-128818689D01*
X91858480Y-128735693D01*
X91678156Y-128615205D01*
X91524795Y-128461844D01*
X91404307Y-128281520D01*
X91321311Y-128081149D01*
X91279000Y-127868440D01*
X91279000Y-127651560D01*
X91321311Y-127438851D01*
X91404307Y-127238480D01*
X91524795Y-127058156D01*
X91678156Y-126904795D01*
X91858480Y-126784307D01*
X92058850Y-126701311D01*
X92165205Y-126680156D01*
X92271560Y-126659000D01*
X92488440Y-126659000D01*
X92594795Y-126680156D01*
X92594795Y-126680156D01*
G37*
G36*
X107834795Y-126680156D02*
G01*
X107941150Y-126701311D01*
X108141520Y-126784307D01*
X108321844Y-126904795D01*
X108475205Y-127058156D01*
X108595693Y-127238480D01*
X108678689Y-127438851D01*
X108721000Y-127651560D01*
X108721000Y-127868440D01*
X108678689Y-128081149D01*
X108595693Y-128281520D01*
X108475205Y-128461844D01*
X108321844Y-128615205D01*
X108141520Y-128735693D01*
X107941150Y-128818689D01*
X107834794Y-128839845D01*
X107728440Y-128861000D01*
X107511560Y-128861000D01*
X107405206Y-128839845D01*
X107298850Y-128818689D01*
X107098480Y-128735693D01*
X106918156Y-128615205D01*
X106764795Y-128461844D01*
X106644307Y-128281520D01*
X106561311Y-128081149D01*
X106519000Y-127868440D01*
X106519000Y-127651560D01*
X106561311Y-127438851D01*
X106644307Y-127238480D01*
X106764795Y-127058156D01*
X106918156Y-126904795D01*
X107098480Y-126784307D01*
X107298850Y-126701311D01*
X107405205Y-126680156D01*
X107511560Y-126659000D01*
X107728440Y-126659000D01*
X107834795Y-126680156D01*
X107834795Y-126680156D01*
G37*
G36*
X107723097Y-123654069D02*
G01*
X107826032Y-123664207D01*
X108024146Y-123724305D01*
X108024149Y-123724306D01*
X108120975Y-123776061D01*
X108206729Y-123821897D01*
X108366765Y-123953235D01*
X108498103Y-124113271D01*
X108543939Y-124199025D01*
X108595694Y-124295851D01*
X108595695Y-124295854D01*
X108655793Y-124493968D01*
X108676085Y-124700000D01*
X108655793Y-124906032D01*
X108595695Y-125104146D01*
X108595694Y-125104149D01*
X108543939Y-125200975D01*
X108498103Y-125286729D01*
X108366765Y-125446765D01*
X108206729Y-125578103D01*
X108120975Y-125623939D01*
X108024149Y-125675694D01*
X108024146Y-125675695D01*
X107826032Y-125735793D01*
X107723097Y-125745931D01*
X107671631Y-125751000D01*
X107568369Y-125751000D01*
X107516903Y-125745931D01*
X107413968Y-125735793D01*
X107215854Y-125675695D01*
X107215851Y-125675694D01*
X107119025Y-125623939D01*
X107033271Y-125578103D01*
X106873235Y-125446765D01*
X106741897Y-125286729D01*
X106696061Y-125200975D01*
X106644306Y-125104149D01*
X106644305Y-125104146D01*
X106584207Y-124906032D01*
X106563915Y-124700000D01*
X106584207Y-124493968D01*
X106644305Y-124295854D01*
X106644306Y-124295851D01*
X106696061Y-124199025D01*
X106741897Y-124113271D01*
X106873235Y-123953235D01*
X107033271Y-123821897D01*
X107119025Y-123776061D01*
X107215851Y-123724306D01*
X107215854Y-123724305D01*
X107413968Y-123664207D01*
X107516903Y-123654069D01*
X107568369Y-123649000D01*
X107671631Y-123649000D01*
X107723097Y-123654069D01*
X107723097Y-123654069D01*
G37*
G36*
X92483097Y-123654069D02*
G01*
X92586032Y-123664207D01*
X92784146Y-123724305D01*
X92784149Y-123724306D01*
X92880975Y-123776061D01*
X92966729Y-123821897D01*
X93126765Y-123953235D01*
X93258103Y-124113271D01*
X93303939Y-124199025D01*
X93355694Y-124295851D01*
X93355695Y-124295854D01*
X93415793Y-124493968D01*
X93436085Y-124700000D01*
X93415793Y-124906032D01*
X93355695Y-125104146D01*
X93355694Y-125104149D01*
X93303939Y-125200975D01*
X93258103Y-125286729D01*
X93126765Y-125446765D01*
X92966729Y-125578103D01*
X92880975Y-125623939D01*
X92784149Y-125675694D01*
X92784146Y-125675695D01*
X92586032Y-125735793D01*
X92483097Y-125745931D01*
X92431631Y-125751000D01*
X92328369Y-125751000D01*
X92276903Y-125745931D01*
X92173968Y-125735793D01*
X91975854Y-125675695D01*
X91975851Y-125675694D01*
X91879025Y-125623939D01*
X91793271Y-125578103D01*
X91633235Y-125446765D01*
X91501897Y-125286729D01*
X91456061Y-125200975D01*
X91404306Y-125104149D01*
X91404305Y-125104146D01*
X91344207Y-124906032D01*
X91323915Y-124700000D01*
X91344207Y-124493968D01*
X91404305Y-124295854D01*
X91404306Y-124295851D01*
X91456061Y-124199025D01*
X91501897Y-124113271D01*
X91633235Y-123953235D01*
X91793271Y-123821897D01*
X91879025Y-123776061D01*
X91975851Y-123724306D01*
X91975854Y-123724305D01*
X92173968Y-123664207D01*
X92276903Y-123654069D01*
X92328369Y-123649000D01*
X92431631Y-123649000D01*
X92483097Y-123654069D01*
X92483097Y-123654069D01*
G37*
G36*
X107723097Y-121114069D02*
G01*
X107826032Y-121124207D01*
X108024146Y-121184305D01*
X108024149Y-121184306D01*
X108120975Y-121236061D01*
X108206729Y-121281897D01*
X108366765Y-121413235D01*
X108498103Y-121573271D01*
X108543939Y-121659025D01*
X108595694Y-121755851D01*
X108595695Y-121755854D01*
X108655793Y-121953968D01*
X108676085Y-122160000D01*
X108655793Y-122366032D01*
X108595695Y-122564146D01*
X108595694Y-122564149D01*
X108543939Y-122660975D01*
X108498103Y-122746729D01*
X108366765Y-122906765D01*
X108206729Y-123038103D01*
X108120975Y-123083939D01*
X108024149Y-123135694D01*
X108024146Y-123135695D01*
X107826032Y-123195793D01*
X107723097Y-123205931D01*
X107671631Y-123211000D01*
X107568369Y-123211000D01*
X107516903Y-123205931D01*
X107413968Y-123195793D01*
X107215854Y-123135695D01*
X107215851Y-123135694D01*
X107119025Y-123083939D01*
X107033271Y-123038103D01*
X106873235Y-122906765D01*
X106741897Y-122746729D01*
X106696061Y-122660975D01*
X106644306Y-122564149D01*
X106644305Y-122564146D01*
X106584207Y-122366032D01*
X106563915Y-122160000D01*
X106584207Y-121953968D01*
X106644305Y-121755854D01*
X106644306Y-121755851D01*
X106696061Y-121659025D01*
X106741897Y-121573271D01*
X106873235Y-121413235D01*
X107033271Y-121281897D01*
X107119025Y-121236061D01*
X107215851Y-121184306D01*
X107215854Y-121184305D01*
X107413968Y-121124207D01*
X107516903Y-121114069D01*
X107568369Y-121109000D01*
X107671631Y-121109000D01*
X107723097Y-121114069D01*
X107723097Y-121114069D01*
G37*
G36*
X92483097Y-121114069D02*
G01*
X92586032Y-121124207D01*
X92784146Y-121184305D01*
X92784149Y-121184306D01*
X92880975Y-121236061D01*
X92966729Y-121281897D01*
X93126765Y-121413235D01*
X93258103Y-121573271D01*
X93303939Y-121659025D01*
X93355694Y-121755851D01*
X93355695Y-121755854D01*
X93415793Y-121953968D01*
X93436085Y-122160000D01*
X93415793Y-122366032D01*
X93355695Y-122564146D01*
X93355694Y-122564149D01*
X93303939Y-122660975D01*
X93258103Y-122746729D01*
X93126765Y-122906765D01*
X92966729Y-123038103D01*
X92880975Y-123083939D01*
X92784149Y-123135694D01*
X92784146Y-123135695D01*
X92586032Y-123195793D01*
X92483097Y-123205931D01*
X92431631Y-123211000D01*
X92328369Y-123211000D01*
X92276903Y-123205931D01*
X92173968Y-123195793D01*
X91975854Y-123135695D01*
X91975851Y-123135694D01*
X91879025Y-123083939D01*
X91793271Y-123038103D01*
X91633235Y-122906765D01*
X91501897Y-122746729D01*
X91456061Y-122660975D01*
X91404306Y-122564149D01*
X91404305Y-122564146D01*
X91344207Y-122366032D01*
X91323915Y-122160000D01*
X91344207Y-121953968D01*
X91404305Y-121755854D01*
X91404306Y-121755851D01*
X91456061Y-121659025D01*
X91501897Y-121573271D01*
X91633235Y-121413235D01*
X91793271Y-121281897D01*
X91879025Y-121236061D01*
X91975851Y-121184306D01*
X91975854Y-121184305D01*
X92173968Y-121124207D01*
X92276903Y-121114069D01*
X92328369Y-121109000D01*
X92431631Y-121109000D01*
X92483097Y-121114069D01*
X92483097Y-121114069D01*
G37*
G36*
X107723097Y-118574069D02*
G01*
X107826032Y-118584207D01*
X108024146Y-118644305D01*
X108024149Y-118644306D01*
X108120975Y-118696061D01*
X108206729Y-118741897D01*
X108366765Y-118873235D01*
X108498103Y-119033271D01*
X108543939Y-119119025D01*
X108595694Y-119215851D01*
X108595695Y-119215854D01*
X108655793Y-119413968D01*
X108676085Y-119620000D01*
X108655793Y-119826032D01*
X108595695Y-120024146D01*
X108595694Y-120024149D01*
X108543939Y-120120975D01*
X108498103Y-120206729D01*
X108366765Y-120366765D01*
X108206729Y-120498103D01*
X108120975Y-120543939D01*
X108024149Y-120595694D01*
X108024146Y-120595695D01*
X107826032Y-120655793D01*
X107723097Y-120665931D01*
X107671631Y-120671000D01*
X107568369Y-120671000D01*
X107516903Y-120665931D01*
X107413968Y-120655793D01*
X107215854Y-120595695D01*
X107215851Y-120595694D01*
X107119025Y-120543939D01*
X107033271Y-120498103D01*
X106873235Y-120366765D01*
X106741897Y-120206729D01*
X106696061Y-120120975D01*
X106644306Y-120024149D01*
X106644305Y-120024146D01*
X106584207Y-119826032D01*
X106563915Y-119620000D01*
X106584207Y-119413968D01*
X106644305Y-119215854D01*
X106644306Y-119215851D01*
X106696061Y-119119025D01*
X106741897Y-119033271D01*
X106873235Y-118873235D01*
X107033271Y-118741897D01*
X107119025Y-118696061D01*
X107215851Y-118644306D01*
X107215854Y-118644305D01*
X107413968Y-118584207D01*
X107516903Y-118574069D01*
X107568369Y-118569000D01*
X107671631Y-118569000D01*
X107723097Y-118574069D01*
X107723097Y-118574069D01*
G37*
G36*
X92483097Y-118574069D02*
G01*
X92586032Y-118584207D01*
X92784146Y-118644305D01*
X92784149Y-118644306D01*
X92880975Y-118696061D01*
X92966729Y-118741897D01*
X93126765Y-118873235D01*
X93258103Y-119033271D01*
X93303939Y-119119025D01*
X93355694Y-119215851D01*
X93355695Y-119215854D01*
X93415793Y-119413968D01*
X93436085Y-119620000D01*
X93415793Y-119826032D01*
X93355695Y-120024146D01*
X93355694Y-120024149D01*
X93303939Y-120120975D01*
X93258103Y-120206729D01*
X93126765Y-120366765D01*
X92966729Y-120498103D01*
X92880975Y-120543939D01*
X92784149Y-120595694D01*
X92784146Y-120595695D01*
X92586032Y-120655793D01*
X92483097Y-120665931D01*
X92431631Y-120671000D01*
X92328369Y-120671000D01*
X92276903Y-120665931D01*
X92173968Y-120655793D01*
X91975854Y-120595695D01*
X91975851Y-120595694D01*
X91879025Y-120543939D01*
X91793271Y-120498103D01*
X91633235Y-120366765D01*
X91501897Y-120206729D01*
X91456061Y-120120975D01*
X91404306Y-120024149D01*
X91404305Y-120024146D01*
X91344207Y-119826032D01*
X91323915Y-119620000D01*
X91344207Y-119413968D01*
X91404305Y-119215854D01*
X91404306Y-119215851D01*
X91456061Y-119119025D01*
X91501897Y-119033271D01*
X91633235Y-118873235D01*
X91793271Y-118741897D01*
X91879025Y-118696061D01*
X91975851Y-118644306D01*
X91975854Y-118644305D01*
X92173968Y-118584207D01*
X92276903Y-118574069D01*
X92328369Y-118569000D01*
X92431631Y-118569000D01*
X92483097Y-118574069D01*
X92483097Y-118574069D01*
G37*
G36*
X92483097Y-116034069D02*
G01*
X92586032Y-116044207D01*
X92784146Y-116104305D01*
X92784149Y-116104306D01*
X92880975Y-116156061D01*
X92966729Y-116201897D01*
X93126765Y-116333235D01*
X93258103Y-116493271D01*
X93303939Y-116579025D01*
X93355694Y-116675851D01*
X93355695Y-116675854D01*
X93415793Y-116873968D01*
X93436085Y-117080000D01*
X93415793Y-117286032D01*
X93355695Y-117484146D01*
X93355694Y-117484149D01*
X93303939Y-117580975D01*
X93258103Y-117666729D01*
X93126765Y-117826765D01*
X92966729Y-117958103D01*
X92880975Y-118003939D01*
X92784149Y-118055694D01*
X92784146Y-118055695D01*
X92586032Y-118115793D01*
X92483097Y-118125931D01*
X92431631Y-118131000D01*
X92328369Y-118131000D01*
X92276903Y-118125931D01*
X92173968Y-118115793D01*
X91975854Y-118055695D01*
X91975851Y-118055694D01*
X91879025Y-118003939D01*
X91793271Y-117958103D01*
X91633235Y-117826765D01*
X91501897Y-117666729D01*
X91456061Y-117580975D01*
X91404306Y-117484149D01*
X91404305Y-117484146D01*
X91344207Y-117286032D01*
X91323915Y-117080000D01*
X91344207Y-116873968D01*
X91404305Y-116675854D01*
X91404306Y-116675851D01*
X91456061Y-116579025D01*
X91501897Y-116493271D01*
X91633235Y-116333235D01*
X91793271Y-116201897D01*
X91879025Y-116156061D01*
X91975851Y-116104306D01*
X91975854Y-116104305D01*
X92173968Y-116044207D01*
X92276903Y-116034069D01*
X92328369Y-116029000D01*
X92431631Y-116029000D01*
X92483097Y-116034069D01*
X92483097Y-116034069D01*
G37*
G36*
X107723097Y-116034069D02*
G01*
X107826032Y-116044207D01*
X108024146Y-116104305D01*
X108024149Y-116104306D01*
X108120975Y-116156061D01*
X108206729Y-116201897D01*
X108366765Y-116333235D01*
X108498103Y-116493271D01*
X108543939Y-116579025D01*
X108595694Y-116675851D01*
X108595695Y-116675854D01*
X108655793Y-116873968D01*
X108676085Y-117080000D01*
X108655793Y-117286032D01*
X108595695Y-117484146D01*
X108595694Y-117484149D01*
X108543939Y-117580975D01*
X108498103Y-117666729D01*
X108366765Y-117826765D01*
X108206729Y-117958103D01*
X108120975Y-118003939D01*
X108024149Y-118055694D01*
X108024146Y-118055695D01*
X107826032Y-118115793D01*
X107723097Y-118125931D01*
X107671631Y-118131000D01*
X107568369Y-118131000D01*
X107516903Y-118125931D01*
X107413968Y-118115793D01*
X107215854Y-118055695D01*
X107215851Y-118055694D01*
X107119025Y-118003939D01*
X107033271Y-117958103D01*
X106873235Y-117826765D01*
X106741897Y-117666729D01*
X106696061Y-117580975D01*
X106644306Y-117484149D01*
X106644305Y-117484146D01*
X106584207Y-117286032D01*
X106563915Y-117080000D01*
X106584207Y-116873968D01*
X106644305Y-116675854D01*
X106644306Y-116675851D01*
X106696061Y-116579025D01*
X106741897Y-116493271D01*
X106873235Y-116333235D01*
X107033271Y-116201897D01*
X107119025Y-116156061D01*
X107215851Y-116104306D01*
X107215854Y-116104305D01*
X107413968Y-116044207D01*
X107516903Y-116034069D01*
X107568369Y-116029000D01*
X107671631Y-116029000D01*
X107723097Y-116034069D01*
X107723097Y-116034069D01*
G37*
G36*
X92483097Y-113494069D02*
G01*
X92586032Y-113504207D01*
X92784146Y-113564305D01*
X92784149Y-113564306D01*
X92880975Y-113616061D01*
X92966729Y-113661897D01*
X93126765Y-113793235D01*
X93258103Y-113953271D01*
X93303939Y-114039025D01*
X93355694Y-114135851D01*
X93355695Y-114135854D01*
X93415793Y-114333968D01*
X93436085Y-114540000D01*
X93415793Y-114746032D01*
X93355695Y-114944146D01*
X93355694Y-114944149D01*
X93303939Y-115040975D01*
X93258103Y-115126729D01*
X93126765Y-115286765D01*
X92966729Y-115418103D01*
X92880975Y-115463939D01*
X92784149Y-115515694D01*
X92784146Y-115515695D01*
X92586032Y-115575793D01*
X92483097Y-115585931D01*
X92431631Y-115591000D01*
X92328369Y-115591000D01*
X92276903Y-115585931D01*
X92173968Y-115575793D01*
X91975854Y-115515695D01*
X91975851Y-115515694D01*
X91879025Y-115463939D01*
X91793271Y-115418103D01*
X91633235Y-115286765D01*
X91501897Y-115126729D01*
X91456061Y-115040975D01*
X91404306Y-114944149D01*
X91404305Y-114944146D01*
X91344207Y-114746032D01*
X91323915Y-114540000D01*
X91344207Y-114333968D01*
X91404305Y-114135854D01*
X91404306Y-114135851D01*
X91456061Y-114039025D01*
X91501897Y-113953271D01*
X91633235Y-113793235D01*
X91793271Y-113661897D01*
X91879025Y-113616061D01*
X91975851Y-113564306D01*
X91975854Y-113564305D01*
X92173968Y-113504207D01*
X92276903Y-113494069D01*
X92328369Y-113489000D01*
X92431631Y-113489000D01*
X92483097Y-113494069D01*
X92483097Y-113494069D01*
G37*
G36*
X107723097Y-113494069D02*
G01*
X107826032Y-113504207D01*
X108024146Y-113564305D01*
X108024149Y-113564306D01*
X108120975Y-113616061D01*
X108206729Y-113661897D01*
X108366765Y-113793235D01*
X108498103Y-113953271D01*
X108543939Y-114039025D01*
X108595694Y-114135851D01*
X108595695Y-114135854D01*
X108655793Y-114333968D01*
X108676085Y-114540000D01*
X108655793Y-114746032D01*
X108595695Y-114944146D01*
X108595694Y-114944149D01*
X108543939Y-115040975D01*
X108498103Y-115126729D01*
X108366765Y-115286765D01*
X108206729Y-115418103D01*
X108120975Y-115463939D01*
X108024149Y-115515694D01*
X108024146Y-115515695D01*
X107826032Y-115575793D01*
X107723097Y-115585931D01*
X107671631Y-115591000D01*
X107568369Y-115591000D01*
X107516903Y-115585931D01*
X107413968Y-115575793D01*
X107215854Y-115515695D01*
X107215851Y-115515694D01*
X107119025Y-115463939D01*
X107033271Y-115418103D01*
X106873235Y-115286765D01*
X106741897Y-115126729D01*
X106696061Y-115040975D01*
X106644306Y-114944149D01*
X106644305Y-114944146D01*
X106584207Y-114746032D01*
X106563915Y-114540000D01*
X106584207Y-114333968D01*
X106644305Y-114135854D01*
X106644306Y-114135851D01*
X106696061Y-114039025D01*
X106741897Y-113953271D01*
X106873235Y-113793235D01*
X107033271Y-113661897D01*
X107119025Y-113616061D01*
X107215851Y-113564306D01*
X107215854Y-113564305D01*
X107413968Y-113504207D01*
X107516903Y-113494069D01*
X107568369Y-113489000D01*
X107671631Y-113489000D01*
X107723097Y-113494069D01*
X107723097Y-113494069D01*
G37*
G36*
X92483097Y-110954069D02*
G01*
X92586032Y-110964207D01*
X92784146Y-111024305D01*
X92784149Y-111024306D01*
X92880975Y-111076061D01*
X92966729Y-111121897D01*
X93126765Y-111253235D01*
X93258103Y-111413271D01*
X93303939Y-111499025D01*
X93355694Y-111595851D01*
X93355695Y-111595854D01*
X93415793Y-111793968D01*
X93436085Y-112000000D01*
X93415793Y-112206032D01*
X93355695Y-112404146D01*
X93355694Y-112404149D01*
X93303939Y-112500975D01*
X93258103Y-112586729D01*
X93126765Y-112746765D01*
X92966729Y-112878103D01*
X92880975Y-112923939D01*
X92784149Y-112975694D01*
X92784146Y-112975695D01*
X92586032Y-113035793D01*
X92483097Y-113045931D01*
X92431631Y-113051000D01*
X92328369Y-113051000D01*
X92276903Y-113045931D01*
X92173968Y-113035793D01*
X91975854Y-112975695D01*
X91975851Y-112975694D01*
X91879025Y-112923939D01*
X91793271Y-112878103D01*
X91633235Y-112746765D01*
X91501897Y-112586729D01*
X91456061Y-112500975D01*
X91404306Y-112404149D01*
X91404305Y-112404146D01*
X91344207Y-112206032D01*
X91323915Y-112000000D01*
X91344207Y-111793968D01*
X91404305Y-111595854D01*
X91404306Y-111595851D01*
X91456061Y-111499025D01*
X91501897Y-111413271D01*
X91633235Y-111253235D01*
X91793271Y-111121897D01*
X91879025Y-111076061D01*
X91975851Y-111024306D01*
X91975854Y-111024305D01*
X92173968Y-110964207D01*
X92276903Y-110954069D01*
X92328369Y-110949000D01*
X92431631Y-110949000D01*
X92483097Y-110954069D01*
X92483097Y-110954069D01*
G37*
G36*
X107723097Y-110954069D02*
G01*
X107826032Y-110964207D01*
X108024146Y-111024305D01*
X108024149Y-111024306D01*
X108120975Y-111076061D01*
X108206729Y-111121897D01*
X108366765Y-111253235D01*
X108498103Y-111413271D01*
X108543939Y-111499025D01*
X108595694Y-111595851D01*
X108595695Y-111595854D01*
X108655793Y-111793968D01*
X108676085Y-112000000D01*
X108655793Y-112206032D01*
X108595695Y-112404146D01*
X108595694Y-112404149D01*
X108543939Y-112500975D01*
X108498103Y-112586729D01*
X108366765Y-112746765D01*
X108206729Y-112878103D01*
X108120975Y-112923939D01*
X108024149Y-112975694D01*
X108024146Y-112975695D01*
X107826032Y-113035793D01*
X107723097Y-113045931D01*
X107671631Y-113051000D01*
X107568369Y-113051000D01*
X107516903Y-113045931D01*
X107413968Y-113035793D01*
X107215854Y-112975695D01*
X107215851Y-112975694D01*
X107119025Y-112923939D01*
X107033271Y-112878103D01*
X106873235Y-112746765D01*
X106741897Y-112586729D01*
X106696061Y-112500975D01*
X106644306Y-112404149D01*
X106644305Y-112404146D01*
X106584207Y-112206032D01*
X106563915Y-112000000D01*
X106584207Y-111793968D01*
X106644305Y-111595854D01*
X106644306Y-111595851D01*
X106696061Y-111499025D01*
X106741897Y-111413271D01*
X106873235Y-111253235D01*
X107033271Y-111121897D01*
X107119025Y-111076061D01*
X107215851Y-111024306D01*
X107215854Y-111024305D01*
X107413968Y-110964207D01*
X107516903Y-110954069D01*
X107568369Y-110949000D01*
X107671631Y-110949000D01*
X107723097Y-110954069D01*
X107723097Y-110954069D01*
G37*
G36*
X92483097Y-108414069D02*
G01*
X92586032Y-108424207D01*
X92784146Y-108484305D01*
X92784149Y-108484306D01*
X92880975Y-108536061D01*
X92966729Y-108581897D01*
X93126765Y-108713235D01*
X93258103Y-108873271D01*
X93303939Y-108959025D01*
X93355694Y-109055851D01*
X93355695Y-109055854D01*
X93415793Y-109253968D01*
X93436085Y-109460000D01*
X93415793Y-109666032D01*
X93355695Y-109864146D01*
X93355694Y-109864149D01*
X93303939Y-109960975D01*
X93258103Y-110046729D01*
X93126765Y-110206765D01*
X92966729Y-110338103D01*
X92880975Y-110383939D01*
X92784149Y-110435694D01*
X92784146Y-110435695D01*
X92586032Y-110495793D01*
X92483097Y-110505931D01*
X92431631Y-110511000D01*
X92328369Y-110511000D01*
X92276903Y-110505931D01*
X92173968Y-110495793D01*
X91975854Y-110435695D01*
X91975851Y-110435694D01*
X91879025Y-110383939D01*
X91793271Y-110338103D01*
X91633235Y-110206765D01*
X91501897Y-110046729D01*
X91456061Y-109960975D01*
X91404306Y-109864149D01*
X91404305Y-109864146D01*
X91344207Y-109666032D01*
X91323915Y-109460000D01*
X91344207Y-109253968D01*
X91404305Y-109055854D01*
X91404306Y-109055851D01*
X91456061Y-108959025D01*
X91501897Y-108873271D01*
X91633235Y-108713235D01*
X91793271Y-108581897D01*
X91879025Y-108536061D01*
X91975851Y-108484306D01*
X91975854Y-108484305D01*
X92173968Y-108424207D01*
X92276903Y-108414069D01*
X92328369Y-108409000D01*
X92431631Y-108409000D01*
X92483097Y-108414069D01*
X92483097Y-108414069D01*
G37*
G36*
X107723097Y-108414069D02*
G01*
X107826032Y-108424207D01*
X108024146Y-108484305D01*
X108024149Y-108484306D01*
X108120975Y-108536061D01*
X108206729Y-108581897D01*
X108366765Y-108713235D01*
X108498103Y-108873271D01*
X108543939Y-108959025D01*
X108595694Y-109055851D01*
X108595695Y-109055854D01*
X108655793Y-109253968D01*
X108676085Y-109460000D01*
X108655793Y-109666032D01*
X108595695Y-109864146D01*
X108595694Y-109864149D01*
X108543939Y-109960975D01*
X108498103Y-110046729D01*
X108366765Y-110206765D01*
X108206729Y-110338103D01*
X108120975Y-110383939D01*
X108024149Y-110435694D01*
X108024146Y-110435695D01*
X107826032Y-110495793D01*
X107723097Y-110505931D01*
X107671631Y-110511000D01*
X107568369Y-110511000D01*
X107516903Y-110505931D01*
X107413968Y-110495793D01*
X107215854Y-110435695D01*
X107215851Y-110435694D01*
X107119025Y-110383939D01*
X107033271Y-110338103D01*
X106873235Y-110206765D01*
X106741897Y-110046729D01*
X106696061Y-109960975D01*
X106644306Y-109864149D01*
X106644305Y-109864146D01*
X106584207Y-109666032D01*
X106563915Y-109460000D01*
X106584207Y-109253968D01*
X106644305Y-109055854D01*
X106644306Y-109055851D01*
X106696061Y-108959025D01*
X106741897Y-108873271D01*
X106873235Y-108713235D01*
X107033271Y-108581897D01*
X107119025Y-108536061D01*
X107215851Y-108484306D01*
X107215854Y-108484305D01*
X107413968Y-108424207D01*
X107516903Y-108414069D01*
X107568369Y-108409000D01*
X107671631Y-108409000D01*
X107723097Y-108414069D01*
X107723097Y-108414069D01*
G37*
G36*
X92483097Y-105874069D02*
G01*
X92586032Y-105884207D01*
X92784146Y-105944305D01*
X92784149Y-105944306D01*
X92880975Y-105996061D01*
X92966729Y-106041897D01*
X93126765Y-106173235D01*
X93258103Y-106333271D01*
X93303939Y-106419025D01*
X93355694Y-106515851D01*
X93355695Y-106515854D01*
X93415793Y-106713968D01*
X93436085Y-106920000D01*
X93415793Y-107126032D01*
X93355695Y-107324146D01*
X93355694Y-107324149D01*
X93303939Y-107420975D01*
X93258103Y-107506729D01*
X93126765Y-107666765D01*
X92966729Y-107798103D01*
X92880975Y-107843939D01*
X92784149Y-107895694D01*
X92784146Y-107895695D01*
X92586032Y-107955793D01*
X92483097Y-107965931D01*
X92431631Y-107971000D01*
X92328369Y-107971000D01*
X92276903Y-107965931D01*
X92173968Y-107955793D01*
X91975854Y-107895695D01*
X91975851Y-107895694D01*
X91879025Y-107843939D01*
X91793271Y-107798103D01*
X91633235Y-107666765D01*
X91501897Y-107506729D01*
X91456061Y-107420975D01*
X91404306Y-107324149D01*
X91404305Y-107324146D01*
X91344207Y-107126032D01*
X91323915Y-106920000D01*
X91344207Y-106713968D01*
X91404305Y-106515854D01*
X91404306Y-106515851D01*
X91456061Y-106419025D01*
X91501897Y-106333271D01*
X91633235Y-106173235D01*
X91793271Y-106041897D01*
X91879025Y-105996061D01*
X91975851Y-105944306D01*
X91975854Y-105944305D01*
X92173968Y-105884207D01*
X92276903Y-105874069D01*
X92328369Y-105869000D01*
X92431631Y-105869000D01*
X92483097Y-105874069D01*
X92483097Y-105874069D01*
G37*
G36*
X107723097Y-105874069D02*
G01*
X107826032Y-105884207D01*
X108024146Y-105944305D01*
X108024149Y-105944306D01*
X108120975Y-105996061D01*
X108206729Y-106041897D01*
X108366765Y-106173235D01*
X108498103Y-106333271D01*
X108543939Y-106419025D01*
X108595694Y-106515851D01*
X108595695Y-106515854D01*
X108655793Y-106713968D01*
X108676085Y-106920000D01*
X108655793Y-107126032D01*
X108595695Y-107324146D01*
X108595694Y-107324149D01*
X108543939Y-107420975D01*
X108498103Y-107506729D01*
X108366765Y-107666765D01*
X108206729Y-107798103D01*
X108120975Y-107843939D01*
X108024149Y-107895694D01*
X108024146Y-107895695D01*
X107826032Y-107955793D01*
X107723097Y-107965931D01*
X107671631Y-107971000D01*
X107568369Y-107971000D01*
X107516903Y-107965931D01*
X107413968Y-107955793D01*
X107215854Y-107895695D01*
X107215851Y-107895694D01*
X107119025Y-107843939D01*
X107033271Y-107798103D01*
X106873235Y-107666765D01*
X106741897Y-107506729D01*
X106696061Y-107420975D01*
X106644306Y-107324149D01*
X106644305Y-107324146D01*
X106584207Y-107126032D01*
X106563915Y-106920000D01*
X106584207Y-106713968D01*
X106644305Y-106515854D01*
X106644306Y-106515851D01*
X106696061Y-106419025D01*
X106741897Y-106333271D01*
X106873235Y-106173235D01*
X107033271Y-106041897D01*
X107119025Y-105996061D01*
X107215851Y-105944306D01*
X107215854Y-105944305D01*
X107413968Y-105884207D01*
X107516903Y-105874069D01*
X107568369Y-105869000D01*
X107671631Y-105869000D01*
X107723097Y-105874069D01*
X107723097Y-105874069D01*
G37*
G36*
X92729591Y-104365585D02*
G01*
X92763569Y-104375893D01*
X92794890Y-104392634D01*
X92822339Y-104415161D01*
X92844866Y-104442610D01*
X92861607Y-104473931D01*
X92871915Y-104507909D01*
X92876000Y-104549390D01*
X92876000Y-105150610D01*
X92871915Y-105192091D01*
X92861607Y-105226069D01*
X92844866Y-105257390D01*
X92822339Y-105284839D01*
X92794890Y-105307366D01*
X92763569Y-105324107D01*
X92729591Y-105334415D01*
X92688110Y-105338500D01*
X92011890Y-105338500D01*
X91970409Y-105334415D01*
X91936431Y-105324107D01*
X91905110Y-105307366D01*
X91877661Y-105284839D01*
X91855134Y-105257390D01*
X91838393Y-105226069D01*
X91828085Y-105192091D01*
X91824000Y-105150610D01*
X91824000Y-104549390D01*
X91828085Y-104507909D01*
X91838393Y-104473931D01*
X91855134Y-104442610D01*
X91877661Y-104415161D01*
X91905110Y-104392634D01*
X91936431Y-104375893D01*
X91970409Y-104365585D01*
X92011890Y-104361500D01*
X92688110Y-104361500D01*
X92729591Y-104365585D01*
X92729591Y-104365585D01*
G37*
G36*
X96429591Y-104315585D02*
G01*
X96463569Y-104325893D01*
X96494890Y-104342634D01*
X96522339Y-104365161D01*
X96544866Y-104392610D01*
X96561607Y-104423931D01*
X96571915Y-104457909D01*
X96576000Y-104499390D01*
X96576000Y-105100610D01*
X96571915Y-105142091D01*
X96561607Y-105176069D01*
X96544866Y-105207390D01*
X96522339Y-105234839D01*
X96494890Y-105257366D01*
X96463569Y-105274107D01*
X96429591Y-105284415D01*
X96388110Y-105288500D01*
X95711890Y-105288500D01*
X95670409Y-105284415D01*
X95636431Y-105274107D01*
X95605110Y-105257366D01*
X95577661Y-105234839D01*
X95555134Y-105207390D01*
X95538393Y-105176069D01*
X95528085Y-105142091D01*
X95524000Y-105100610D01*
X95524000Y-104499390D01*
X95528085Y-104457909D01*
X95538393Y-104423931D01*
X95555134Y-104392610D01*
X95577661Y-104365161D01*
X95605110Y-104342634D01*
X95636431Y-104325893D01*
X95670409Y-104315585D01*
X95711890Y-104311500D01*
X96388110Y-104311500D01*
X96429591Y-104315585D01*
X96429591Y-104315585D01*
G37*
G36*
X94629591Y-104303085D02*
G01*
X94663569Y-104313393D01*
X94694890Y-104330134D01*
X94722339Y-104352661D01*
X94744866Y-104380110D01*
X94761607Y-104411431D01*
X94771915Y-104445409D01*
X94776000Y-104486890D01*
X94776000Y-105088110D01*
X94771915Y-105129591D01*
X94761607Y-105163569D01*
X94744866Y-105194890D01*
X94722339Y-105222339D01*
X94694890Y-105244866D01*
X94663569Y-105261607D01*
X94629591Y-105271915D01*
X94588110Y-105276000D01*
X93911890Y-105276000D01*
X93870409Y-105271915D01*
X93836431Y-105261607D01*
X93805110Y-105244866D01*
X93777661Y-105222339D01*
X93755134Y-105194890D01*
X93738393Y-105163569D01*
X93728085Y-105129591D01*
X93724000Y-105088110D01*
X93724000Y-104486890D01*
X93728085Y-104445409D01*
X93738393Y-104411431D01*
X93755134Y-104380110D01*
X93777661Y-104352661D01*
X93805110Y-104330134D01*
X93836431Y-104313393D01*
X93870409Y-104303085D01*
X93911890Y-104299000D01*
X94588110Y-104299000D01*
X94629591Y-104303085D01*
X94629591Y-104303085D01*
G37*
G36*
X92729591Y-102790585D02*
G01*
X92763569Y-102800893D01*
X92794890Y-102817634D01*
X92822339Y-102840161D01*
X92844866Y-102867610D01*
X92861607Y-102898931D01*
X92871915Y-102932909D01*
X92876000Y-102974390D01*
X92876000Y-103575610D01*
X92871915Y-103617091D01*
X92861607Y-103651069D01*
X92844866Y-103682390D01*
X92822339Y-103709839D01*
X92794890Y-103732366D01*
X92763569Y-103749107D01*
X92729591Y-103759415D01*
X92688110Y-103763500D01*
X92011890Y-103763500D01*
X91970409Y-103759415D01*
X91936431Y-103749107D01*
X91905110Y-103732366D01*
X91877661Y-103709839D01*
X91855134Y-103682390D01*
X91838393Y-103651069D01*
X91828085Y-103617091D01*
X91824000Y-103575610D01*
X91824000Y-102974390D01*
X91828085Y-102932909D01*
X91838393Y-102898931D01*
X91855134Y-102867610D01*
X91877661Y-102840161D01*
X91905110Y-102817634D01*
X91936431Y-102800893D01*
X91970409Y-102790585D01*
X92011890Y-102786500D01*
X92688110Y-102786500D01*
X92729591Y-102790585D01*
X92729591Y-102790585D01*
G37*
G36*
X100852564Y-96345099D02*
G01*
X101094126Y-96393149D01*
X101776765Y-96675907D01*
X102391123Y-97086408D01*
X102913592Y-97608877D01*
X103324093Y-98223235D01*
X103534312Y-98730750D01*
X103606851Y-98905875D01*
X103716958Y-99459415D01*
X103751000Y-99630559D01*
X103751000Y-100369441D01*
X103606851Y-101094126D01*
X103324093Y-101776765D01*
X102913592Y-102391123D01*
X102391123Y-102913592D01*
X101776765Y-103324093D01*
X101094126Y-103606851D01*
X100917616Y-103641961D01*
X100369443Y-103751000D01*
X99630557Y-103751000D01*
X99082384Y-103641961D01*
X98905874Y-103606851D01*
X98223235Y-103324093D01*
X97608877Y-102913592D01*
X97086408Y-102391123D01*
X96675907Y-101776765D01*
X96393149Y-101094126D01*
X96249000Y-100369441D01*
X96249000Y-99630559D01*
X96283043Y-99459415D01*
X96393149Y-98905875D01*
X96465688Y-98730750D01*
X96675907Y-98223235D01*
X97086408Y-97608877D01*
X97608877Y-97086408D01*
X98223235Y-96675907D01*
X98905874Y-96393149D01*
X99147436Y-96345099D01*
X99630557Y-96249000D01*
X100369443Y-96249000D01*
X100852564Y-96345099D01*
X100852564Y-96345099D01*
G37*
G36*
X96429591Y-102740585D02*
G01*
X96463569Y-102750893D01*
X96494890Y-102767634D01*
X96522339Y-102790161D01*
X96544866Y-102817610D01*
X96561607Y-102848931D01*
X96571915Y-102882909D01*
X96576000Y-102924390D01*
X96576000Y-103525610D01*
X96571915Y-103567091D01*
X96561607Y-103601069D01*
X96544866Y-103632390D01*
X96522339Y-103659839D01*
X96494890Y-103682366D01*
X96463569Y-103699107D01*
X96429591Y-103709415D01*
X96388110Y-103713500D01*
X95711890Y-103713500D01*
X95670409Y-103709415D01*
X95636431Y-103699107D01*
X95605110Y-103682366D01*
X95577661Y-103659839D01*
X95555134Y-103632390D01*
X95538393Y-103601069D01*
X95528085Y-103567091D01*
X95524000Y-103525610D01*
X95524000Y-102924390D01*
X95528085Y-102882909D01*
X95538393Y-102848931D01*
X95555134Y-102817610D01*
X95577661Y-102790161D01*
X95605110Y-102767634D01*
X95636431Y-102750893D01*
X95670409Y-102740585D01*
X95711890Y-102736500D01*
X96388110Y-102736500D01*
X96429591Y-102740585D01*
X96429591Y-102740585D01*
G37*
G36*
X94629591Y-102728085D02*
G01*
X94663569Y-102738393D01*
X94694890Y-102755134D01*
X94722339Y-102777661D01*
X94744866Y-102805110D01*
X94761607Y-102836431D01*
X94771915Y-102870409D01*
X94776000Y-102911890D01*
X94776000Y-103513110D01*
X94771915Y-103554591D01*
X94761607Y-103588569D01*
X94744866Y-103619890D01*
X94722339Y-103647339D01*
X94694890Y-103669866D01*
X94663569Y-103686607D01*
X94629591Y-103696915D01*
X94588110Y-103701000D01*
X93911890Y-103701000D01*
X93870409Y-103696915D01*
X93836431Y-103686607D01*
X93805110Y-103669866D01*
X93777661Y-103647339D01*
X93755134Y-103619890D01*
X93738393Y-103588569D01*
X93728085Y-103554591D01*
X93724000Y-103513110D01*
X93724000Y-102911890D01*
X93728085Y-102870409D01*
X93738393Y-102836431D01*
X93755134Y-102805110D01*
X93777661Y-102777661D01*
X93805110Y-102755134D01*
X93836431Y-102738393D01*
X93870409Y-102728085D01*
X93911890Y-102724000D01*
X94588110Y-102724000D01*
X94629591Y-102728085D01*
X94629591Y-102728085D01*
G37*
G36*
X105579591Y-102440585D02*
G01*
X105613569Y-102450893D01*
X105644890Y-102467634D01*
X105672339Y-102490161D01*
X105694866Y-102517610D01*
X105711607Y-102548931D01*
X105721915Y-102582909D01*
X105726000Y-102624390D01*
X105726000Y-103225610D01*
X105721915Y-103267091D01*
X105711607Y-103301069D01*
X105694866Y-103332390D01*
X105672339Y-103359839D01*
X105644890Y-103382366D01*
X105613569Y-103399107D01*
X105579591Y-103409415D01*
X105538110Y-103413500D01*
X104861890Y-103413500D01*
X104820409Y-103409415D01*
X104786431Y-103399107D01*
X104755110Y-103382366D01*
X104727661Y-103359839D01*
X104705134Y-103332390D01*
X104688393Y-103301069D01*
X104678085Y-103267091D01*
X104674000Y-103225610D01*
X104674000Y-102624390D01*
X104678085Y-102582909D01*
X104688393Y-102548931D01*
X104705134Y-102517610D01*
X104727661Y-102490161D01*
X104755110Y-102467634D01*
X104786431Y-102450893D01*
X104820409Y-102440585D01*
X104861890Y-102436500D01*
X105538110Y-102436500D01*
X105579591Y-102440585D01*
X105579591Y-102440585D01*
G37*
G36*
X108110443Y-101125519D02*
G01*
X108176627Y-101132037D01*
X108346466Y-101183557D01*
X108502991Y-101267222D01*
X108538729Y-101296552D01*
X108640186Y-101379814D01*
X108723448Y-101481271D01*
X108752778Y-101517009D01*
X108836443Y-101673534D01*
X108887963Y-101843373D01*
X108905359Y-102020000D01*
X108887963Y-102196627D01*
X108836443Y-102366466D01*
X108836442Y-102366468D01*
X108799009Y-102436500D01*
X108752778Y-102522991D01*
X108734673Y-102545052D01*
X108640186Y-102660186D01*
X108538729Y-102743448D01*
X108502991Y-102772778D01*
X108346466Y-102856443D01*
X108176627Y-102907963D01*
X108119474Y-102913592D01*
X108044260Y-102921000D01*
X107955740Y-102921000D01*
X107880526Y-102913592D01*
X107823373Y-102907963D01*
X107653534Y-102856443D01*
X107497009Y-102772778D01*
X107461271Y-102743448D01*
X107359814Y-102660186D01*
X107265327Y-102545052D01*
X107247222Y-102522991D01*
X107200991Y-102436500D01*
X107163558Y-102366468D01*
X107163557Y-102366466D01*
X107112037Y-102196627D01*
X107094641Y-102020000D01*
X107112037Y-101843373D01*
X107163557Y-101673534D01*
X107247222Y-101517009D01*
X107276552Y-101481271D01*
X107359814Y-101379814D01*
X107461271Y-101296552D01*
X107497009Y-101267222D01*
X107653534Y-101183557D01*
X107823373Y-101132037D01*
X107889557Y-101125519D01*
X107955740Y-101119000D01*
X108044260Y-101119000D01*
X108110443Y-101125519D01*
X108110443Y-101125519D01*
G37*
G36*
X92854591Y-100928085D02*
G01*
X92888569Y-100938393D01*
X92919890Y-100955134D01*
X92947339Y-100977661D01*
X92969866Y-101005110D01*
X92986607Y-101036431D01*
X92996915Y-101070409D01*
X93001000Y-101111890D01*
X93001000Y-101788110D01*
X92996915Y-101829591D01*
X92986607Y-101863569D01*
X92969866Y-101894890D01*
X92947339Y-101922339D01*
X92919890Y-101944866D01*
X92888569Y-101961607D01*
X92854591Y-101971915D01*
X92813110Y-101976000D01*
X92211890Y-101976000D01*
X92170409Y-101971915D01*
X92136431Y-101961607D01*
X92105110Y-101944866D01*
X92077661Y-101922339D01*
X92055134Y-101894890D01*
X92038393Y-101863569D01*
X92028085Y-101829591D01*
X92024000Y-101788110D01*
X92024000Y-101111890D01*
X92028085Y-101070409D01*
X92038393Y-101036431D01*
X92055134Y-101005110D01*
X92077661Y-100977661D01*
X92105110Y-100955134D01*
X92136431Y-100938393D01*
X92170409Y-100928085D01*
X92211890Y-100924000D01*
X92813110Y-100924000D01*
X92854591Y-100928085D01*
X92854591Y-100928085D01*
G37*
G36*
X94429591Y-100928085D02*
G01*
X94463569Y-100938393D01*
X94494890Y-100955134D01*
X94522339Y-100977661D01*
X94544866Y-101005110D01*
X94561607Y-101036431D01*
X94571915Y-101070409D01*
X94576000Y-101111890D01*
X94576000Y-101788110D01*
X94571915Y-101829591D01*
X94561607Y-101863569D01*
X94544866Y-101894890D01*
X94522339Y-101922339D01*
X94494890Y-101944866D01*
X94463569Y-101961607D01*
X94429591Y-101971915D01*
X94388110Y-101976000D01*
X93786890Y-101976000D01*
X93745409Y-101971915D01*
X93711431Y-101961607D01*
X93680110Y-101944866D01*
X93652661Y-101922339D01*
X93630134Y-101894890D01*
X93613393Y-101863569D01*
X93603085Y-101829591D01*
X93599000Y-101788110D01*
X93599000Y-101111890D01*
X93603085Y-101070409D01*
X93613393Y-101036431D01*
X93630134Y-101005110D01*
X93652661Y-100977661D01*
X93680110Y-100955134D01*
X93711431Y-100938393D01*
X93745409Y-100928085D01*
X93786890Y-100924000D01*
X94388110Y-100924000D01*
X94429591Y-100928085D01*
X94429591Y-100928085D01*
G37*
G36*
X105579591Y-100865585D02*
G01*
X105613569Y-100875893D01*
X105644890Y-100892634D01*
X105672339Y-100915161D01*
X105694866Y-100942610D01*
X105711607Y-100973931D01*
X105721915Y-101007909D01*
X105726000Y-101049390D01*
X105726000Y-101650610D01*
X105721915Y-101692091D01*
X105711607Y-101726069D01*
X105694866Y-101757390D01*
X105672339Y-101784839D01*
X105644890Y-101807366D01*
X105613569Y-101824107D01*
X105579591Y-101834415D01*
X105538110Y-101838500D01*
X104861890Y-101838500D01*
X104820409Y-101834415D01*
X104786431Y-101824107D01*
X104755110Y-101807366D01*
X104727661Y-101784839D01*
X104705134Y-101757390D01*
X104688393Y-101726069D01*
X104678085Y-101692091D01*
X104674000Y-101650610D01*
X104674000Y-101049390D01*
X104678085Y-101007909D01*
X104688393Y-100973931D01*
X104705134Y-100942610D01*
X104727661Y-100915161D01*
X104755110Y-100892634D01*
X104786431Y-100875893D01*
X104820409Y-100865585D01*
X104861890Y-100861500D01*
X105538110Y-100861500D01*
X105579591Y-100865585D01*
X105579591Y-100865585D01*
G37*
G36*
X108110443Y-98585519D02*
G01*
X108176627Y-98592037D01*
X108346466Y-98643557D01*
X108502991Y-98727222D01*
X108538729Y-98756552D01*
X108640186Y-98839814D01*
X108723448Y-98941271D01*
X108752778Y-98977009D01*
X108836443Y-99133534D01*
X108887963Y-99303373D01*
X108905359Y-99480000D01*
X108887963Y-99656627D01*
X108836443Y-99826466D01*
X108752778Y-99982991D01*
X108723448Y-100018729D01*
X108640186Y-100120186D01*
X108541712Y-100201000D01*
X108502991Y-100232778D01*
X108346466Y-100316443D01*
X108176627Y-100367963D01*
X108110443Y-100374481D01*
X108044260Y-100381000D01*
X107955740Y-100381000D01*
X107889557Y-100374481D01*
X107823373Y-100367963D01*
X107653534Y-100316443D01*
X107497009Y-100232778D01*
X107458288Y-100201000D01*
X107359814Y-100120186D01*
X107276552Y-100018729D01*
X107247222Y-99982991D01*
X107163557Y-99826466D01*
X107112037Y-99656627D01*
X107094641Y-99480000D01*
X107112037Y-99303373D01*
X107163557Y-99133534D01*
X107247222Y-98977009D01*
X107276552Y-98941271D01*
X107359814Y-98839814D01*
X107461271Y-98756552D01*
X107497009Y-98727222D01*
X107653534Y-98643557D01*
X107823373Y-98592037D01*
X107889558Y-98585518D01*
X107955740Y-98579000D01*
X108044260Y-98579000D01*
X108110443Y-98585519D01*
X108110443Y-98585519D01*
G37*
G36*
X93076000Y-100201000D02*
G01*
X92174000Y-100201000D01*
X92174000Y-99199000D01*
X93076000Y-99199000D01*
X93076000Y-100201000D01*
X93076000Y-100201000D01*
G37*
G36*
X94976000Y-100201000D02*
G01*
X94074000Y-100201000D01*
X94074000Y-99199000D01*
X94976000Y-99199000D01*
X94976000Y-100201000D01*
X94976000Y-100201000D01*
G37*
G36*
X105579591Y-98490585D02*
G01*
X105613569Y-98500893D01*
X105644890Y-98517634D01*
X105672339Y-98540161D01*
X105694866Y-98567610D01*
X105711607Y-98598931D01*
X105721915Y-98632909D01*
X105726000Y-98674390D01*
X105726000Y-99275610D01*
X105721915Y-99317091D01*
X105711607Y-99351069D01*
X105694866Y-99382390D01*
X105672339Y-99409839D01*
X105644890Y-99432366D01*
X105613569Y-99449107D01*
X105579591Y-99459415D01*
X105538110Y-99463500D01*
X104861890Y-99463500D01*
X104820409Y-99459415D01*
X104786431Y-99449107D01*
X104755110Y-99432366D01*
X104727661Y-99409839D01*
X104705134Y-99382390D01*
X104688393Y-99351069D01*
X104678085Y-99317091D01*
X104674000Y-99275610D01*
X104674000Y-98674390D01*
X104678085Y-98632909D01*
X104688393Y-98598931D01*
X104705134Y-98567610D01*
X104727661Y-98540161D01*
X104755110Y-98517634D01*
X104786431Y-98500893D01*
X104820409Y-98490585D01*
X104861890Y-98486500D01*
X105538110Y-98486500D01*
X105579591Y-98490585D01*
X105579591Y-98490585D01*
G37*
G36*
X94026000Y-98201000D02*
G01*
X93124000Y-98201000D01*
X93124000Y-97199000D01*
X94026000Y-97199000D01*
X94026000Y-98201000D01*
X94026000Y-98201000D01*
G37*
G36*
X105579591Y-96915585D02*
G01*
X105613569Y-96925893D01*
X105644890Y-96942634D01*
X105672339Y-96965161D01*
X105694866Y-96992610D01*
X105711607Y-97023931D01*
X105721915Y-97057909D01*
X105726000Y-97099390D01*
X105726000Y-97700610D01*
X105721915Y-97742091D01*
X105711607Y-97776069D01*
X105694866Y-97807390D01*
X105672339Y-97834839D01*
X105644890Y-97857366D01*
X105613569Y-97874107D01*
X105579591Y-97884415D01*
X105538110Y-97888500D01*
X104861890Y-97888500D01*
X104820409Y-97884415D01*
X104786431Y-97874107D01*
X104755110Y-97857366D01*
X104727661Y-97834839D01*
X104705134Y-97807390D01*
X104688393Y-97776069D01*
X104678085Y-97742091D01*
X104674000Y-97700610D01*
X104674000Y-97099390D01*
X104678085Y-97057909D01*
X104688393Y-97023931D01*
X104705134Y-96992610D01*
X104727661Y-96965161D01*
X104755110Y-96942634D01*
X104786431Y-96925893D01*
X104820409Y-96915585D01*
X104861890Y-96911500D01*
X105538110Y-96911500D01*
X105579591Y-96915585D01*
X105579591Y-96915585D01*
G37*
G36*
X108097563Y-96044250D02*
G01*
X108176627Y-96052037D01*
X108346466Y-96103557D01*
X108502991Y-96187222D01*
X108538729Y-96216552D01*
X108640186Y-96299814D01*
X108716783Y-96393149D01*
X108752778Y-96437009D01*
X108836443Y-96593534D01*
X108887963Y-96763373D01*
X108905359Y-96940000D01*
X108887963Y-97116627D01*
X108836443Y-97286466D01*
X108752778Y-97442991D01*
X108723448Y-97478729D01*
X108640186Y-97580186D01*
X108538729Y-97663448D01*
X108502991Y-97692778D01*
X108346466Y-97776443D01*
X108176627Y-97827963D01*
X108110442Y-97834482D01*
X108044260Y-97841000D01*
X107955740Y-97841000D01*
X107889558Y-97834482D01*
X107823373Y-97827963D01*
X107653534Y-97776443D01*
X107497009Y-97692778D01*
X107461271Y-97663448D01*
X107359814Y-97580186D01*
X107276552Y-97478729D01*
X107247222Y-97442991D01*
X107163557Y-97286466D01*
X107112037Y-97116627D01*
X107094641Y-96940000D01*
X107112037Y-96763373D01*
X107163557Y-96593534D01*
X107247222Y-96437009D01*
X107283217Y-96393149D01*
X107359814Y-96299814D01*
X107461271Y-96216552D01*
X107497009Y-96187222D01*
X107653534Y-96103557D01*
X107823373Y-96052037D01*
X107902437Y-96044250D01*
X107955740Y-96039000D01*
X108044260Y-96039000D01*
X108097563Y-96044250D01*
X108097563Y-96044250D01*
G37*
G36*
X95267091Y-95778085D02*
G01*
X95301069Y-95788393D01*
X95332390Y-95805134D01*
X95359839Y-95827661D01*
X95382366Y-95855110D01*
X95399107Y-95886431D01*
X95409415Y-95920409D01*
X95413500Y-95961890D01*
X95413500Y-96638110D01*
X95409415Y-96679591D01*
X95399107Y-96713569D01*
X95382366Y-96744890D01*
X95359839Y-96772339D01*
X95332390Y-96794866D01*
X95301069Y-96811607D01*
X95267091Y-96821915D01*
X95225610Y-96826000D01*
X94624390Y-96826000D01*
X94582909Y-96821915D01*
X94548931Y-96811607D01*
X94517610Y-96794866D01*
X94490161Y-96772339D01*
X94467634Y-96744890D01*
X94450893Y-96713569D01*
X94440585Y-96679591D01*
X94436500Y-96638110D01*
X94436500Y-95961890D01*
X94440585Y-95920409D01*
X94450893Y-95886431D01*
X94467634Y-95855110D01*
X94490161Y-95827661D01*
X94517610Y-95805134D01*
X94548931Y-95788393D01*
X94582909Y-95778085D01*
X94624390Y-95774000D01*
X95225610Y-95774000D01*
X95267091Y-95778085D01*
X95267091Y-95778085D01*
G37*
G36*
X96842091Y-95778085D02*
G01*
X96876069Y-95788393D01*
X96907390Y-95805134D01*
X96934839Y-95827661D01*
X96957366Y-95855110D01*
X96974107Y-95886431D01*
X96984415Y-95920409D01*
X96988500Y-95961890D01*
X96988500Y-96638110D01*
X96984415Y-96679591D01*
X96974107Y-96713569D01*
X96957366Y-96744890D01*
X96934839Y-96772339D01*
X96907390Y-96794866D01*
X96876069Y-96811607D01*
X96842091Y-96821915D01*
X96800610Y-96826000D01*
X96199390Y-96826000D01*
X96157909Y-96821915D01*
X96123931Y-96811607D01*
X96092610Y-96794866D01*
X96065161Y-96772339D01*
X96042634Y-96744890D01*
X96025893Y-96713569D01*
X96015585Y-96679591D01*
X96011500Y-96638110D01*
X96011500Y-95961890D01*
X96015585Y-95920409D01*
X96025893Y-95886431D01*
X96042634Y-95855110D01*
X96065161Y-95827661D01*
X96092610Y-95805134D01*
X96123931Y-95788393D01*
X96157909Y-95778085D01*
X96199390Y-95774000D01*
X96800610Y-95774000D01*
X96842091Y-95778085D01*
X96842091Y-95778085D01*
G37*
G36*
X92429591Y-95315585D02*
G01*
X92463569Y-95325893D01*
X92494890Y-95342634D01*
X92522339Y-95365161D01*
X92544866Y-95392610D01*
X92561607Y-95423931D01*
X92571915Y-95457909D01*
X92576000Y-95499390D01*
X92576000Y-96100610D01*
X92571915Y-96142091D01*
X92561607Y-96176069D01*
X92544866Y-96207390D01*
X92522339Y-96234839D01*
X92494890Y-96257366D01*
X92463569Y-96274107D01*
X92429591Y-96284415D01*
X92388110Y-96288500D01*
X91711890Y-96288500D01*
X91670409Y-96284415D01*
X91636431Y-96274107D01*
X91605110Y-96257366D01*
X91577661Y-96234839D01*
X91555134Y-96207390D01*
X91538393Y-96176069D01*
X91528085Y-96142091D01*
X91524000Y-96100610D01*
X91524000Y-95499390D01*
X91528085Y-95457909D01*
X91538393Y-95423931D01*
X91555134Y-95392610D01*
X91577661Y-95365161D01*
X91605110Y-95342634D01*
X91636431Y-95325893D01*
X91670409Y-95315585D01*
X91711890Y-95311500D01*
X92388110Y-95311500D01*
X92429591Y-95315585D01*
X92429591Y-95315585D01*
G37*
G36*
X103681000Y-96126000D02*
G01*
X102519000Y-96126000D01*
X102519000Y-93474000D01*
X103681000Y-93474000D01*
X103681000Y-96126000D01*
X103681000Y-96126000D01*
G37*
G36*
X105881000Y-96126000D02*
G01*
X104719000Y-96126000D01*
X104719000Y-95374000D01*
X105881000Y-95374000D01*
X105881000Y-96126000D01*
X105881000Y-96126000D01*
G37*
G36*
X98829591Y-94590585D02*
G01*
X98863569Y-94600893D01*
X98894890Y-94617634D01*
X98922339Y-94640161D01*
X98944866Y-94667610D01*
X98961607Y-94698931D01*
X98971915Y-94732909D01*
X98976000Y-94774390D01*
X98976000Y-95375610D01*
X98971915Y-95417091D01*
X98961607Y-95451069D01*
X98944866Y-95482390D01*
X98922339Y-95509839D01*
X98894890Y-95532366D01*
X98863569Y-95549107D01*
X98829591Y-95559415D01*
X98788110Y-95563500D01*
X98111890Y-95563500D01*
X98070409Y-95559415D01*
X98036431Y-95549107D01*
X98005110Y-95532366D01*
X97977661Y-95509839D01*
X97955134Y-95482390D01*
X97938393Y-95451069D01*
X97928085Y-95417091D01*
X97924000Y-95375610D01*
X97924000Y-94774390D01*
X97928085Y-94732909D01*
X97938393Y-94698931D01*
X97955134Y-94667610D01*
X97977661Y-94640161D01*
X98005110Y-94617634D01*
X98036431Y-94600893D01*
X98070409Y-94590585D01*
X98111890Y-94586500D01*
X98788110Y-94586500D01*
X98829591Y-94590585D01*
X98829591Y-94590585D01*
G37*
G36*
X100779591Y-94565585D02*
G01*
X100813569Y-94575893D01*
X100844890Y-94592634D01*
X100872339Y-94615161D01*
X100894866Y-94642610D01*
X100911607Y-94673931D01*
X100921915Y-94707909D01*
X100926000Y-94749390D01*
X100926000Y-95350610D01*
X100921915Y-95392091D01*
X100911607Y-95426069D01*
X100894866Y-95457390D01*
X100872339Y-95484839D01*
X100844890Y-95507366D01*
X100813569Y-95524107D01*
X100779591Y-95534415D01*
X100738110Y-95538500D01*
X100061890Y-95538500D01*
X100020409Y-95534415D01*
X99986431Y-95524107D01*
X99955110Y-95507366D01*
X99927661Y-95484839D01*
X99905134Y-95457390D01*
X99888393Y-95426069D01*
X99878085Y-95392091D01*
X99874000Y-95350610D01*
X99874000Y-94749390D01*
X99878085Y-94707909D01*
X99888393Y-94673931D01*
X99905134Y-94642610D01*
X99927661Y-94615161D01*
X99955110Y-94592634D01*
X99986431Y-94575893D01*
X100020409Y-94565585D01*
X100061890Y-94561500D01*
X100738110Y-94561500D01*
X100779591Y-94565585D01*
X100779591Y-94565585D01*
G37*
G36*
X108901000Y-95301000D02*
G01*
X107099000Y-95301000D01*
X107099000Y-93499000D01*
X108901000Y-93499000D01*
X108901000Y-95301000D01*
X108901000Y-95301000D01*
G37*
G36*
X96442091Y-94078085D02*
G01*
X96476069Y-94088393D01*
X96507390Y-94105134D01*
X96534839Y-94127661D01*
X96557366Y-94155110D01*
X96574107Y-94186431D01*
X96584415Y-94220409D01*
X96588500Y-94261890D01*
X96588500Y-94938110D01*
X96584415Y-94979591D01*
X96574107Y-95013569D01*
X96557366Y-95044890D01*
X96534839Y-95072339D01*
X96507390Y-95094866D01*
X96476069Y-95111607D01*
X96442091Y-95121915D01*
X96400610Y-95126000D01*
X95799390Y-95126000D01*
X95757909Y-95121915D01*
X95723931Y-95111607D01*
X95692610Y-95094866D01*
X95665161Y-95072339D01*
X95642634Y-95044890D01*
X95625893Y-95013569D01*
X95615585Y-94979591D01*
X95611500Y-94938110D01*
X95611500Y-94261890D01*
X95615585Y-94220409D01*
X95625893Y-94186431D01*
X95642634Y-94155110D01*
X95665161Y-94127661D01*
X95692610Y-94105134D01*
X95723931Y-94088393D01*
X95757909Y-94078085D01*
X95799390Y-94074000D01*
X96400610Y-94074000D01*
X96442091Y-94078085D01*
X96442091Y-94078085D01*
G37*
G36*
X94867091Y-94078085D02*
G01*
X94901069Y-94088393D01*
X94932390Y-94105134D01*
X94959839Y-94127661D01*
X94982366Y-94155110D01*
X94999107Y-94186431D01*
X95009415Y-94220409D01*
X95013500Y-94261890D01*
X95013500Y-94938110D01*
X95009415Y-94979591D01*
X94999107Y-95013569D01*
X94982366Y-95044890D01*
X94959839Y-95072339D01*
X94932390Y-95094866D01*
X94901069Y-95111607D01*
X94867091Y-95121915D01*
X94825610Y-95126000D01*
X94224390Y-95126000D01*
X94182909Y-95121915D01*
X94148931Y-95111607D01*
X94117610Y-95094866D01*
X94090161Y-95072339D01*
X94067634Y-95044890D01*
X94050893Y-95013569D01*
X94040585Y-94979591D01*
X94036500Y-94938110D01*
X94036500Y-94261890D01*
X94040585Y-94220409D01*
X94050893Y-94186431D01*
X94067634Y-94155110D01*
X94090161Y-94127661D01*
X94117610Y-94105134D01*
X94148931Y-94088393D01*
X94182909Y-94078085D01*
X94224390Y-94074000D01*
X94825610Y-94074000D01*
X94867091Y-94078085D01*
X94867091Y-94078085D01*
G37*
G36*
X92429591Y-93740585D02*
G01*
X92463569Y-93750893D01*
X92494890Y-93767634D01*
X92522339Y-93790161D01*
X92544866Y-93817610D01*
X92561607Y-93848931D01*
X92571915Y-93882909D01*
X92576000Y-93924390D01*
X92576000Y-94525610D01*
X92571915Y-94567091D01*
X92561607Y-94601069D01*
X92544866Y-94632390D01*
X92522339Y-94659839D01*
X92494890Y-94682366D01*
X92463569Y-94699107D01*
X92429591Y-94709415D01*
X92388110Y-94713500D01*
X91711890Y-94713500D01*
X91670409Y-94709415D01*
X91636431Y-94699107D01*
X91605110Y-94682366D01*
X91577661Y-94659839D01*
X91555134Y-94632390D01*
X91538393Y-94601069D01*
X91528085Y-94567091D01*
X91524000Y-94525610D01*
X91524000Y-93924390D01*
X91528085Y-93882909D01*
X91538393Y-93848931D01*
X91555134Y-93817610D01*
X91577661Y-93790161D01*
X91605110Y-93767634D01*
X91636431Y-93750893D01*
X91670409Y-93740585D01*
X91711890Y-93736500D01*
X92388110Y-93736500D01*
X92429591Y-93740585D01*
X92429591Y-93740585D01*
G37*
G36*
X105881000Y-94226000D02*
G01*
X104719000Y-94226000D01*
X104719000Y-93474000D01*
X105881000Y-93474000D01*
X105881000Y-94226000D01*
X105881000Y-94226000D01*
G37*
G36*
X98829591Y-93015585D02*
G01*
X98863569Y-93025893D01*
X98894890Y-93042634D01*
X98922339Y-93065161D01*
X98944866Y-93092610D01*
X98961607Y-93123931D01*
X98971915Y-93157909D01*
X98976000Y-93199390D01*
X98976000Y-93800610D01*
X98971915Y-93842091D01*
X98961607Y-93876069D01*
X98944866Y-93907390D01*
X98922339Y-93934839D01*
X98894890Y-93957366D01*
X98863569Y-93974107D01*
X98829591Y-93984415D01*
X98788110Y-93988500D01*
X98111890Y-93988500D01*
X98070409Y-93984415D01*
X98036431Y-93974107D01*
X98005110Y-93957366D01*
X97977661Y-93934839D01*
X97955134Y-93907390D01*
X97938393Y-93876069D01*
X97928085Y-93842091D01*
X97924000Y-93800610D01*
X97924000Y-93199390D01*
X97928085Y-93157909D01*
X97938393Y-93123931D01*
X97955134Y-93092610D01*
X97977661Y-93065161D01*
X98005110Y-93042634D01*
X98036431Y-93025893D01*
X98070409Y-93015585D01*
X98111890Y-93011500D01*
X98788110Y-93011500D01*
X98829591Y-93015585D01*
X98829591Y-93015585D01*
G37*
G36*
X100779591Y-92990585D02*
G01*
X100813569Y-93000893D01*
X100844890Y-93017634D01*
X100872339Y-93040161D01*
X100894866Y-93067610D01*
X100911607Y-93098931D01*
X100921915Y-93132909D01*
X100926000Y-93174390D01*
X100926000Y-93775610D01*
X100921915Y-93817091D01*
X100911607Y-93851069D01*
X100894866Y-93882390D01*
X100872339Y-93909839D01*
X100844890Y-93932366D01*
X100813569Y-93949107D01*
X100779591Y-93959415D01*
X100738110Y-93963500D01*
X100061890Y-93963500D01*
X100020409Y-93959415D01*
X99986431Y-93949107D01*
X99955110Y-93932366D01*
X99927661Y-93909839D01*
X99905134Y-93882390D01*
X99888393Y-93851069D01*
X99878085Y-93817091D01*
X99874000Y-93775610D01*
X99874000Y-93174390D01*
X99878085Y-93132909D01*
X99888393Y-93098931D01*
X99905134Y-93067610D01*
X99927661Y-93040161D01*
X99955110Y-93017634D01*
X99986431Y-93000893D01*
X100020409Y-92990585D01*
X100061890Y-92986500D01*
X100738110Y-92986500D01*
X100779591Y-92990585D01*
X100779591Y-92990585D01*
G37*
G36*
X102679560Y-89953205D02*
G01*
X102714713Y-89963869D01*
X102747110Y-89981186D01*
X102775509Y-90004491D01*
X102798814Y-90032890D01*
X102816131Y-90065287D01*
X102826795Y-90100440D01*
X102831000Y-90143140D01*
X102831000Y-91856860D01*
X102826795Y-91899560D01*
X102816131Y-91934713D01*
X102798814Y-91967110D01*
X102775509Y-91995509D01*
X102747110Y-92018814D01*
X102714713Y-92036131D01*
X102679560Y-92046795D01*
X102636860Y-92051000D01*
X102023140Y-92051000D01*
X101980440Y-92046795D01*
X101945287Y-92036131D01*
X101912890Y-92018814D01*
X101884491Y-91995509D01*
X101861186Y-91967110D01*
X101843869Y-91934713D01*
X101833205Y-91899560D01*
X101829000Y-91856860D01*
X101829000Y-90143140D01*
X101833205Y-90100440D01*
X101843869Y-90065287D01*
X101861186Y-90032890D01*
X101884491Y-90004491D01*
X101912890Y-89981186D01*
X101945287Y-89963869D01*
X101980440Y-89953205D01*
X102023140Y-89949000D01*
X102636860Y-89949000D01*
X102679560Y-89953205D01*
X102679560Y-89953205D01*
G37*
G36*
X106489560Y-89953205D02*
G01*
X106524713Y-89963869D01*
X106557110Y-89981186D01*
X106585509Y-90004491D01*
X106608814Y-90032890D01*
X106626131Y-90065287D01*
X106636795Y-90100440D01*
X106641000Y-90143140D01*
X106641000Y-91856860D01*
X106636795Y-91899560D01*
X106626131Y-91934713D01*
X106608814Y-91967110D01*
X106585509Y-91995509D01*
X106557110Y-92018814D01*
X106524713Y-92036131D01*
X106489560Y-92046795D01*
X106446860Y-92051000D01*
X105833140Y-92051000D01*
X105790440Y-92046795D01*
X105755287Y-92036131D01*
X105722890Y-92018814D01*
X105694491Y-91995509D01*
X105671186Y-91967110D01*
X105653869Y-91934713D01*
X105643205Y-91899560D01*
X105639000Y-91856860D01*
X105639000Y-90143140D01*
X105643205Y-90100440D01*
X105653869Y-90065287D01*
X105671186Y-90032890D01*
X105694491Y-90004491D01*
X105722890Y-89981186D01*
X105755287Y-89963869D01*
X105790440Y-89953205D01*
X105833140Y-89949000D01*
X106446860Y-89949000D01*
X106489560Y-89953205D01*
X106489560Y-89953205D01*
G37*
G36*
X105219560Y-89953205D02*
G01*
X105254713Y-89963869D01*
X105287110Y-89981186D01*
X105315509Y-90004491D01*
X105338814Y-90032890D01*
X105356131Y-90065287D01*
X105366795Y-90100440D01*
X105371000Y-90143140D01*
X105371000Y-91856860D01*
X105366795Y-91899560D01*
X105356131Y-91934713D01*
X105338814Y-91967110D01*
X105315509Y-91995509D01*
X105287110Y-92018814D01*
X105254713Y-92036131D01*
X105219560Y-92046795D01*
X105176860Y-92051000D01*
X104563140Y-92051000D01*
X104520440Y-92046795D01*
X104485287Y-92036131D01*
X104452890Y-92018814D01*
X104424491Y-91995509D01*
X104401186Y-91967110D01*
X104383869Y-91934713D01*
X104373205Y-91899560D01*
X104369000Y-91856860D01*
X104369000Y-90143140D01*
X104373205Y-90100440D01*
X104383869Y-90065287D01*
X104401186Y-90032890D01*
X104424491Y-90004491D01*
X104452890Y-89981186D01*
X104485287Y-89963869D01*
X104520440Y-89953205D01*
X104563140Y-89949000D01*
X105176860Y-89949000D01*
X105219560Y-89953205D01*
X105219560Y-89953205D01*
G37*
G36*
X103949560Y-89953205D02*
G01*
X103984713Y-89963869D01*
X104017110Y-89981186D01*
X104045509Y-90004491D01*
X104068814Y-90032890D01*
X104086131Y-90065287D01*
X104096795Y-90100440D01*
X104101000Y-90143140D01*
X104101000Y-91856860D01*
X104096795Y-91899560D01*
X104086131Y-91934713D01*
X104068814Y-91967110D01*
X104045509Y-91995509D01*
X104017110Y-92018814D01*
X103984713Y-92036131D01*
X103949560Y-92046795D01*
X103906860Y-92051000D01*
X103293140Y-92051000D01*
X103250440Y-92046795D01*
X103215287Y-92036131D01*
X103182890Y-92018814D01*
X103154491Y-91995509D01*
X103131186Y-91967110D01*
X103113869Y-91934713D01*
X103103205Y-91899560D01*
X103099000Y-91856860D01*
X103099000Y-90143140D01*
X103103205Y-90100440D01*
X103113869Y-90065287D01*
X103131186Y-90032890D01*
X103154491Y-90004491D01*
X103182890Y-89981186D01*
X103215287Y-89963869D01*
X103250440Y-89953205D01*
X103293140Y-89949000D01*
X103906860Y-89949000D01*
X103949560Y-89953205D01*
X103949560Y-89953205D01*
G37*
G36*
X98869560Y-89953205D02*
G01*
X98904713Y-89963869D01*
X98937110Y-89981186D01*
X98965509Y-90004491D01*
X98988814Y-90032890D01*
X99006131Y-90065287D01*
X99016795Y-90100440D01*
X99021000Y-90143140D01*
X99021000Y-91856860D01*
X99016795Y-91899560D01*
X99006131Y-91934713D01*
X98988814Y-91967110D01*
X98965509Y-91995509D01*
X98937110Y-92018814D01*
X98904713Y-92036131D01*
X98869560Y-92046795D01*
X98826860Y-92051000D01*
X98213140Y-92051000D01*
X98170440Y-92046795D01*
X98135287Y-92036131D01*
X98102890Y-92018814D01*
X98074491Y-91995509D01*
X98051186Y-91967110D01*
X98033869Y-91934713D01*
X98023205Y-91899560D01*
X98019000Y-91856860D01*
X98019000Y-90143140D01*
X98023205Y-90100440D01*
X98033869Y-90065287D01*
X98051186Y-90032890D01*
X98074491Y-90004491D01*
X98102890Y-89981186D01*
X98135287Y-89963869D01*
X98170440Y-89953205D01*
X98213140Y-89949000D01*
X98826860Y-89949000D01*
X98869560Y-89953205D01*
X98869560Y-89953205D01*
G37*
G36*
X100139560Y-89953205D02*
G01*
X100174713Y-89963869D01*
X100207110Y-89981186D01*
X100235509Y-90004491D01*
X100258814Y-90032890D01*
X100276131Y-90065287D01*
X100286795Y-90100440D01*
X100291000Y-90143140D01*
X100291000Y-91856860D01*
X100286795Y-91899560D01*
X100276131Y-91934713D01*
X100258814Y-91967110D01*
X100235509Y-91995509D01*
X100207110Y-92018814D01*
X100174713Y-92036131D01*
X100139560Y-92046795D01*
X100096860Y-92051000D01*
X99483140Y-92051000D01*
X99440440Y-92046795D01*
X99405287Y-92036131D01*
X99372890Y-92018814D01*
X99344491Y-91995509D01*
X99321186Y-91967110D01*
X99303869Y-91934713D01*
X99293205Y-91899560D01*
X99289000Y-91856860D01*
X99289000Y-90143140D01*
X99293205Y-90100440D01*
X99303869Y-90065287D01*
X99321186Y-90032890D01*
X99344491Y-90004491D01*
X99372890Y-89981186D01*
X99405287Y-89963869D01*
X99440440Y-89953205D01*
X99483140Y-89949000D01*
X100096860Y-89949000D01*
X100139560Y-89953205D01*
X100139560Y-89953205D01*
G37*
G36*
X101409560Y-89953205D02*
G01*
X101444713Y-89963869D01*
X101477110Y-89981186D01*
X101505509Y-90004491D01*
X101528814Y-90032890D01*
X101546131Y-90065287D01*
X101556795Y-90100440D01*
X101561000Y-90143140D01*
X101561000Y-91856860D01*
X101556795Y-91899560D01*
X101546131Y-91934713D01*
X101528814Y-91967110D01*
X101505509Y-91995509D01*
X101477110Y-92018814D01*
X101444713Y-92036131D01*
X101409560Y-92046795D01*
X101366860Y-92051000D01*
X100753140Y-92051000D01*
X100710440Y-92046795D01*
X100675287Y-92036131D01*
X100642890Y-92018814D01*
X100614491Y-91995509D01*
X100591186Y-91967110D01*
X100573869Y-91934713D01*
X100563205Y-91899560D01*
X100559000Y-91856860D01*
X100559000Y-90143140D01*
X100563205Y-90100440D01*
X100573869Y-90065287D01*
X100591186Y-90032890D01*
X100614491Y-90004491D01*
X100642890Y-89981186D01*
X100675287Y-89963869D01*
X100710440Y-89953205D01*
X100753140Y-89949000D01*
X101366860Y-89949000D01*
X101409560Y-89953205D01*
X101409560Y-89953205D01*
G37*
G36*
X107759560Y-89953205D02*
G01*
X107794713Y-89963869D01*
X107827110Y-89981186D01*
X107855509Y-90004491D01*
X107878814Y-90032890D01*
X107896131Y-90065287D01*
X107906795Y-90100440D01*
X107911000Y-90143140D01*
X107911000Y-91856860D01*
X107906795Y-91899560D01*
X107896131Y-91934713D01*
X107878814Y-91967110D01*
X107855509Y-91995509D01*
X107827110Y-92018814D01*
X107794713Y-92036131D01*
X107759560Y-92046795D01*
X107716860Y-92051000D01*
X107103140Y-92051000D01*
X107060440Y-92046795D01*
X107025287Y-92036131D01*
X106992890Y-92018814D01*
X106964491Y-91995509D01*
X106941186Y-91967110D01*
X106923869Y-91934713D01*
X106913205Y-91899560D01*
X106909000Y-91856860D01*
X106909000Y-90143140D01*
X106913205Y-90100440D01*
X106923869Y-90065287D01*
X106941186Y-90032890D01*
X106964491Y-90004491D01*
X106992890Y-89981186D01*
X107025287Y-89963869D01*
X107060440Y-89953205D01*
X107103140Y-89949000D01*
X107716860Y-89949000D01*
X107759560Y-89953205D01*
X107759560Y-89953205D01*
G37*
G36*
X110349560Y-88313205D02*
G01*
X110384713Y-88323869D01*
X110417110Y-88341186D01*
X110445509Y-88364491D01*
X110468814Y-88392890D01*
X110486131Y-88425287D01*
X110496795Y-88460440D01*
X110501000Y-88503140D01*
X110501000Y-89116860D01*
X110496795Y-89159560D01*
X110486131Y-89194713D01*
X110468814Y-89227110D01*
X110445509Y-89255509D01*
X110417110Y-89278814D01*
X110384713Y-89296131D01*
X110349560Y-89306795D01*
X110306860Y-89311000D01*
X108593140Y-89311000D01*
X108550440Y-89306795D01*
X108515287Y-89296131D01*
X108482890Y-89278814D01*
X108454491Y-89255509D01*
X108431186Y-89227110D01*
X108413869Y-89194713D01*
X108403205Y-89159560D01*
X108399000Y-89116860D01*
X108399000Y-88503140D01*
X108403205Y-88460440D01*
X108413869Y-88425287D01*
X108431186Y-88392890D01*
X108454491Y-88364491D01*
X108482890Y-88341186D01*
X108515287Y-88323869D01*
X108550440Y-88313205D01*
X108593140Y-88309000D01*
X110306860Y-88309000D01*
X110349560Y-88313205D01*
X110349560Y-88313205D01*
G37*
G36*
X110349560Y-87043205D02*
G01*
X110384713Y-87053869D01*
X110417110Y-87071186D01*
X110445509Y-87094491D01*
X110468814Y-87122890D01*
X110486131Y-87155287D01*
X110496795Y-87190440D01*
X110501000Y-87233140D01*
X110501000Y-87846860D01*
X110496795Y-87889560D01*
X110486131Y-87924713D01*
X110468814Y-87957110D01*
X110445509Y-87985509D01*
X110417110Y-88008814D01*
X110384713Y-88026131D01*
X110349560Y-88036795D01*
X110306860Y-88041000D01*
X108593140Y-88041000D01*
X108550440Y-88036795D01*
X108515287Y-88026131D01*
X108482890Y-88008814D01*
X108454491Y-87985509D01*
X108431186Y-87957110D01*
X108413869Y-87924713D01*
X108403205Y-87889560D01*
X108399000Y-87846860D01*
X108399000Y-87233140D01*
X108403205Y-87190440D01*
X108413869Y-87155287D01*
X108431186Y-87122890D01*
X108454491Y-87094491D01*
X108482890Y-87071186D01*
X108515287Y-87053869D01*
X108550440Y-87043205D01*
X108593140Y-87039000D01*
X110306860Y-87039000D01*
X110349560Y-87043205D01*
X110349560Y-87043205D01*
G37*
G36*
X110349560Y-85773205D02*
G01*
X110384713Y-85783869D01*
X110417110Y-85801186D01*
X110445509Y-85824491D01*
X110468814Y-85852890D01*
X110486131Y-85885287D01*
X110496795Y-85920440D01*
X110501000Y-85963140D01*
X110501000Y-86576860D01*
X110496795Y-86619560D01*
X110486131Y-86654713D01*
X110468814Y-86687110D01*
X110445509Y-86715509D01*
X110417110Y-86738814D01*
X110384713Y-86756131D01*
X110349560Y-86766795D01*
X110306860Y-86771000D01*
X108593140Y-86771000D01*
X108550440Y-86766795D01*
X108515287Y-86756131D01*
X108482890Y-86738814D01*
X108454491Y-86715509D01*
X108431186Y-86687110D01*
X108413869Y-86654713D01*
X108403205Y-86619560D01*
X108399000Y-86576860D01*
X108399000Y-85963140D01*
X108403205Y-85920440D01*
X108413869Y-85885287D01*
X108431186Y-85852890D01*
X108454491Y-85824491D01*
X108482890Y-85801186D01*
X108515287Y-85783869D01*
X108550440Y-85773205D01*
X108593140Y-85769000D01*
X110306860Y-85769000D01*
X110349560Y-85773205D01*
X110349560Y-85773205D01*
G37*
G36*
X110349560Y-84503205D02*
G01*
X110384713Y-84513869D01*
X110417110Y-84531186D01*
X110445509Y-84554491D01*
X110468814Y-84582890D01*
X110486131Y-84615287D01*
X110496795Y-84650440D01*
X110501000Y-84693140D01*
X110501000Y-85306860D01*
X110496795Y-85349560D01*
X110486131Y-85384713D01*
X110468814Y-85417110D01*
X110445509Y-85445509D01*
X110417110Y-85468814D01*
X110384713Y-85486131D01*
X110349560Y-85496795D01*
X110306860Y-85501000D01*
X108593140Y-85501000D01*
X108550440Y-85496795D01*
X108515287Y-85486131D01*
X108482890Y-85468814D01*
X108454491Y-85445509D01*
X108431186Y-85417110D01*
X108413869Y-85384713D01*
X108403205Y-85349560D01*
X108399000Y-85306860D01*
X108399000Y-84693140D01*
X108403205Y-84650440D01*
X108413869Y-84615287D01*
X108431186Y-84582890D01*
X108454491Y-84554491D01*
X108482890Y-84531186D01*
X108515287Y-84513869D01*
X108550440Y-84503205D01*
X108593140Y-84499000D01*
X110306860Y-84499000D01*
X110349560Y-84503205D01*
X110349560Y-84503205D01*
G37*
G36*
X110349560Y-83233205D02*
G01*
X110384713Y-83243869D01*
X110417110Y-83261186D01*
X110445509Y-83284491D01*
X110468814Y-83312890D01*
X110486131Y-83345287D01*
X110496795Y-83380440D01*
X110501000Y-83423140D01*
X110501000Y-84036860D01*
X110496795Y-84079560D01*
X110486131Y-84114713D01*
X110468814Y-84147110D01*
X110445509Y-84175509D01*
X110417110Y-84198814D01*
X110384713Y-84216131D01*
X110349560Y-84226795D01*
X110306860Y-84231000D01*
X108593140Y-84231000D01*
X108550440Y-84226795D01*
X108515287Y-84216131D01*
X108482890Y-84198814D01*
X108454491Y-84175509D01*
X108431186Y-84147110D01*
X108413869Y-84114713D01*
X108403205Y-84079560D01*
X108399000Y-84036860D01*
X108399000Y-83423140D01*
X108403205Y-83380440D01*
X108413869Y-83345287D01*
X108431186Y-83312890D01*
X108454491Y-83284491D01*
X108482890Y-83261186D01*
X108515287Y-83243869D01*
X108550440Y-83233205D01*
X108593140Y-83229000D01*
X110306860Y-83229000D01*
X110349560Y-83233205D01*
X110349560Y-83233205D01*
G37*
G36*
X110349560Y-81963205D02*
G01*
X110384713Y-81973869D01*
X110417110Y-81991186D01*
X110445509Y-82014491D01*
X110468814Y-82042890D01*
X110486131Y-82075287D01*
X110496795Y-82110440D01*
X110501000Y-82153140D01*
X110501000Y-82766860D01*
X110496795Y-82809560D01*
X110486131Y-82844713D01*
X110468814Y-82877110D01*
X110445509Y-82905509D01*
X110417110Y-82928814D01*
X110384713Y-82946131D01*
X110349560Y-82956795D01*
X110306860Y-82961000D01*
X108593140Y-82961000D01*
X108550440Y-82956795D01*
X108515287Y-82946131D01*
X108482890Y-82928814D01*
X108454491Y-82905509D01*
X108431186Y-82877110D01*
X108413869Y-82844713D01*
X108403205Y-82809560D01*
X108399000Y-82766860D01*
X108399000Y-82153140D01*
X108403205Y-82110440D01*
X108413869Y-82075287D01*
X108431186Y-82042890D01*
X108454491Y-82014491D01*
X108482890Y-81991186D01*
X108515287Y-81973869D01*
X108550440Y-81963205D01*
X108593140Y-81959000D01*
X110306860Y-81959000D01*
X110349560Y-81963205D01*
X110349560Y-81963205D01*
G37*
G36*
X110349560Y-80693205D02*
G01*
X110384713Y-80703869D01*
X110417110Y-80721186D01*
X110445509Y-80744491D01*
X110468814Y-80772890D01*
X110486131Y-80805287D01*
X110496795Y-80840440D01*
X110501000Y-80883140D01*
X110501000Y-81496860D01*
X110496795Y-81539560D01*
X110486131Y-81574713D01*
X110468814Y-81607110D01*
X110445509Y-81635509D01*
X110417110Y-81658814D01*
X110384713Y-81676131D01*
X110349560Y-81686795D01*
X110306860Y-81691000D01*
X108593140Y-81691000D01*
X108550440Y-81686795D01*
X108515287Y-81676131D01*
X108482890Y-81658814D01*
X108454491Y-81635509D01*
X108431186Y-81607110D01*
X108413869Y-81574713D01*
X108403205Y-81539560D01*
X108399000Y-81496860D01*
X108399000Y-80883140D01*
X108403205Y-80840440D01*
X108413869Y-80805287D01*
X108431186Y-80772890D01*
X108454491Y-80744491D01*
X108482890Y-80721186D01*
X108515287Y-80703869D01*
X108550440Y-80693205D01*
X108593140Y-80689000D01*
X110306860Y-80689000D01*
X110349560Y-80693205D01*
X110349560Y-80693205D01*
G37*
G36*
X98869560Y-77953205D02*
G01*
X98904713Y-77963869D01*
X98937110Y-77981186D01*
X98965509Y-78004491D01*
X98988814Y-78032890D01*
X99006131Y-78065287D01*
X99016795Y-78100440D01*
X99021000Y-78143140D01*
X99021000Y-79856860D01*
X99016795Y-79899560D01*
X99006131Y-79934713D01*
X98988814Y-79967110D01*
X98965509Y-79995509D01*
X98937110Y-80018814D01*
X98904713Y-80036131D01*
X98869560Y-80046795D01*
X98826860Y-80051000D01*
X98213140Y-80051000D01*
X98170440Y-80046795D01*
X98135287Y-80036131D01*
X98102890Y-80018814D01*
X98074491Y-79995509D01*
X98051186Y-79967110D01*
X98033869Y-79934713D01*
X98023205Y-79899560D01*
X98019000Y-79856860D01*
X98019000Y-78143140D01*
X98023205Y-78100440D01*
X98033869Y-78065287D01*
X98051186Y-78032890D01*
X98074491Y-78004491D01*
X98102890Y-77981186D01*
X98135287Y-77963869D01*
X98170440Y-77953205D01*
X98213140Y-77949000D01*
X98826860Y-77949000D01*
X98869560Y-77953205D01*
X98869560Y-77953205D01*
G37*
G36*
X101409560Y-77953205D02*
G01*
X101444713Y-77963869D01*
X101477110Y-77981186D01*
X101505509Y-78004491D01*
X101528814Y-78032890D01*
X101546131Y-78065287D01*
X101556795Y-78100440D01*
X101561000Y-78143140D01*
X101561000Y-79856860D01*
X101556795Y-79899560D01*
X101546131Y-79934713D01*
X101528814Y-79967110D01*
X101505509Y-79995509D01*
X101477110Y-80018814D01*
X101444713Y-80036131D01*
X101409560Y-80046795D01*
X101366860Y-80051000D01*
X100753140Y-80051000D01*
X100710440Y-80046795D01*
X100675287Y-80036131D01*
X100642890Y-80018814D01*
X100614491Y-79995509D01*
X100591186Y-79967110D01*
X100573869Y-79934713D01*
X100563205Y-79899560D01*
X100559000Y-79856860D01*
X100559000Y-78143140D01*
X100563205Y-78100440D01*
X100573869Y-78065287D01*
X100591186Y-78032890D01*
X100614491Y-78004491D01*
X100642890Y-77981186D01*
X100675287Y-77963869D01*
X100710440Y-77953205D01*
X100753140Y-77949000D01*
X101366860Y-77949000D01*
X101409560Y-77953205D01*
X101409560Y-77953205D01*
G37*
G36*
X103949560Y-77953205D02*
G01*
X103984713Y-77963869D01*
X104017110Y-77981186D01*
X104045509Y-78004491D01*
X104068814Y-78032890D01*
X104086131Y-78065287D01*
X104096795Y-78100440D01*
X104101000Y-78143140D01*
X104101000Y-79856860D01*
X104096795Y-79899560D01*
X104086131Y-79934713D01*
X104068814Y-79967110D01*
X104045509Y-79995509D01*
X104017110Y-80018814D01*
X103984713Y-80036131D01*
X103949560Y-80046795D01*
X103906860Y-80051000D01*
X103293140Y-80051000D01*
X103250440Y-80046795D01*
X103215287Y-80036131D01*
X103182890Y-80018814D01*
X103154491Y-79995509D01*
X103131186Y-79967110D01*
X103113869Y-79934713D01*
X103103205Y-79899560D01*
X103099000Y-79856860D01*
X103099000Y-78143140D01*
X103103205Y-78100440D01*
X103113869Y-78065287D01*
X103131186Y-78032890D01*
X103154491Y-78004491D01*
X103182890Y-77981186D01*
X103215287Y-77963869D01*
X103250440Y-77953205D01*
X103293140Y-77949000D01*
X103906860Y-77949000D01*
X103949560Y-77953205D01*
X103949560Y-77953205D01*
G37*
G36*
X106489560Y-77953205D02*
G01*
X106524713Y-77963869D01*
X106557110Y-77981186D01*
X106585509Y-78004491D01*
X106608814Y-78032890D01*
X106626131Y-78065287D01*
X106636795Y-78100440D01*
X106641000Y-78143140D01*
X106641000Y-79856860D01*
X106636795Y-79899560D01*
X106626131Y-79934713D01*
X106608814Y-79967110D01*
X106585509Y-79995509D01*
X106557110Y-80018814D01*
X106524713Y-80036131D01*
X106489560Y-80046795D01*
X106446860Y-80051000D01*
X105833140Y-80051000D01*
X105790440Y-80046795D01*
X105755287Y-80036131D01*
X105722890Y-80018814D01*
X105694491Y-79995509D01*
X105671186Y-79967110D01*
X105653869Y-79934713D01*
X105643205Y-79899560D01*
X105639000Y-79856860D01*
X105639000Y-78143140D01*
X105643205Y-78100440D01*
X105653869Y-78065287D01*
X105671186Y-78032890D01*
X105694491Y-78004491D01*
X105722890Y-77981186D01*
X105755287Y-77963869D01*
X105790440Y-77953205D01*
X105833140Y-77949000D01*
X106446860Y-77949000D01*
X106489560Y-77953205D01*
X106489560Y-77953205D01*
G37*
G36*
X105219560Y-77953205D02*
G01*
X105254713Y-77963869D01*
X105287110Y-77981186D01*
X105315509Y-78004491D01*
X105338814Y-78032890D01*
X105356131Y-78065287D01*
X105366795Y-78100440D01*
X105371000Y-78143140D01*
X105371000Y-79856860D01*
X105366795Y-79899560D01*
X105356131Y-79934713D01*
X105338814Y-79967110D01*
X105315509Y-79995509D01*
X105287110Y-80018814D01*
X105254713Y-80036131D01*
X105219560Y-80046795D01*
X105176860Y-80051000D01*
X104563140Y-80051000D01*
X104520440Y-80046795D01*
X104485287Y-80036131D01*
X104452890Y-80018814D01*
X104424491Y-79995509D01*
X104401186Y-79967110D01*
X104383869Y-79934713D01*
X104373205Y-79899560D01*
X104369000Y-79856860D01*
X104369000Y-78143140D01*
X104373205Y-78100440D01*
X104383869Y-78065287D01*
X104401186Y-78032890D01*
X104424491Y-78004491D01*
X104452890Y-77981186D01*
X104485287Y-77963869D01*
X104520440Y-77953205D01*
X104563140Y-77949000D01*
X105176860Y-77949000D01*
X105219560Y-77953205D01*
X105219560Y-77953205D01*
G37*
G36*
X100139560Y-77953205D02*
G01*
X100174713Y-77963869D01*
X100207110Y-77981186D01*
X100235509Y-78004491D01*
X100258814Y-78032890D01*
X100276131Y-78065287D01*
X100286795Y-78100440D01*
X100291000Y-78143140D01*
X100291000Y-79856860D01*
X100286795Y-79899560D01*
X100276131Y-79934713D01*
X100258814Y-79967110D01*
X100235509Y-79995509D01*
X100207110Y-80018814D01*
X100174713Y-80036131D01*
X100139560Y-80046795D01*
X100096860Y-80051000D01*
X99483140Y-80051000D01*
X99440440Y-80046795D01*
X99405287Y-80036131D01*
X99372890Y-80018814D01*
X99344491Y-79995509D01*
X99321186Y-79967110D01*
X99303869Y-79934713D01*
X99293205Y-79899560D01*
X99289000Y-79856860D01*
X99289000Y-78143140D01*
X99293205Y-78100440D01*
X99303869Y-78065287D01*
X99321186Y-78032890D01*
X99344491Y-78004491D01*
X99372890Y-77981186D01*
X99405287Y-77963869D01*
X99440440Y-77953205D01*
X99483140Y-77949000D01*
X100096860Y-77949000D01*
X100139560Y-77953205D01*
X100139560Y-77953205D01*
G37*
G36*
X102679560Y-77953205D02*
G01*
X102714713Y-77963869D01*
X102747110Y-77981186D01*
X102775509Y-78004491D01*
X102798814Y-78032890D01*
X102816131Y-78065287D01*
X102826795Y-78100440D01*
X102831000Y-78143140D01*
X102831000Y-79856860D01*
X102826795Y-79899560D01*
X102816131Y-79934713D01*
X102798814Y-79967110D01*
X102775509Y-79995509D01*
X102747110Y-80018814D01*
X102714713Y-80036131D01*
X102679560Y-80046795D01*
X102636860Y-80051000D01*
X102023140Y-80051000D01*
X101980440Y-80046795D01*
X101945287Y-80036131D01*
X101912890Y-80018814D01*
X101884491Y-79995509D01*
X101861186Y-79967110D01*
X101843869Y-79934713D01*
X101833205Y-79899560D01*
X101829000Y-79856860D01*
X101829000Y-78143140D01*
X101833205Y-78100440D01*
X101843869Y-78065287D01*
X101861186Y-78032890D01*
X101884491Y-78004491D01*
X101912890Y-77981186D01*
X101945287Y-77963869D01*
X101980440Y-77953205D01*
X102023140Y-77949000D01*
X102636860Y-77949000D01*
X102679560Y-77953205D01*
X102679560Y-77953205D01*
G37*
G36*
X107759560Y-77953205D02*
G01*
X107794713Y-77963869D01*
X107827110Y-77981186D01*
X107855509Y-78004491D01*
X107878814Y-78032890D01*
X107896131Y-78065287D01*
X107906795Y-78100440D01*
X107911000Y-78143140D01*
X107911000Y-79856860D01*
X107906795Y-79899560D01*
X107896131Y-79934713D01*
X107878814Y-79967110D01*
X107855509Y-79995509D01*
X107827110Y-80018814D01*
X107794713Y-80036131D01*
X107759560Y-80046795D01*
X107716860Y-80051000D01*
X107103140Y-80051000D01*
X107060440Y-80046795D01*
X107025287Y-80036131D01*
X106992890Y-80018814D01*
X106964491Y-79995509D01*
X106941186Y-79967110D01*
X106923869Y-79934713D01*
X106913205Y-79899560D01*
X106909000Y-79856860D01*
X106909000Y-78143140D01*
X106913205Y-78100440D01*
X106923869Y-78065287D01*
X106941186Y-78032890D01*
X106964491Y-78004491D01*
X106992890Y-77981186D01*
X107025287Y-77963869D01*
X107060440Y-77953205D01*
X107103140Y-77949000D01*
X107716860Y-77949000D01*
X107759560Y-77953205D01*
X107759560Y-77953205D01*
G37*
G36*
X106761000Y-76901000D02*
G01*
X104959000Y-76901000D01*
X104959000Y-75099000D01*
X106761000Y-75099000D01*
X106761000Y-76901000D01*
X106761000Y-76901000D01*
G37*
G36*
X108510442Y-75105518D02*
G01*
X108576627Y-75112037D01*
X108746466Y-75163557D01*
X108902991Y-75247222D01*
X108938729Y-75276552D01*
X109040186Y-75359814D01*
X109123448Y-75461271D01*
X109152778Y-75497009D01*
X109236443Y-75653534D01*
X109287963Y-75823373D01*
X109305359Y-76000000D01*
X109287963Y-76176627D01*
X109236443Y-76346466D01*
X109152778Y-76502991D01*
X109123448Y-76538729D01*
X109040186Y-76640186D01*
X108938729Y-76723448D01*
X108902991Y-76752778D01*
X108746466Y-76836443D01*
X108576627Y-76887963D01*
X108510442Y-76894482D01*
X108444260Y-76901000D01*
X108355740Y-76901000D01*
X108289558Y-76894482D01*
X108223373Y-76887963D01*
X108053534Y-76836443D01*
X107897009Y-76752778D01*
X107861271Y-76723448D01*
X107759814Y-76640186D01*
X107676552Y-76538729D01*
X107647222Y-76502991D01*
X107563557Y-76346466D01*
X107512037Y-76176627D01*
X107494641Y-76000000D01*
X107512037Y-75823373D01*
X107563557Y-75653534D01*
X107647222Y-75497009D01*
X107676552Y-75461271D01*
X107759814Y-75359814D01*
X107861271Y-75276552D01*
X107897009Y-75247222D01*
X108053534Y-75163557D01*
X108223373Y-75112037D01*
X108289558Y-75105518D01*
X108355740Y-75099000D01*
X108444260Y-75099000D01*
X108510442Y-75105518D01*
X108510442Y-75105518D01*
G37*
G36*
X100829329Y-67830681D02*
G01*
X101239971Y-67912363D01*
X102013604Y-68232812D01*
X102459048Y-68530449D01*
X102639466Y-68651000D01*
X102709855Y-68698033D01*
X103301967Y-69290145D01*
X103767188Y-69986396D01*
X104087637Y-70760029D01*
X104087637Y-70760030D01*
X104251000Y-71581312D01*
X104251000Y-72418688D01*
X104206664Y-72641580D01*
X104087637Y-73239971D01*
X103767188Y-74013604D01*
X103301967Y-74709855D01*
X102709855Y-75301967D01*
X102013604Y-75767188D01*
X101239971Y-76087637D01*
X100829329Y-76169318D01*
X100418688Y-76251000D01*
X99581312Y-76251000D01*
X99170671Y-76169318D01*
X98760029Y-76087637D01*
X97986396Y-75767188D01*
X97290145Y-75301967D01*
X96698033Y-74709855D01*
X96232812Y-74013604D01*
X95912363Y-73239971D01*
X95793336Y-72641580D01*
X95749000Y-72418688D01*
X95749000Y-71581312D01*
X95912363Y-70760030D01*
X95912363Y-70760029D01*
X96232812Y-69986396D01*
X96698033Y-69290145D01*
X97290145Y-68698033D01*
X97360535Y-68651000D01*
X97540952Y-68530449D01*
X97986396Y-68232812D01*
X98760029Y-67912363D01*
X99170671Y-67830681D01*
X99581312Y-67749000D01*
X100418688Y-67749000D01*
X100829329Y-67830681D01*
X100829329Y-67830681D01*
G37*
G36*
X92538855Y-73352140D02*
G01*
X92602618Y-73358420D01*
X92693404Y-73385960D01*
X92725336Y-73395646D01*
X92838425Y-73456094D01*
X92937554Y-73537446D01*
X93018906Y-73636575D01*
X93079354Y-73749664D01*
X93079355Y-73749668D01*
X93116580Y-73872382D01*
X93129149Y-74000000D01*
X93116580Y-74127618D01*
X93089040Y-74218404D01*
X93079354Y-74250336D01*
X93018906Y-74363425D01*
X92937554Y-74462554D01*
X92838425Y-74543906D01*
X92725336Y-74604354D01*
X92693404Y-74614040D01*
X92602618Y-74641580D01*
X92538855Y-74647860D01*
X92506974Y-74651000D01*
X91893026Y-74651000D01*
X91861145Y-74647860D01*
X91797382Y-74641580D01*
X91706596Y-74614040D01*
X91674664Y-74604354D01*
X91561575Y-74543906D01*
X91462446Y-74462554D01*
X91381094Y-74363425D01*
X91320646Y-74250336D01*
X91310960Y-74218404D01*
X91283420Y-74127618D01*
X91270851Y-74000000D01*
X91283420Y-73872382D01*
X91320645Y-73749668D01*
X91320646Y-73749664D01*
X91381094Y-73636575D01*
X91462446Y-73537446D01*
X91561575Y-73456094D01*
X91674664Y-73395646D01*
X91706596Y-73385960D01*
X91797382Y-73358420D01*
X91861145Y-73352140D01*
X91893026Y-73349000D01*
X92506974Y-73349000D01*
X92538855Y-73352140D01*
X92538855Y-73352140D01*
G37*
G36*
X108801000Y-73201000D02*
G01*
X106999000Y-73201000D01*
X106999000Y-71399000D01*
X108801000Y-71399000D01*
X108801000Y-73201000D01*
X108801000Y-73201000D01*
G37*
G36*
X92538855Y-71352140D02*
G01*
X92602618Y-71358420D01*
X92693404Y-71385960D01*
X92725336Y-71395646D01*
X92838425Y-71456094D01*
X92937554Y-71537446D01*
X93018906Y-71636575D01*
X93079354Y-71749664D01*
X93079355Y-71749668D01*
X93116580Y-71872382D01*
X93129149Y-72000000D01*
X93116580Y-72127618D01*
X93089040Y-72218404D01*
X93079354Y-72250336D01*
X93018906Y-72363425D01*
X92937554Y-72462554D01*
X92838425Y-72543906D01*
X92725336Y-72604354D01*
X92693404Y-72614040D01*
X92602618Y-72641580D01*
X92538855Y-72647860D01*
X92506974Y-72651000D01*
X91893026Y-72651000D01*
X91861145Y-72647860D01*
X91797382Y-72641580D01*
X91706596Y-72614040D01*
X91674664Y-72604354D01*
X91561575Y-72543906D01*
X91462446Y-72462554D01*
X91381094Y-72363425D01*
X91320646Y-72250336D01*
X91310960Y-72218404D01*
X91283420Y-72127618D01*
X91270851Y-72000000D01*
X91283420Y-71872382D01*
X91320645Y-71749668D01*
X91320646Y-71749664D01*
X91381094Y-71636575D01*
X91462446Y-71537446D01*
X91561575Y-71456094D01*
X91674664Y-71395646D01*
X91706596Y-71385960D01*
X91797382Y-71358420D01*
X91861145Y-71352140D01*
X91893026Y-71349000D01*
X92506974Y-71349000D01*
X92538855Y-71352140D01*
X92538855Y-71352140D01*
G37*
G36*
X108010443Y-68865519D02*
G01*
X108076627Y-68872037D01*
X108246466Y-68923557D01*
X108402991Y-69007222D01*
X108438729Y-69036552D01*
X108540186Y-69119814D01*
X108623448Y-69221271D01*
X108652778Y-69257009D01*
X108736443Y-69413534D01*
X108787963Y-69583373D01*
X108805359Y-69760000D01*
X108787963Y-69936627D01*
X108736443Y-70106466D01*
X108652778Y-70262991D01*
X108623448Y-70298729D01*
X108540186Y-70400186D01*
X108464190Y-70462553D01*
X108402991Y-70512778D01*
X108246466Y-70596443D01*
X108076627Y-70647963D01*
X108010443Y-70654481D01*
X107944260Y-70661000D01*
X107855740Y-70661000D01*
X107789557Y-70654481D01*
X107723373Y-70647963D01*
X107553534Y-70596443D01*
X107397009Y-70512778D01*
X107335810Y-70462553D01*
X107259814Y-70400186D01*
X107176552Y-70298729D01*
X107147222Y-70262991D01*
X107063557Y-70106466D01*
X107012037Y-69936627D01*
X106994641Y-69760000D01*
X107012037Y-69583373D01*
X107063557Y-69413534D01*
X107147222Y-69257009D01*
X107176552Y-69221271D01*
X107259814Y-69119814D01*
X107361271Y-69036552D01*
X107397009Y-69007222D01*
X107553534Y-68923557D01*
X107723373Y-68872037D01*
X107789557Y-68865519D01*
X107855740Y-68859000D01*
X107944260Y-68859000D01*
X108010443Y-68865519D01*
X108010443Y-68865519D01*
G37*
G36*
X92538855Y-69352140D02*
G01*
X92602618Y-69358420D01*
X92693404Y-69385960D01*
X92725336Y-69395646D01*
X92838425Y-69456094D01*
X92937554Y-69537446D01*
X93018906Y-69636575D01*
X93079354Y-69749664D01*
X93079355Y-69749668D01*
X93116580Y-69872382D01*
X93129149Y-70000000D01*
X93116580Y-70127618D01*
X93089040Y-70218404D01*
X93079354Y-70250336D01*
X93018906Y-70363425D01*
X92937554Y-70462554D01*
X92838425Y-70543906D01*
X92725336Y-70604354D01*
X92693404Y-70614040D01*
X92602618Y-70641580D01*
X92538855Y-70647860D01*
X92506974Y-70651000D01*
X91893026Y-70651000D01*
X91861145Y-70647860D01*
X91797382Y-70641580D01*
X91706596Y-70614040D01*
X91674664Y-70604354D01*
X91561575Y-70543906D01*
X91462446Y-70462554D01*
X91381094Y-70363425D01*
X91320646Y-70250336D01*
X91310960Y-70218404D01*
X91283420Y-70127618D01*
X91270851Y-70000000D01*
X91283420Y-69872382D01*
X91320645Y-69749668D01*
X91320646Y-69749664D01*
X91381094Y-69636575D01*
X91462446Y-69537446D01*
X91561575Y-69456094D01*
X91674664Y-69395646D01*
X91706596Y-69385960D01*
X91797382Y-69358420D01*
X91861145Y-69352140D01*
X91893026Y-69349000D01*
X92506974Y-69349000D01*
X92538855Y-69352140D01*
X92538855Y-69352140D01*
G37*
G36*
X92966242Y-67353404D02*
G01*
X93003337Y-67364657D01*
X93037515Y-67382925D01*
X93067481Y-67407519D01*
X93092075Y-67437485D01*
X93110343Y-67471663D01*
X93121596Y-67508758D01*
X93126000Y-67553474D01*
X93126000Y-68446526D01*
X93121596Y-68491242D01*
X93110343Y-68528337D01*
X93092075Y-68562515D01*
X93067481Y-68592481D01*
X93037515Y-68617075D01*
X93003337Y-68635343D01*
X92966242Y-68646596D01*
X92921526Y-68651000D01*
X91478474Y-68651000D01*
X91433758Y-68646596D01*
X91396663Y-68635343D01*
X91362485Y-68617075D01*
X91332519Y-68592481D01*
X91307925Y-68562515D01*
X91289657Y-68528337D01*
X91278404Y-68491242D01*
X91274000Y-68446526D01*
X91274000Y-67553474D01*
X91278404Y-67508758D01*
X91289657Y-67471663D01*
X91307925Y-67437485D01*
X91332519Y-67407519D01*
X91362485Y-67382925D01*
X91396663Y-67364657D01*
X91433758Y-67353404D01*
X91478474Y-67349000D01*
X92921526Y-67349000D01*
X92966242Y-67353404D01*
X92966242Y-67353404D01*
G37*
G36*
X108010442Y-66325518D02*
G01*
X108076627Y-66332037D01*
X108246466Y-66383557D01*
X108402991Y-66467222D01*
X108438729Y-66496552D01*
X108540186Y-66579814D01*
X108623448Y-66681271D01*
X108652778Y-66717009D01*
X108736443Y-66873534D01*
X108787963Y-67043373D01*
X108805359Y-67220000D01*
X108787963Y-67396627D01*
X108736443Y-67566466D01*
X108652778Y-67722991D01*
X108631433Y-67749000D01*
X108540186Y-67860186D01*
X108438729Y-67943448D01*
X108402991Y-67972778D01*
X108246466Y-68056443D01*
X108076627Y-68107963D01*
X108010443Y-68114481D01*
X107944260Y-68121000D01*
X107855740Y-68121000D01*
X107789557Y-68114481D01*
X107723373Y-68107963D01*
X107553534Y-68056443D01*
X107397009Y-67972778D01*
X107361271Y-67943448D01*
X107259814Y-67860186D01*
X107168567Y-67749000D01*
X107147222Y-67722991D01*
X107063557Y-67566466D01*
X107012037Y-67396627D01*
X106994641Y-67220000D01*
X107012037Y-67043373D01*
X107063557Y-66873534D01*
X107147222Y-66717009D01*
X107176552Y-66681271D01*
X107259814Y-66579814D01*
X107361271Y-66496552D01*
X107397009Y-66467222D01*
X107553534Y-66383557D01*
X107723373Y-66332037D01*
X107789558Y-66325518D01*
X107855740Y-66319000D01*
X107944260Y-66319000D01*
X108010442Y-66325518D01*
X108010442Y-66325518D01*
G37*
G36*
X104901000Y-67701000D02*
G01*
X103099000Y-67701000D01*
X103099000Y-65899000D01*
X104901000Y-65899000D01*
X104901000Y-67701000D01*
X104901000Y-67701000D01*
G37*
G36*
X107650443Y-62105519D02*
G01*
X107716627Y-62112037D01*
X107886466Y-62163557D01*
X108042991Y-62247222D01*
X108078729Y-62276552D01*
X108180186Y-62359814D01*
X108263448Y-62461271D01*
X108292778Y-62497009D01*
X108376443Y-62653534D01*
X108427963Y-62823373D01*
X108445359Y-63000000D01*
X108427963Y-63176627D01*
X108376443Y-63346466D01*
X108292778Y-63502991D01*
X108263448Y-63538729D01*
X108180186Y-63640186D01*
X108078729Y-63723448D01*
X108042991Y-63752778D01*
X107886466Y-63836443D01*
X107716627Y-63887963D01*
X107650443Y-63894481D01*
X107584260Y-63901000D01*
X107495740Y-63901000D01*
X107429557Y-63894481D01*
X107363373Y-63887963D01*
X107193534Y-63836443D01*
X107037009Y-63752778D01*
X107001271Y-63723448D01*
X106899814Y-63640186D01*
X106816552Y-63538729D01*
X106787222Y-63502991D01*
X106703557Y-63346466D01*
X106652037Y-63176627D01*
X106634641Y-63000000D01*
X106652037Y-62823373D01*
X106703557Y-62653534D01*
X106787222Y-62497009D01*
X106816552Y-62461271D01*
X106899814Y-62359814D01*
X107001271Y-62276552D01*
X107037009Y-62247222D01*
X107193534Y-62163557D01*
X107363373Y-62112037D01*
X107429557Y-62105519D01*
X107495740Y-62099000D01*
X107584260Y-62099000D01*
X107650443Y-62105519D01*
X107650443Y-62105519D01*
G37*
G36*
X105901000Y-63901000D02*
G01*
X104099000Y-63901000D01*
X104099000Y-62099000D01*
X105901000Y-62099000D01*
X105901000Y-63901000D01*
X105901000Y-63901000D01*
G37*
G36*
X99901000Y-63901000D02*
G01*
X98099000Y-63901000D01*
X98099000Y-62099000D01*
X99901000Y-62099000D01*
X99901000Y-63901000D01*
X99901000Y-63901000D01*
G37*
G36*
X95901000Y-63901000D02*
G01*
X94099000Y-63901000D01*
X94099000Y-62099000D01*
X95901000Y-62099000D01*
X95901000Y-63901000D01*
X95901000Y-63901000D01*
G37*
G36*
X92570443Y-62105519D02*
G01*
X92636627Y-62112037D01*
X92806466Y-62163557D01*
X92962991Y-62247222D01*
X92998729Y-62276552D01*
X93100186Y-62359814D01*
X93183448Y-62461271D01*
X93212778Y-62497009D01*
X93296443Y-62653534D01*
X93347963Y-62823373D01*
X93365359Y-63000000D01*
X93347963Y-63176627D01*
X93296443Y-63346466D01*
X93212778Y-63502991D01*
X93183448Y-63538729D01*
X93100186Y-63640186D01*
X92998729Y-63723448D01*
X92962991Y-63752778D01*
X92806466Y-63836443D01*
X92636627Y-63887963D01*
X92570443Y-63894481D01*
X92504260Y-63901000D01*
X92415740Y-63901000D01*
X92349557Y-63894481D01*
X92283373Y-63887963D01*
X92113534Y-63836443D01*
X91957009Y-63752778D01*
X91921271Y-63723448D01*
X91819814Y-63640186D01*
X91736552Y-63538729D01*
X91707222Y-63502991D01*
X91623557Y-63346466D01*
X91572037Y-63176627D01*
X91554641Y-63000000D01*
X91572037Y-62823373D01*
X91623557Y-62653534D01*
X91707222Y-62497009D01*
X91736552Y-62461271D01*
X91819814Y-62359814D01*
X91921271Y-62276552D01*
X91957009Y-62247222D01*
X92113534Y-62163557D01*
X92283373Y-62112037D01*
X92349557Y-62105519D01*
X92415740Y-62099000D01*
X92504260Y-62099000D01*
X92570443Y-62105519D01*
X92570443Y-62105519D01*
G37*
M02*
