G04 #@! TF.GenerationSoftware,KiCad,Pcbnew,5.1.2-f72e74a~84~ubuntu18.04.1*
G04 #@! TF.CreationDate,2019-08-30T12:47:12+08:00*
G04 #@! TF.ProjectId,handyfan,68616e64-7966-4616-9e2e-6b696361645f,rev?*
G04 #@! TF.SameCoordinates,Original*
G04 #@! TF.FileFunction,Legend,Bot*
G04 #@! TF.FilePolarity,Positive*
%FSLAX46Y46*%
G04 Gerber Fmt 4.6, Leading zero omitted, Abs format (unit mm)*
G04 Created by KiCad (PCBNEW 5.1.2-f72e74a~84~ubuntu18.04.1) date 2019-08-30 12:47:12*
%MOMM*%
%LPD*%
G04 APERTURE LIST*
%ADD10C,0.175000*%
%ADD11C,0.300000*%
%ADD12C,0.120000*%
%ADD13C,0.150000*%
G04 APERTURE END LIST*
D10*
X105816666Y-130183333D02*
X105116666Y-130183333D01*
X105116666Y-130450000D01*
X105150000Y-130516666D01*
X105183333Y-130550000D01*
X105250000Y-130583333D01*
X105350000Y-130583333D01*
X105416666Y-130550000D01*
X105450000Y-130516666D01*
X105483333Y-130450000D01*
X105483333Y-130183333D01*
X105816666Y-130883333D02*
X105350000Y-130883333D01*
X105483333Y-130883333D02*
X105416666Y-130916666D01*
X105383333Y-130950000D01*
X105350000Y-131016666D01*
X105350000Y-131083333D01*
X105816666Y-131416666D02*
X105783333Y-131350000D01*
X105750000Y-131316666D01*
X105683333Y-131283333D01*
X105483333Y-131283333D01*
X105416666Y-131316666D01*
X105383333Y-131350000D01*
X105350000Y-131416666D01*
X105350000Y-131516666D01*
X105383333Y-131583333D01*
X105416666Y-131616666D01*
X105483333Y-131650000D01*
X105683333Y-131650000D01*
X105750000Y-131616666D01*
X105783333Y-131583333D01*
X105816666Y-131516666D01*
X105816666Y-131416666D01*
X105816666Y-132483333D02*
X105116666Y-132483333D01*
X105616666Y-132716666D01*
X105116666Y-132950000D01*
X105816666Y-132950000D01*
X105816666Y-133283333D02*
X105350000Y-133283333D01*
X105116666Y-133283333D02*
X105150000Y-133250000D01*
X105183333Y-133283333D01*
X105150000Y-133316666D01*
X105116666Y-133283333D01*
X105183333Y-133283333D01*
X105783333Y-133916666D02*
X105816666Y-133850000D01*
X105816666Y-133716666D01*
X105783333Y-133650000D01*
X105750000Y-133616666D01*
X105683333Y-133583333D01*
X105483333Y-133583333D01*
X105416666Y-133616666D01*
X105383333Y-133650000D01*
X105350000Y-133716666D01*
X105350000Y-133850000D01*
X105383333Y-133916666D01*
X105816666Y-134216666D02*
X105350000Y-134216666D01*
X105483333Y-134216666D02*
X105416666Y-134250000D01*
X105383333Y-134283333D01*
X105350000Y-134350000D01*
X105350000Y-134416666D01*
X105816666Y-134750000D02*
X105783333Y-134683333D01*
X105750000Y-134650000D01*
X105683333Y-134616666D01*
X105483333Y-134616666D01*
X105416666Y-134650000D01*
X105383333Y-134683333D01*
X105350000Y-134750000D01*
X105350000Y-134850000D01*
X105383333Y-134916666D01*
X105416666Y-134950000D01*
X105483333Y-134983333D01*
X105683333Y-134983333D01*
X105750000Y-134950000D01*
X105783333Y-134916666D01*
X105816666Y-134850000D01*
X105816666Y-134750000D01*
X105116666Y-136150000D02*
X105116666Y-135816666D01*
X105450000Y-135783333D01*
X105416666Y-135816666D01*
X105383333Y-135883333D01*
X105383333Y-136050000D01*
X105416666Y-136116666D01*
X105450000Y-136150000D01*
X105516666Y-136183333D01*
X105683333Y-136183333D01*
X105750000Y-136150000D01*
X105783333Y-136116666D01*
X105816666Y-136050000D01*
X105816666Y-135883333D01*
X105783333Y-135816666D01*
X105750000Y-135783333D01*
X105116666Y-136383333D02*
X105816666Y-136616666D01*
X105116666Y-136850000D01*
X105116666Y-137550000D02*
X105116666Y-137983333D01*
X105383333Y-137750000D01*
X105383333Y-137850000D01*
X105416666Y-137916666D01*
X105450000Y-137950000D01*
X105516666Y-137983333D01*
X105683333Y-137983333D01*
X105750000Y-137950000D01*
X105783333Y-137916666D01*
X105816666Y-137850000D01*
X105816666Y-137650000D01*
X105783333Y-137583333D01*
X105750000Y-137550000D01*
X105183333Y-138250000D02*
X105150000Y-138283333D01*
X105116666Y-138350000D01*
X105116666Y-138516666D01*
X105150000Y-138583333D01*
X105183333Y-138616666D01*
X105250000Y-138650000D01*
X105316666Y-138650000D01*
X105416666Y-138616666D01*
X105816666Y-138216666D01*
X105816666Y-138650000D01*
X105116666Y-138950000D02*
X105683333Y-138950000D01*
X105750000Y-138983333D01*
X105783333Y-139016666D01*
X105816666Y-139083333D01*
X105816666Y-139216666D01*
X105783333Y-139283333D01*
X105750000Y-139316666D01*
X105683333Y-139350000D01*
X105116666Y-139350000D01*
X105350000Y-139983333D02*
X105816666Y-139983333D01*
X105083333Y-139816666D02*
X105583333Y-139650000D01*
X105583333Y-140083333D01*
X105816666Y-140883333D02*
X105116666Y-140883333D01*
X105616666Y-141116666D01*
X105116666Y-141350000D01*
X105816666Y-141350000D01*
X105816666Y-141783333D02*
X105783333Y-141716666D01*
X105750000Y-141683333D01*
X105683333Y-141650000D01*
X105483333Y-141650000D01*
X105416666Y-141683333D01*
X105383333Y-141716666D01*
X105350000Y-141783333D01*
X105350000Y-141883333D01*
X105383333Y-141950000D01*
X105416666Y-141983333D01*
X105483333Y-142016666D01*
X105683333Y-142016666D01*
X105750000Y-141983333D01*
X105783333Y-141950000D01*
X105816666Y-141883333D01*
X105816666Y-141783333D01*
X105816666Y-142616666D02*
X105116666Y-142616666D01*
X105783333Y-142616666D02*
X105816666Y-142550000D01*
X105816666Y-142416666D01*
X105783333Y-142350000D01*
X105750000Y-142316666D01*
X105683333Y-142283333D01*
X105483333Y-142283333D01*
X105416666Y-142316666D01*
X105383333Y-142350000D01*
X105350000Y-142416666D01*
X105350000Y-142550000D01*
X105383333Y-142616666D01*
X105350000Y-143250000D02*
X105816666Y-143250000D01*
X105350000Y-142950000D02*
X105716666Y-142950000D01*
X105783333Y-142983333D01*
X105816666Y-143050000D01*
X105816666Y-143150000D01*
X105783333Y-143216666D01*
X105750000Y-143250000D01*
X105816666Y-143683333D02*
X105783333Y-143616666D01*
X105716666Y-143583333D01*
X105116666Y-143583333D01*
X105783333Y-144216666D02*
X105816666Y-144150000D01*
X105816666Y-144016666D01*
X105783333Y-143950000D01*
X105716666Y-143916666D01*
X105450000Y-143916666D01*
X105383333Y-143950000D01*
X105350000Y-144016666D01*
X105350000Y-144150000D01*
X105383333Y-144216666D01*
X105450000Y-144250000D01*
X105516666Y-144250000D01*
X105583333Y-143916666D01*
X105016666Y-106733333D02*
X105016666Y-107133333D01*
X105716666Y-106933333D02*
X105016666Y-106933333D01*
X105350000Y-107600000D02*
X105383333Y-107700000D01*
X105416666Y-107733333D01*
X105483333Y-107766666D01*
X105583333Y-107766666D01*
X105650000Y-107733333D01*
X105683333Y-107700000D01*
X105716666Y-107633333D01*
X105716666Y-107366666D01*
X105016666Y-107366666D01*
X105016666Y-107600000D01*
X105050000Y-107666666D01*
X105083333Y-107700000D01*
X105150000Y-107733333D01*
X105216666Y-107733333D01*
X105283333Y-107700000D01*
X105316666Y-107666666D01*
X105350000Y-107600000D01*
X105350000Y-107366666D01*
X105016666Y-108366666D02*
X105016666Y-108233333D01*
X105050000Y-108166666D01*
X105083333Y-108133333D01*
X105183333Y-108066666D01*
X105316666Y-108033333D01*
X105583333Y-108033333D01*
X105650000Y-108066666D01*
X105683333Y-108100000D01*
X105716666Y-108166666D01*
X105716666Y-108300000D01*
X105683333Y-108366666D01*
X105650000Y-108400000D01*
X105583333Y-108433333D01*
X105416666Y-108433333D01*
X105350000Y-108400000D01*
X105316666Y-108366666D01*
X105283333Y-108300000D01*
X105283333Y-108166666D01*
X105316666Y-108100000D01*
X105350000Y-108066666D01*
X105416666Y-108033333D01*
X105016666Y-109033333D02*
X105016666Y-108900000D01*
X105050000Y-108833333D01*
X105083333Y-108800000D01*
X105183333Y-108733333D01*
X105316666Y-108700000D01*
X105583333Y-108700000D01*
X105650000Y-108733333D01*
X105683333Y-108766666D01*
X105716666Y-108833333D01*
X105716666Y-108966666D01*
X105683333Y-109033333D01*
X105650000Y-109066666D01*
X105583333Y-109100000D01*
X105416666Y-109100000D01*
X105350000Y-109066666D01*
X105316666Y-109033333D01*
X105283333Y-108966666D01*
X105283333Y-108833333D01*
X105316666Y-108766666D01*
X105350000Y-108733333D01*
X105416666Y-108700000D01*
X105716666Y-109766666D02*
X105716666Y-109366666D01*
X105716666Y-109566666D02*
X105016666Y-109566666D01*
X105116666Y-109500000D01*
X105183333Y-109433333D01*
X105216666Y-109366666D01*
X105083333Y-110033333D02*
X105050000Y-110066666D01*
X105016666Y-110133333D01*
X105016666Y-110300000D01*
X105050000Y-110366666D01*
X105083333Y-110400000D01*
X105150000Y-110433333D01*
X105216666Y-110433333D01*
X105316666Y-110400000D01*
X105716666Y-110000000D01*
X105716666Y-110433333D01*
X105350000Y-110966666D02*
X105350000Y-110733333D01*
X105716666Y-110733333D02*
X105016666Y-110733333D01*
X105016666Y-111066666D01*
X105716666Y-111333333D02*
X105016666Y-111333333D01*
X105716666Y-111733333D01*
X105016666Y-111733333D01*
X105050000Y-112433333D02*
X105016666Y-112366666D01*
X105016666Y-112266666D01*
X105050000Y-112166666D01*
X105116666Y-112100000D01*
X105183333Y-112066666D01*
X105316666Y-112033333D01*
X105416666Y-112033333D01*
X105550000Y-112066666D01*
X105616666Y-112100000D01*
X105683333Y-112166666D01*
X105716666Y-112266666D01*
X105716666Y-112333333D01*
X105683333Y-112433333D01*
X105650000Y-112466666D01*
X105416666Y-112466666D01*
X105416666Y-112333333D01*
X105716666Y-113300000D02*
X105016666Y-113300000D01*
X105516666Y-113533333D01*
X105016666Y-113766666D01*
X105716666Y-113766666D01*
X105016666Y-114233333D02*
X105016666Y-114366666D01*
X105050000Y-114433333D01*
X105116666Y-114500000D01*
X105250000Y-114533333D01*
X105483333Y-114533333D01*
X105616666Y-114500000D01*
X105683333Y-114433333D01*
X105716666Y-114366666D01*
X105716666Y-114233333D01*
X105683333Y-114166666D01*
X105616666Y-114100000D01*
X105483333Y-114066666D01*
X105250000Y-114066666D01*
X105116666Y-114100000D01*
X105050000Y-114166666D01*
X105016666Y-114233333D01*
X105016666Y-114733333D02*
X105016666Y-115133333D01*
X105716666Y-114933333D02*
X105016666Y-114933333D01*
X105016666Y-115500000D02*
X105016666Y-115633333D01*
X105050000Y-115700000D01*
X105116666Y-115766666D01*
X105250000Y-115800000D01*
X105483333Y-115800000D01*
X105616666Y-115766666D01*
X105683333Y-115700000D01*
X105716666Y-115633333D01*
X105716666Y-115500000D01*
X105683333Y-115433333D01*
X105616666Y-115366666D01*
X105483333Y-115333333D01*
X105250000Y-115333333D01*
X105116666Y-115366666D01*
X105050000Y-115433333D01*
X105016666Y-115500000D01*
X105716666Y-116500000D02*
X105383333Y-116266666D01*
X105716666Y-116100000D02*
X105016666Y-116100000D01*
X105016666Y-116366666D01*
X105050000Y-116433333D01*
X105083333Y-116466666D01*
X105150000Y-116500000D01*
X105250000Y-116500000D01*
X105316666Y-116466666D01*
X105350000Y-116433333D01*
X105383333Y-116366666D01*
X105383333Y-116100000D01*
X105716666Y-117333333D02*
X105016666Y-117333333D01*
X105016666Y-117500000D01*
X105050000Y-117600000D01*
X105116666Y-117666666D01*
X105183333Y-117700000D01*
X105316666Y-117733333D01*
X105416666Y-117733333D01*
X105550000Y-117700000D01*
X105616666Y-117666666D01*
X105683333Y-117600000D01*
X105716666Y-117500000D01*
X105716666Y-117333333D01*
X105716666Y-118433333D02*
X105383333Y-118200000D01*
X105716666Y-118033333D02*
X105016666Y-118033333D01*
X105016666Y-118300000D01*
X105050000Y-118366666D01*
X105083333Y-118400000D01*
X105150000Y-118433333D01*
X105250000Y-118433333D01*
X105316666Y-118400000D01*
X105350000Y-118366666D01*
X105383333Y-118300000D01*
X105383333Y-118033333D01*
X105716666Y-118733333D02*
X105016666Y-118733333D01*
X105016666Y-118966666D02*
X105716666Y-119200000D01*
X105016666Y-119433333D01*
X105350000Y-119666666D02*
X105350000Y-119900000D01*
X105716666Y-120000000D02*
X105716666Y-119666666D01*
X105016666Y-119666666D01*
X105016666Y-120000000D01*
X105716666Y-120700000D02*
X105383333Y-120466666D01*
X105716666Y-120300000D02*
X105016666Y-120300000D01*
X105016666Y-120566666D01*
X105050000Y-120633333D01*
X105083333Y-120666666D01*
X105150000Y-120700000D01*
X105250000Y-120700000D01*
X105316666Y-120666666D01*
X105350000Y-120633333D01*
X105383333Y-120566666D01*
X105383333Y-120300000D01*
X105716666Y-121533333D02*
X105016666Y-121533333D01*
X105516666Y-121766666D01*
X105016666Y-122000000D01*
X105716666Y-122000000D01*
X105016666Y-122466666D02*
X105016666Y-122600000D01*
X105050000Y-122666666D01*
X105116666Y-122733333D01*
X105250000Y-122766666D01*
X105483333Y-122766666D01*
X105616666Y-122733333D01*
X105683333Y-122666666D01*
X105716666Y-122600000D01*
X105716666Y-122466666D01*
X105683333Y-122400000D01*
X105616666Y-122333333D01*
X105483333Y-122300000D01*
X105250000Y-122300000D01*
X105116666Y-122333333D01*
X105050000Y-122400000D01*
X105016666Y-122466666D01*
X105716666Y-123066666D02*
X105016666Y-123066666D01*
X105016666Y-123233333D01*
X105050000Y-123333333D01*
X105116666Y-123400000D01*
X105183333Y-123433333D01*
X105316666Y-123466666D01*
X105416666Y-123466666D01*
X105550000Y-123433333D01*
X105616666Y-123400000D01*
X105683333Y-123333333D01*
X105716666Y-123233333D01*
X105716666Y-123066666D01*
X105016666Y-123766666D02*
X105583333Y-123766666D01*
X105650000Y-123800000D01*
X105683333Y-123833333D01*
X105716666Y-123900000D01*
X105716666Y-124033333D01*
X105683333Y-124100000D01*
X105650000Y-124133333D01*
X105583333Y-124166666D01*
X105016666Y-124166666D01*
X105716666Y-124833333D02*
X105716666Y-124500000D01*
X105016666Y-124500000D01*
X105350000Y-125066666D02*
X105350000Y-125300000D01*
X105716666Y-125400000D02*
X105716666Y-125066666D01*
X105016666Y-125066666D01*
X105016666Y-125400000D01*
D11*
X92003571Y-78457142D02*
X90503571Y-78457142D01*
X92003571Y-79385714D02*
X91932142Y-79242857D01*
X91860714Y-79171428D01*
X91717857Y-79100000D01*
X91289285Y-79100000D01*
X91146428Y-79171428D01*
X91075000Y-79242857D01*
X91003571Y-79385714D01*
X91003571Y-79600000D01*
X91075000Y-79742857D01*
X91146428Y-79814285D01*
X91289285Y-79885714D01*
X91717857Y-79885714D01*
X91860714Y-79814285D01*
X91932142Y-79742857D01*
X92003571Y-79600000D01*
X92003571Y-79385714D01*
X90503571Y-80314285D02*
X90503571Y-81171428D01*
X92003571Y-80742857D02*
X90503571Y-80742857D01*
X92003571Y-81671428D02*
X90503571Y-81671428D01*
X91217857Y-81671428D02*
X91217857Y-82528571D01*
X92003571Y-82528571D02*
X90503571Y-82528571D01*
X92003571Y-83885714D02*
X91217857Y-83885714D01*
X91075000Y-83814285D01*
X91003571Y-83671428D01*
X91003571Y-83385714D01*
X91075000Y-83242857D01*
X91932142Y-83885714D02*
X92003571Y-83742857D01*
X92003571Y-83385714D01*
X91932142Y-83242857D01*
X91789285Y-83171428D01*
X91646428Y-83171428D01*
X91503571Y-83242857D01*
X91432142Y-83385714D01*
X91432142Y-83742857D01*
X91360714Y-83885714D01*
X91003571Y-84600000D02*
X92003571Y-84600000D01*
X91146428Y-84600000D02*
X91075000Y-84671428D01*
X91003571Y-84814285D01*
X91003571Y-85028571D01*
X91075000Y-85171428D01*
X91217857Y-85242857D01*
X92003571Y-85242857D01*
X92003571Y-86600000D02*
X90503571Y-86600000D01*
X91932142Y-86600000D02*
X92003571Y-86457142D01*
X92003571Y-86171428D01*
X91932142Y-86028571D01*
X91860714Y-85957142D01*
X91717857Y-85885714D01*
X91289285Y-85885714D01*
X91146428Y-85957142D01*
X91075000Y-86028571D01*
X91003571Y-86171428D01*
X91003571Y-86457142D01*
X91075000Y-86600000D01*
X91003571Y-87171428D02*
X92003571Y-87528571D01*
X91003571Y-87885714D02*
X92003571Y-87528571D01*
X92360714Y-87385714D01*
X92432142Y-87314285D01*
X92503571Y-87171428D01*
X91217857Y-88957142D02*
X91217857Y-88457142D01*
X92003571Y-88457142D02*
X90503571Y-88457142D01*
X90503571Y-89171428D01*
X92003571Y-90385714D02*
X91217857Y-90385714D01*
X91075000Y-90314285D01*
X91003571Y-90171428D01*
X91003571Y-89885714D01*
X91075000Y-89742857D01*
X91932142Y-90385714D02*
X92003571Y-90242857D01*
X92003571Y-89885714D01*
X91932142Y-89742857D01*
X91789285Y-89671428D01*
X91646428Y-89671428D01*
X91503571Y-89742857D01*
X91432142Y-89885714D01*
X91432142Y-90242857D01*
X91360714Y-90385714D01*
X91003571Y-91100000D02*
X92003571Y-91100000D01*
X91146428Y-91100000D02*
X91075000Y-91171428D01*
X91003571Y-91314285D01*
X91003571Y-91528571D01*
X91075000Y-91671428D01*
X91217857Y-91742857D01*
X92003571Y-91742857D01*
X93196428Y-79671428D02*
X93125000Y-79742857D01*
X93053571Y-79885714D01*
X93053571Y-80242857D01*
X93125000Y-80385714D01*
X93196428Y-80457142D01*
X93339285Y-80528571D01*
X93482142Y-80528571D01*
X93696428Y-80457142D01*
X94553571Y-79600000D01*
X94553571Y-80528571D01*
X93053571Y-81457142D02*
X93053571Y-81600000D01*
X93125000Y-81742857D01*
X93196428Y-81814285D01*
X93339285Y-81885714D01*
X93625000Y-81957142D01*
X93982142Y-81957142D01*
X94267857Y-81885714D01*
X94410714Y-81814285D01*
X94482142Y-81742857D01*
X94553571Y-81600000D01*
X94553571Y-81457142D01*
X94482142Y-81314285D01*
X94410714Y-81242857D01*
X94267857Y-81171428D01*
X93982142Y-81100000D01*
X93625000Y-81100000D01*
X93339285Y-81171428D01*
X93196428Y-81242857D01*
X93125000Y-81314285D01*
X93053571Y-81457142D01*
X94553571Y-83385714D02*
X94553571Y-82528571D01*
X94553571Y-82957142D02*
X93053571Y-82957142D01*
X93267857Y-82814285D01*
X93410714Y-82671428D01*
X93482142Y-82528571D01*
X94553571Y-84100000D02*
X94553571Y-84385714D01*
X94482142Y-84528571D01*
X94410714Y-84600000D01*
X94196428Y-84742857D01*
X93910714Y-84814285D01*
X93339285Y-84814285D01*
X93196428Y-84742857D01*
X93125000Y-84671428D01*
X93053571Y-84528571D01*
X93053571Y-84242857D01*
X93125000Y-84100000D01*
X93196428Y-84028571D01*
X93339285Y-83957142D01*
X93696428Y-83957142D01*
X93839285Y-84028571D01*
X93910714Y-84100000D01*
X93982142Y-84242857D01*
X93982142Y-84528571D01*
X93910714Y-84671428D01*
X93839285Y-84742857D01*
X93696428Y-84814285D01*
X93053571Y-85742857D02*
X93053571Y-85885714D01*
X93125000Y-86028571D01*
X93196428Y-86100000D01*
X93339285Y-86171428D01*
X93625000Y-86242857D01*
X93982142Y-86242857D01*
X94267857Y-86171428D01*
X94410714Y-86100000D01*
X94482142Y-86028571D01*
X94553571Y-85885714D01*
X94553571Y-85742857D01*
X94482142Y-85600000D01*
X94410714Y-85528571D01*
X94267857Y-85457142D01*
X93982142Y-85385714D01*
X93625000Y-85385714D01*
X93339285Y-85457142D01*
X93196428Y-85528571D01*
X93125000Y-85600000D01*
X93053571Y-85742857D01*
X93696428Y-87100000D02*
X93625000Y-86957142D01*
X93553571Y-86885714D01*
X93410714Y-86814285D01*
X93339285Y-86814285D01*
X93196428Y-86885714D01*
X93125000Y-86957142D01*
X93053571Y-87100000D01*
X93053571Y-87385714D01*
X93125000Y-87528571D01*
X93196428Y-87600000D01*
X93339285Y-87671428D01*
X93410714Y-87671428D01*
X93553571Y-87600000D01*
X93625000Y-87528571D01*
X93696428Y-87385714D01*
X93696428Y-87100000D01*
X93767857Y-86957142D01*
X93839285Y-86885714D01*
X93982142Y-86814285D01*
X94267857Y-86814285D01*
X94410714Y-86885714D01*
X94482142Y-86957142D01*
X94553571Y-87100000D01*
X94553571Y-87385714D01*
X94482142Y-87528571D01*
X94410714Y-87600000D01*
X94267857Y-87671428D01*
X93982142Y-87671428D01*
X93839285Y-87600000D01*
X93767857Y-87528571D01*
X93696428Y-87385714D01*
X93053571Y-88171428D02*
X93053571Y-89100000D01*
X93625000Y-88600000D01*
X93625000Y-88814285D01*
X93696428Y-88957142D01*
X93767857Y-89028571D01*
X93910714Y-89100000D01*
X94267857Y-89100000D01*
X94410714Y-89028571D01*
X94482142Y-88957142D01*
X94553571Y-88814285D01*
X94553571Y-88385714D01*
X94482142Y-88242857D01*
X94410714Y-88171428D01*
X93053571Y-90028571D02*
X93053571Y-90171428D01*
X93125000Y-90314285D01*
X93196428Y-90385714D01*
X93339285Y-90457142D01*
X93625000Y-90528571D01*
X93982142Y-90528571D01*
X94267857Y-90457142D01*
X94410714Y-90385714D01*
X94482142Y-90314285D01*
X94553571Y-90171428D01*
X94553571Y-90028571D01*
X94482142Y-89885714D01*
X94410714Y-89814285D01*
X94267857Y-89742857D01*
X93982142Y-89671428D01*
X93625000Y-89671428D01*
X93339285Y-89742857D01*
X93196428Y-89814285D01*
X93125000Y-89885714D01*
X93053571Y-90028571D01*
X89300000Y-66292857D02*
X89228571Y-66150000D01*
X89228571Y-65935714D01*
X89300000Y-65721428D01*
X89442857Y-65578571D01*
X89585714Y-65507142D01*
X89871428Y-65435714D01*
X90085714Y-65435714D01*
X90371428Y-65507142D01*
X90514285Y-65578571D01*
X90657142Y-65721428D01*
X90728571Y-65935714D01*
X90728571Y-66078571D01*
X90657142Y-66292857D01*
X90585714Y-66364285D01*
X90085714Y-66364285D01*
X90085714Y-66078571D01*
X90728571Y-67864285D02*
X90014285Y-67364285D01*
X90728571Y-67007142D02*
X89228571Y-67007142D01*
X89228571Y-67578571D01*
X89300000Y-67721428D01*
X89371428Y-67792857D01*
X89514285Y-67864285D01*
X89728571Y-67864285D01*
X89871428Y-67792857D01*
X89942857Y-67721428D01*
X90014285Y-67578571D01*
X90014285Y-67007142D01*
X89228571Y-68792857D02*
X89228571Y-69078571D01*
X89300000Y-69221428D01*
X89442857Y-69364285D01*
X89728571Y-69435714D01*
X90228571Y-69435714D01*
X90514285Y-69364285D01*
X90657142Y-69221428D01*
X90728571Y-69078571D01*
X90728571Y-68792857D01*
X90657142Y-68650000D01*
X90514285Y-68507142D01*
X90228571Y-68435714D01*
X89728571Y-68435714D01*
X89442857Y-68507142D01*
X89300000Y-68650000D01*
X89228571Y-68792857D01*
X89228571Y-69864285D02*
X90728571Y-70364285D01*
X89228571Y-70864285D01*
X89942857Y-71364285D02*
X89942857Y-71864285D01*
X90728571Y-72078571D02*
X90728571Y-71364285D01*
X89228571Y-71364285D01*
X89228571Y-72078571D01*
X90728571Y-73864285D02*
X89228571Y-73864285D01*
X89371428Y-74507142D02*
X89300000Y-74578571D01*
X89228571Y-74721428D01*
X89228571Y-75078571D01*
X89300000Y-75221428D01*
X89371428Y-75292857D01*
X89514285Y-75364285D01*
X89657142Y-75364285D01*
X89871428Y-75292857D01*
X90728571Y-74435714D01*
X90728571Y-75364285D01*
X90585714Y-76864285D02*
X90657142Y-76792857D01*
X90728571Y-76578571D01*
X90728571Y-76435714D01*
X90657142Y-76221428D01*
X90514285Y-76078571D01*
X90371428Y-76007142D01*
X90085714Y-75935714D01*
X89871428Y-75935714D01*
X89585714Y-76007142D01*
X89442857Y-76078571D01*
X89300000Y-76221428D01*
X89228571Y-76435714D01*
X89228571Y-76578571D01*
X89300000Y-76792857D01*
X89371428Y-76864285D01*
D12*
X90390000Y-65940000D02*
X95110000Y-65940000D01*
X95110000Y-65940000D02*
X95110000Y-76060000D01*
X95110000Y-76060000D02*
X90390000Y-76060000D01*
X90390000Y-76060000D02*
X90390000Y-65940000D01*
X90390000Y-67700000D02*
X90190000Y-67700000D01*
X90190000Y-67700000D02*
X90190000Y-67400000D01*
X90190000Y-67400000D02*
X90390000Y-67400000D01*
X90290000Y-67700000D02*
X90290000Y-67400000D01*
X90390000Y-68500000D02*
X91000000Y-68500000D01*
X91000000Y-68500000D02*
X91000000Y-66550000D01*
X91000000Y-66550000D02*
X94500000Y-66550000D01*
X94500000Y-66550000D02*
X94500000Y-75450000D01*
X94500000Y-75450000D02*
X91000000Y-75450000D01*
X91000000Y-75450000D02*
X91000000Y-73500000D01*
X91000000Y-73500000D02*
X90390000Y-73500000D01*
X91700000Y-65940000D02*
X91700000Y-66550000D01*
X93000000Y-65940000D02*
X93000000Y-66550000D01*
X91700000Y-76060000D02*
X91700000Y-75450000D01*
X93000000Y-76060000D02*
X93000000Y-75450000D01*
X94500000Y-68900000D02*
X94000000Y-68900000D01*
X94000000Y-68900000D02*
X94000000Y-69100000D01*
X94000000Y-69100000D02*
X94500000Y-69100000D01*
X94500000Y-69000000D02*
X94000000Y-69000000D01*
X94500000Y-70900000D02*
X94000000Y-70900000D01*
X94000000Y-70900000D02*
X94000000Y-71100000D01*
X94000000Y-71100000D02*
X94500000Y-71100000D01*
X94500000Y-71000000D02*
X94000000Y-71000000D01*
X94500000Y-72900000D02*
X94000000Y-72900000D01*
X94000000Y-72900000D02*
X94000000Y-73100000D01*
X94000000Y-73100000D02*
X94500000Y-73100000D01*
X94500000Y-73000000D02*
X94000000Y-73000000D01*
X90090000Y-66890000D02*
X90090000Y-65640000D01*
X90090000Y-65640000D02*
X91340000Y-65640000D01*
D13*
X88752380Y-70666666D02*
X89466666Y-70666666D01*
X89609523Y-70619047D01*
X89704761Y-70523809D01*
X89752380Y-70380952D01*
X89752380Y-70285714D01*
X88752380Y-71571428D02*
X88752380Y-71380952D01*
X88800000Y-71285714D01*
X88847619Y-71238095D01*
X88990476Y-71142857D01*
X89180952Y-71095238D01*
X89561904Y-71095238D01*
X89657142Y-71142857D01*
X89704761Y-71190476D01*
X89752380Y-71285714D01*
X89752380Y-71476190D01*
X89704761Y-71571428D01*
X89657142Y-71619047D01*
X89561904Y-71666666D01*
X89323809Y-71666666D01*
X89228571Y-71619047D01*
X89180952Y-71571428D01*
X89133333Y-71476190D01*
X89133333Y-71285714D01*
X89180952Y-71190476D01*
X89228571Y-71142857D01*
X89323809Y-71095238D01*
M02*
