G04 #@! TF.GenerationSoftware,KiCad,Pcbnew,7.0.0-da2b9df05c~163~ubuntu22.04.1*
G04 #@! TF.CreationDate,2023-05-10T13:35:31+09:00*
G04 #@! TF.ProjectId,QuinoaChipPlant,5175696e-6f61-4436-9869-70506c616e74,rev?*
G04 #@! TF.SameCoordinates,Original*
G04 #@! TF.FileFunction,Copper,L1,Top*
G04 #@! TF.FilePolarity,Positive*
%FSLAX46Y46*%
G04 Gerber Fmt 4.6, Leading zero omitted, Abs format (unit mm)*
G04 Created by KiCad (PCBNEW 7.0.0-da2b9df05c~163~ubuntu22.04.1) date 2023-05-10 13:35:31*
%MOMM*%
%LPD*%
G01*
G04 APERTURE LIST*
G04 Aperture macros list*
%AMRoundRect*
0 Rectangle with rounded corners*
0 $1 Rounding radius*
0 $2 $3 $4 $5 $6 $7 $8 $9 X,Y pos of 4 corners*
0 Add a 4 corners polygon primitive as box body*
4,1,4,$2,$3,$4,$5,$6,$7,$8,$9,$2,$3,0*
0 Add four circle primitives for the rounded corners*
1,1,$1+$1,$2,$3*
1,1,$1+$1,$4,$5*
1,1,$1+$1,$6,$7*
1,1,$1+$1,$8,$9*
0 Add four rect primitives between the rounded corners*
20,1,$1+$1,$2,$3,$4,$5,0*
20,1,$1+$1,$4,$5,$6,$7,0*
20,1,$1+$1,$6,$7,$8,$9,0*
20,1,$1+$1,$8,$9,$2,$3,0*%
G04 Aperture macros list end*
G04 #@! TA.AperFunction,ComponentPad*
%ADD10O,2.000000X2.000000*%
G04 #@! TD*
G04 #@! TA.AperFunction,ComponentPad*
%ADD11R,2.200000X2.200000*%
G04 #@! TD*
G04 #@! TA.AperFunction,ComponentPad*
%ADD12C,2.200000*%
G04 #@! TD*
G04 #@! TA.AperFunction,ComponentPad*
%ADD13RoundRect,0.250000X-0.600000X-0.750000X0.600000X-0.750000X0.600000X0.750000X-0.600000X0.750000X0*%
G04 #@! TD*
G04 #@! TA.AperFunction,ComponentPad*
%ADD14O,1.700000X2.000000*%
G04 #@! TD*
G04 #@! TA.AperFunction,ComponentPad*
%ADD15RoundRect,0.250000X-0.350000X-0.625000X0.350000X-0.625000X0.350000X0.625000X-0.350000X0.625000X0*%
G04 #@! TD*
G04 #@! TA.AperFunction,ComponentPad*
%ADD16O,1.200000X1.750000*%
G04 #@! TD*
G04 #@! TA.AperFunction,SMDPad,CuDef*
%ADD17RoundRect,0.250000X-0.412500X-0.650000X0.412500X-0.650000X0.412500X0.650000X-0.412500X0.650000X0*%
G04 #@! TD*
G04 #@! TA.AperFunction,ComponentPad*
%ADD18RoundRect,0.250000X0.725000X-0.600000X0.725000X0.600000X-0.725000X0.600000X-0.725000X-0.600000X0*%
G04 #@! TD*
G04 #@! TA.AperFunction,ComponentPad*
%ADD19O,1.950000X1.700000*%
G04 #@! TD*
G04 #@! TA.AperFunction,ComponentPad*
%ADD20R,3.960000X1.980000*%
G04 #@! TD*
G04 #@! TA.AperFunction,ComponentPad*
%ADD21O,3.960000X1.980000*%
G04 #@! TD*
G04 #@! TA.AperFunction,ComponentPad*
%ADD22R,2.400000X2.400000*%
G04 #@! TD*
G04 #@! TA.AperFunction,ComponentPad*
%ADD23C,2.400000*%
G04 #@! TD*
G04 #@! TA.AperFunction,SMDPad,CuDef*
%ADD24RoundRect,0.250000X-0.400000X-0.625000X0.400000X-0.625000X0.400000X0.625000X-0.400000X0.625000X0*%
G04 #@! TD*
G04 #@! TA.AperFunction,ComponentPad*
%ADD25R,1.800000X1.800000*%
G04 #@! TD*
G04 #@! TA.AperFunction,ComponentPad*
%ADD26C,1.800000*%
G04 #@! TD*
G04 #@! TA.AperFunction,ComponentPad*
%ADD27C,2.000000*%
G04 #@! TD*
G04 #@! TA.AperFunction,ViaPad*
%ADD28C,1.000000*%
G04 #@! TD*
G04 #@! TA.AperFunction,Conductor*
%ADD29C,0.400000*%
G04 #@! TD*
G04 #@! TA.AperFunction,Conductor*
%ADD30C,1.000000*%
G04 #@! TD*
G04 APERTURE END LIST*
D10*
X171179999Y-91699999D03*
X171179999Y-94239999D03*
X171179999Y-96779999D03*
X171179999Y-99319999D03*
X171179999Y-101859999D03*
X171179999Y-104399999D03*
X171179999Y-106939999D03*
X171179999Y-109479999D03*
X186419999Y-109479999D03*
X186419999Y-106939999D03*
X186419999Y-104399999D03*
X186419999Y-101859999D03*
X186419999Y-99319999D03*
X186419999Y-96779999D03*
X186419999Y-94239999D03*
X186419999Y-91699999D03*
D11*
X164179999Y-106359999D03*
D12*
X164180000Y-103820000D03*
D13*
X175680000Y-43320000D03*
D14*
X178179999Y-43319999D03*
D15*
X233180000Y-118770000D03*
D16*
X235179999Y-118769999D03*
X237179999Y-118769999D03*
X239179999Y-118769999D03*
D17*
X203055000Y-116320000D03*
X206180000Y-116320000D03*
D18*
X226180000Y-156220000D03*
D19*
X226179999Y-153719999D03*
X226179999Y-151219999D03*
X226179999Y-148719999D03*
D20*
X222679999Y-135819999D03*
D21*
X222679999Y-130819999D03*
D22*
X208679999Y-151319999D03*
D23*
X213680000Y-151320000D03*
X218680000Y-151320000D03*
D17*
X192055000Y-122320000D03*
X195180000Y-122320000D03*
X203055000Y-122320000D03*
X206180000Y-122320000D03*
D13*
X175680000Y-155520000D03*
D14*
X178179999Y-155519999D03*
D17*
X192055000Y-116320000D03*
X195180000Y-116320000D03*
D24*
X237130000Y-125820000D03*
X240230000Y-125820000D03*
D25*
X237639999Y-131319999D03*
D26*
X240180000Y-131320000D03*
D27*
X236680000Y-150320000D03*
X243180000Y-150320000D03*
X236680000Y-154820000D03*
X243180000Y-154820000D03*
D15*
X213180000Y-118770000D03*
D16*
X215179999Y-118769999D03*
X217179999Y-118769999D03*
X219179999Y-118769999D03*
D24*
X221080000Y-125820000D03*
X224180000Y-125820000D03*
D11*
X164429999Y-96569999D03*
D12*
X164430000Y-94030000D03*
D28*
X176180000Y-102320000D03*
X199680000Y-119820000D03*
X197680000Y-112320000D03*
X204180000Y-118820000D03*
D29*
X214455000Y-120045000D02*
X215594215Y-120045000D01*
X215594215Y-120045000D02*
X216180000Y-119459215D01*
X213180000Y-118770000D02*
X214455000Y-120045000D01*
X204310393Y-99450393D02*
X189090393Y-99450393D01*
X216180000Y-111320000D02*
X204310393Y-99450393D01*
X189090393Y-99450393D02*
X186420000Y-96780000D01*
X216180000Y-119459215D02*
X216180000Y-111320000D01*
D30*
X207542500Y-115682500D02*
X207542500Y-114986149D01*
X216880499Y-120944501D02*
X212804501Y-120944501D01*
X217180000Y-120645000D02*
X216880499Y-120944501D01*
X200979501Y-113520499D02*
X195680000Y-118820000D01*
X171180000Y-91700000D02*
X180180000Y-100700000D01*
X180180000Y-100700000D02*
X180180000Y-116320000D01*
X206076850Y-113520499D02*
X200979501Y-113520499D01*
X180180000Y-122820000D02*
X180180000Y-116320000D01*
X212804501Y-120944501D02*
X207542500Y-115682500D01*
X208680000Y-151320000D02*
X180180000Y-122820000D01*
X192055000Y-118820000D02*
X192055000Y-116320000D01*
X192055000Y-122320000D02*
X192055000Y-118820000D01*
X217180000Y-118770000D02*
X217180000Y-120645000D01*
X195680000Y-118820000D02*
X192055000Y-118820000D01*
X180180000Y-116320000D02*
X192055000Y-116320000D01*
X207542500Y-114986149D02*
X206076850Y-113520499D01*
X196780000Y-123920000D02*
X195180000Y-122320000D01*
X199680000Y-123920000D02*
X196780000Y-123920000D01*
X172880000Y-102320000D02*
X176180000Y-102320000D01*
X199680000Y-116820000D02*
X199680000Y-123920000D01*
X186420000Y-109480000D02*
X188340000Y-109480000D01*
X197430000Y-112070000D02*
X197680000Y-112320000D01*
X204580000Y-114720000D02*
X201780000Y-114720000D01*
X171180000Y-96780000D02*
X172880000Y-98480000D01*
X172880000Y-107780000D02*
X171180000Y-109480000D01*
X172880000Y-102320000D02*
X172880000Y-107780000D01*
X190930000Y-112070000D02*
X197430000Y-112070000D01*
X243180000Y-150320000D02*
X236680000Y-150320000D01*
X190930000Y-112070000D02*
X195180000Y-116320000D01*
X206180000Y-122320000D02*
X204580000Y-123920000D01*
X206180000Y-116320000D02*
X204580000Y-114720000D01*
X201780000Y-114720000D02*
X199680000Y-116820000D01*
X172880000Y-98480000D02*
X172880000Y-102320000D01*
X188340000Y-109480000D02*
X190930000Y-112070000D01*
X204580000Y-123920000D02*
X199680000Y-123920000D01*
D29*
X215180000Y-118770000D02*
X215180000Y-114420862D01*
X215180000Y-114420862D02*
X202619138Y-101860000D01*
X202619138Y-101860000D02*
X186420000Y-101860000D01*
D30*
X186420000Y-104400000D02*
X186420000Y-106940000D01*
X184040000Y-89320000D02*
X186420000Y-91700000D01*
X184720000Y-102700000D02*
X184720000Y-101020000D01*
X186420000Y-104400000D02*
X184720000Y-102700000D01*
X226180000Y-148720000D02*
X226180000Y-121820000D01*
X213680000Y-127413997D02*
X205086003Y-118820000D01*
X186420000Y-99320000D02*
X184720000Y-97620000D01*
X203055000Y-116445000D02*
X203180000Y-116320000D01*
X235180000Y-121820000D02*
X235180000Y-118770000D01*
X205086003Y-118820000D02*
X203055000Y-118820000D01*
X169480000Y-90995836D02*
X171155836Y-89320000D01*
X225080000Y-121820000D02*
X226180000Y-121820000D01*
X203055000Y-122320000D02*
X203055000Y-118820000D01*
X184720000Y-93400000D02*
X186420000Y-91700000D01*
X171155836Y-89320000D02*
X184040000Y-89320000D01*
X203055000Y-118820000D02*
X203055000Y-116445000D01*
X184720000Y-101020000D02*
X186420000Y-99320000D01*
X184720000Y-97620000D02*
X184720000Y-93400000D01*
X169480000Y-92540000D02*
X169480000Y-90995836D01*
X213680000Y-151320000D02*
X213680000Y-127413997D01*
X226180000Y-121820000D02*
X235180000Y-121820000D01*
X171180000Y-94240000D02*
X169480000Y-92540000D01*
X237130000Y-125820000D02*
X235180000Y-123870000D01*
X235180000Y-123870000D02*
X235180000Y-121820000D01*
X221080000Y-125820000D02*
X225080000Y-121820000D01*
X164424415Y-96570000D02*
X164430000Y-96570000D01*
X164180000Y-106360000D02*
X164174415Y-106360000D01*
X237180000Y-118770000D02*
X237180000Y-118495000D01*
X232330000Y-159170000D02*
X226461497Y-159170000D01*
X220000000Y-130000000D02*
X220000000Y-133140000D01*
X224180000Y-125820000D02*
X223976998Y-125616998D01*
X243180000Y-154820000D02*
X236680000Y-154820000D01*
X237180000Y-118495000D02*
X238480000Y-117195000D01*
X224180000Y-125820000D02*
X220000000Y-130000000D01*
X220000000Y-133140000D02*
X222680000Y-135820000D01*
X236680000Y-154820000D02*
X232330000Y-159170000D01*
X245680000Y-122820000D02*
X245680000Y-152320000D01*
X240055000Y-117195000D02*
X245680000Y-122820000D01*
X222680000Y-155388503D02*
X222680000Y-135820000D01*
X226461497Y-159170000D02*
X222680000Y-155388503D01*
X245680000Y-152320000D02*
X243180000Y-154820000D01*
X238480000Y-117195000D02*
X240055000Y-117195000D01*
X238880000Y-130080000D02*
X237640000Y-131320000D01*
X237640000Y-139760000D02*
X226180000Y-151220000D01*
X237640000Y-131320000D02*
X237640000Y-139760000D01*
X238880000Y-119070000D02*
X238880000Y-130080000D01*
X239180000Y-118770000D02*
X238880000Y-119070000D01*
X240230000Y-131270000D02*
X240180000Y-131320000D01*
X240230000Y-125820000D02*
X240230000Y-131270000D01*
G04 #@! TA.AperFunction,Conductor*
G36*
X247092500Y-40362113D02*
G01*
X247137887Y-40407500D01*
X247154500Y-40469500D01*
X247154500Y-160170500D01*
X247137887Y-160232500D01*
X247092500Y-160277887D01*
X247030500Y-160294500D01*
X232860633Y-160294500D01*
X232797931Y-160277479D01*
X232752443Y-160231089D01*
X232736657Y-160168065D01*
X232754906Y-160105710D01*
X232802180Y-160061142D01*
X232868967Y-160025442D01*
X232893004Y-160012595D01*
X233046568Y-159886568D01*
X233074307Y-159852765D01*
X233082451Y-159843781D01*
X236558990Y-156367242D01*
X236603752Y-156338589D01*
X236656398Y-156331307D01*
X236680000Y-156333165D01*
X236916711Y-156314535D01*
X237147594Y-156259105D01*
X237366963Y-156168240D01*
X237569416Y-156044176D01*
X237749969Y-155889969D01*
X237765343Y-155871967D01*
X237807719Y-155839891D01*
X237859633Y-155828500D01*
X242000367Y-155828500D01*
X242052281Y-155839891D01*
X242094656Y-155871967D01*
X242110031Y-155889969D01*
X242290584Y-156044176D01*
X242294734Y-156046719D01*
X242294738Y-156046722D01*
X242360796Y-156087202D01*
X242493037Y-156168240D01*
X242497536Y-156170103D01*
X242497539Y-156170105D01*
X242668409Y-156240881D01*
X242712406Y-156259105D01*
X242943289Y-156314535D01*
X243180000Y-156333165D01*
X243416711Y-156314535D01*
X243647594Y-156259105D01*
X243866963Y-156168240D01*
X244069416Y-156044176D01*
X244249969Y-155889969D01*
X244404176Y-155709416D01*
X244528240Y-155506963D01*
X244619105Y-155287594D01*
X244674535Y-155056711D01*
X244693165Y-154820000D01*
X244691307Y-154796398D01*
X244698589Y-154743752D01*
X244727242Y-154698990D01*
X246353781Y-153072451D01*
X246362765Y-153064307D01*
X246396568Y-153036568D01*
X246522595Y-152883004D01*
X246616241Y-152707804D01*
X246640085Y-152629201D01*
X246673909Y-152517701D01*
X246693380Y-152320000D01*
X246689096Y-152276511D01*
X246688500Y-152264358D01*
X246688500Y-122875640D01*
X246689097Y-122863486D01*
X246692783Y-122826061D01*
X246693380Y-122820000D01*
X246673908Y-122622299D01*
X246616241Y-122432196D01*
X246522595Y-122256996D01*
X246396568Y-122103432D01*
X246362784Y-122075706D01*
X246353768Y-122067534D01*
X240807464Y-116521230D01*
X240799291Y-116512213D01*
X240775429Y-116483137D01*
X240775428Y-116483136D01*
X240771568Y-116478432D01*
X240618004Y-116352405D01*
X240442804Y-116258759D01*
X240436975Y-116256991D01*
X240436971Y-116256989D01*
X240258535Y-116202860D01*
X240258527Y-116202858D01*
X240252701Y-116201091D01*
X240246642Y-116200494D01*
X240246636Y-116200493D01*
X240061062Y-116182217D01*
X240055000Y-116181620D01*
X240048938Y-116182217D01*
X240011512Y-116185903D01*
X239999358Y-116186500D01*
X238535642Y-116186500D01*
X238523488Y-116185903D01*
X238486062Y-116182217D01*
X238480000Y-116181620D01*
X238473938Y-116182217D01*
X238288364Y-116200493D01*
X238288356Y-116200494D01*
X238282300Y-116201091D01*
X238276476Y-116202857D01*
X238276469Y-116202859D01*
X238149863Y-116241265D01*
X238098025Y-116256990D01*
X238098018Y-116256992D01*
X238092196Y-116258759D01*
X238086825Y-116261629D01*
X238086822Y-116261631D01*
X237922372Y-116349531D01*
X237922368Y-116349533D01*
X237916996Y-116352405D01*
X237912288Y-116356268D01*
X237912283Y-116356272D01*
X237768138Y-116474569D01*
X237768133Y-116474573D01*
X237763432Y-116478432D01*
X237759573Y-116483133D01*
X237759571Y-116483136D01*
X237735706Y-116512215D01*
X237727536Y-116521228D01*
X236813702Y-117435062D01*
X236777533Y-117460175D01*
X236628603Y-117528189D01*
X236628596Y-117528192D01*
X236623229Y-117530644D01*
X236618419Y-117534068D01*
X236618414Y-117534072D01*
X236455602Y-117650010D01*
X236455596Y-117650014D01*
X236450785Y-117653441D01*
X236446710Y-117657714D01*
X236446705Y-117657719D01*
X236308771Y-117802380D01*
X236308765Y-117802387D01*
X236304697Y-117806654D01*
X236301507Y-117811618D01*
X236278939Y-117846734D01*
X236236623Y-117887081D01*
X236180524Y-117903553D01*
X236123112Y-117892487D01*
X236077154Y-117856345D01*
X235983382Y-117737105D01*
X235975264Y-117728591D01*
X235825427Y-117598756D01*
X235815850Y-117591937D01*
X235644153Y-117492808D01*
X235633450Y-117487920D01*
X235446095Y-117423075D01*
X235440511Y-117421720D01*
X235432318Y-117422306D01*
X235430000Y-117432964D01*
X235430000Y-120102181D01*
X235432505Y-120113072D01*
X235443679Y-120112939D01*
X235535670Y-120090622D01*
X235546788Y-120086774D01*
X235727121Y-120004419D01*
X235737319Y-119998531D01*
X235898806Y-119883536D01*
X235907703Y-119875827D01*
X236044517Y-119732341D01*
X236051785Y-119723098D01*
X236070637Y-119693765D01*
X236112952Y-119653416D01*
X236169052Y-119636943D01*
X236226464Y-119648008D01*
X236272423Y-119684151D01*
X236370437Y-119808785D01*
X236370440Y-119808788D01*
X236374092Y-119813432D01*
X236534082Y-119952065D01*
X236717418Y-120057913D01*
X236917473Y-120127153D01*
X237127016Y-120157281D01*
X237338474Y-120147208D01*
X237544204Y-120097298D01*
X237695991Y-120027979D01*
X237756346Y-120017090D01*
X237814539Y-120036459D01*
X237856332Y-120081347D01*
X237871500Y-120140774D01*
X237871500Y-124346337D01*
X237857903Y-124402792D01*
X237820094Y-124446866D01*
X237766364Y-124468894D01*
X237708497Y-124464043D01*
X237689128Y-124457625D01*
X237675958Y-124454805D01*
X237583109Y-124445319D01*
X237576832Y-124445000D01*
X237396326Y-124445000D01*
X237383450Y-124448450D01*
X237380000Y-124461326D01*
X237380000Y-127178673D01*
X237383450Y-127191548D01*
X237396326Y-127194999D01*
X237576829Y-127194999D01*
X237583111Y-127194678D01*
X237675959Y-127185194D01*
X237689126Y-127182375D01*
X237708497Y-127175957D01*
X237766364Y-127171106D01*
X237820094Y-127193134D01*
X237857903Y-127237208D01*
X237871500Y-127293663D01*
X237871500Y-129610904D01*
X237862061Y-129658357D01*
X237835181Y-129698585D01*
X237658585Y-129875181D01*
X237618357Y-129902061D01*
X237570904Y-129911500D01*
X236691362Y-129911500D01*
X236688082Y-129911852D01*
X236688075Y-129911853D01*
X236638505Y-129917182D01*
X236638500Y-129917182D01*
X236630799Y-129918011D01*
X236623543Y-129920717D01*
X236623536Y-129920719D01*
X236502105Y-129966011D01*
X236502099Y-129966013D01*
X236493796Y-129969111D01*
X236486698Y-129974423D01*
X236486695Y-129974426D01*
X236383835Y-130051426D01*
X236383831Y-130051429D01*
X236376739Y-130056739D01*
X236371429Y-130063831D01*
X236371426Y-130063835D01*
X236294426Y-130166695D01*
X236294423Y-130166698D01*
X236289111Y-130173796D01*
X236286013Y-130182099D01*
X236286011Y-130182105D01*
X236240719Y-130303536D01*
X236240717Y-130303543D01*
X236238011Y-130310799D01*
X236237182Y-130318500D01*
X236237182Y-130318505D01*
X236234676Y-130341817D01*
X236231500Y-130371362D01*
X236231500Y-132268638D01*
X236231852Y-132271918D01*
X236231853Y-132271924D01*
X236236860Y-132318500D01*
X236238011Y-132329201D01*
X236240717Y-132336458D01*
X236240719Y-132336463D01*
X236286011Y-132457894D01*
X236289111Y-132466204D01*
X236376739Y-132583261D01*
X236493796Y-132670889D01*
X236502106Y-132673988D01*
X236502107Y-132673989D01*
X236550833Y-132692163D01*
X236593070Y-132718602D01*
X236621488Y-132759532D01*
X236631500Y-132808345D01*
X236631500Y-139290904D01*
X236622061Y-139338357D01*
X236595181Y-139378585D01*
X227747800Y-148225964D01*
X227697406Y-148256544D01*
X227638586Y-148260399D01*
X227584632Y-148236659D01*
X227547737Y-148190687D01*
X227480892Y-148047336D01*
X227475491Y-148037982D01*
X227346215Y-147853357D01*
X227339280Y-147845092D01*
X227179907Y-147685719D01*
X227171642Y-147678784D01*
X226987017Y-147549508D01*
X226977667Y-147544110D01*
X226773397Y-147448856D01*
X226763263Y-147445168D01*
X226545553Y-147386833D01*
X226534921Y-147384958D01*
X226447176Y-147377281D01*
X226433734Y-147379853D01*
X226430000Y-147393022D01*
X226430000Y-148846000D01*
X226413387Y-148908000D01*
X226368000Y-148953387D01*
X226306000Y-148970000D01*
X224738631Y-148970000D01*
X224727688Y-148972551D01*
X224728056Y-148983780D01*
X224780168Y-149178263D01*
X224783856Y-149188397D01*
X224879110Y-149392667D01*
X224884508Y-149402017D01*
X225013784Y-149586642D01*
X225020719Y-149594907D01*
X225180092Y-149754280D01*
X225188352Y-149761211D01*
X225334911Y-149863833D01*
X225374012Y-149908606D01*
X225387783Y-149966431D01*
X225373059Y-150024022D01*
X225333224Y-150068143D01*
X225202844Y-150156265D01*
X225202840Y-150156267D01*
X225198477Y-150159217D01*
X225194677Y-150162858D01*
X225194672Y-150162863D01*
X225035327Y-150315582D01*
X225035320Y-150315589D01*
X225031524Y-150319228D01*
X225028396Y-150323457D01*
X225028391Y-150323463D01*
X224897148Y-150500915D01*
X224897141Y-150500926D01*
X224894015Y-150505153D01*
X224891643Y-150509856D01*
X224891642Y-150509859D01*
X224855796Y-150580955D01*
X224789905Y-150711643D01*
X224788364Y-150716673D01*
X224788363Y-150716677D01*
X224723730Y-150927722D01*
X224723727Y-150927732D01*
X224722189Y-150932757D01*
X224721520Y-150937975D01*
X224721520Y-150937979D01*
X224704544Y-151070546D01*
X224692816Y-151162135D01*
X224693039Y-151167389D01*
X224693039Y-151167394D01*
X224700367Y-151339891D01*
X224702631Y-151393178D01*
X224703738Y-151398318D01*
X224703740Y-151398327D01*
X224735722Y-151546722D01*
X224751351Y-151619238D01*
X224753313Y-151624121D01*
X224753315Y-151624127D01*
X224832215Y-151820476D01*
X224837574Y-151833813D01*
X224958821Y-152030730D01*
X224987547Y-152063369D01*
X225108116Y-152200364D01*
X225108121Y-152200368D01*
X225111602Y-152204324D01*
X225291524Y-152349600D01*
X225302895Y-152355952D01*
X225315567Y-152363032D01*
X225360682Y-152406272D01*
X225378980Y-152466023D01*
X225365815Y-152527110D01*
X225324529Y-152574020D01*
X225202844Y-152656265D01*
X225202840Y-152656267D01*
X225198477Y-152659217D01*
X225194677Y-152662858D01*
X225194672Y-152662863D01*
X225035327Y-152815582D01*
X225035320Y-152815589D01*
X225031524Y-152819228D01*
X225028396Y-152823457D01*
X225028391Y-152823463D01*
X224897148Y-153000915D01*
X224897141Y-153000926D01*
X224894015Y-153005153D01*
X224891643Y-153009856D01*
X224891642Y-153009859D01*
X224843075Y-153106187D01*
X224789905Y-153211643D01*
X224788364Y-153216673D01*
X224788363Y-153216677D01*
X224723730Y-153427722D01*
X224723727Y-153427732D01*
X224722189Y-153432757D01*
X224721520Y-153437975D01*
X224721520Y-153437979D01*
X224701307Y-153595824D01*
X224692816Y-153662135D01*
X224693039Y-153667389D01*
X224693039Y-153667394D01*
X224697509Y-153772605D01*
X224702631Y-153893178D01*
X224703738Y-153898318D01*
X224703740Y-153898327D01*
X224750241Y-154114089D01*
X224751351Y-154119238D01*
X224753313Y-154124121D01*
X224753315Y-154124127D01*
X224793175Y-154223322D01*
X224837574Y-154333813D01*
X224958821Y-154530730D01*
X225009349Y-154588141D01*
X225108116Y-154700364D01*
X225108121Y-154700368D01*
X225111602Y-154704324D01*
X225115704Y-154707636D01*
X225115706Y-154707638D01*
X225141221Y-154728240D01*
X225176839Y-154774820D01*
X225187073Y-154832558D01*
X225169632Y-154888543D01*
X225128419Y-154930254D01*
X224987499Y-155017175D01*
X224987493Y-155017179D01*
X224981348Y-155020970D01*
X224976240Y-155026077D01*
X224976236Y-155026081D01*
X224861081Y-155141236D01*
X224861077Y-155141240D01*
X224855970Y-155146348D01*
X224852178Y-155152495D01*
X224852177Y-155152497D01*
X224766677Y-155291112D01*
X224766672Y-155291121D01*
X224762885Y-155297262D01*
X224760613Y-155304115D01*
X224760611Y-155304122D01*
X224709241Y-155459149D01*
X224709239Y-155459157D01*
X224707113Y-155465574D01*
X224706425Y-155472302D01*
X224706425Y-155472305D01*
X224696819Y-155566325D01*
X224696818Y-155566340D01*
X224696500Y-155569455D01*
X224696500Y-155572602D01*
X224696500Y-155679407D01*
X224682985Y-155735702D01*
X224645385Y-155779725D01*
X224591898Y-155801880D01*
X224534182Y-155797338D01*
X224484819Y-155767088D01*
X223724819Y-155007088D01*
X223697939Y-154966860D01*
X223688500Y-154919407D01*
X223688500Y-148467448D01*
X224727688Y-148467448D01*
X224738631Y-148470000D01*
X225913674Y-148470000D01*
X225926549Y-148466549D01*
X225930000Y-148453674D01*
X225930000Y-147393022D01*
X225926265Y-147379853D01*
X225912823Y-147377281D01*
X225825078Y-147384958D01*
X225814446Y-147386833D01*
X225596736Y-147445168D01*
X225586602Y-147448856D01*
X225382332Y-147544110D01*
X225372982Y-147549508D01*
X225188357Y-147678784D01*
X225180092Y-147685719D01*
X225020721Y-147845090D01*
X225013784Y-147853356D01*
X224884501Y-148037991D01*
X224879113Y-148047323D01*
X224783856Y-148251602D01*
X224780168Y-148261736D01*
X224728056Y-148456219D01*
X224727688Y-148467448D01*
X223688500Y-148467448D01*
X223688500Y-137442500D01*
X223705113Y-137380500D01*
X223750500Y-137335113D01*
X223812500Y-137318500D01*
X224705328Y-137318500D01*
X224708638Y-137318500D01*
X224769201Y-137311989D01*
X224906204Y-137260889D01*
X225023261Y-137173261D01*
X225110889Y-137056204D01*
X225161989Y-136919201D01*
X225168500Y-136858638D01*
X225168500Y-134781362D01*
X225161989Y-134720799D01*
X225110889Y-134583796D01*
X225023261Y-134466739D01*
X224906204Y-134379111D01*
X224897896Y-134376012D01*
X224897894Y-134376011D01*
X224776463Y-134330719D01*
X224776458Y-134330717D01*
X224769201Y-134328011D01*
X224761497Y-134327182D01*
X224761494Y-134327182D01*
X224711924Y-134321853D01*
X224711918Y-134321852D01*
X224708638Y-134321500D01*
X224705328Y-134321500D01*
X222659096Y-134321500D01*
X222611643Y-134312061D01*
X222571415Y-134285181D01*
X221044819Y-132758585D01*
X221017939Y-132718357D01*
X221008500Y-132670904D01*
X221008500Y-132347185D01*
X221023445Y-132288167D01*
X221064679Y-132243376D01*
X221122260Y-132223609D01*
X221182309Y-132233628D01*
X221201770Y-132242165D01*
X221442510Y-132303128D01*
X221628019Y-132318500D01*
X223729411Y-132318500D01*
X223731981Y-132318500D01*
X223917490Y-132303128D01*
X224158230Y-132242165D01*
X224385652Y-132142408D01*
X224593552Y-132006580D01*
X224776261Y-131838385D01*
X224928794Y-131642411D01*
X225046990Y-131424004D01*
X225127625Y-131189121D01*
X225168500Y-130944169D01*
X225168500Y-130695831D01*
X225127625Y-130450879D01*
X225046990Y-130215996D01*
X225024152Y-130173796D01*
X225019070Y-130164404D01*
X224928794Y-129997589D01*
X224776261Y-129801615D01*
X224772493Y-129798146D01*
X224772490Y-129798143D01*
X224597321Y-129636890D01*
X224593552Y-129633420D01*
X224589268Y-129630621D01*
X224589264Y-129630618D01*
X224489601Y-129565505D01*
X224385652Y-129497592D01*
X224380962Y-129495535D01*
X224380957Y-129495532D01*
X224162926Y-129399895D01*
X224162927Y-129399895D01*
X224158230Y-129397835D01*
X224153261Y-129396576D01*
X224153259Y-129396576D01*
X223922465Y-129338131D01*
X223922455Y-129338129D01*
X223917490Y-129336872D01*
X223912378Y-129336448D01*
X223912370Y-129336447D01*
X223734547Y-129321712D01*
X223734531Y-129321711D01*
X223731981Y-129321500D01*
X223729411Y-129321500D01*
X222404096Y-129321500D01*
X222347801Y-129307985D01*
X222303778Y-129270385D01*
X222281623Y-129216898D01*
X222286165Y-129159182D01*
X222316415Y-129109819D01*
X224186415Y-127239818D01*
X224226643Y-127212938D01*
X224274096Y-127203499D01*
X224627395Y-127203499D01*
X224630544Y-127203499D01*
X224734426Y-127192887D01*
X224902738Y-127137115D01*
X225053652Y-127044030D01*
X225179030Y-126918652D01*
X225272115Y-126767738D01*
X225327887Y-126599426D01*
X225338500Y-126495545D01*
X225338500Y-126491829D01*
X235980001Y-126491829D01*
X235980321Y-126498111D01*
X235989805Y-126590959D01*
X235992623Y-126604122D01*
X236043370Y-126757267D01*
X236049432Y-126770266D01*
X236133890Y-126907194D01*
X236142794Y-126918455D01*
X236256544Y-127032205D01*
X236267805Y-127041109D01*
X236404733Y-127125567D01*
X236417732Y-127131629D01*
X236570874Y-127182375D01*
X236584041Y-127185194D01*
X236676890Y-127194680D01*
X236683168Y-127195000D01*
X236863674Y-127195000D01*
X236876549Y-127191549D01*
X236880000Y-127178674D01*
X236880000Y-126086326D01*
X236876549Y-126073450D01*
X236863674Y-126070000D01*
X235996327Y-126070000D01*
X235983451Y-126073450D01*
X235980001Y-126086326D01*
X235980001Y-126491829D01*
X225338500Y-126491829D01*
X225338499Y-125553674D01*
X235980000Y-125553674D01*
X235983450Y-125566549D01*
X235996326Y-125570000D01*
X236863674Y-125570000D01*
X236876549Y-125566549D01*
X236880000Y-125553674D01*
X236880000Y-124461327D01*
X236876549Y-124448451D01*
X236863674Y-124445001D01*
X236683171Y-124445001D01*
X236676888Y-124445321D01*
X236584040Y-124454805D01*
X236570877Y-124457623D01*
X236417732Y-124508370D01*
X236404733Y-124514432D01*
X236267805Y-124598890D01*
X236256544Y-124607794D01*
X236142794Y-124721544D01*
X236133890Y-124732805D01*
X236049432Y-124869733D01*
X236043370Y-124882732D01*
X235992624Y-125035874D01*
X235989805Y-125049041D01*
X235980319Y-125141890D01*
X235980000Y-125148168D01*
X235980000Y-125553674D01*
X225338499Y-125553674D01*
X225338499Y-125144456D01*
X225327887Y-125040574D01*
X225272115Y-124872262D01*
X225263324Y-124858010D01*
X225240137Y-124820419D01*
X225179030Y-124721348D01*
X225053652Y-124595970D01*
X225001809Y-124563992D01*
X224908887Y-124506677D01*
X224908881Y-124506674D01*
X224902738Y-124502885D01*
X224895880Y-124500612D01*
X224895877Y-124500611D01*
X224740850Y-124449241D01*
X224740844Y-124449239D01*
X224734426Y-124447113D01*
X224727696Y-124446425D01*
X224727694Y-124446425D01*
X224633674Y-124436819D01*
X224633660Y-124436818D01*
X224630545Y-124436500D01*
X224627397Y-124436500D01*
X223732604Y-124436500D01*
X223732584Y-124436500D01*
X223729456Y-124436501D01*
X223726343Y-124436818D01*
X223726323Y-124436820D01*
X223632313Y-124446424D01*
X223632307Y-124446425D01*
X223625574Y-124447113D01*
X223619144Y-124449243D01*
X223619142Y-124449244D01*
X223464122Y-124500611D01*
X223464115Y-124500613D01*
X223457262Y-124502885D01*
X223451121Y-124506672D01*
X223451112Y-124506677D01*
X223312497Y-124592177D01*
X223306348Y-124595970D01*
X223301240Y-124601077D01*
X223301236Y-124601081D01*
X223186081Y-124716236D01*
X223186077Y-124716240D01*
X223180970Y-124721348D01*
X223177178Y-124727495D01*
X223177177Y-124727497D01*
X223091677Y-124866112D01*
X223091672Y-124866121D01*
X223087885Y-124872262D01*
X223085613Y-124879115D01*
X223085611Y-124879122D01*
X223034241Y-125034149D01*
X223034239Y-125034157D01*
X223032113Y-125040574D01*
X223031425Y-125047302D01*
X223031425Y-125047305D01*
X223021819Y-125141325D01*
X223021818Y-125141340D01*
X223021500Y-125144455D01*
X223021500Y-125147602D01*
X223021500Y-125274278D01*
X223016161Y-125310274D01*
X222984856Y-125413469D01*
X222984854Y-125413477D01*
X222983089Y-125419297D01*
X222982492Y-125425349D01*
X222982491Y-125425359D01*
X222968714Y-125565245D01*
X222957406Y-125606108D01*
X222932992Y-125640772D01*
X222436271Y-126137492D01*
X222380683Y-126169586D01*
X222316496Y-126169586D01*
X222260908Y-126137492D01*
X222228815Y-126081904D01*
X222226549Y-126073450D01*
X222213674Y-126070000D01*
X221346326Y-126070000D01*
X221333450Y-126073450D01*
X221330000Y-126086326D01*
X221330000Y-127192402D01*
X221320561Y-127239855D01*
X221293681Y-127280083D01*
X219326228Y-129247536D01*
X219317215Y-129255706D01*
X219288136Y-129279571D01*
X219288133Y-129279573D01*
X219283432Y-129283432D01*
X219279573Y-129288133D01*
X219279569Y-129288138D01*
X219161272Y-129432283D01*
X219161268Y-129432288D01*
X219157405Y-129436996D01*
X219154533Y-129442368D01*
X219154531Y-129442372D01*
X219125016Y-129497592D01*
X219066632Y-129606820D01*
X219066630Y-129606824D01*
X219063759Y-129612196D01*
X219061992Y-129618020D01*
X219061989Y-129618028D01*
X219007860Y-129796464D01*
X219007857Y-129796474D01*
X219006091Y-129802299D01*
X219005494Y-129808355D01*
X219005493Y-129808363D01*
X218994695Y-129918011D01*
X218986620Y-130000000D01*
X218987217Y-130006062D01*
X218990903Y-130043488D01*
X218991500Y-130055642D01*
X218991500Y-133084358D01*
X218990903Y-133096511D01*
X218986620Y-133140000D01*
X218987217Y-133146062D01*
X219005493Y-133331636D01*
X219005494Y-133331642D01*
X219006091Y-133337701D01*
X219007858Y-133343526D01*
X219007859Y-133343531D01*
X219059318Y-133513169D01*
X219059319Y-133513171D01*
X219063758Y-133527803D01*
X219063759Y-133527804D01*
X219157405Y-133703004D01*
X219283432Y-133856568D01*
X219288137Y-133860429D01*
X219317213Y-133884291D01*
X219326230Y-133892464D01*
X220155181Y-134721415D01*
X220182061Y-134761643D01*
X220191500Y-134809096D01*
X220191500Y-136858638D01*
X220198011Y-136919201D01*
X220200717Y-136926458D01*
X220200719Y-136926463D01*
X220246011Y-137047894D01*
X220249111Y-137056204D01*
X220336739Y-137173261D01*
X220453796Y-137260889D01*
X220590799Y-137311989D01*
X220651362Y-137318500D01*
X221547500Y-137318500D01*
X221609500Y-137335113D01*
X221654887Y-137380500D01*
X221671500Y-137442500D01*
X221671500Y-155332861D01*
X221670903Y-155345014D01*
X221666620Y-155388503D01*
X221667217Y-155394565D01*
X221685493Y-155580139D01*
X221685494Y-155580145D01*
X221686091Y-155586204D01*
X221687859Y-155592032D01*
X221687860Y-155592037D01*
X221719726Y-155697081D01*
X221743759Y-155776307D01*
X221746628Y-155781675D01*
X221746630Y-155781679D01*
X221777745Y-155839891D01*
X221837405Y-155951507D01*
X221963432Y-156105071D01*
X221968137Y-156108932D01*
X221997213Y-156132794D01*
X222006230Y-156140967D01*
X225709031Y-159843768D01*
X225717203Y-159852784D01*
X225744929Y-159886568D01*
X225898493Y-160012595D01*
X225903865Y-160015466D01*
X225903869Y-160015469D01*
X225989318Y-160061142D01*
X226036592Y-160105710D01*
X226054841Y-160168065D01*
X226039054Y-160231089D01*
X225993567Y-160277479D01*
X225930865Y-160294500D01*
X199304000Y-160294500D01*
X199242000Y-160277887D01*
X199196613Y-160232500D01*
X199180000Y-160170500D01*
X199180000Y-143545597D01*
X199193515Y-143489302D01*
X199231115Y-143445279D01*
X199284602Y-143423124D01*
X199342318Y-143427666D01*
X199391681Y-143457916D01*
X206935181Y-151001416D01*
X206962061Y-151041644D01*
X206971500Y-151089097D01*
X206971500Y-152568638D01*
X206971852Y-152571918D01*
X206971853Y-152571924D01*
X206973839Y-152590400D01*
X206978011Y-152629201D01*
X206980717Y-152636458D01*
X206980719Y-152636463D01*
X207019201Y-152739635D01*
X207029111Y-152766204D01*
X207116739Y-152883261D01*
X207233796Y-152970889D01*
X207370799Y-153021989D01*
X207431362Y-153028500D01*
X209925328Y-153028500D01*
X209928638Y-153028500D01*
X209989201Y-153021989D01*
X210126204Y-152970889D01*
X210243261Y-152883261D01*
X210330889Y-152766204D01*
X210360660Y-152686385D01*
X212670569Y-152686385D01*
X212678116Y-152694444D01*
X212823780Y-152793756D01*
X212831800Y-152798386D01*
X213052999Y-152904910D01*
X213061609Y-152908289D01*
X213296223Y-152980658D01*
X213305239Y-152982716D01*
X213548017Y-153019308D01*
X213557240Y-153020000D01*
X213802760Y-153020000D01*
X213811982Y-153019308D01*
X214054760Y-152982716D01*
X214063776Y-152980658D01*
X214298390Y-152908289D01*
X214307001Y-152904910D01*
X214528200Y-152798386D01*
X214536219Y-152793756D01*
X214681881Y-152694444D01*
X214689429Y-152686385D01*
X214683512Y-152677065D01*
X213691542Y-151685095D01*
X213679999Y-151678431D01*
X213668457Y-151685095D01*
X212676486Y-152677065D01*
X212670569Y-152686385D01*
X210360660Y-152686385D01*
X210381989Y-152629201D01*
X210388500Y-152568638D01*
X210388500Y-151324630D01*
X211975580Y-151324630D01*
X211993927Y-151569453D01*
X211995306Y-151578606D01*
X212049936Y-151817957D01*
X212052669Y-151826817D01*
X212142360Y-152055346D01*
X212146379Y-152063692D01*
X212269135Y-152276310D01*
X212274347Y-152283955D01*
X212302537Y-152319305D01*
X212313773Y-152327278D01*
X212325832Y-152320613D01*
X213314904Y-151331542D01*
X213321568Y-151320000D01*
X214038431Y-151320000D01*
X214045095Y-151331542D01*
X215034167Y-152320614D01*
X215046224Y-152327278D01*
X215057461Y-152319306D01*
X215085653Y-152283954D01*
X215090863Y-152276312D01*
X215213620Y-152063692D01*
X215217639Y-152055346D01*
X215307330Y-151826817D01*
X215310063Y-151817957D01*
X215364693Y-151578606D01*
X215366072Y-151569453D01*
X215384420Y-151324630D01*
X215384420Y-151320000D01*
X216966709Y-151320000D01*
X216967056Y-151324630D01*
X216983508Y-151544176D01*
X216985845Y-151575353D01*
X216986874Y-151579862D01*
X216986876Y-151579874D01*
X217040437Y-151814535D01*
X217042826Y-151825001D01*
X217044521Y-151829320D01*
X217044522Y-151829323D01*
X217134680Y-152059044D01*
X217134683Y-152059050D01*
X217136378Y-152063369D01*
X217138696Y-152067384D01*
X217138699Y-152067390D01*
X217262092Y-152281112D01*
X217262096Y-152281117D01*
X217264413Y-152285131D01*
X217424069Y-152485334D01*
X217611781Y-152659505D01*
X217823355Y-152803754D01*
X218054065Y-152914858D01*
X218298757Y-152990335D01*
X218551966Y-153028500D01*
X218803397Y-153028500D01*
X218808034Y-153028500D01*
X219061243Y-152990335D01*
X219305935Y-152914858D01*
X219536646Y-152803754D01*
X219748219Y-152659505D01*
X219935931Y-152485334D01*
X220095587Y-152285131D01*
X220223622Y-152063369D01*
X220317174Y-151825001D01*
X220374155Y-151575353D01*
X220393291Y-151320000D01*
X220374155Y-151064647D01*
X220368012Y-151037735D01*
X220350628Y-150961568D01*
X220317174Y-150814999D01*
X220223622Y-150576631D01*
X220095587Y-150354869D01*
X219935931Y-150154666D01*
X219748219Y-149980495D01*
X219727591Y-149966431D01*
X219540482Y-149838861D01*
X219540478Y-149838859D01*
X219536646Y-149836246D01*
X219532460Y-149834230D01*
X219310118Y-149727156D01*
X219310113Y-149727154D01*
X219305935Y-149725142D01*
X219301502Y-149723774D01*
X219301498Y-149723773D01*
X219065678Y-149651033D01*
X219065677Y-149651032D01*
X219061243Y-149649665D01*
X219056655Y-149648973D01*
X219056653Y-149648973D01*
X218812619Y-149612191D01*
X218812618Y-149612190D01*
X218808034Y-149611500D01*
X218551966Y-149611500D01*
X218547382Y-149612190D01*
X218547380Y-149612191D01*
X218303346Y-149648973D01*
X218303341Y-149648973D01*
X218298757Y-149649665D01*
X218294324Y-149651032D01*
X218294321Y-149651033D01*
X218058502Y-149723773D01*
X218058497Y-149723774D01*
X218054065Y-149725142D01*
X218049886Y-149727154D01*
X218049882Y-149727156D01*
X217827540Y-149834230D01*
X217827533Y-149834233D01*
X217823355Y-149836246D01*
X217819522Y-149838859D01*
X217819519Y-149838861D01*
X217632409Y-149966431D01*
X217611781Y-149980495D01*
X217608389Y-149983641D01*
X217608383Y-149983647D01*
X217427470Y-150151510D01*
X217424069Y-150154666D01*
X217421180Y-150158288D01*
X217421176Y-150158293D01*
X217291667Y-150320693D01*
X217264413Y-150354869D01*
X217262099Y-150358875D01*
X217262092Y-150358887D01*
X217138699Y-150572609D01*
X217138693Y-150572620D01*
X217136378Y-150576631D01*
X217134685Y-150580944D01*
X217134680Y-150580955D01*
X217044522Y-150810676D01*
X217044519Y-150810683D01*
X217042826Y-150814999D01*
X217041794Y-150819517D01*
X217041793Y-150819523D01*
X216986876Y-151060125D01*
X216986873Y-151060139D01*
X216985845Y-151064647D01*
X216985498Y-151069266D01*
X216985498Y-151069272D01*
X216974329Y-151218315D01*
X216966709Y-151320000D01*
X215384420Y-151320000D01*
X215384420Y-151315370D01*
X215366072Y-151070546D01*
X215364693Y-151061393D01*
X215310063Y-150822042D01*
X215307330Y-150813182D01*
X215217639Y-150584653D01*
X215213620Y-150576307D01*
X215090864Y-150363689D01*
X215085652Y-150356044D01*
X215057460Y-150320691D01*
X215046225Y-150312720D01*
X215034167Y-150319384D01*
X214045095Y-151308457D01*
X214038431Y-151320000D01*
X213321568Y-151320000D01*
X213314904Y-151308457D01*
X212325832Y-150319385D01*
X212313773Y-150312721D01*
X212302538Y-150320693D01*
X212274343Y-150356048D01*
X212269137Y-150363685D01*
X212146379Y-150576307D01*
X212142360Y-150584653D01*
X212052669Y-150813182D01*
X212049936Y-150822042D01*
X211995306Y-151061393D01*
X211993927Y-151070546D01*
X211975580Y-151315370D01*
X211975580Y-151324630D01*
X210388500Y-151324630D01*
X210388500Y-150071362D01*
X210381989Y-150010799D01*
X210360660Y-149953613D01*
X212670568Y-149953613D01*
X212676484Y-149962931D01*
X213668457Y-150954904D01*
X213680000Y-150961568D01*
X213691542Y-150954904D01*
X214683512Y-149962933D01*
X214689429Y-149953613D01*
X214681881Y-149945554D01*
X214536220Y-149846243D01*
X214528200Y-149841613D01*
X214307001Y-149735089D01*
X214298390Y-149731710D01*
X214063776Y-149659341D01*
X214054760Y-149657283D01*
X213811982Y-149620691D01*
X213802760Y-149620000D01*
X213557240Y-149620000D01*
X213548017Y-149620691D01*
X213305239Y-149657283D01*
X213296223Y-149659341D01*
X213061609Y-149731710D01*
X213052999Y-149735089D01*
X212831808Y-149841609D01*
X212823775Y-149846247D01*
X212678116Y-149945555D01*
X212670568Y-149953613D01*
X210360660Y-149953613D01*
X210330889Y-149873796D01*
X210243261Y-149756739D01*
X210201052Y-149725142D01*
X210133304Y-149674426D01*
X210133303Y-149674425D01*
X210126204Y-149669111D01*
X210117896Y-149666012D01*
X210117894Y-149666011D01*
X209996463Y-149620719D01*
X209996458Y-149620717D01*
X209989201Y-149618011D01*
X209981497Y-149617182D01*
X209981494Y-149617182D01*
X209931924Y-149611853D01*
X209931918Y-149611852D01*
X209928638Y-149611500D01*
X209925328Y-149611500D01*
X208449097Y-149611500D01*
X208401644Y-149602061D01*
X208361416Y-149575181D01*
X199216319Y-140430084D01*
X199189439Y-140389856D01*
X199180000Y-140342403D01*
X199180000Y-126491829D01*
X219930001Y-126491829D01*
X219930321Y-126498111D01*
X219939805Y-126590959D01*
X219942623Y-126604122D01*
X219993370Y-126757267D01*
X219999432Y-126770266D01*
X220083890Y-126907194D01*
X220092794Y-126918455D01*
X220206544Y-127032205D01*
X220217805Y-127041109D01*
X220354733Y-127125567D01*
X220367732Y-127131629D01*
X220520874Y-127182375D01*
X220534041Y-127185194D01*
X220626890Y-127194680D01*
X220633168Y-127195000D01*
X220813674Y-127195000D01*
X220826549Y-127191549D01*
X220830000Y-127178674D01*
X220830000Y-126086326D01*
X220826549Y-126073450D01*
X220813674Y-126070000D01*
X219946327Y-126070000D01*
X219933451Y-126073450D01*
X219930001Y-126086326D01*
X219930001Y-126491829D01*
X199180000Y-126491829D01*
X199180000Y-125553674D01*
X219930000Y-125553674D01*
X219933450Y-125566549D01*
X219946326Y-125570000D01*
X220813674Y-125570000D01*
X220826549Y-125566549D01*
X220830000Y-125553674D01*
X221330000Y-125553674D01*
X221333450Y-125566549D01*
X221346326Y-125570000D01*
X222213673Y-125570000D01*
X222226548Y-125566549D01*
X222229999Y-125553674D01*
X222229999Y-125148171D01*
X222229678Y-125141888D01*
X222220194Y-125049040D01*
X222217376Y-125035877D01*
X222166629Y-124882732D01*
X222160567Y-124869733D01*
X222076109Y-124732805D01*
X222067205Y-124721544D01*
X221953455Y-124607794D01*
X221942194Y-124598890D01*
X221805266Y-124514432D01*
X221792267Y-124508370D01*
X221639125Y-124457624D01*
X221625958Y-124454805D01*
X221533109Y-124445319D01*
X221526832Y-124445000D01*
X221346326Y-124445000D01*
X221333450Y-124448450D01*
X221330000Y-124461326D01*
X221330000Y-125553674D01*
X220830000Y-125553674D01*
X220830000Y-124461327D01*
X220826549Y-124448451D01*
X220813674Y-124445001D01*
X220633171Y-124445001D01*
X220626888Y-124445321D01*
X220534040Y-124454805D01*
X220520877Y-124457623D01*
X220367732Y-124508370D01*
X220354733Y-124514432D01*
X220217805Y-124598890D01*
X220206544Y-124607794D01*
X220092794Y-124721544D01*
X220083890Y-124732805D01*
X219999432Y-124869733D01*
X219993370Y-124882732D01*
X219942624Y-125035874D01*
X219939805Y-125049041D01*
X219930319Y-125141890D01*
X219930000Y-125148168D01*
X219930000Y-125553674D01*
X199180000Y-125553674D01*
X199180000Y-125052500D01*
X199196613Y-124990500D01*
X199242000Y-124945113D01*
X199304000Y-124928500D01*
X199624360Y-124928500D01*
X199636514Y-124929097D01*
X199680000Y-124933380D01*
X199686061Y-124932783D01*
X199723486Y-124929097D01*
X199735640Y-124928500D01*
X204524358Y-124928500D01*
X204536511Y-124929096D01*
X204580000Y-124933380D01*
X204777701Y-124913909D01*
X204967804Y-124856241D01*
X205024211Y-124826091D01*
X205143004Y-124762595D01*
X205296568Y-124636568D01*
X205324307Y-124602765D01*
X205332451Y-124593781D01*
X206161415Y-123764818D01*
X206201643Y-123737938D01*
X206249096Y-123728499D01*
X206639895Y-123728499D01*
X206643044Y-123728499D01*
X206746926Y-123717887D01*
X206915238Y-123662115D01*
X207066152Y-123569030D01*
X207191530Y-123443652D01*
X207284615Y-123292738D01*
X207340387Y-123124426D01*
X207351000Y-123020545D01*
X207350999Y-121619456D01*
X207340387Y-121515574D01*
X207284615Y-121347262D01*
X207191530Y-121196348D01*
X207066152Y-121070970D01*
X207012985Y-121038176D01*
X206921387Y-120981677D01*
X206921381Y-120981674D01*
X206915238Y-120977885D01*
X206908380Y-120975612D01*
X206908377Y-120975611D01*
X206753350Y-120924241D01*
X206753344Y-120924239D01*
X206746926Y-120922113D01*
X206740196Y-120921425D01*
X206740194Y-120921425D01*
X206646174Y-120911819D01*
X206646160Y-120911818D01*
X206643045Y-120911500D01*
X206639897Y-120911500D01*
X205720104Y-120911500D01*
X205720084Y-120911500D01*
X205716956Y-120911501D01*
X205713843Y-120911818D01*
X205713823Y-120911820D01*
X205619813Y-120921424D01*
X205619807Y-120921425D01*
X205613074Y-120922113D01*
X205606644Y-120924243D01*
X205606642Y-120924244D01*
X205451622Y-120975611D01*
X205451615Y-120975613D01*
X205444762Y-120977885D01*
X205438621Y-120981672D01*
X205438612Y-120981677D01*
X205299997Y-121067177D01*
X205293848Y-121070970D01*
X205288740Y-121076077D01*
X205288736Y-121076081D01*
X205173581Y-121191236D01*
X205173577Y-121191240D01*
X205168470Y-121196348D01*
X205164678Y-121202495D01*
X205164677Y-121202497D01*
X205079177Y-121341112D01*
X205079172Y-121341121D01*
X205075385Y-121347262D01*
X205073113Y-121354115D01*
X205073111Y-121354122D01*
X205021741Y-121509149D01*
X205021739Y-121509157D01*
X205019613Y-121515574D01*
X205018925Y-121522302D01*
X205018925Y-121522305D01*
X205009319Y-121616325D01*
X205009318Y-121616340D01*
X205009000Y-121619455D01*
X205009000Y-121622602D01*
X205009000Y-122013403D01*
X204999561Y-122060856D01*
X204972681Y-122101084D01*
X204426413Y-122647351D01*
X204370826Y-122679445D01*
X204306638Y-122679445D01*
X204251051Y-122647351D01*
X204218957Y-122591764D01*
X204214049Y-122573450D01*
X204201174Y-122570000D01*
X201908827Y-122570000D01*
X201895951Y-122573450D01*
X201892501Y-122586326D01*
X201892501Y-122787500D01*
X201875888Y-122849500D01*
X201830501Y-122894887D01*
X201768501Y-122911500D01*
X200812500Y-122911500D01*
X200750500Y-122894887D01*
X200705113Y-122849500D01*
X200688500Y-122787500D01*
X200688500Y-122053674D01*
X201892500Y-122053674D01*
X201895950Y-122066549D01*
X201908826Y-122070000D01*
X202788674Y-122070000D01*
X202801549Y-122066549D01*
X202805000Y-122053674D01*
X203305000Y-122053674D01*
X203308450Y-122066549D01*
X203321326Y-122070000D01*
X204201173Y-122070000D01*
X204214048Y-122066549D01*
X204217499Y-122053674D01*
X204217499Y-121623171D01*
X204217178Y-121616888D01*
X204207694Y-121524040D01*
X204204876Y-121510877D01*
X204154129Y-121357732D01*
X204148067Y-121344733D01*
X204063609Y-121207805D01*
X204054705Y-121196544D01*
X203940955Y-121082794D01*
X203929694Y-121073890D01*
X203792766Y-120989432D01*
X203779767Y-120983370D01*
X203626625Y-120932624D01*
X203613458Y-120929805D01*
X203520609Y-120920319D01*
X203514332Y-120920000D01*
X203321326Y-120920000D01*
X203308450Y-120923450D01*
X203305000Y-120936326D01*
X203305000Y-122053674D01*
X202805000Y-122053674D01*
X202805000Y-120936327D01*
X202801549Y-120923451D01*
X202788674Y-120920001D01*
X202595671Y-120920001D01*
X202589388Y-120920321D01*
X202496540Y-120929805D01*
X202483377Y-120932623D01*
X202330232Y-120983370D01*
X202317233Y-120989432D01*
X202180305Y-121073890D01*
X202169044Y-121082794D01*
X202055294Y-121196544D01*
X202046390Y-121207805D01*
X201961932Y-121344733D01*
X201955870Y-121357732D01*
X201905124Y-121510874D01*
X201902305Y-121524041D01*
X201892819Y-121616890D01*
X201892500Y-121623168D01*
X201892500Y-122053674D01*
X200688500Y-122053674D01*
X200688500Y-119875640D01*
X200689097Y-119863486D01*
X200692783Y-119826061D01*
X200693380Y-119820000D01*
X200689097Y-119776514D01*
X200688500Y-119764360D01*
X200688500Y-117289096D01*
X200697939Y-117241643D01*
X200724819Y-117201415D01*
X200909405Y-117016829D01*
X201892501Y-117016829D01*
X201892821Y-117023111D01*
X201902305Y-117115959D01*
X201905123Y-117129122D01*
X201955870Y-117282267D01*
X201961932Y-117295266D01*
X202046390Y-117432194D01*
X202055294Y-117443455D01*
X202169044Y-117557205D01*
X202180305Y-117566109D01*
X202317233Y-117650567D01*
X202330232Y-117656629D01*
X202483374Y-117707375D01*
X202496541Y-117710194D01*
X202589390Y-117719680D01*
X202595668Y-117720000D01*
X202788674Y-117720000D01*
X202801549Y-117716549D01*
X202805000Y-117703674D01*
X202805000Y-117703673D01*
X203305000Y-117703673D01*
X203308450Y-117716548D01*
X203321326Y-117719999D01*
X203514329Y-117719999D01*
X203520611Y-117719678D01*
X203613459Y-117710194D01*
X203626622Y-117707376D01*
X203779767Y-117656629D01*
X203792766Y-117650567D01*
X203929694Y-117566109D01*
X203940955Y-117557205D01*
X204054705Y-117443455D01*
X204063609Y-117432194D01*
X204148067Y-117295266D01*
X204154129Y-117282267D01*
X204204875Y-117129125D01*
X204207694Y-117115958D01*
X204217180Y-117023109D01*
X204217500Y-117016832D01*
X204217500Y-116586326D01*
X204214049Y-116573450D01*
X204201174Y-116570000D01*
X203321326Y-116570000D01*
X203308450Y-116573450D01*
X203305000Y-116586326D01*
X203305000Y-117703673D01*
X202805000Y-117703673D01*
X202805000Y-116586326D01*
X202801549Y-116573450D01*
X202788674Y-116570000D01*
X201908827Y-116570000D01*
X201895951Y-116573450D01*
X201892501Y-116586326D01*
X201892501Y-117016829D01*
X200909405Y-117016829D01*
X201443098Y-116483136D01*
X201819917Y-116106317D01*
X201860143Y-116079439D01*
X201907596Y-116070000D01*
X204201173Y-116070000D01*
X204214048Y-116066549D01*
X204218956Y-116048235D01*
X204251049Y-115992647D01*
X204306637Y-115960552D01*
X204370824Y-115960552D01*
X204426412Y-115992646D01*
X204972681Y-116538915D01*
X204999561Y-116579143D01*
X205009000Y-116626596D01*
X205009000Y-117017395D01*
X205009000Y-117017414D01*
X205009001Y-117020544D01*
X205009319Y-117023657D01*
X205009320Y-117023676D01*
X205018748Y-117115959D01*
X205019613Y-117124426D01*
X205021744Y-117130857D01*
X205073111Y-117285877D01*
X205073112Y-117285880D01*
X205075385Y-117292738D01*
X205079174Y-117298881D01*
X205079177Y-117298887D01*
X205133218Y-117386500D01*
X205168470Y-117443652D01*
X205293848Y-117569030D01*
X205389711Y-117628159D01*
X205438612Y-117658322D01*
X205438614Y-117658323D01*
X205444762Y-117662115D01*
X205613074Y-117717887D01*
X205716955Y-117728500D01*
X206643044Y-117728499D01*
X206746926Y-117717887D01*
X206915238Y-117662115D01*
X207066152Y-117569030D01*
X207191530Y-117443652D01*
X207284615Y-117292738D01*
X207331362Y-117151659D01*
X207365294Y-117099242D01*
X207420471Y-117070007D01*
X207482900Y-117071369D01*
X207536749Y-117102983D01*
X212052035Y-121618269D01*
X212060207Y-121627285D01*
X212087933Y-121661069D01*
X212241497Y-121787096D01*
X212314452Y-121826091D01*
X212416697Y-121880742D01*
X212606800Y-121938409D01*
X212804501Y-121957881D01*
X212810562Y-121957284D01*
X212847987Y-121953598D01*
X212860141Y-121953001D01*
X216824857Y-121953001D01*
X216837010Y-121953597D01*
X216880499Y-121957881D01*
X217078200Y-121938410D01*
X217268303Y-121880742D01*
X217370548Y-121826091D01*
X217443503Y-121787096D01*
X217597067Y-121661069D01*
X217624806Y-121627266D01*
X217632950Y-121618282D01*
X217853781Y-121397451D01*
X217862765Y-121389307D01*
X217896568Y-121361568D01*
X218022595Y-121208004D01*
X218116241Y-121032804D01*
X218173908Y-120842701D01*
X218188500Y-120694547D01*
X218193380Y-120645000D01*
X218189097Y-120601514D01*
X218188500Y-120589360D01*
X218188500Y-119924138D01*
X218201223Y-119869427D01*
X218236780Y-119825942D01*
X218287875Y-119802608D01*
X218344023Y-119804212D01*
X218393702Y-119830424D01*
X218534082Y-119952065D01*
X218717418Y-120057913D01*
X218917473Y-120127153D01*
X219127016Y-120157281D01*
X219338474Y-120147208D01*
X219544204Y-120097298D01*
X219736771Y-120009356D01*
X219909215Y-119886559D01*
X220055303Y-119733346D01*
X220169756Y-119555254D01*
X220214930Y-119442414D01*
X232071500Y-119442414D01*
X232071501Y-119445544D01*
X232071819Y-119448657D01*
X232071820Y-119448676D01*
X232081424Y-119542686D01*
X232082113Y-119549426D01*
X232084244Y-119555857D01*
X232135611Y-119710877D01*
X232135612Y-119710880D01*
X232137885Y-119717738D01*
X232141674Y-119723881D01*
X232141677Y-119723887D01*
X232195661Y-119811408D01*
X232230970Y-119868652D01*
X232356348Y-119994030D01*
X232425136Y-120036459D01*
X232501112Y-120083322D01*
X232501114Y-120083323D01*
X232507262Y-120087115D01*
X232675574Y-120142887D01*
X232779455Y-120153500D01*
X233580544Y-120153499D01*
X233684426Y-120142887D01*
X233852738Y-120087115D01*
X234003652Y-119994030D01*
X234129030Y-119868652D01*
X234167362Y-119806505D01*
X234209416Y-119765087D01*
X234265855Y-119747803D01*
X234323890Y-119758572D01*
X234370372Y-119794952D01*
X234376619Y-119802895D01*
X234384735Y-119811408D01*
X234534572Y-119941243D01*
X234544149Y-119948062D01*
X234715846Y-120047191D01*
X234726549Y-120052079D01*
X234913904Y-120116924D01*
X234919488Y-120118279D01*
X234927681Y-120117693D01*
X234930000Y-120107036D01*
X234930000Y-117437819D01*
X234927494Y-117426927D01*
X234916320Y-117427060D01*
X234824329Y-117449377D01*
X234813211Y-117453225D01*
X234632878Y-117535580D01*
X234622680Y-117541468D01*
X234461193Y-117656463D01*
X234452296Y-117664172D01*
X234364228Y-117756535D01*
X234317280Y-117787346D01*
X234261556Y-117794289D01*
X234208483Y-117775940D01*
X234168946Y-117736062D01*
X234129030Y-117671348D01*
X234003652Y-117545970D01*
X233951809Y-117513992D01*
X233858887Y-117456677D01*
X233858881Y-117456674D01*
X233852738Y-117452885D01*
X233845880Y-117450612D01*
X233845877Y-117450611D01*
X233690850Y-117399241D01*
X233690844Y-117399239D01*
X233684426Y-117397113D01*
X233677696Y-117396425D01*
X233677694Y-117396425D01*
X233583674Y-117386819D01*
X233583660Y-117386818D01*
X233580545Y-117386500D01*
X233577397Y-117386500D01*
X232782604Y-117386500D01*
X232782584Y-117386500D01*
X232779456Y-117386501D01*
X232776343Y-117386818D01*
X232776323Y-117386820D01*
X232682313Y-117396424D01*
X232682307Y-117396425D01*
X232675574Y-117397113D01*
X232669144Y-117399243D01*
X232669142Y-117399244D01*
X232514122Y-117450611D01*
X232514115Y-117450613D01*
X232507262Y-117452885D01*
X232501121Y-117456672D01*
X232501112Y-117456677D01*
X232362497Y-117542177D01*
X232356348Y-117545970D01*
X232351240Y-117551077D01*
X232351236Y-117551081D01*
X232236081Y-117666236D01*
X232236077Y-117666240D01*
X232230970Y-117671348D01*
X232227178Y-117677495D01*
X232227177Y-117677497D01*
X232141677Y-117816112D01*
X232141672Y-117816121D01*
X232137885Y-117822262D01*
X232135613Y-117829115D01*
X232135611Y-117829122D01*
X232084241Y-117984149D01*
X232084239Y-117984157D01*
X232082113Y-117990574D01*
X232081425Y-117997302D01*
X232081425Y-117997305D01*
X232071819Y-118091325D01*
X232071818Y-118091340D01*
X232071500Y-118094455D01*
X232071500Y-118097601D01*
X232071500Y-118097602D01*
X232071500Y-119442395D01*
X232071500Y-119442414D01*
X220214930Y-119442414D01*
X220248436Y-119358721D01*
X220288500Y-119150849D01*
X220288500Y-118442197D01*
X220273419Y-118284261D01*
X220213777Y-118081138D01*
X220116771Y-117892974D01*
X219985908Y-117726568D01*
X219825918Y-117587935D01*
X219722434Y-117528189D01*
X219647701Y-117485042D01*
X219647697Y-117485040D01*
X219642582Y-117482087D01*
X219558209Y-117452885D01*
X219448113Y-117414780D01*
X219448109Y-117414779D01*
X219442527Y-117412847D01*
X219436681Y-117412006D01*
X219436675Y-117412005D01*
X219238823Y-117383558D01*
X219238817Y-117383557D01*
X219232984Y-117382719D01*
X219227099Y-117382999D01*
X219227092Y-117382999D01*
X219027423Y-117392511D01*
X219027422Y-117392511D01*
X219021526Y-117392792D01*
X219015788Y-117394183D01*
X219015788Y-117394184D01*
X218821536Y-117441309D01*
X218821531Y-117441310D01*
X218815796Y-117442702D01*
X218810427Y-117445153D01*
X218810418Y-117445157D01*
X218628609Y-117528187D01*
X218623229Y-117530644D01*
X218618417Y-117534070D01*
X218618411Y-117534074D01*
X218455602Y-117650010D01*
X218455596Y-117650014D01*
X218450785Y-117653441D01*
X218446710Y-117657714D01*
X218446705Y-117657719D01*
X218308771Y-117802380D01*
X218308765Y-117802387D01*
X218304697Y-117806654D01*
X218301508Y-117811614D01*
X218301504Y-117811621D01*
X218283800Y-117839169D01*
X218241484Y-117879515D01*
X218185384Y-117895987D01*
X218127973Y-117884921D01*
X218082015Y-117848778D01*
X217989561Y-117731212D01*
X217989555Y-117731206D01*
X217985908Y-117726568D01*
X217825918Y-117587935D01*
X217722434Y-117528189D01*
X217647701Y-117485042D01*
X217647697Y-117485040D01*
X217642582Y-117482087D01*
X217558209Y-117452885D01*
X217448113Y-117414780D01*
X217448109Y-117414779D01*
X217442527Y-117412847D01*
X217436681Y-117412006D01*
X217436675Y-117412005D01*
X217238823Y-117383558D01*
X217238817Y-117383557D01*
X217232984Y-117382719D01*
X217227099Y-117382999D01*
X217227092Y-117382999D01*
X217021526Y-117392792D01*
X217021434Y-117390869D01*
X216960978Y-117382171D01*
X216908181Y-117336416D01*
X216888500Y-117269381D01*
X216888500Y-111345152D01*
X216888726Y-111337665D01*
X216891948Y-111284394D01*
X216892401Y-111276907D01*
X216881425Y-111217016D01*
X216880303Y-111209636D01*
X216872965Y-111149199D01*
X216869284Y-111139495D01*
X216863258Y-111117875D01*
X216861388Y-111107671D01*
X216836408Y-111052169D01*
X216833544Y-111045255D01*
X216814614Y-110995339D01*
X216814613Y-110995338D01*
X216811954Y-110988325D01*
X216807693Y-110982153D01*
X216807692Y-110982150D01*
X216806065Y-110979794D01*
X216795030Y-110960230D01*
X216790775Y-110950774D01*
X216753229Y-110902851D01*
X216748793Y-110896822D01*
X216718474Y-110852897D01*
X216718473Y-110852896D01*
X216714215Y-110846727D01*
X216668630Y-110806342D01*
X216663193Y-110801223D01*
X216249735Y-110387765D01*
X241325788Y-110387765D01*
X241326282Y-110392262D01*
X241326283Y-110392267D01*
X241354917Y-110652506D01*
X241354918Y-110652513D01*
X241355414Y-110657018D01*
X241356559Y-110661398D01*
X241356561Y-110661408D01*
X241394456Y-110806357D01*
X241423928Y-110919088D01*
X241425693Y-110923242D01*
X241425696Y-110923250D01*
X241524880Y-111156648D01*
X241529870Y-111168390D01*
X241532226Y-111172251D01*
X241532229Y-111172256D01*
X241668618Y-111395737D01*
X241670982Y-111399610D01*
X241844255Y-111607820D01*
X241847630Y-111610844D01*
X241847631Y-111610845D01*
X241952330Y-111704656D01*
X242045998Y-111788582D01*
X242271910Y-111938044D01*
X242517176Y-112053020D01*
X242776569Y-112131060D01*
X243044561Y-112170500D01*
X243245369Y-112170500D01*
X243247631Y-112170500D01*
X243450156Y-112155677D01*
X243714553Y-112096780D01*
X243967558Y-112000014D01*
X244203777Y-111867441D01*
X244418177Y-111701888D01*
X244606186Y-111506881D01*
X244763799Y-111286579D01*
X244887656Y-111045675D01*
X244975118Y-110789305D01*
X245024319Y-110522933D01*
X245034212Y-110252235D01*
X245004586Y-109982982D01*
X244936072Y-109720912D01*
X244830130Y-109471610D01*
X244689018Y-109240390D01*
X244515745Y-109032180D01*
X244410759Y-108938112D01*
X244317382Y-108854446D01*
X244317378Y-108854442D01*
X244314002Y-108851418D01*
X244088090Y-108701956D01*
X244083996Y-108700036D01*
X244083991Y-108700034D01*
X243846929Y-108588904D01*
X243846925Y-108588902D01*
X243842824Y-108586980D01*
X243838477Y-108585672D01*
X243838474Y-108585671D01*
X243587772Y-108510246D01*
X243587771Y-108510245D01*
X243583431Y-108508940D01*
X243578957Y-108508281D01*
X243578950Y-108508280D01*
X243319913Y-108470158D01*
X243319907Y-108470157D01*
X243315439Y-108469500D01*
X243112369Y-108469500D01*
X243110120Y-108469664D01*
X243110109Y-108469665D01*
X242914363Y-108483992D01*
X242914359Y-108483992D01*
X242909844Y-108484323D01*
X242905426Y-108485307D01*
X242905420Y-108485308D01*
X242649877Y-108542232D01*
X242649861Y-108542236D01*
X242645447Y-108543220D01*
X242641216Y-108544838D01*
X242641210Y-108544840D01*
X242396673Y-108638367D01*
X242396663Y-108638371D01*
X242392442Y-108639986D01*
X242388494Y-108642201D01*
X242388489Y-108642204D01*
X242160176Y-108770340D01*
X242160171Y-108770343D01*
X242156223Y-108772559D01*
X242152639Y-108775325D01*
X242152635Y-108775329D01*
X241945407Y-108935343D01*
X241945394Y-108935354D01*
X241941823Y-108938112D01*
X241938685Y-108941366D01*
X241938678Y-108941373D01*
X241756958Y-109129857D01*
X241756952Y-109129864D01*
X241753814Y-109133119D01*
X241751189Y-109136787D01*
X241751179Y-109136800D01*
X241598834Y-109349740D01*
X241598830Y-109349745D01*
X241596201Y-109353421D01*
X241594132Y-109357444D01*
X241594129Y-109357450D01*
X241474416Y-109590293D01*
X241474411Y-109590304D01*
X241472344Y-109594325D01*
X241470884Y-109598602D01*
X241470879Y-109598616D01*
X241386348Y-109846395D01*
X241386344Y-109846407D01*
X241384882Y-109850695D01*
X241384057Y-109855159D01*
X241384057Y-109855161D01*
X241336504Y-110112606D01*
X241336502Y-110112619D01*
X241335681Y-110117067D01*
X241335515Y-110121593D01*
X241335515Y-110121599D01*
X241330576Y-110256762D01*
X241325788Y-110387765D01*
X216249735Y-110387765D01*
X204829168Y-98967198D01*
X204824034Y-98961744D01*
X204788641Y-98921793D01*
X204788638Y-98921790D01*
X204783666Y-98916178D01*
X204733561Y-98881592D01*
X204727530Y-98877154D01*
X204685524Y-98844244D01*
X204685522Y-98844242D01*
X204679619Y-98839618D01*
X204672781Y-98836540D01*
X204672774Y-98836536D01*
X204670149Y-98835355D01*
X204650610Y-98824335D01*
X204648238Y-98822698D01*
X204648239Y-98822698D01*
X204642068Y-98818439D01*
X204585160Y-98796856D01*
X204578241Y-98793990D01*
X204529561Y-98772081D01*
X204529554Y-98772078D01*
X204522722Y-98769004D01*
X204515351Y-98767652D01*
X204515348Y-98767652D01*
X204512503Y-98767131D01*
X204490893Y-98761106D01*
X204488205Y-98760086D01*
X204488199Y-98760084D01*
X204481194Y-98757428D01*
X204473756Y-98756524D01*
X204473753Y-98756524D01*
X204420762Y-98750089D01*
X204413362Y-98748962D01*
X204360868Y-98739343D01*
X204360862Y-98739342D01*
X204353486Y-98737991D01*
X204346005Y-98738443D01*
X204345998Y-98738443D01*
X204292717Y-98741667D01*
X204285230Y-98741893D01*
X199304000Y-98741893D01*
X199242000Y-98725280D01*
X199196613Y-98679893D01*
X199180000Y-98617893D01*
X199180000Y-45387765D01*
X206325788Y-45387765D01*
X206326282Y-45392262D01*
X206326283Y-45392267D01*
X206354917Y-45652506D01*
X206354918Y-45652513D01*
X206355414Y-45657018D01*
X206356559Y-45661398D01*
X206356561Y-45661408D01*
X206388830Y-45784838D01*
X206423928Y-45919088D01*
X206425693Y-45923242D01*
X206425696Y-45923250D01*
X206528099Y-46164223D01*
X206529870Y-46168390D01*
X206532226Y-46172251D01*
X206532229Y-46172256D01*
X206668618Y-46395737D01*
X206670982Y-46399610D01*
X206844255Y-46607820D01*
X206847630Y-46610844D01*
X206847631Y-46610845D01*
X206952330Y-46704656D01*
X207045998Y-46788582D01*
X207271910Y-46938044D01*
X207517176Y-47053020D01*
X207776569Y-47131060D01*
X208044561Y-47170500D01*
X208245369Y-47170500D01*
X208247631Y-47170500D01*
X208450156Y-47155677D01*
X208714553Y-47096780D01*
X208967558Y-47000014D01*
X209203777Y-46867441D01*
X209418177Y-46701888D01*
X209606186Y-46506881D01*
X209763799Y-46286579D01*
X209887656Y-46045675D01*
X209975118Y-45789305D01*
X210024319Y-45522933D01*
X210029259Y-45387765D01*
X241325788Y-45387765D01*
X241326282Y-45392262D01*
X241326283Y-45392267D01*
X241354917Y-45652506D01*
X241354918Y-45652513D01*
X241355414Y-45657018D01*
X241356559Y-45661398D01*
X241356561Y-45661408D01*
X241388830Y-45784838D01*
X241423928Y-45919088D01*
X241425693Y-45923242D01*
X241425696Y-45923250D01*
X241528099Y-46164223D01*
X241529870Y-46168390D01*
X241532226Y-46172251D01*
X241532229Y-46172256D01*
X241668618Y-46395737D01*
X241670982Y-46399610D01*
X241844255Y-46607820D01*
X241847630Y-46610844D01*
X241847631Y-46610845D01*
X241952330Y-46704656D01*
X242045998Y-46788582D01*
X242271910Y-46938044D01*
X242517176Y-47053020D01*
X242776569Y-47131060D01*
X243044561Y-47170500D01*
X243245369Y-47170500D01*
X243247631Y-47170500D01*
X243450156Y-47155677D01*
X243714553Y-47096780D01*
X243967558Y-47000014D01*
X244203777Y-46867441D01*
X244418177Y-46701888D01*
X244606186Y-46506881D01*
X244763799Y-46286579D01*
X244887656Y-46045675D01*
X244975118Y-45789305D01*
X245024319Y-45522933D01*
X245034212Y-45252235D01*
X245004586Y-44982982D01*
X244936072Y-44720912D01*
X244830130Y-44471610D01*
X244689018Y-44240390D01*
X244515745Y-44032180D01*
X244410759Y-43938112D01*
X244317382Y-43854446D01*
X244317378Y-43854442D01*
X244314002Y-43851418D01*
X244088090Y-43701956D01*
X244083996Y-43700036D01*
X244083991Y-43700034D01*
X243846929Y-43588904D01*
X243846925Y-43588902D01*
X243842824Y-43586980D01*
X243838477Y-43585672D01*
X243838474Y-43585671D01*
X243587772Y-43510246D01*
X243587771Y-43510245D01*
X243583431Y-43508940D01*
X243578957Y-43508281D01*
X243578950Y-43508280D01*
X243319913Y-43470158D01*
X243319907Y-43470157D01*
X243315439Y-43469500D01*
X243112369Y-43469500D01*
X243110120Y-43469664D01*
X243110109Y-43469665D01*
X242914363Y-43483992D01*
X242914359Y-43483992D01*
X242909844Y-43484323D01*
X242905426Y-43485307D01*
X242905420Y-43485308D01*
X242649877Y-43542232D01*
X242649861Y-43542236D01*
X242645447Y-43543220D01*
X242641216Y-43544838D01*
X242641210Y-43544840D01*
X242396673Y-43638367D01*
X242396663Y-43638371D01*
X242392442Y-43639986D01*
X242388494Y-43642201D01*
X242388489Y-43642204D01*
X242160176Y-43770340D01*
X242160171Y-43770343D01*
X242156223Y-43772559D01*
X242152639Y-43775325D01*
X242152635Y-43775329D01*
X241945407Y-43935343D01*
X241945394Y-43935354D01*
X241941823Y-43938112D01*
X241938685Y-43941366D01*
X241938678Y-43941373D01*
X241756958Y-44129857D01*
X241756952Y-44129864D01*
X241753814Y-44133119D01*
X241751189Y-44136787D01*
X241751179Y-44136800D01*
X241598834Y-44349740D01*
X241598830Y-44349745D01*
X241596201Y-44353421D01*
X241594132Y-44357444D01*
X241594129Y-44357450D01*
X241474416Y-44590293D01*
X241474411Y-44590304D01*
X241472344Y-44594325D01*
X241470884Y-44598602D01*
X241470879Y-44598616D01*
X241386348Y-44846395D01*
X241386344Y-44846407D01*
X241384882Y-44850695D01*
X241384057Y-44855159D01*
X241384057Y-44855161D01*
X241336504Y-45112606D01*
X241336502Y-45112619D01*
X241335681Y-45117067D01*
X241335515Y-45121593D01*
X241335515Y-45121599D01*
X241330576Y-45256762D01*
X241325788Y-45387765D01*
X210029259Y-45387765D01*
X210034212Y-45252235D01*
X210004586Y-44982982D01*
X209936072Y-44720912D01*
X209830130Y-44471610D01*
X209689018Y-44240390D01*
X209515745Y-44032180D01*
X209410759Y-43938112D01*
X209317382Y-43854446D01*
X209317378Y-43854442D01*
X209314002Y-43851418D01*
X209088090Y-43701956D01*
X209083996Y-43700036D01*
X209083991Y-43700034D01*
X208846929Y-43588904D01*
X208846925Y-43588902D01*
X208842824Y-43586980D01*
X208838477Y-43585672D01*
X208838474Y-43585671D01*
X208587772Y-43510246D01*
X208587771Y-43510245D01*
X208583431Y-43508940D01*
X208578957Y-43508281D01*
X208578950Y-43508280D01*
X208319913Y-43470158D01*
X208319907Y-43470157D01*
X208315439Y-43469500D01*
X208112369Y-43469500D01*
X208110120Y-43469664D01*
X208110109Y-43469665D01*
X207914363Y-43483992D01*
X207914359Y-43483992D01*
X207909844Y-43484323D01*
X207905426Y-43485307D01*
X207905420Y-43485308D01*
X207649877Y-43542232D01*
X207649861Y-43542236D01*
X207645447Y-43543220D01*
X207641216Y-43544838D01*
X207641210Y-43544840D01*
X207396673Y-43638367D01*
X207396663Y-43638371D01*
X207392442Y-43639986D01*
X207388494Y-43642201D01*
X207388489Y-43642204D01*
X207160176Y-43770340D01*
X207160171Y-43770343D01*
X207156223Y-43772559D01*
X207152639Y-43775325D01*
X207152635Y-43775329D01*
X206945407Y-43935343D01*
X206945394Y-43935354D01*
X206941823Y-43938112D01*
X206938685Y-43941366D01*
X206938678Y-43941373D01*
X206756958Y-44129857D01*
X206756952Y-44129864D01*
X206753814Y-44133119D01*
X206751189Y-44136787D01*
X206751179Y-44136800D01*
X206598834Y-44349740D01*
X206598830Y-44349745D01*
X206596201Y-44353421D01*
X206594132Y-44357444D01*
X206594129Y-44357450D01*
X206474416Y-44590293D01*
X206474411Y-44590304D01*
X206472344Y-44594325D01*
X206470884Y-44598602D01*
X206470879Y-44598616D01*
X206386348Y-44846395D01*
X206386344Y-44846407D01*
X206384882Y-44850695D01*
X206384057Y-44855159D01*
X206384057Y-44855161D01*
X206336504Y-45112606D01*
X206336502Y-45112619D01*
X206335681Y-45117067D01*
X206335515Y-45121593D01*
X206335515Y-45121599D01*
X206330576Y-45256762D01*
X206325788Y-45387765D01*
X199180000Y-45387765D01*
X199180000Y-40469500D01*
X199196613Y-40407500D01*
X199242000Y-40362113D01*
X199304000Y-40345500D01*
X247030500Y-40345500D01*
X247092500Y-40362113D01*
G37*
G04 #@! TD.AperFunction*
M02*
