M48
; DRILL file {KiCad 7.0.8-7.0.8~ubuntu22.04.1} date 2023年10月22日 22時55分27秒
; FORMAT={-:-/ absolute / inch / decimal}
; #@! TF.CreationDate,2023-10-22T22:55:27+09:00
; #@! TF.GenerationSoftware,Kicad,Pcbnew,7.0.8-7.0.8~ubuntu22.04.1
; #@! TF.FileFunction,NonPlated,1,2,NPTH
FMAT,2
INCH
; #@! TA.AperFunction,NonPlated,NPTH,ComponentDrill
T1C0.0472
; #@! TA.AperFunction,NonPlated,NPTH,ComponentDrill
T2C0.0591
; #@! TA.AperFunction,NonPlated,NPTH,ComponentDrill
T3C0.1260
; #@! TA.AperFunction,NonPlated,NPTH,ComponentDrill
T4C0.1693
; #@! TA.AperFunction,NonPlated,NPTH,ComponentDrill
T5C0.1969
; #@! TA.AperFunction,NonPlated,NPTH,ComponentDrill
T6C0.5118
%
G90
G05
T1
X13.8189Y-6.8465
X13.9567Y-8.4535
X13.9764Y-7.6732
X14.1732Y-6.8465
X14.4882Y-6.8465
X14.4882Y-8.4575
X14.5079Y-7.6732
X14.8031Y-6.8465
X15.7807Y-10.7094
X15.7866Y-11.1031
X15.7906Y-9.922
X15.7906Y-10.3157
T2
X13.189Y-4.685
X13.189Y-4.685
X13.189Y-4.8031
X13.189Y-4.8031
X13.189Y-4.9606
X13.189Y-4.9606
X13.2087Y-3.7205
X13.2087Y-3.7205
X13.2087Y-6.5945
X13.2087Y-6.7126
X13.2087Y-6.8307
X13.4646Y-8.3268
X13.6417Y-9.8031
X13.6417Y-9.9409
X13.6417Y-12.4606
X13.6417Y-12.5787
T3
X9.0425Y-10.8378
X9.0425Y-12.4126
X9.0551Y-3.7402
X9.1437Y-12.9626
X10.0268Y-10.8378
X10.0268Y-12.4126
X10.8858Y-9.3642
X10.8957Y-9.0
X11.011Y-10.8378
X11.011Y-12.4126
X11.4047Y-10.8378
X11.4047Y-12.4126
X11.437Y-9.3642
X11.4469Y-9.0
X12.389Y-10.8378
X12.389Y-12.4126
X13.3661Y-13.002
X13.3732Y-10.8378
X13.3732Y-12.4126
X13.6024Y-3.7598
X13.9173Y-13.1496
X15.689Y-13.1693
X15.7874Y-3.7402
T4
X13.6024Y-4.1142
X14.3504Y-6.3976
T5
X9.6457Y-3.8268
X9.6457Y-4.4094
X9.6583Y-7.6622
X9.6583Y-8.2449
X10.0197Y-3.8268
X10.0197Y-4.4094
X10.0323Y-7.6622
X10.0323Y-8.2449
X10.5118Y-3.8268
X10.5118Y-4.4094
X10.8858Y-3.8268
X10.8858Y-4.4094
X11.378Y-3.8268
X11.378Y-4.4094
X11.752Y-3.8268
X11.752Y-4.4094
X12.1189Y-7.6622
X12.1189Y-8.2449
X12.2441Y-3.8268
X12.2441Y-4.4094
X12.4929Y-7.6622
X12.4929Y-8.2449
X12.6181Y-3.8268
X12.6181Y-4.4094
T6
X14.8425Y-9.626
T0
M30
