M48
; DRILL file {KiCad 7.0.0-da2b9df05c~163~ubuntu22.04.1} date 2023年05月10日 13時35分41秒
; FORMAT={-:-/ absolute / inch / decimal}
; #@! TF.CreationDate,2023-05-10T13:35:41+09:00
; #@! TF.GenerationSoftware,Kicad,Pcbnew,7.0.0-da2b9df05c~163~ubuntu22.04.1
; #@! TF.FileFunction,NonPlated,1,2,NPTH
FMAT,2
INCH
; #@! TA.AperFunction,NonPlated,NPTH,ComponentDrill
T1C0.0433
; #@! TA.AperFunction,NonPlated,NPTH,ComponentDrill
T2C0.0472
; #@! TA.AperFunction,NonPlated,NPTH,ComponentDrill
T3C0.1260
; #@! TA.AperFunction,NonPlated,NPTH,ComponentDrill
T4C0.1969
%
G90
G05
T1
X6.5638Y-4.0874
X6.5638Y-4.1874
X6.5736Y-3.702
X6.5736Y-3.802
T2
X6.8535Y-1.7843
X6.8535Y-6.2016
X8.9835Y-6.2134
T3
X6.1882Y-1.7843
X6.1882Y-2.7685
X6.1882Y-3.7528
X6.1882Y-4.1465
X6.1882Y-5.1307
X6.1882Y-6.115
X7.5661Y-1.7843
X7.5661Y-2.7685
X7.5661Y-3.7528
X7.5661Y-4.1465
X7.5661Y-5.1307
X7.5661Y-6.115
X8.1961Y-1.7843
X8.1961Y-4.3433
X9.574Y-1.7843
X9.574Y-4.3433
T4
X2.3008Y-2.3189
X2.3008Y-3.2189
X2.3008Y-4.6811
X2.3008Y-5.5811
X3.0008Y-2.3189
X3.0008Y-3.2189
X3.0008Y-4.6811
X3.0008Y-5.5811
T0
M30
