M48
; DRILL file {KiCad 7.0.6-7.0.6~ubuntu22.04.1} date Sun Jul  9 14:58:33 2023
; FORMAT={-:-/ absolute / inch / decimal}
; #@! TF.CreationDate,2023-07-09T14:58:33+09:00
; #@! TF.GenerationSoftware,Kicad,Pcbnew,7.0.6-7.0.6~ubuntu22.04.1
; #@! TF.FileFunction,NonPlated,1,2,NPTH
FMAT,2
INCH
; #@! TA.AperFunction,NonPlated,NPTH,ComponentDrill
T1C0.0472
; #@! TA.AperFunction,NonPlated,NPTH,ComponentDrill
T2C0.1260
; #@! TA.AperFunction,NonPlated,NPTH,ComponentDrill
T3C0.1969
; #@! TA.AperFunction,NonPlated,NPTH,ComponentDrill
T4C0.3307
%
G90
G05
T1
X7.5157Y-4.366
X7.9055Y-4.366
X7.9196Y-7.4429
X7.9291Y-6.7096
X8.3031Y-4.366
X8.439Y-4.7638
X8.4587Y-9.1732
X8.6969Y-4.366
X9.0689Y-2.6181
X9.0689Y-3.0315
X9.0689Y-3.4252
X9.0689Y-3.8583
T2
X4.0728Y-2.4705
X4.0728Y-9.1339
X5.5492Y-6.6831
X5.5492Y-7.2343
X6.1102Y-6.6929
X6.1102Y-7.2441
X7.5839Y-4.7567
X7.5839Y-5.7409
X7.5839Y-6.7252
X7.5839Y-7.1189
X7.5839Y-8.1031
X7.5839Y-9.0874
X7.6063Y-2.5689
X7.6063Y-3.1201
X8.1673Y-2.5787
X8.1673Y-3.1299
X9.1587Y-4.7567
X9.1587Y-5.7409
X9.1587Y-6.7252
X9.1587Y-7.1189
X9.1587Y-8.1031
X9.1587Y-9.0874
X11.4547Y-2.4705
X11.4744Y-9.1339
T3
X4.2114Y-5.322
X4.2114Y-5.6961
X4.2114Y-8.0976
X4.2114Y-8.4717
X4.2965Y-3.7079
X4.2965Y-4.2906
X4.6705Y-3.7079
X4.6705Y-4.2906
X4.7941Y-5.322
X4.7941Y-5.6961
X4.7941Y-8.0976
X4.7941Y-8.4717
X5.0839Y-3.7079
X5.0839Y-4.2906
X5.4579Y-3.7079
X5.4579Y-4.2906
X5.8713Y-3.7079
X5.8713Y-4.2906
X6.2453Y-3.7079
X6.2453Y-4.2906
X6.6587Y-3.7079
X6.6587Y-4.2906
X7.0327Y-3.7079
X7.0327Y-4.2906
T4
X11.002Y-5.5118
T0
M30
