G04 #@! TF.GenerationSoftware,KiCad,Pcbnew,7.0.8-7.0.8~ubuntu22.04.1*
G04 #@! TF.CreationDate,2023-10-22T22:59:33+09:00*
G04 #@! TF.ProjectId,QuinoaChipPlant,5175696e-6f61-4436-9869-70506c616e74,rev?*
G04 #@! TF.SameCoordinates,Original*
G04 #@! TF.FileFunction,Profile,NP*
%FSLAX46Y46*%
G04 Gerber Fmt 4.6, Leading zero omitted, Abs format (unit mm)*
G04 Created by KiCad (PCBNEW 7.0.8-7.0.8~ubuntu22.04.1) date 2023-10-22 22:59:33*
%MOMM*%
%LPD*%
G01*
G04 APERTURE LIST*
G04 #@! TA.AperFunction,Profile*
%ADD10C,0.050000*%
G04 #@! TD*
G04 #@! TA.AperFunction,Profile*
%ADD11C,0.100000*%
G04 #@! TD*
G04 #@! TA.AperFunction,Profile*
%ADD12C,0.120000*%
G04 #@! TD*
G04 APERTURE END LIST*
D10*
X348000000Y-340000000D02*
X405000000Y-340000000D01*
D11*
X348000000Y-340000000D02*
G75*
G03*
X345000000Y-340000000I-1500000J0D01*
G01*
X334000000Y-90000000D02*
G75*
G03*
X337000000Y-90000000I1500000J0D01*
G01*
D10*
X285500000Y-252000000D02*
X317500000Y-252000000D01*
X280500000Y-298000000D02*
X318500000Y-298000000D01*
X237500000Y-298000000D02*
X264500000Y-298000000D01*
X239700000Y-154200000D02*
G75*
G03*
X239700000Y-164200000I0J-5000000D01*
G01*
X236500000Y-262000000D02*
X263500000Y-262000000D01*
X345000000Y-340000000D02*
X225000000Y-340000000D01*
X348000000Y-323000000D02*
X348000000Y-335000000D01*
X236500000Y-252000000D02*
X263500000Y-252000000D01*
X239700000Y-154200000D02*
X266700000Y-154200000D01*
X347984436Y-210000000D02*
G75*
G03*
X345015564Y-210000000I-1484436J0D01*
G01*
X325000000Y-105500000D02*
X324984436Y-147500000D01*
X318500000Y-308000000D02*
G75*
G03*
X318500000Y-298000000I0J5000000D01*
G01*
X345015564Y-210000000D02*
X345000000Y-244500000D01*
X321484436Y-184000000D02*
G75*
G03*
X325515564Y-184000000I2015564J0D01*
G01*
X266700000Y-164200000D02*
G75*
G03*
X266700000Y-154200000I0J5000000D01*
G01*
X332000000Y-161500000D02*
G75*
G03*
X339000000Y-161500000I3500000J0D01*
G01*
X405000000Y-90000000D02*
X405000000Y-340000000D01*
X339000000Y-161500000D02*
X339000000Y-133000000D01*
X348000000Y-323000000D02*
G75*
G03*
X345000000Y-323000000I-1500000J0D01*
G01*
X348000000Y-210000000D02*
X348000000Y-244500000D01*
X239700000Y-164200000D02*
X266700000Y-164200000D01*
X337000000Y-90000000D02*
X405000000Y-90000000D01*
X280500000Y-298000000D02*
G75*
G03*
X280500000Y-308000000I0J-5000000D01*
G01*
X225000000Y-90000000D02*
X334000000Y-90000000D01*
X329000000Y-181500000D02*
X329000000Y-261000000D01*
X332000000Y-111150000D02*
X332000000Y-100850000D01*
X324984436Y-147500000D02*
G75*
G03*
X327984436Y-147500000I1500000J0D01*
G01*
X264500000Y-308000000D02*
G75*
G03*
X264500000Y-298000000I0J5000000D01*
G01*
X263500000Y-262000000D02*
G75*
G03*
X263500000Y-252000000I0J5000000D01*
G01*
X285500000Y-252000000D02*
G75*
G03*
X285500000Y-262000000I0J-5000000D01*
G01*
X329000000Y-261000000D02*
G75*
G03*
X339000000Y-261000000I5000000J0D01*
G01*
X345000000Y-244500000D02*
G75*
G03*
X348000000Y-244500000I1500000J0D01*
G01*
X345000000Y-313000000D02*
G75*
G03*
X348000000Y-313000000I1500000J0D01*
G01*
X403712800Y-103187200D02*
X403712800Y-353187200D01*
X236500000Y-252000000D02*
G75*
G03*
X236500000Y-262000000I0J-5000000D01*
G01*
X282800000Y-164000000D02*
X311200000Y-164000000D01*
X345000000Y-323000000D02*
X345000000Y-335000000D01*
X237500000Y-308000000D02*
X264500000Y-308000000D01*
X327968872Y-105500000D02*
G75*
G03*
X325000000Y-105500000I-1484436J0D01*
G01*
X339000000Y-101000000D02*
G75*
G03*
X332000000Y-101000000I-3500000J0D01*
G01*
X348000000Y-256250000D02*
G75*
G03*
X345000000Y-256250000I-1500000J0D01*
G01*
X317500000Y-262000000D02*
G75*
G03*
X317500000Y-252000000I0J5000000D01*
G01*
X339000000Y-181500000D02*
G75*
G03*
X329000000Y-181500000I-5000000J0D01*
G01*
X282800000Y-154000000D02*
X311200000Y-154000000D01*
X339000000Y-111300000D02*
X339000000Y-101000000D01*
X237500000Y-298000000D02*
G75*
G03*
X237500000Y-308000000I0J-5000000D01*
G01*
X345000000Y-334999759D02*
G75*
G03*
X348000000Y-335000000I1500000J-41D01*
G01*
X280500000Y-308000000D02*
X318500000Y-308000000D01*
X327968872Y-105500000D02*
X327984436Y-147500000D01*
X345000000Y-256250000D02*
X345000000Y-313000000D01*
X285500000Y-262000000D02*
X317500000Y-262000000D01*
X321600000Y-156100000D02*
X321484436Y-184000000D01*
X282800000Y-154000000D02*
G75*
G03*
X282800000Y-164000000I0J-5000000D01*
G01*
X311200000Y-164000000D02*
G75*
G03*
X311200000Y-154000000I0J5000000D01*
G01*
D12*
X225000000Y-90000000D02*
X225000000Y-340000000D01*
D10*
X325600000Y-156100000D02*
X325515564Y-184000000D01*
X325600000Y-156100000D02*
G75*
G03*
X321600000Y-156100000I-2000000J0D01*
G01*
X332000000Y-161500000D02*
X332000000Y-133000000D01*
X339000000Y-133000000D02*
G75*
G03*
X332000000Y-133000000I-3500000J0D01*
G01*
X339000000Y-181500000D02*
X339000000Y-261000000D01*
X348000000Y-256250000D02*
X348000000Y-313000000D01*
X332000001Y-111150000D02*
G75*
G03*
X339003212Y-111300000I3499999J-150000D01*
G01*
M02*
