M48
; DRILL file {KiCad 7.0.6-7.0.6~ubuntu22.04.1} date Sun Jul  9 14:58:33 2023
; FORMAT={-:-/ absolute / inch / decimal}
; #@! TF.CreationDate,2023-07-09T14:58:33+09:00
; #@! TF.GenerationSoftware,Kicad,Pcbnew,7.0.6-7.0.6~ubuntu22.04.1
; #@! TF.FileFunction,Plated,1,2,PTH
FMAT,2
INCH
; #@! TA.AperFunction,Plated,PTH,ViaDrill
T1C0.0276
; #@! TA.AperFunction,Plated,PTH,ComponentDrill
T2C0.0295
; #@! TA.AperFunction,Plated,PTH,ComponentDrill
T3C0.0300
; #@! TA.AperFunction,Plated,PTH,ComponentDrill
T4C0.0315
; #@! TA.AperFunction,Plated,PTH,ComponentDrill
T5C0.0320
; #@! TA.AperFunction,Plated,PTH,ComponentDrill
T6C0.0354
; #@! TA.AperFunction,Plated,PTH,ComponentDrill
T7C0.0374
; #@! TA.AperFunction,Plated,PTH,ComponentDrill
T8C0.0394
; #@! TA.AperFunction,Plated,PTH,ComponentDrill
T9C0.0394
; #@! TA.AperFunction,Plated,PTH,ComponentDrill
T10C0.0433
; #@! TA.AperFunction,Plated,PTH,ComponentDrill
T11C0.0472
; #@! TA.AperFunction,Plated,PTH,ComponentDrill
T12C0.0520
; #@! TA.AperFunction,Plated,PTH,ComponentDrill
T13C0.0591
; #@! TA.AperFunction,Plated,PTH,ComponentDrill
T14C0.1063
%
G90
G05
T1
X8.5181Y-5.5724
X8.5287Y-7.0008
X9.4488Y-4.0824
X9.7208Y-3.7429
X9.7441Y-6.2725
X9.7581Y-3.0024
X9.7681Y-2.3424
X9.8881Y-3.3124
X9.9081Y-3.3754
X9.9163Y-4.102
X9.9315Y-2.9188
X9.9781Y-4.6024
X9.9949Y-3.6814
X10.018Y-4.2706
X10.0275Y-4.4591
X10.0381Y-3.2024
X10.2781Y-3.7524
X10.2781Y-4.4524
X10.3081Y-6.5024
X10.4075Y-4.0455
X10.4075Y-4.1294
X10.4941Y-3.1286
X10.5875Y-6.0932
X10.6476Y-2.8543
X10.6772Y-2.7067
X10.7559Y-2.4213
X10.7732Y-3.6654
X10.861Y-3.7421
X10.9016Y-3.9469
X10.9091Y-4.4812
X10.9174Y-6.0552
X10.938Y-3.121
X10.939Y-3.186
X11.0215Y-3.6522
X11.0724Y-3.6013
X11.1281Y-3.7424
T2
X10.8445Y-3.0118
X10.8455Y-3.4134
X10.9232Y-3.0118
X10.9242Y-3.4134
X11.002Y-3.0118
X11.003Y-3.4134
X11.0807Y-3.0118
X11.0817Y-3.4134
T3
X9.5256Y-4.3307
X9.6043Y-4.3307
X9.6831Y-4.3307
X9.7618Y-4.3307
T4
X7.5984Y-3.8976
X7.6772Y-3.8976
X7.9921Y-3.8976
X7.9921Y-6.9882
X8.0118Y-6.2352
X8.0709Y-3.8976
X8.0709Y-6.9882
X8.0906Y-6.2352
X8.3858Y-3.8976
X8.4646Y-3.8976
X8.7795Y-3.8976
X8.8583Y-3.8976
X10.0354Y-5.5561
X10.0397Y-5.0866
X10.0618Y-5.6191
X10.0661Y-5.1496
X10.1603Y-5.6191
X10.1645Y-5.1496
X10.1867Y-5.6821
X10.1909Y-5.2126
T6
X11.2563Y-8.1693
X11.3563Y-8.1693
T7
X9.1319Y-2.5394
X9.1319Y-2.9528
X9.1319Y-3.3465
X9.1319Y-3.7795
X9.2303Y-2.5394
X9.2303Y-2.9528
X9.2303Y-3.3465
X9.2303Y-3.7795
X9.3287Y-2.5394
X9.3287Y-2.9528
X9.3287Y-3.3465
X9.3287Y-3.7795
X9.4272Y-2.5394
X9.4272Y-2.9528
X9.4272Y-3.3465
X9.4272Y-3.7795
X10.2382Y-2.2181
X10.2382Y-2.3181
X10.2382Y-2.4181
X10.2382Y-2.5181
X10.2382Y-2.6181
X10.2382Y-2.7181
X10.2382Y-2.8181
X10.2382Y-2.9181
X10.2382Y-3.0181
X10.2382Y-3.1181
X10.2382Y-3.2181
X10.2382Y-3.3181
X10.2382Y-3.4181
X10.2382Y-3.5181
X10.2382Y-3.6181
X11.2382Y-2.2181
X11.2382Y-2.3181
X11.2382Y-2.4181
X11.2382Y-2.5181
X11.2382Y-2.6181
X11.2382Y-2.7181
X11.2382Y-2.8181
X11.2382Y-2.9181
X11.2382Y-3.0181
X11.2382Y-3.1181
X11.2382Y-3.2181
X11.2382Y-3.3181
X11.2382Y-3.4181
X11.2382Y-3.5181
X11.2382Y-3.6181
T8
X7.1378Y-7.7237
X7.1378Y-7.8237
X7.1378Y-7.9237
X7.1378Y-8.0237
X7.5787Y-4.2872
X7.6772Y-4.2872
X7.9685Y-4.2872
X7.9826Y-7.3642
X7.9921Y-6.6309
X8.0669Y-4.2872
X8.081Y-7.3642
X8.0906Y-6.6309
X8.3661Y-4.2872
X8.4646Y-4.2872
X8.502Y-4.685
X8.5217Y-9.0945
X8.6004Y-4.685
X8.6201Y-9.0945
X8.7598Y-4.2872
X8.8583Y-4.2872
X10.4567Y-7.2237
X10.4567Y-7.3237
X10.4567Y-7.4237
X10.4567Y-7.5237
X10.4567Y-7.6237
X10.4567Y-7.7237
X10.4567Y-7.8237
X10.4567Y-7.9237
X10.4567Y-8.0237
X10.4567Y-8.1237
X10.4567Y-8.2237
X10.4567Y-8.3237
X10.4567Y-8.4237
X10.4567Y-8.5237
X10.6555Y-8.1693
X10.9547Y-8.1693
T10
X7.5374Y-4.0904
X7.7374Y-4.0904
X7.9232Y-4.0846
X7.9311Y-7.1654
X7.9398Y-6.437
X8.1232Y-4.0846
X8.1311Y-7.1654
X8.1398Y-6.437
X8.3248Y-4.0904
X8.5248Y-4.0904
X8.7058Y-4.0904
X8.9058Y-4.0904
X10.9441Y-8.5947
X10.9441Y-8.7718
X11.2Y-8.5947
X11.2Y-8.7718
T11
X11.3445Y-4.685
X11.3445Y-4.8819
X11.3445Y-5.0787
T12
X9.7711Y-2.687
X9.9679Y-2.687
T13
X8.3248Y-6.5835
X8.3248Y-6.6835
X8.3248Y-6.7835
X8.3248Y-6.8835
X8.3248Y-6.9835
X8.3248Y-7.0835
X8.3248Y-7.1835
X8.3248Y-7.2835
X8.9248Y-6.5835
X8.9248Y-6.6835
X8.9248Y-6.7835
X8.9248Y-6.8835
X8.9248Y-6.9835
X8.9248Y-7.0835
X8.9248Y-7.1835
X8.9248Y-7.2835
X9.5996Y-6.5638
X9.5996Y-6.6638
X9.5996Y-6.7638
X9.5996Y-6.8638
X9.5996Y-6.9638
X9.5996Y-7.0638
X9.5996Y-7.1638
X9.5996Y-7.2638
X10.1996Y-6.5638
X10.1996Y-6.6638
X10.1996Y-6.7638
X10.1996Y-6.8638
X10.1996Y-6.9638
X10.1996Y-7.0638
X10.1996Y-7.1638
X10.1996Y-7.2638
X10.6823Y-6.5594
X10.6823Y-6.6594
X10.6823Y-6.7594
X10.6823Y-6.8594
X10.6823Y-6.9594
X10.6823Y-7.0594
X10.6823Y-7.1594
X10.6823Y-7.2594
X11.2823Y-6.5594
X11.2823Y-6.6594
X11.2823Y-6.7594
X11.2823Y-6.8594
X11.2823Y-6.9594
X11.2823Y-7.0594
X11.2823Y-7.1594
X11.2823Y-7.2594
T14
X7.1378Y-6.9094
X7.1378Y-8.8386
X10.4173Y-6.9094
X10.4173Y-8.8386
T5
G00X11.1729Y-4.1614
M15
G01X11.0868Y-4.1614
M16
G05
T9
G00X11.0118Y-4.4016
M15
G01X11.0118Y-4.3032
M16
G05
G00X11.2579Y-4.3996
M15
G01X11.2579Y-4.3012
M16
G05
T0
M30
