M48
; DRILL file {KiCad 7.0.8-7.0.8~ubuntu22.04.1} date 2023年10月22日 22時55分27秒
; FORMAT={-:-/ absolute / inch / decimal}
; #@! TF.CreationDate,2023-10-22T22:55:27+09:00
; #@! TF.GenerationSoftware,Kicad,Pcbnew,7.0.8-7.0.8~ubuntu22.04.1
; #@! TF.FileFunction,Plated,1,2,PTH
FMAT,2
INCH
; #@! TA.AperFunction,Plated,PTH,ViaDrill
T1C0.0118
; #@! TA.AperFunction,Plated,PTH,ViaDrill
T2C0.0157
; #@! TA.AperFunction,Plated,PTH,ViaDrill
T3C0.0276
; #@! TA.AperFunction,Plated,PTH,ComponentDrill
T4C0.0295
; #@! TA.AperFunction,Plated,PTH,ComponentDrill
T5C0.0300
; #@! TA.AperFunction,Plated,PTH,ComponentDrill
T6C0.0315
; #@! TA.AperFunction,Plated,PTH,ComponentDrill
T7C0.0320
; #@! TA.AperFunction,Plated,PTH,ComponentDrill
T8C0.0354
; #@! TA.AperFunction,Plated,PTH,ComponentDrill
T9C0.0374
; #@! TA.AperFunction,Plated,PTH,ComponentDrill
T10C0.0394
; #@! TA.AperFunction,Plated,PTH,ComponentDrill
T11C0.0394
; #@! TA.AperFunction,Plated,PTH,ComponentDrill
T12C0.0433
; #@! TA.AperFunction,Plated,PTH,ComponentDrill
T13C0.0512
; #@! TA.AperFunction,Plated,PTH,ComponentDrill
T14C0.1063
%
G90
G05
T1
X15.8169Y-6.7815
X15.8169Y-7.0374
X15.8858Y-4.5669
T2
X14.1535Y-9.5079
X14.1732Y-9.3898
X14.1879Y-9.4473
X14.2462Y-9.464
X14.2524Y-9.5317
X14.2809Y-9.4825
X14.3207Y-9.3998
X14.9921Y-10.1411
X15.0197Y-10.0197
X15.0394Y-10.3937
X15.2756Y-12.7165
X15.8051Y-6.4173
X15.8858Y-4.3334
T3
X14.0157Y-6.5945
X14.0748Y-10.4134
X14.1339Y-6.5945
X14.2323Y-7.5591
X14.2913Y-7.5591
X14.4094Y-6.752
X14.5669Y-12.0866
X14.6654Y-5.6299
X14.7047Y-6.6929
X14.7176Y-5.8265
X14.7262Y-12.1794
X14.7441Y-5.9252
X14.7441Y-7.6378
X14.7638Y-5.7087
X14.7795Y-11.3031
X14.7834Y-11.9614
X14.7835Y-7.5394
X14.813Y-11.4173
X14.8858Y-11.4695
X14.9055Y-10.4528
X14.937Y-10.6929
X14.9803Y-6.9291
X15.0087Y-10.6535
X15.1732Y-11.2323
X15.1772Y-8.1299
X15.2499Y-12.2288
X15.2559Y-12.8543
X15.2874Y-11.0433
X15.2874Y-4.8622
X15.3031Y-12.9252
X15.3173Y-7.0317
X15.4134Y-5.5118
X15.4134Y-6.4567
X15.4528Y-5.7283
X15.4528Y-10.9646
X15.4724Y-7.4409
X15.4803Y-11.7126
X15.6854Y-10.1969
X15.7441Y-11.8425
X15.8661Y-5.4358
X15.8661Y-5.8295
X15.8661Y-6.8905
X15.8807Y-6.2941
X15.8845Y-7.5578
X15.8858Y-4.9547
T4
X14.685Y-12.2835
X14.7638Y-12.2835
X14.8425Y-12.2835
X14.9016Y-12.7559
X14.9213Y-12.2835
X14.9803Y-12.7559
X15.0591Y-12.7559
X15.1378Y-12.7559
T5
X15.5519Y-11.4698
X15.6306Y-11.4698
X15.7093Y-11.4698
X15.7881Y-11.4698
T6
X13.9685Y-11.0174
X14.0315Y-10.8926
X14.0315Y-10.991
X14.0945Y-10.8661
X14.8543Y-8.3205
X14.8543Y-8.7536
X14.9173Y-8.1957
X14.9173Y-8.2941
X14.9173Y-8.6288
X14.9173Y-8.7272
X14.9803Y-8.1693
X14.9803Y-8.6024
T8
X13.8189Y-7.2039
X13.8189Y-7.3039
X13.9252Y-8.0118
X13.9252Y-8.1118
X13.9567Y-8.7817
X13.9567Y-8.8817
X14.1929Y-7.2079
X14.1929Y-7.3079
X14.4646Y-8.7709
X14.4646Y-8.8709
X14.4742Y-8.0102
X14.4742Y-8.1102
X14.4882Y-7.2031
X14.4882Y-7.3031
X14.6992Y-4.5974
X14.6992Y-4.6974
X14.7213Y-5.1717
X14.7213Y-5.2717
X14.8031Y-7.2047
X14.8031Y-7.3047
X14.8415Y-3.6377
X14.8415Y-3.7377
X14.8415Y-3.8377
X14.8415Y-3.9377
X14.8415Y-4.0377
X14.8415Y-4.1377
X14.8415Y-4.2377
X14.8415Y-4.3377
X15.1087Y-4.4602
X15.1087Y-4.5602
X15.1087Y-4.6602
X15.1087Y-4.7602
X15.1087Y-4.8602
X15.1087Y-4.9602
X15.1087Y-5.0602
X15.1087Y-5.1602
X15.1087Y-5.3279
X15.1087Y-5.4279
X15.1087Y-5.5279
X15.1087Y-5.6279
X15.1087Y-5.7279
X15.1087Y-5.8279
X15.1087Y-5.9279
X15.1087Y-6.0279
X15.1087Y-6.1941
X15.1087Y-6.2941
X15.1087Y-6.3941
X15.1087Y-6.4941
X15.1087Y-6.5941
X15.1087Y-6.6941
X15.1087Y-6.7941
X15.1087Y-6.8941
X15.1087Y-7.0578
X15.1087Y-7.1578
X15.1087Y-7.2578
X15.1087Y-7.3578
X15.1087Y-7.4578
X15.1087Y-7.5578
X15.1087Y-7.6578
X15.1087Y-7.7578
X15.4415Y-3.6377
X15.4415Y-3.7377
X15.4415Y-3.8377
X15.4415Y-3.9377
X15.4415Y-4.0377
X15.4415Y-4.1377
X15.4415Y-4.2377
X15.4415Y-4.3377
X15.7087Y-4.4602
X15.7087Y-4.5602
X15.7087Y-4.6602
X15.7087Y-4.7602
X15.7087Y-4.8602
X15.7087Y-4.9602
X15.7087Y-5.0602
X15.7087Y-5.1602
X15.7087Y-5.3279
X15.7087Y-5.4279
X15.7087Y-5.5279
X15.7087Y-5.6279
X15.7087Y-5.7279
X15.7087Y-5.8279
X15.7087Y-5.9279
X15.7087Y-6.0279
X15.7087Y-6.1941
X15.7087Y-6.2941
X15.7087Y-6.3941
X15.7087Y-6.4941
X15.7087Y-6.5941
X15.7087Y-6.6941
X15.7087Y-6.7941
X15.7087Y-6.8941
X15.7087Y-7.0578
X15.7087Y-7.1578
X15.7087Y-7.2578
X15.7087Y-7.3578
X15.7087Y-7.4578
X15.7087Y-7.5578
X15.7087Y-7.6578
X15.7087Y-7.7578
T9
X14.4134Y-11.9283
X14.4134Y-12.0283
X14.4134Y-12.1283
X14.4134Y-12.2283
X14.4134Y-12.3283
X14.4134Y-12.4283
X14.4134Y-12.5283
X14.4134Y-12.6283
X14.4134Y-12.7283
X14.4134Y-12.8283
X14.4134Y-12.9283
X14.4134Y-13.0283
X14.4134Y-13.1283
X14.4134Y-13.2283
X14.4134Y-13.3283
X15.4134Y-11.9283
X15.4134Y-12.0283
X15.4134Y-12.1283
X15.4134Y-12.2283
X15.4134Y-12.3283
X15.4134Y-12.4283
X15.4134Y-12.5283
X15.4134Y-12.6283
X15.4134Y-12.7283
X15.4134Y-12.8283
X15.4134Y-12.9283
X15.4134Y-13.0283
X15.4134Y-13.1283
X15.4134Y-13.2283
X15.4134Y-13.3283
X15.4224Y-10.7882
X15.4284Y-11.1819
X15.4323Y-10.0008
X15.4323Y-10.3945
X15.5209Y-10.7882
X15.5268Y-11.1819
X15.5307Y-10.0008
X15.5307Y-10.3945
X15.6193Y-10.7882
X15.6252Y-11.1819
X15.6291Y-10.0008
X15.6291Y-10.3945
X15.7177Y-10.7882
X15.7236Y-11.1819
X15.7276Y-10.0008
X15.7276Y-10.3945
T10
X13.8976Y-6.9094
X13.8976Y-7.0079
X13.9528Y-12.7559
X14.0354Y-8.5165
X14.0354Y-8.615
X14.0551Y-7.7362
X14.0551Y-7.8346
X14.1528Y-9.1614
X14.252Y-6.9094
X14.252Y-7.0079
X14.252Y-12.7559
X14.2528Y-9.1614
X14.3528Y-9.1614
X14.4528Y-9.1614
X14.5528Y-9.1614
X14.5669Y-6.9094
X14.5669Y-7.0079
X14.5669Y-8.5205
X14.5669Y-8.6189
X14.5866Y-7.7362
X14.5866Y-7.8346
X14.6528Y-9.1614
X14.6528Y-12.4803
X14.7528Y-9.1614
X14.7528Y-12.4803
X14.8528Y-9.1614
X14.8528Y-12.4803
X14.8819Y-6.9094
X14.8819Y-7.0079
X14.9528Y-9.1614
X14.9528Y-12.4803
X15.0528Y-9.1614
X15.1528Y-9.1614
X15.2528Y-9.1614
X15.3528Y-9.1614
X15.4528Y-9.1614
T12
X15.5807Y-12.7657
X15.5807Y-12.9429
X15.8366Y-12.7657
X15.8366Y-12.9429
T13
X13.9961Y-3.7402
X14.1929Y-3.7402
X14.3791Y-10.8984
X14.3898Y-3.7402
X14.5866Y-3.7402
X14.6791Y-10.0984
X14.7791Y-10.8984
X14.8791Y-10.0984
X15.1791Y-10.8984
X15.6772Y-7.9331
X15.6772Y-8.1299
X15.6772Y-8.3268
X15.6772Y-8.5236
X15.748Y-12.0079
X15.748Y-12.2047
T14
X13.8386Y-9.2008
X13.8386Y-12.4803
X15.7677Y-9.2008
X15.7677Y-12.4803
T7
G00X15.673Y-9.3759
M15
G01X15.5869Y-9.3759
M16
G05
G00X15.6828Y-8.7086
M15
G01X15.5967Y-8.7086
M16
G05
T11
G00X15.5118Y-9.6161
M15
G01X15.5118Y-9.5177
M16
G05
G00X15.5216Y-8.9488
M15
G01X15.5216Y-8.8504
M16
G05
G00X15.7579Y-9.6141
M15
G01X15.7579Y-9.5157
M16
G05
G00X15.7677Y-8.9468
M15
G01X15.7677Y-8.8484
M16
G05
T0
M30
