M48
; DRILL file {KiCad 7.0.7-7.0.7~ubuntu22.04.1} date 2023年09月11日 21時22分18秒
; FORMAT={-:-/ absolute / inch / decimal}
; #@! TF.CreationDate,2023-09-11T21:22:18+09:00
; #@! TF.GenerationSoftware,Kicad,Pcbnew,7.0.7-7.0.7~ubuntu22.04.1
; #@! TF.FileFunction,NonPlated,1,2,NPTH
FMAT,2
INCH
; #@! TA.AperFunction,NonPlated,NPTH,ComponentDrill
T1C0.0472
; #@! TA.AperFunction,NonPlated,NPTH,ComponentDrill
T2C0.1260
; #@! TA.AperFunction,NonPlated,NPTH,ComponentDrill
T3C0.1693
; #@! TA.AperFunction,NonPlated,NPTH,ComponentDrill
T4C0.1969
; #@! TA.AperFunction,NonPlated,NPTH,ComponentDrill
T5C0.5118
%
G90
G05
T1
X9.1437Y-11.0138
X9.2756Y-8.3071
X13.3504Y-6.6142
X13.3996Y-8.0315
X13.4685Y-10.9252
X13.7441Y-6.6142
X14.1378Y-6.6142
X14.5315Y-6.6142
X14.5315Y-13.0709
X14.5374Y-13.4646
X14.5413Y-12.2835
X14.5413Y-12.6772
T2
X8.937Y-14.685
X8.9441Y-10.6409
X8.9441Y-12.2157
X8.9567Y-3.5433
X9.9283Y-10.6409
X9.9283Y-12.2157
X10.7874Y-9.1673
X10.7972Y-8.8031
X10.9126Y-10.6409
X10.9126Y-12.2157
X11.3063Y-10.6409
X11.3063Y-12.2157
X11.3386Y-9.1673
X11.3484Y-8.8031
X12.2906Y-10.6409
X12.2906Y-12.2157
X13.2748Y-10.6409
X13.2748Y-12.2157
X14.4094Y-3.5433
X14.4094Y-14.6654
T3
X13.3071Y-3.5433
X14.0551Y-5.8268
T4
X9.5472Y-3.6299
X9.5472Y-4.2126
X9.5598Y-7.4654
X9.5598Y-8.048
X9.9213Y-3.6299
X9.9213Y-4.2126
X9.9339Y-7.4654
X9.9339Y-8.048
X10.4134Y-3.6299
X10.4134Y-4.2126
X10.7874Y-3.6299
X10.7874Y-4.2126
X11.2795Y-3.6299
X11.2795Y-4.2126
X11.6535Y-3.6299
X11.6535Y-4.2126
X12.0205Y-7.4654
X12.0205Y-8.048
X12.1457Y-3.6299
X12.1457Y-4.2126
X12.3945Y-7.4654
X12.3945Y-8.048
X12.5197Y-3.6299
X12.5197Y-4.2126
T5
X13.1102Y-11.6929
T0
M30
