M48
; DRILL file {KiCad 7.0.7-7.0.7~ubuntu22.04.1} date 2023年09月11日 21時22分18秒
; FORMAT={-:-/ absolute / inch / decimal}
; #@! TF.CreationDate,2023-09-11T21:22:18+09:00
; #@! TF.GenerationSoftware,Kicad,Pcbnew,7.0.7-7.0.7~ubuntu22.04.1
; #@! TF.FileFunction,Plated,1,2,PTH
FMAT,2
INCH
; #@! TA.AperFunction,Plated,PTH,ViaDrill
T1C0.0118
; #@! TA.AperFunction,Plated,PTH,ViaDrill
T2C0.0157
; #@! TA.AperFunction,Plated,PTH,ViaDrill
T3C0.0276
; #@! TA.AperFunction,Plated,PTH,ComponentDrill
T4C0.0295
; #@! TA.AperFunction,Plated,PTH,ComponentDrill
T5C0.0300
; #@! TA.AperFunction,Plated,PTH,ComponentDrill
T6C0.0315
; #@! TA.AperFunction,Plated,PTH,ComponentDrill
T7C0.0320
; #@! TA.AperFunction,Plated,PTH,ComponentDrill
T8C0.0354
; #@! TA.AperFunction,Plated,PTH,ComponentDrill
T9C0.0374
; #@! TA.AperFunction,Plated,PTH,ComponentDrill
T10C0.0394
; #@! TA.AperFunction,Plated,PTH,ComponentDrill
T11C0.0394
; #@! TA.AperFunction,Plated,PTH,ComponentDrill
T12C0.0433
; #@! TA.AperFunction,Plated,PTH,ComponentDrill
T13C0.0512
; #@! TA.AperFunction,Plated,PTH,ComponentDrill
T14C0.0520
; #@! TA.AperFunction,Plated,PTH,ComponentDrill
T15C0.1063
%
G90
G05
T1
X13.4665Y-12.0827
X13.4673Y-12.0551
X13.482Y-12.1105
X13.7953Y-11.7106
X13.9616Y-12.0202
X14.0972Y-11.7518
X14.1053Y-12.8287
X14.1388Y-13.6476
T2
X11.7607Y-13.8101
X13.5717Y-12.1981
X13.7643Y-12.8932
X13.7971Y-13.3959
X13.7982Y-12.7351
X13.8686Y-12.3732
X14.1229Y-12.3337
T3
X9.3209Y-8.8484
X11.0965Y-14.1801
X11.3278Y-13.9774
X11.7894Y-13.5138
X12.1309Y-14.5719
X12.565Y-14.5591
X12.7579Y-13.5768
X12.7633Y-14.1147
X12.7894Y-13.7717
X12.7954Y-13.9743
X12.9783Y-12.9016
X12.9941Y-8.1053
X13.0157Y-14.3878
X13.0236Y-8.5256
X13.0394Y-9.5118
X13.0787Y-12.1024
X13.0866Y-11.0433
X13.0994Y-10.4026
X13.1053Y-9.8081
X13.1423Y-9.9181
X13.1693Y-13.7057
X13.314Y-9.0984
X13.4055Y-8.9469
X13.4547Y-12.8268
X13.4764Y-13.0325
X13.5217Y-13.5246
X13.5669Y-10.8435
X13.689Y-12.752
X13.7185Y-12.2047
X13.7913Y-12.2569
X13.8583Y-8.0839
X13.876Y-8.8346
X13.876Y-9.1526
X13.9055Y-12.9065
X13.9213Y-8.9773
X13.9232Y-9.0913
X13.9598Y-13.5335
X13.999Y-13.8179
X14.002Y-12.8248
X14.062Y-7.9459
X14.1535Y-7.1014
X14.4262Y-10.7343
X14.4331Y-11.3346
X14.4409Y-10.438
X14.4429Y-12.1467
X14.4449Y-11.6348
X14.4459Y-11.0325
X14.4459Y-11.9449
X14.4961Y-11.4439
X14.497Y-10.2156
X14.5Y-11.128
X14.5Y-12.064
X14.502Y-7.7933
X14.502Y-8.3927
X14.503Y-9.2677
X14.5079Y-9.6024
X14.5079Y-10.5689
X14.5118Y-8.689
X14.5246Y-5.3583
X14.5413Y-7.0925
T4
X13.1791Y-13.5039
X13.2579Y-13.5039
X13.3071Y-14.2126
X13.3366Y-13.5039
X13.3858Y-14.2126
X13.4154Y-13.5039
X13.4646Y-14.2126
X13.5433Y-14.2126
T5
X14.252Y-14.3504
X14.3307Y-14.3504
X14.4094Y-14.3504
X14.4882Y-14.3504
T6
X10.6161Y-13.5402
X10.6791Y-13.4154
X10.6791Y-13.5138
X10.7421Y-13.3889
X11.122Y-13.5433
X11.185Y-13.4185
X11.185Y-13.5169
X11.248Y-13.3921
X11.6398Y-13.55
X11.7028Y-13.4252
X11.7028Y-13.5236
X11.7657Y-13.3988
T8
X8.937Y-11.3173
X8.937Y-11.4173
X9.0591Y-8.6063
X9.0591Y-8.7063
X13.1811Y-6.9148
X13.1811Y-7.0148
X13.2165Y-8.3189
X13.2165Y-8.4189
X13.2677Y-11.1598
X13.2677Y-11.2598
X13.5866Y-6.9187
X13.5866Y-7.0187
X13.6614Y-7.6858
X13.6614Y-7.7858
X13.6614Y-7.8858
X13.6614Y-7.9858
X13.6614Y-8.0858
X13.6614Y-8.1858
X13.6614Y-8.2858
X13.6614Y-8.3858
X13.6614Y-8.5913
X13.6614Y-8.6913
X13.6614Y-8.7913
X13.6614Y-8.8913
X13.6614Y-8.9913
X13.6614Y-9.0913
X13.6614Y-9.1913
X13.6614Y-9.2913
X13.6614Y-9.5181
X13.6614Y-9.6181
X13.6614Y-9.7181
X13.6614Y-9.8181
X13.6614Y-9.9181
X13.6614Y-10.0181
X13.6614Y-10.1181
X13.6614Y-10.2181
X13.6614Y-10.4331
X13.6614Y-10.5331
X13.6614Y-10.6331
X13.6614Y-10.7331
X13.6614Y-10.8331
X13.6614Y-10.9331
X13.6614Y-11.0331
X13.6614Y-11.1331
X13.6614Y-11.3386
X13.6614Y-11.4386
X13.6614Y-11.5386
X13.6614Y-11.6386
X13.6614Y-11.7386
X13.6614Y-11.8386
X13.6614Y-11.9386
X13.6614Y-12.0386
X13.9764Y-6.9276
X13.9764Y-7.0276
X14.2614Y-7.6858
X14.2614Y-7.7858
X14.2614Y-7.8858
X14.2614Y-7.9858
X14.2614Y-8.0858
X14.2614Y-8.1858
X14.2614Y-8.2858
X14.2614Y-8.3858
X14.2614Y-8.5913
X14.2614Y-8.6913
X14.2614Y-8.7913
X14.2614Y-8.8913
X14.2614Y-8.9913
X14.2614Y-9.0913
X14.2614Y-9.1913
X14.2614Y-9.2913
X14.2614Y-9.5181
X14.2614Y-9.6181
X14.2614Y-9.7181
X14.2614Y-9.8181
X14.2614Y-9.9181
X14.2614Y-10.0181
X14.2614Y-10.1181
X14.2614Y-10.2181
X14.2614Y-10.4331
X14.2614Y-10.5331
X14.2614Y-10.6331
X14.2614Y-10.7331
X14.2614Y-10.8331
X14.2614Y-10.9331
X14.2614Y-11.0331
X14.2614Y-11.1331
X14.2614Y-11.3386
X14.2614Y-11.4386
X14.2614Y-11.5386
X14.2614Y-11.6386
X14.2614Y-11.7386
X14.2614Y-11.8386
X14.2614Y-11.9386
X14.2614Y-12.0386
X14.3504Y-6.9276
X14.3504Y-7.0276
X14.3661Y-5.1988
X14.3661Y-5.2988
X14.3661Y-5.773
X14.3661Y-5.873
T9
X12.874Y-13.2283
X12.874Y-13.3283
X12.874Y-13.4283
X12.874Y-13.5283
X12.874Y-13.6283
X12.874Y-13.7283
X12.874Y-13.8283
X12.874Y-13.9283
X12.874Y-14.0283
X12.874Y-14.1283
X12.874Y-14.2283
X12.874Y-14.3283
X12.874Y-14.4283
X12.874Y-14.5283
X12.874Y-14.6283
X13.874Y-13.2283
X13.874Y-13.3283
X13.874Y-13.4283
X13.874Y-13.5283
X13.874Y-13.6283
X13.874Y-13.7283
X13.874Y-13.8283
X13.874Y-13.9283
X13.874Y-14.0283
X13.874Y-14.1283
X13.874Y-14.2283
X13.874Y-14.3283
X13.874Y-14.4283
X13.874Y-14.5283
X13.874Y-14.6283
X14.1732Y-13.1496
X14.1791Y-13.5433
X14.1831Y-12.3622
X14.1831Y-12.7559
X14.2717Y-13.1496
X14.2776Y-13.5433
X14.2815Y-12.3622
X14.2815Y-12.7559
X14.3701Y-13.1496
X14.376Y-13.5433
X14.3799Y-12.3622
X14.3799Y-12.7559
X14.4685Y-13.1496
X14.4744Y-13.5433
X14.4783Y-12.3622
X14.4783Y-12.7559
T10
X8.9823Y-11.0925
X9.0551Y-13.2283
X9.0551Y-13.5276
X9.0807Y-11.0925
X9.1142Y-8.3858
X9.2126Y-8.3858
X9.3307Y-13.5827
X9.3307Y-13.6827
X9.3307Y-13.7827
X9.3307Y-13.8827
X12.6496Y-13.0827
X12.6496Y-13.1827
X12.6496Y-13.2827
X12.6496Y-13.3827
X12.6496Y-13.4827
X12.6496Y-13.5827
X12.6496Y-13.6827
X12.6496Y-13.7827
X12.6496Y-13.8827
X12.6496Y-13.9827
X12.6496Y-14.0827
X12.6496Y-14.1827
X12.6496Y-14.2827
X12.6496Y-14.3827
X13.189Y-6.6929
X13.2382Y-8.1102
X13.2874Y-6.6929
X13.3071Y-11.0039
X13.3366Y-8.1102
X13.4055Y-11.0039
X13.5827Y-6.6929
X13.6811Y-6.6929
X13.9764Y-6.6929
X14.0748Y-6.6929
X14.3701Y-6.6929
X14.4685Y-6.6929
T12
X8.878Y-13.9173
X8.878Y-14.1732
X9.0551Y-13.9173
X9.0551Y-14.1732
T13
X9.7244Y-14.5276
X9.9213Y-14.5276
X10.1181Y-14.5276
X10.315Y-14.5276
X14.4134Y-4.3287
X14.4134Y-4.5256
X14.4134Y-4.7224
X14.4134Y-4.9193
T14
X14.311Y-13.8281
X14.311Y-14.025
T15
X9.3307Y-12.7685
X9.3307Y-14.6976
X12.6102Y-12.7685
X12.6102Y-14.6976
T7
G00X10.9764Y-14.5607
M15
G01X10.9764Y-14.4746
M16
G05
G00X11.7244Y-14.5607
M15
G01X11.7244Y-14.4746
M16
G05
T11
G00X10.7362Y-14.3996
M15
G01X10.8346Y-14.3996
M16
G05
G00X10.7382Y-14.6457
M15
G01X10.8366Y-14.6457
M16
G05
G00X11.4842Y-14.3996
M15
G01X11.5826Y-14.3996
M16
G05
G00X11.4862Y-14.6457
M15
G01X11.5846Y-14.6457
M16
G05
T0
M30
