M48
; DRILL file {KiCad 7.0.0-da2b9df05c~163~ubuntu22.04.1} date 2023年05月10日 13時35分41秒
; FORMAT={-:-/ absolute / inch / decimal}
; #@! TF.CreationDate,2023-05-10T13:35:41+09:00
; #@! TF.GenerationSoftware,Kicad,Pcbnew,7.0.0-da2b9df05c~163~ubuntu22.04.1
; #@! TF.FileFunction,Plated,1,2,PTH
FMAT,2
INCH
; #@! TA.AperFunction,Plated,PTH,ViaDrill
T1C0.0276
; #@! TA.AperFunction,Plated,PTH,ComponentDrill
T2C0.0295
; #@! TA.AperFunction,Plated,PTH,ComponentDrill
T3C0.0354
; #@! TA.AperFunction,Plated,PTH,ComponentDrill
T4C0.0374
; #@! TA.AperFunction,Plated,PTH,ComponentDrill
T5C0.0394
; #@! TA.AperFunction,Plated,PTH,ComponentDrill
T6C0.0433
; #@! TA.AperFunction,Plated,PTH,ComponentDrill
T7C0.0472
; #@! TA.AperFunction,Plated,PTH,ComponentDrill
T8C0.0520
; #@! TA.AperFunction,Plated,PTH,ComponentDrill
T9C0.0591
%
G90
G05
T1
X6.9362Y-4.0283
X7.7827Y-4.422
X7.8614Y-4.7173
X8.0386Y-4.678
T2
X8.3929Y-4.676
X8.4717Y-4.676
X8.5504Y-4.676
X8.6291Y-4.676
X9.1803Y-4.676
X9.2591Y-4.676
X9.3378Y-4.676
X9.4165Y-4.676
T3
X9.3559Y-5.1701
X9.4559Y-5.1701
T4
X8.9047Y-5.8551
X8.9047Y-5.9535
X8.9047Y-6.052
X8.9047Y-6.1504
T5
X6.9165Y-1.7055
X6.9165Y-6.1228
X7.015Y-1.7055
X7.015Y-6.1228
T6
X6.4638Y-4.0874
X6.4638Y-4.1874
X6.4736Y-3.702
X6.4736Y-3.802
X9.3181Y-5.9181
X9.3181Y-6.0953
X9.574Y-5.9181
X9.574Y-6.0953
T7
X8.2157Y-5.9575
X8.4126Y-5.9575
X8.6094Y-5.9575
T8
X8.7669Y-5.1504
X8.7669Y-5.3472
T9
X6.7394Y-3.6102
X6.7394Y-3.7102
X6.7394Y-3.8102
X6.7394Y-3.9102
X6.7394Y-4.0102
X6.7394Y-4.1102
X6.7394Y-4.2102
X6.7394Y-4.3102
X7.3394Y-3.6102
X7.3394Y-3.7102
X7.3394Y-3.8102
X7.3394Y-3.9102
X7.3394Y-4.0102
X7.3394Y-4.1102
X7.3394Y-4.2102
X7.3394Y-4.3102
T0
M30
