G04 #@! TF.GenerationSoftware,KiCad,Pcbnew,7.0.7-7.0.7~ubuntu22.04.1*
G04 #@! TF.CreationDate,2023-09-11T21:22:20+09:00*
G04 #@! TF.ProjectId,QuinoaChipPlant,5175696e-6f61-4436-9869-70506c616e74,rev?*
G04 #@! TF.SameCoordinates,Original*
G04 #@! TF.FileFunction,Paste,Top*
G04 #@! TF.FilePolarity,Positive*
%FSLAX46Y46*%
G04 Gerber Fmt 4.6, Leading zero omitted, Abs format (unit mm)*
G04 Created by KiCad (PCBNEW 7.0.7-7.0.7~ubuntu22.04.1) date 2023-09-11 21:22:20*
%MOMM*%
%LPD*%
G01*
G04 APERTURE LIST*
G04 Aperture macros list*
%AMRoundRect*
0 Rectangle with rounded corners*
0 $1 Rounding radius*
0 $2 $3 $4 $5 $6 $7 $8 $9 X,Y pos of 4 corners*
0 Add a 4 corners polygon primitive as box body*
4,1,4,$2,$3,$4,$5,$6,$7,$8,$9,$2,$3,0*
0 Add four circle primitives for the rounded corners*
1,1,$1+$1,$2,$3*
1,1,$1+$1,$4,$5*
1,1,$1+$1,$6,$7*
1,1,$1+$1,$8,$9*
0 Add four rect primitives between the rounded corners*
20,1,$1+$1,$2,$3,$4,$5,0*
20,1,$1+$1,$4,$5,$6,$7,0*
20,1,$1+$1,$6,$7,$8,$9,0*
20,1,$1+$1,$8,$9,$2,$3,0*%
G04 Aperture macros list end*
%ADD10RoundRect,0.225000X0.375000X-0.225000X0.375000X0.225000X-0.375000X0.225000X-0.375000X-0.225000X0*%
%ADD11RoundRect,0.250000X0.400000X0.625000X-0.400000X0.625000X-0.400000X-0.625000X0.400000X-0.625000X0*%
%ADD12RoundRect,0.250000X-0.400000X-0.625000X0.400000X-0.625000X0.400000X0.625000X-0.400000X0.625000X0*%
%ADD13RoundRect,0.250000X-0.412500X-0.650000X0.412500X-0.650000X0.412500X0.650000X-0.412500X0.650000X0*%
%ADD14RoundRect,0.250000X0.412500X0.650000X-0.412500X0.650000X-0.412500X-0.650000X0.412500X-0.650000X0*%
G04 APERTURE END LIST*
D10*
X369300000Y-149400000D03*
X369300000Y-146100000D03*
D11*
X354100000Y-309500000D03*
X351000000Y-309500000D03*
D12*
X346200000Y-181975000D03*
X349300000Y-181975000D03*
D10*
X338925000Y-178600000D03*
X338925000Y-175300000D03*
D12*
X346000000Y-309500000D03*
X342900000Y-309500000D03*
D13*
X297125000Y-350500000D03*
X300250000Y-350500000D03*
D11*
X343500000Y-274000000D03*
X340400000Y-274000000D03*
D12*
X335400000Y-181975000D03*
X338500000Y-181975000D03*
D13*
X283187500Y-350500000D03*
X286312500Y-350500000D03*
D12*
X348000000Y-163500000D03*
X344900000Y-163500000D03*
D10*
X369000000Y-135000000D03*
X369000000Y-131700000D03*
X342000000Y-283200000D03*
X342000000Y-286500000D03*
D12*
X231400000Y-225000000D03*
X234500000Y-225000000D03*
D11*
X354100000Y-317500000D03*
X351000000Y-317500000D03*
D12*
X335900000Y-218500000D03*
X339000000Y-218500000D03*
D14*
X279312500Y-350500000D03*
X276187500Y-350500000D03*
D12*
X334800000Y-163275000D03*
X337900000Y-163275000D03*
D11*
X293000000Y-350500000D03*
X289900000Y-350500000D03*
D10*
X350100000Y-178575000D03*
X350100000Y-175275000D03*
D12*
X231150000Y-274500000D03*
X234250000Y-274500000D03*
X343000000Y-321250000D03*
X346100000Y-321250000D03*
X355000000Y-182500000D03*
X358100000Y-182500000D03*
D10*
X369250000Y-178650000D03*
X369250000Y-175350000D03*
D11*
X354050000Y-313500000D03*
X350950000Y-313500000D03*
D10*
X232000000Y-290500000D03*
X232000000Y-287200000D03*
D12*
X343000000Y-317250000D03*
X346100000Y-317250000D03*
X365250000Y-142800000D03*
X368350000Y-142800000D03*
D10*
X340200000Y-214200000D03*
X340200000Y-210900000D03*
X359500000Y-178750000D03*
X359500000Y-175450000D03*
D12*
X365300000Y-129250000D03*
X368400000Y-129250000D03*
D10*
X236000000Y-221500000D03*
X236000000Y-218200000D03*
D12*
X350900000Y-321500000D03*
X354000000Y-321500000D03*
X340000000Y-289000000D03*
X343100000Y-289000000D03*
X227000000Y-294000000D03*
X230100000Y-294000000D03*
X342900000Y-313500000D03*
X346000000Y-313500000D03*
X355000000Y-163500000D03*
X358100000Y-163500000D03*
X349400000Y-326000000D03*
X352500000Y-326000000D03*
X365400000Y-153000000D03*
X368500000Y-153000000D03*
X364950000Y-163250000D03*
X368050000Y-163250000D03*
X365400000Y-138000000D03*
X368500000Y-138000000D03*
X231200000Y-206200000D03*
X234300000Y-206200000D03*
X364400000Y-182500000D03*
X367500000Y-182500000D03*
X336000000Y-199900000D03*
X339100000Y-199900000D03*
M02*
