G04 #@! TF.GenerationSoftware,KiCad,Pcbnew,5.1.2-f72e74a~84~ubuntu18.04.1*
G04 #@! TF.CreationDate,2019-08-23T19:05:58+08:00*
G04 #@! TF.ProjectId,handyfan,68616e64-7966-4616-9e2e-6b696361645f,rev?*
G04 #@! TF.SameCoordinates,Original*
G04 #@! TF.FileFunction,Soldermask,Bot*
G04 #@! TF.FilePolarity,Negative*
%FSLAX46Y46*%
G04 Gerber Fmt 4.6, Leading zero omitted, Abs format (unit mm)*
G04 Created by KiCad (PCBNEW 5.1.2-f72e74a~84~ubuntu18.04.1) date 2019-08-23 19:05:58*
%MOMM*%
%LPD*%
G04 APERTURE LIST*
%ADD10C,0.100000*%
G04 APERTURE END LIST*
D10*
G36*
X107834794Y-152620155D02*
G01*
X107941150Y-152641311D01*
X108141520Y-152724307D01*
X108321844Y-152844795D01*
X108475205Y-152998156D01*
X108595693Y-153178480D01*
X108678689Y-153378851D01*
X108721000Y-153591560D01*
X108721000Y-153808440D01*
X108678689Y-154021149D01*
X108595693Y-154221520D01*
X108475205Y-154401844D01*
X108321844Y-154555205D01*
X108141520Y-154675693D01*
X108041334Y-154717191D01*
X107941150Y-154758689D01*
X107834795Y-154779844D01*
X107728440Y-154801000D01*
X107511560Y-154801000D01*
X107405205Y-154779844D01*
X107298850Y-154758689D01*
X107198666Y-154717191D01*
X107098480Y-154675693D01*
X106918156Y-154555205D01*
X106764795Y-154401844D01*
X106644307Y-154221520D01*
X106561311Y-154021149D01*
X106519000Y-153808440D01*
X106519000Y-153591560D01*
X106561311Y-153378851D01*
X106644307Y-153178480D01*
X106764795Y-152998156D01*
X106918156Y-152844795D01*
X107098480Y-152724307D01*
X107298850Y-152641311D01*
X107405206Y-152620155D01*
X107511560Y-152599000D01*
X107728440Y-152599000D01*
X107834794Y-152620155D01*
X107834794Y-152620155D01*
G37*
G36*
X92594794Y-152620155D02*
G01*
X92701150Y-152641311D01*
X92901520Y-152724307D01*
X93081844Y-152844795D01*
X93235205Y-152998156D01*
X93355693Y-153178480D01*
X93438689Y-153378851D01*
X93481000Y-153591560D01*
X93481000Y-153808440D01*
X93438689Y-154021149D01*
X93355693Y-154221520D01*
X93235205Y-154401844D01*
X93081844Y-154555205D01*
X92901520Y-154675693D01*
X92801334Y-154717191D01*
X92701150Y-154758689D01*
X92594795Y-154779844D01*
X92488440Y-154801000D01*
X92271560Y-154801000D01*
X92165205Y-154779844D01*
X92058850Y-154758689D01*
X91958666Y-154717191D01*
X91858480Y-154675693D01*
X91678156Y-154555205D01*
X91524795Y-154401844D01*
X91404307Y-154221520D01*
X91321311Y-154021149D01*
X91279000Y-153808440D01*
X91279000Y-153591560D01*
X91321311Y-153378851D01*
X91404307Y-153178480D01*
X91524795Y-152998156D01*
X91678156Y-152844795D01*
X91858480Y-152724307D01*
X92058850Y-152641311D01*
X92165206Y-152620155D01*
X92271560Y-152599000D01*
X92488440Y-152599000D01*
X92594794Y-152620155D01*
X92594794Y-152620155D01*
G37*
G36*
X107834795Y-150080156D02*
G01*
X107941150Y-150101311D01*
X108141520Y-150184307D01*
X108321844Y-150304795D01*
X108475205Y-150458156D01*
X108595693Y-150638480D01*
X108678689Y-150838851D01*
X108721000Y-151051560D01*
X108721000Y-151268440D01*
X108678689Y-151481149D01*
X108595693Y-151681520D01*
X108475205Y-151861844D01*
X108321844Y-152015205D01*
X108141520Y-152135693D01*
X108041334Y-152177191D01*
X107941150Y-152218689D01*
X107834794Y-152239845D01*
X107728440Y-152261000D01*
X107511560Y-152261000D01*
X107405206Y-152239845D01*
X107298850Y-152218689D01*
X107198666Y-152177191D01*
X107098480Y-152135693D01*
X106918156Y-152015205D01*
X106764795Y-151861844D01*
X106644307Y-151681520D01*
X106561311Y-151481149D01*
X106519000Y-151268440D01*
X106519000Y-151051560D01*
X106561311Y-150838851D01*
X106644307Y-150638480D01*
X106764795Y-150458156D01*
X106918156Y-150304795D01*
X107098480Y-150184307D01*
X107298850Y-150101311D01*
X107405205Y-150080156D01*
X107511560Y-150059000D01*
X107728440Y-150059000D01*
X107834795Y-150080156D01*
X107834795Y-150080156D01*
G37*
G36*
X92594795Y-150080156D02*
G01*
X92701150Y-150101311D01*
X92901520Y-150184307D01*
X93081844Y-150304795D01*
X93235205Y-150458156D01*
X93355693Y-150638480D01*
X93438689Y-150838851D01*
X93481000Y-151051560D01*
X93481000Y-151268440D01*
X93438689Y-151481149D01*
X93355693Y-151681520D01*
X93235205Y-151861844D01*
X93081844Y-152015205D01*
X92901520Y-152135693D01*
X92801334Y-152177191D01*
X92701150Y-152218689D01*
X92594794Y-152239845D01*
X92488440Y-152261000D01*
X92271560Y-152261000D01*
X92165206Y-152239845D01*
X92058850Y-152218689D01*
X91958666Y-152177191D01*
X91858480Y-152135693D01*
X91678156Y-152015205D01*
X91524795Y-151861844D01*
X91404307Y-151681520D01*
X91321311Y-151481149D01*
X91279000Y-151268440D01*
X91279000Y-151051560D01*
X91321311Y-150838851D01*
X91404307Y-150638480D01*
X91524795Y-150458156D01*
X91678156Y-150304795D01*
X91858480Y-150184307D01*
X92058850Y-150101311D01*
X92165205Y-150080156D01*
X92271560Y-150059000D01*
X92488440Y-150059000D01*
X92594795Y-150080156D01*
X92594795Y-150080156D01*
G37*
G36*
X107834795Y-147540156D02*
G01*
X107941150Y-147561311D01*
X108041334Y-147602809D01*
X108141520Y-147644307D01*
X108321844Y-147764795D01*
X108475205Y-147918156D01*
X108595693Y-148098480D01*
X108678689Y-148298851D01*
X108721000Y-148511560D01*
X108721000Y-148728440D01*
X108678689Y-148941149D01*
X108595693Y-149141520D01*
X108475205Y-149321844D01*
X108321844Y-149475205D01*
X108141520Y-149595693D01*
X107941150Y-149678689D01*
X107834794Y-149699845D01*
X107728440Y-149721000D01*
X107511560Y-149721000D01*
X107405206Y-149699845D01*
X107298850Y-149678689D01*
X107098480Y-149595693D01*
X106918156Y-149475205D01*
X106764795Y-149321844D01*
X106644307Y-149141520D01*
X106561311Y-148941149D01*
X106519000Y-148728440D01*
X106519000Y-148511560D01*
X106561311Y-148298851D01*
X106644307Y-148098480D01*
X106764795Y-147918156D01*
X106918156Y-147764795D01*
X107098480Y-147644307D01*
X107198666Y-147602809D01*
X107298850Y-147561311D01*
X107405205Y-147540156D01*
X107511560Y-147519000D01*
X107728440Y-147519000D01*
X107834795Y-147540156D01*
X107834795Y-147540156D01*
G37*
G36*
X92594795Y-147540156D02*
G01*
X92701150Y-147561311D01*
X92801334Y-147602809D01*
X92901520Y-147644307D01*
X93081844Y-147764795D01*
X93235205Y-147918156D01*
X93355693Y-148098480D01*
X93438689Y-148298851D01*
X93481000Y-148511560D01*
X93481000Y-148728440D01*
X93438689Y-148941149D01*
X93355693Y-149141520D01*
X93235205Y-149321844D01*
X93081844Y-149475205D01*
X92901520Y-149595693D01*
X92701150Y-149678689D01*
X92594794Y-149699845D01*
X92488440Y-149721000D01*
X92271560Y-149721000D01*
X92165206Y-149699845D01*
X92058850Y-149678689D01*
X91858480Y-149595693D01*
X91678156Y-149475205D01*
X91524795Y-149321844D01*
X91404307Y-149141520D01*
X91321311Y-148941149D01*
X91279000Y-148728440D01*
X91279000Y-148511560D01*
X91321311Y-148298851D01*
X91404307Y-148098480D01*
X91524795Y-147918156D01*
X91678156Y-147764795D01*
X91858480Y-147644307D01*
X91958666Y-147602809D01*
X92058850Y-147561311D01*
X92165205Y-147540156D01*
X92271560Y-147519000D01*
X92488440Y-147519000D01*
X92594795Y-147540156D01*
X92594795Y-147540156D01*
G37*
G36*
X107834794Y-145000155D02*
G01*
X107941150Y-145021311D01*
X108141520Y-145104307D01*
X108321844Y-145224795D01*
X108475205Y-145378156D01*
X108595693Y-145558480D01*
X108678689Y-145758851D01*
X108721000Y-145971560D01*
X108721000Y-146188440D01*
X108678689Y-146401149D01*
X108595693Y-146601520D01*
X108475205Y-146781844D01*
X108321844Y-146935205D01*
X108141520Y-147055693D01*
X108041334Y-147097191D01*
X107941150Y-147138689D01*
X107834795Y-147159844D01*
X107728440Y-147181000D01*
X107511560Y-147181000D01*
X107405205Y-147159844D01*
X107298850Y-147138689D01*
X107198666Y-147097191D01*
X107098480Y-147055693D01*
X106918156Y-146935205D01*
X106764795Y-146781844D01*
X106644307Y-146601520D01*
X106561311Y-146401149D01*
X106519000Y-146188440D01*
X106519000Y-145971560D01*
X106561311Y-145758851D01*
X106644307Y-145558480D01*
X106764795Y-145378156D01*
X106918156Y-145224795D01*
X107098480Y-145104307D01*
X107298850Y-145021311D01*
X107405206Y-145000155D01*
X107511560Y-144979000D01*
X107728440Y-144979000D01*
X107834794Y-145000155D01*
X107834794Y-145000155D01*
G37*
G36*
X92594794Y-145000155D02*
G01*
X92701150Y-145021311D01*
X92901520Y-145104307D01*
X93081844Y-145224795D01*
X93235205Y-145378156D01*
X93355693Y-145558480D01*
X93438689Y-145758851D01*
X93481000Y-145971560D01*
X93481000Y-146188440D01*
X93438689Y-146401149D01*
X93355693Y-146601520D01*
X93235205Y-146781844D01*
X93081844Y-146935205D01*
X92901520Y-147055693D01*
X92801334Y-147097191D01*
X92701150Y-147138689D01*
X92594795Y-147159844D01*
X92488440Y-147181000D01*
X92271560Y-147181000D01*
X92165205Y-147159844D01*
X92058850Y-147138689D01*
X91958666Y-147097191D01*
X91858480Y-147055693D01*
X91678156Y-146935205D01*
X91524795Y-146781844D01*
X91404307Y-146601520D01*
X91321311Y-146401149D01*
X91279000Y-146188440D01*
X91279000Y-145971560D01*
X91321311Y-145758851D01*
X91404307Y-145558480D01*
X91524795Y-145378156D01*
X91678156Y-145224795D01*
X91858480Y-145104307D01*
X92058850Y-145021311D01*
X92165206Y-145000155D01*
X92271560Y-144979000D01*
X92488440Y-144979000D01*
X92594794Y-145000155D01*
X92594794Y-145000155D01*
G37*
G36*
X92594795Y-142460156D02*
G01*
X92701150Y-142481311D01*
X92801334Y-142522809D01*
X92901520Y-142564307D01*
X93081844Y-142684795D01*
X93235205Y-142838156D01*
X93355693Y-143018480D01*
X93438689Y-143218851D01*
X93481000Y-143431560D01*
X93481000Y-143648440D01*
X93438689Y-143861149D01*
X93355693Y-144061520D01*
X93235205Y-144241844D01*
X93081844Y-144395205D01*
X92901520Y-144515693D01*
X92701150Y-144598689D01*
X92594794Y-144619845D01*
X92488440Y-144641000D01*
X92271560Y-144641000D01*
X92165206Y-144619845D01*
X92058850Y-144598689D01*
X91858480Y-144515693D01*
X91678156Y-144395205D01*
X91524795Y-144241844D01*
X91404307Y-144061520D01*
X91321311Y-143861149D01*
X91279000Y-143648440D01*
X91279000Y-143431560D01*
X91321311Y-143218851D01*
X91404307Y-143018480D01*
X91524795Y-142838156D01*
X91678156Y-142684795D01*
X91858480Y-142564307D01*
X91958666Y-142522809D01*
X92058850Y-142481311D01*
X92165205Y-142460156D01*
X92271560Y-142439000D01*
X92488440Y-142439000D01*
X92594795Y-142460156D01*
X92594795Y-142460156D01*
G37*
G36*
X107834795Y-142460156D02*
G01*
X107941150Y-142481311D01*
X108041334Y-142522809D01*
X108141520Y-142564307D01*
X108321844Y-142684795D01*
X108475205Y-142838156D01*
X108595693Y-143018480D01*
X108678689Y-143218851D01*
X108721000Y-143431560D01*
X108721000Y-143648440D01*
X108678689Y-143861149D01*
X108595693Y-144061520D01*
X108475205Y-144241844D01*
X108321844Y-144395205D01*
X108141520Y-144515693D01*
X107941150Y-144598689D01*
X107834794Y-144619845D01*
X107728440Y-144641000D01*
X107511560Y-144641000D01*
X107405206Y-144619845D01*
X107298850Y-144598689D01*
X107098480Y-144515693D01*
X106918156Y-144395205D01*
X106764795Y-144241844D01*
X106644307Y-144061520D01*
X106561311Y-143861149D01*
X106519000Y-143648440D01*
X106519000Y-143431560D01*
X106561311Y-143218851D01*
X106644307Y-143018480D01*
X106764795Y-142838156D01*
X106918156Y-142684795D01*
X107098480Y-142564307D01*
X107198666Y-142522809D01*
X107298850Y-142481311D01*
X107405205Y-142460156D01*
X107511560Y-142439000D01*
X107728440Y-142439000D01*
X107834795Y-142460156D01*
X107834795Y-142460156D01*
G37*
G36*
X92594795Y-139920156D02*
G01*
X92701150Y-139941311D01*
X92901520Y-140024307D01*
X93081844Y-140144795D01*
X93235205Y-140298156D01*
X93355693Y-140478480D01*
X93438689Y-140678851D01*
X93481000Y-140891560D01*
X93481000Y-141108440D01*
X93438689Y-141321149D01*
X93355693Y-141521520D01*
X93235205Y-141701844D01*
X93081844Y-141855205D01*
X92901520Y-141975693D01*
X92801334Y-142017191D01*
X92701150Y-142058689D01*
X92594795Y-142079844D01*
X92488440Y-142101000D01*
X92271560Y-142101000D01*
X92165205Y-142079844D01*
X92058850Y-142058689D01*
X91958666Y-142017191D01*
X91858480Y-141975693D01*
X91678156Y-141855205D01*
X91524795Y-141701844D01*
X91404307Y-141521520D01*
X91321311Y-141321149D01*
X91279000Y-141108440D01*
X91279000Y-140891560D01*
X91321311Y-140678851D01*
X91404307Y-140478480D01*
X91524795Y-140298156D01*
X91678156Y-140144795D01*
X91858480Y-140024307D01*
X92058850Y-139941311D01*
X92165205Y-139920156D01*
X92271560Y-139899000D01*
X92488440Y-139899000D01*
X92594795Y-139920156D01*
X92594795Y-139920156D01*
G37*
G36*
X107834795Y-139920156D02*
G01*
X107941150Y-139941311D01*
X108141520Y-140024307D01*
X108321844Y-140144795D01*
X108475205Y-140298156D01*
X108595693Y-140478480D01*
X108678689Y-140678851D01*
X108721000Y-140891560D01*
X108721000Y-141108440D01*
X108678689Y-141321149D01*
X108595693Y-141521520D01*
X108475205Y-141701844D01*
X108321844Y-141855205D01*
X108141520Y-141975693D01*
X108041334Y-142017191D01*
X107941150Y-142058689D01*
X107834795Y-142079844D01*
X107728440Y-142101000D01*
X107511560Y-142101000D01*
X107405205Y-142079844D01*
X107298850Y-142058689D01*
X107198666Y-142017191D01*
X107098480Y-141975693D01*
X106918156Y-141855205D01*
X106764795Y-141701844D01*
X106644307Y-141521520D01*
X106561311Y-141321149D01*
X106519000Y-141108440D01*
X106519000Y-140891560D01*
X106561311Y-140678851D01*
X106644307Y-140478480D01*
X106764795Y-140298156D01*
X106918156Y-140144795D01*
X107098480Y-140024307D01*
X107298850Y-139941311D01*
X107405205Y-139920156D01*
X107511560Y-139899000D01*
X107728440Y-139899000D01*
X107834795Y-139920156D01*
X107834795Y-139920156D01*
G37*
G36*
X107834794Y-137380155D02*
G01*
X107941150Y-137401311D01*
X108141520Y-137484307D01*
X108321844Y-137604795D01*
X108475205Y-137758156D01*
X108595693Y-137938480D01*
X108678689Y-138138851D01*
X108721000Y-138351560D01*
X108721000Y-138568440D01*
X108678689Y-138781149D01*
X108595693Y-138981520D01*
X108475205Y-139161844D01*
X108321844Y-139315205D01*
X108141520Y-139435693D01*
X108041334Y-139477191D01*
X107941150Y-139518689D01*
X107834795Y-139539844D01*
X107728440Y-139561000D01*
X107511560Y-139561000D01*
X107405205Y-139539844D01*
X107298850Y-139518689D01*
X107198666Y-139477191D01*
X107098480Y-139435693D01*
X106918156Y-139315205D01*
X106764795Y-139161844D01*
X106644307Y-138981520D01*
X106561311Y-138781149D01*
X106519000Y-138568440D01*
X106519000Y-138351560D01*
X106561311Y-138138851D01*
X106644307Y-137938480D01*
X106764795Y-137758156D01*
X106918156Y-137604795D01*
X107098480Y-137484307D01*
X107298850Y-137401311D01*
X107405206Y-137380155D01*
X107511560Y-137359000D01*
X107728440Y-137359000D01*
X107834794Y-137380155D01*
X107834794Y-137380155D01*
G37*
G36*
X92594794Y-137380155D02*
G01*
X92701150Y-137401311D01*
X92901520Y-137484307D01*
X93081844Y-137604795D01*
X93235205Y-137758156D01*
X93355693Y-137938480D01*
X93438689Y-138138851D01*
X93481000Y-138351560D01*
X93481000Y-138568440D01*
X93438689Y-138781149D01*
X93355693Y-138981520D01*
X93235205Y-139161844D01*
X93081844Y-139315205D01*
X92901520Y-139435693D01*
X92801334Y-139477191D01*
X92701150Y-139518689D01*
X92594795Y-139539844D01*
X92488440Y-139561000D01*
X92271560Y-139561000D01*
X92165205Y-139539844D01*
X92058850Y-139518689D01*
X91958666Y-139477191D01*
X91858480Y-139435693D01*
X91678156Y-139315205D01*
X91524795Y-139161844D01*
X91404307Y-138981520D01*
X91321311Y-138781149D01*
X91279000Y-138568440D01*
X91279000Y-138351560D01*
X91321311Y-138138851D01*
X91404307Y-137938480D01*
X91524795Y-137758156D01*
X91678156Y-137604795D01*
X91858480Y-137484307D01*
X92058850Y-137401311D01*
X92165206Y-137380155D01*
X92271560Y-137359000D01*
X92488440Y-137359000D01*
X92594794Y-137380155D01*
X92594794Y-137380155D01*
G37*
G36*
X107834795Y-134840156D02*
G01*
X107941150Y-134861311D01*
X108141520Y-134944307D01*
X108321844Y-135064795D01*
X108475205Y-135218156D01*
X108595693Y-135398480D01*
X108678689Y-135598851D01*
X108721000Y-135811560D01*
X108721000Y-136028440D01*
X108678689Y-136241149D01*
X108595693Y-136441520D01*
X108475205Y-136621844D01*
X108321844Y-136775205D01*
X108141520Y-136895693D01*
X108041334Y-136937191D01*
X107941150Y-136978689D01*
X107834794Y-136999845D01*
X107728440Y-137021000D01*
X107511560Y-137021000D01*
X107405206Y-136999845D01*
X107298850Y-136978689D01*
X107198666Y-136937191D01*
X107098480Y-136895693D01*
X106918156Y-136775205D01*
X106764795Y-136621844D01*
X106644307Y-136441520D01*
X106561311Y-136241149D01*
X106519000Y-136028440D01*
X106519000Y-135811560D01*
X106561311Y-135598851D01*
X106644307Y-135398480D01*
X106764795Y-135218156D01*
X106918156Y-135064795D01*
X107098480Y-134944307D01*
X107298850Y-134861311D01*
X107405205Y-134840156D01*
X107511560Y-134819000D01*
X107728440Y-134819000D01*
X107834795Y-134840156D01*
X107834795Y-134840156D01*
G37*
G36*
X92594795Y-134840156D02*
G01*
X92701150Y-134861311D01*
X92901520Y-134944307D01*
X93081844Y-135064795D01*
X93235205Y-135218156D01*
X93355693Y-135398480D01*
X93438689Y-135598851D01*
X93481000Y-135811560D01*
X93481000Y-136028440D01*
X93438689Y-136241149D01*
X93355693Y-136441520D01*
X93235205Y-136621844D01*
X93081844Y-136775205D01*
X92901520Y-136895693D01*
X92801334Y-136937191D01*
X92701150Y-136978689D01*
X92594794Y-136999845D01*
X92488440Y-137021000D01*
X92271560Y-137021000D01*
X92165206Y-136999845D01*
X92058850Y-136978689D01*
X91958666Y-136937191D01*
X91858480Y-136895693D01*
X91678156Y-136775205D01*
X91524795Y-136621844D01*
X91404307Y-136441520D01*
X91321311Y-136241149D01*
X91279000Y-136028440D01*
X91279000Y-135811560D01*
X91321311Y-135598851D01*
X91404307Y-135398480D01*
X91524795Y-135218156D01*
X91678156Y-135064795D01*
X91858480Y-134944307D01*
X92058850Y-134861311D01*
X92165205Y-134840156D01*
X92271560Y-134819000D01*
X92488440Y-134819000D01*
X92594795Y-134840156D01*
X92594795Y-134840156D01*
G37*
G36*
X107834795Y-132300156D02*
G01*
X107941150Y-132321311D01*
X108041334Y-132362809D01*
X108141520Y-132404307D01*
X108321844Y-132524795D01*
X108475205Y-132678156D01*
X108595693Y-132858480D01*
X108678689Y-133058851D01*
X108721000Y-133271560D01*
X108721000Y-133488440D01*
X108678689Y-133701149D01*
X108595693Y-133901520D01*
X108475205Y-134081844D01*
X108321844Y-134235205D01*
X108141520Y-134355693D01*
X107941150Y-134438689D01*
X107834795Y-134459844D01*
X107728440Y-134481000D01*
X107511560Y-134481000D01*
X107405205Y-134459844D01*
X107298850Y-134438689D01*
X107098480Y-134355693D01*
X106918156Y-134235205D01*
X106764795Y-134081844D01*
X106644307Y-133901520D01*
X106561311Y-133701149D01*
X106519000Y-133488440D01*
X106519000Y-133271560D01*
X106561311Y-133058851D01*
X106644307Y-132858480D01*
X106764795Y-132678156D01*
X106918156Y-132524795D01*
X107098480Y-132404307D01*
X107198666Y-132362809D01*
X107298850Y-132321311D01*
X107405205Y-132300156D01*
X107511560Y-132279000D01*
X107728440Y-132279000D01*
X107834795Y-132300156D01*
X107834795Y-132300156D01*
G37*
G36*
X92594795Y-132300156D02*
G01*
X92701150Y-132321311D01*
X92801334Y-132362809D01*
X92901520Y-132404307D01*
X93081844Y-132524795D01*
X93235205Y-132678156D01*
X93355693Y-132858480D01*
X93438689Y-133058851D01*
X93481000Y-133271560D01*
X93481000Y-133488440D01*
X93438689Y-133701149D01*
X93355693Y-133901520D01*
X93235205Y-134081844D01*
X93081844Y-134235205D01*
X92901520Y-134355693D01*
X92701150Y-134438689D01*
X92594795Y-134459844D01*
X92488440Y-134481000D01*
X92271560Y-134481000D01*
X92165205Y-134459844D01*
X92058850Y-134438689D01*
X91858480Y-134355693D01*
X91678156Y-134235205D01*
X91524795Y-134081844D01*
X91404307Y-133901520D01*
X91321311Y-133701149D01*
X91279000Y-133488440D01*
X91279000Y-133271560D01*
X91321311Y-133058851D01*
X91404307Y-132858480D01*
X91524795Y-132678156D01*
X91678156Y-132524795D01*
X91858480Y-132404307D01*
X91958666Y-132362809D01*
X92058850Y-132321311D01*
X92165205Y-132300156D01*
X92271560Y-132279000D01*
X92488440Y-132279000D01*
X92594795Y-132300156D01*
X92594795Y-132300156D01*
G37*
G36*
X107834795Y-129760156D02*
G01*
X107941150Y-129781311D01*
X108041334Y-129822809D01*
X108141520Y-129864307D01*
X108321844Y-129984795D01*
X108475205Y-130138156D01*
X108595693Y-130318480D01*
X108678689Y-130518851D01*
X108721000Y-130731560D01*
X108721000Y-130948440D01*
X108678689Y-131161149D01*
X108595693Y-131361520D01*
X108475205Y-131541844D01*
X108321844Y-131695205D01*
X108141520Y-131815693D01*
X107941150Y-131898689D01*
X107834794Y-131919845D01*
X107728440Y-131941000D01*
X107511560Y-131941000D01*
X107405206Y-131919845D01*
X107298850Y-131898689D01*
X107098480Y-131815693D01*
X106918156Y-131695205D01*
X106764795Y-131541844D01*
X106644307Y-131361520D01*
X106561311Y-131161149D01*
X106519000Y-130948440D01*
X106519000Y-130731560D01*
X106561311Y-130518851D01*
X106644307Y-130318480D01*
X106764795Y-130138156D01*
X106918156Y-129984795D01*
X107098480Y-129864307D01*
X107198666Y-129822809D01*
X107298850Y-129781311D01*
X107405205Y-129760156D01*
X107511560Y-129739000D01*
X107728440Y-129739000D01*
X107834795Y-129760156D01*
X107834795Y-129760156D01*
G37*
G36*
X92594795Y-129760156D02*
G01*
X92701150Y-129781311D01*
X92801334Y-129822809D01*
X92901520Y-129864307D01*
X93081844Y-129984795D01*
X93235205Y-130138156D01*
X93355693Y-130318480D01*
X93438689Y-130518851D01*
X93481000Y-130731560D01*
X93481000Y-130948440D01*
X93438689Y-131161149D01*
X93355693Y-131361520D01*
X93235205Y-131541844D01*
X93081844Y-131695205D01*
X92901520Y-131815693D01*
X92701150Y-131898689D01*
X92594794Y-131919845D01*
X92488440Y-131941000D01*
X92271560Y-131941000D01*
X92165206Y-131919845D01*
X92058850Y-131898689D01*
X91858480Y-131815693D01*
X91678156Y-131695205D01*
X91524795Y-131541844D01*
X91404307Y-131361520D01*
X91321311Y-131161149D01*
X91279000Y-130948440D01*
X91279000Y-130731560D01*
X91321311Y-130518851D01*
X91404307Y-130318480D01*
X91524795Y-130138156D01*
X91678156Y-129984795D01*
X91858480Y-129864307D01*
X91958666Y-129822809D01*
X92058850Y-129781311D01*
X92165205Y-129760156D01*
X92271560Y-129739000D01*
X92488440Y-129739000D01*
X92594795Y-129760156D01*
X92594795Y-129760156D01*
G37*
G36*
X107834794Y-127220155D02*
G01*
X107941150Y-127241311D01*
X108141520Y-127324307D01*
X108321844Y-127444795D01*
X108475205Y-127598156D01*
X108595693Y-127778480D01*
X108678689Y-127978851D01*
X108721000Y-128191560D01*
X108721000Y-128408440D01*
X108678689Y-128621149D01*
X108595693Y-128821520D01*
X108475205Y-129001844D01*
X108321844Y-129155205D01*
X108141520Y-129275693D01*
X108041334Y-129317191D01*
X107941150Y-129358689D01*
X107834795Y-129379844D01*
X107728440Y-129401000D01*
X107511560Y-129401000D01*
X107405205Y-129379844D01*
X107298850Y-129358689D01*
X107198666Y-129317191D01*
X107098480Y-129275693D01*
X106918156Y-129155205D01*
X106764795Y-129001844D01*
X106644307Y-128821520D01*
X106561311Y-128621149D01*
X106519000Y-128408440D01*
X106519000Y-128191560D01*
X106561311Y-127978851D01*
X106644307Y-127778480D01*
X106764795Y-127598156D01*
X106918156Y-127444795D01*
X107098480Y-127324307D01*
X107298850Y-127241311D01*
X107405206Y-127220155D01*
X107511560Y-127199000D01*
X107728440Y-127199000D01*
X107834794Y-127220155D01*
X107834794Y-127220155D01*
G37*
G36*
X92594794Y-127220155D02*
G01*
X92701150Y-127241311D01*
X92901520Y-127324307D01*
X93081844Y-127444795D01*
X93235205Y-127598156D01*
X93355693Y-127778480D01*
X93438689Y-127978851D01*
X93481000Y-128191560D01*
X93481000Y-128408440D01*
X93438689Y-128621149D01*
X93355693Y-128821520D01*
X93235205Y-129001844D01*
X93081844Y-129155205D01*
X92901520Y-129275693D01*
X92801334Y-129317191D01*
X92701150Y-129358689D01*
X92594795Y-129379844D01*
X92488440Y-129401000D01*
X92271560Y-129401000D01*
X92165205Y-129379844D01*
X92058850Y-129358689D01*
X91958666Y-129317191D01*
X91858480Y-129275693D01*
X91678156Y-129155205D01*
X91524795Y-129001844D01*
X91404307Y-128821520D01*
X91321311Y-128621149D01*
X91279000Y-128408440D01*
X91279000Y-128191560D01*
X91321311Y-127978851D01*
X91404307Y-127778480D01*
X91524795Y-127598156D01*
X91678156Y-127444795D01*
X91858480Y-127324307D01*
X92058850Y-127241311D01*
X92165206Y-127220155D01*
X92271560Y-127199000D01*
X92488440Y-127199000D01*
X92594794Y-127220155D01*
X92594794Y-127220155D01*
G37*
G36*
X107834794Y-124680155D02*
G01*
X107941150Y-124701311D01*
X108041334Y-124742809D01*
X108141520Y-124784307D01*
X108321844Y-124904795D01*
X108475205Y-125058156D01*
X108595693Y-125238480D01*
X108678689Y-125438851D01*
X108721000Y-125651560D01*
X108721000Y-125868440D01*
X108678689Y-126081149D01*
X108595693Y-126281520D01*
X108475205Y-126461844D01*
X108321844Y-126615205D01*
X108141520Y-126735693D01*
X107941150Y-126818689D01*
X107834795Y-126839844D01*
X107728440Y-126861000D01*
X107511560Y-126861000D01*
X107405205Y-126839844D01*
X107298850Y-126818689D01*
X107098480Y-126735693D01*
X106918156Y-126615205D01*
X106764795Y-126461844D01*
X106644307Y-126281520D01*
X106561311Y-126081149D01*
X106519000Y-125868440D01*
X106519000Y-125651560D01*
X106561311Y-125438851D01*
X106644307Y-125238480D01*
X106764795Y-125058156D01*
X106918156Y-124904795D01*
X107098480Y-124784307D01*
X107198666Y-124742809D01*
X107298850Y-124701311D01*
X107405206Y-124680155D01*
X107511560Y-124659000D01*
X107728440Y-124659000D01*
X107834794Y-124680155D01*
X107834794Y-124680155D01*
G37*
G36*
X92594794Y-124680155D02*
G01*
X92701150Y-124701311D01*
X92801334Y-124742809D01*
X92901520Y-124784307D01*
X93081844Y-124904795D01*
X93235205Y-125058156D01*
X93355693Y-125238480D01*
X93438689Y-125438851D01*
X93481000Y-125651560D01*
X93481000Y-125868440D01*
X93438689Y-126081149D01*
X93355693Y-126281520D01*
X93235205Y-126461844D01*
X93081844Y-126615205D01*
X92901520Y-126735693D01*
X92701150Y-126818689D01*
X92594795Y-126839844D01*
X92488440Y-126861000D01*
X92271560Y-126861000D01*
X92165205Y-126839844D01*
X92058850Y-126818689D01*
X91858480Y-126735693D01*
X91678156Y-126615205D01*
X91524795Y-126461844D01*
X91404307Y-126281520D01*
X91321311Y-126081149D01*
X91279000Y-125868440D01*
X91279000Y-125651560D01*
X91321311Y-125438851D01*
X91404307Y-125238480D01*
X91524795Y-125058156D01*
X91678156Y-124904795D01*
X91858480Y-124784307D01*
X91958666Y-124742809D01*
X92058850Y-124701311D01*
X92165206Y-124680155D01*
X92271560Y-124659000D01*
X92488440Y-124659000D01*
X92594794Y-124680155D01*
X92594794Y-124680155D01*
G37*
G36*
X92483097Y-120844069D02*
G01*
X92586032Y-120854207D01*
X92784146Y-120914305D01*
X92784149Y-120914306D01*
X92880975Y-120966061D01*
X92966729Y-121011897D01*
X93126765Y-121143235D01*
X93258103Y-121303271D01*
X93303939Y-121389025D01*
X93355694Y-121485851D01*
X93355695Y-121485854D01*
X93415793Y-121683968D01*
X93436085Y-121890000D01*
X93415793Y-122096032D01*
X93355695Y-122294146D01*
X93355694Y-122294149D01*
X93303939Y-122390975D01*
X93258103Y-122476729D01*
X93126765Y-122636765D01*
X92966729Y-122768103D01*
X92880975Y-122813939D01*
X92784149Y-122865694D01*
X92784146Y-122865695D01*
X92586032Y-122925793D01*
X92483097Y-122935931D01*
X92431631Y-122941000D01*
X92328369Y-122941000D01*
X92276903Y-122935931D01*
X92173968Y-122925793D01*
X91975854Y-122865695D01*
X91975851Y-122865694D01*
X91879025Y-122813939D01*
X91793271Y-122768103D01*
X91633235Y-122636765D01*
X91501897Y-122476729D01*
X91456061Y-122390975D01*
X91404306Y-122294149D01*
X91404305Y-122294146D01*
X91344207Y-122096032D01*
X91323915Y-121890000D01*
X91344207Y-121683968D01*
X91404305Y-121485854D01*
X91404306Y-121485851D01*
X91456061Y-121389025D01*
X91501897Y-121303271D01*
X91633235Y-121143235D01*
X91793271Y-121011897D01*
X91879025Y-120966061D01*
X91975851Y-120914306D01*
X91975854Y-120914305D01*
X92173968Y-120854207D01*
X92276903Y-120844069D01*
X92328369Y-120839000D01*
X92431631Y-120839000D01*
X92483097Y-120844069D01*
X92483097Y-120844069D01*
G37*
G36*
X107723097Y-120844069D02*
G01*
X107826032Y-120854207D01*
X108024146Y-120914305D01*
X108024149Y-120914306D01*
X108120975Y-120966061D01*
X108206729Y-121011897D01*
X108366765Y-121143235D01*
X108498103Y-121303271D01*
X108543939Y-121389025D01*
X108595694Y-121485851D01*
X108595695Y-121485854D01*
X108655793Y-121683968D01*
X108676085Y-121890000D01*
X108655793Y-122096032D01*
X108595695Y-122294146D01*
X108595694Y-122294149D01*
X108543939Y-122390975D01*
X108498103Y-122476729D01*
X108366765Y-122636765D01*
X108206729Y-122768103D01*
X108120975Y-122813939D01*
X108024149Y-122865694D01*
X108024146Y-122865695D01*
X107826032Y-122925793D01*
X107723097Y-122935931D01*
X107671631Y-122941000D01*
X107568369Y-122941000D01*
X107516903Y-122935931D01*
X107413968Y-122925793D01*
X107215854Y-122865695D01*
X107215851Y-122865694D01*
X107119025Y-122813939D01*
X107033271Y-122768103D01*
X106873235Y-122636765D01*
X106741897Y-122476729D01*
X106696061Y-122390975D01*
X106644306Y-122294149D01*
X106644305Y-122294146D01*
X106584207Y-122096032D01*
X106563915Y-121890000D01*
X106584207Y-121683968D01*
X106644305Y-121485854D01*
X106644306Y-121485851D01*
X106696061Y-121389025D01*
X106741897Y-121303271D01*
X106873235Y-121143235D01*
X107033271Y-121011897D01*
X107119025Y-120966061D01*
X107215851Y-120914306D01*
X107215854Y-120914305D01*
X107413968Y-120854207D01*
X107516903Y-120844069D01*
X107568369Y-120839000D01*
X107671631Y-120839000D01*
X107723097Y-120844069D01*
X107723097Y-120844069D01*
G37*
G36*
X107723097Y-118304069D02*
G01*
X107826032Y-118314207D01*
X108024146Y-118374305D01*
X108024149Y-118374306D01*
X108120975Y-118426061D01*
X108206729Y-118471897D01*
X108366765Y-118603235D01*
X108498103Y-118763271D01*
X108543939Y-118849025D01*
X108595694Y-118945851D01*
X108595695Y-118945854D01*
X108655793Y-119143968D01*
X108676085Y-119350000D01*
X108655793Y-119556032D01*
X108595695Y-119754146D01*
X108595694Y-119754149D01*
X108543939Y-119850975D01*
X108498103Y-119936729D01*
X108366765Y-120096765D01*
X108206729Y-120228103D01*
X108120975Y-120273939D01*
X108024149Y-120325694D01*
X108024146Y-120325695D01*
X107826032Y-120385793D01*
X107723097Y-120395931D01*
X107671631Y-120401000D01*
X107568369Y-120401000D01*
X107516903Y-120395931D01*
X107413968Y-120385793D01*
X107215854Y-120325695D01*
X107215851Y-120325694D01*
X107119025Y-120273939D01*
X107033271Y-120228103D01*
X106873235Y-120096765D01*
X106741897Y-119936729D01*
X106696061Y-119850975D01*
X106644306Y-119754149D01*
X106644305Y-119754146D01*
X106584207Y-119556032D01*
X106563915Y-119350000D01*
X106584207Y-119143968D01*
X106644305Y-118945854D01*
X106644306Y-118945851D01*
X106696061Y-118849025D01*
X106741897Y-118763271D01*
X106873235Y-118603235D01*
X107033271Y-118471897D01*
X107119025Y-118426061D01*
X107215851Y-118374306D01*
X107215854Y-118374305D01*
X107413968Y-118314207D01*
X107516903Y-118304069D01*
X107568369Y-118299000D01*
X107671631Y-118299000D01*
X107723097Y-118304069D01*
X107723097Y-118304069D01*
G37*
G36*
X92483097Y-118304069D02*
G01*
X92586032Y-118314207D01*
X92784146Y-118374305D01*
X92784149Y-118374306D01*
X92880975Y-118426061D01*
X92966729Y-118471897D01*
X93126765Y-118603235D01*
X93258103Y-118763271D01*
X93303939Y-118849025D01*
X93355694Y-118945851D01*
X93355695Y-118945854D01*
X93415793Y-119143968D01*
X93436085Y-119350000D01*
X93415793Y-119556032D01*
X93355695Y-119754146D01*
X93355694Y-119754149D01*
X93303939Y-119850975D01*
X93258103Y-119936729D01*
X93126765Y-120096765D01*
X92966729Y-120228103D01*
X92880975Y-120273939D01*
X92784149Y-120325694D01*
X92784146Y-120325695D01*
X92586032Y-120385793D01*
X92483097Y-120395931D01*
X92431631Y-120401000D01*
X92328369Y-120401000D01*
X92276903Y-120395931D01*
X92173968Y-120385793D01*
X91975854Y-120325695D01*
X91975851Y-120325694D01*
X91879025Y-120273939D01*
X91793271Y-120228103D01*
X91633235Y-120096765D01*
X91501897Y-119936729D01*
X91456061Y-119850975D01*
X91404306Y-119754149D01*
X91404305Y-119754146D01*
X91344207Y-119556032D01*
X91323915Y-119350000D01*
X91344207Y-119143968D01*
X91404305Y-118945854D01*
X91404306Y-118945851D01*
X91456061Y-118849025D01*
X91501897Y-118763271D01*
X91633235Y-118603235D01*
X91793271Y-118471897D01*
X91879025Y-118426061D01*
X91975851Y-118374306D01*
X91975854Y-118374305D01*
X92173968Y-118314207D01*
X92276903Y-118304069D01*
X92328369Y-118299000D01*
X92431631Y-118299000D01*
X92483097Y-118304069D01*
X92483097Y-118304069D01*
G37*
G36*
X92483097Y-115764069D02*
G01*
X92586032Y-115774207D01*
X92784146Y-115834305D01*
X92784149Y-115834306D01*
X92880975Y-115886061D01*
X92966729Y-115931897D01*
X93126765Y-116063235D01*
X93258103Y-116223271D01*
X93303939Y-116309025D01*
X93355694Y-116405851D01*
X93355695Y-116405854D01*
X93415793Y-116603968D01*
X93436085Y-116810000D01*
X93415793Y-117016032D01*
X93355695Y-117214146D01*
X93355694Y-117214149D01*
X93303939Y-117310975D01*
X93258103Y-117396729D01*
X93126765Y-117556765D01*
X92966729Y-117688103D01*
X92880975Y-117733939D01*
X92784149Y-117785694D01*
X92784146Y-117785695D01*
X92586032Y-117845793D01*
X92483097Y-117855931D01*
X92431631Y-117861000D01*
X92328369Y-117861000D01*
X92276903Y-117855931D01*
X92173968Y-117845793D01*
X91975854Y-117785695D01*
X91975851Y-117785694D01*
X91879025Y-117733939D01*
X91793271Y-117688103D01*
X91633235Y-117556765D01*
X91501897Y-117396729D01*
X91456061Y-117310975D01*
X91404306Y-117214149D01*
X91404305Y-117214146D01*
X91344207Y-117016032D01*
X91323915Y-116810000D01*
X91344207Y-116603968D01*
X91404305Y-116405854D01*
X91404306Y-116405851D01*
X91456061Y-116309025D01*
X91501897Y-116223271D01*
X91633235Y-116063235D01*
X91793271Y-115931897D01*
X91879025Y-115886061D01*
X91975851Y-115834306D01*
X91975854Y-115834305D01*
X92173968Y-115774207D01*
X92276903Y-115764069D01*
X92328369Y-115759000D01*
X92431631Y-115759000D01*
X92483097Y-115764069D01*
X92483097Y-115764069D01*
G37*
G36*
X107723097Y-115764069D02*
G01*
X107826032Y-115774207D01*
X108024146Y-115834305D01*
X108024149Y-115834306D01*
X108120975Y-115886061D01*
X108206729Y-115931897D01*
X108366765Y-116063235D01*
X108498103Y-116223271D01*
X108543939Y-116309025D01*
X108595694Y-116405851D01*
X108595695Y-116405854D01*
X108655793Y-116603968D01*
X108676085Y-116810000D01*
X108655793Y-117016032D01*
X108595695Y-117214146D01*
X108595694Y-117214149D01*
X108543939Y-117310975D01*
X108498103Y-117396729D01*
X108366765Y-117556765D01*
X108206729Y-117688103D01*
X108120975Y-117733939D01*
X108024149Y-117785694D01*
X108024146Y-117785695D01*
X107826032Y-117845793D01*
X107723097Y-117855931D01*
X107671631Y-117861000D01*
X107568369Y-117861000D01*
X107516903Y-117855931D01*
X107413968Y-117845793D01*
X107215854Y-117785695D01*
X107215851Y-117785694D01*
X107119025Y-117733939D01*
X107033271Y-117688103D01*
X106873235Y-117556765D01*
X106741897Y-117396729D01*
X106696061Y-117310975D01*
X106644306Y-117214149D01*
X106644305Y-117214146D01*
X106584207Y-117016032D01*
X106563915Y-116810000D01*
X106584207Y-116603968D01*
X106644305Y-116405854D01*
X106644306Y-116405851D01*
X106696061Y-116309025D01*
X106741897Y-116223271D01*
X106873235Y-116063235D01*
X107033271Y-115931897D01*
X107119025Y-115886061D01*
X107215851Y-115834306D01*
X107215854Y-115834305D01*
X107413968Y-115774207D01*
X107516903Y-115764069D01*
X107568369Y-115759000D01*
X107671631Y-115759000D01*
X107723097Y-115764069D01*
X107723097Y-115764069D01*
G37*
G36*
X92483097Y-113224069D02*
G01*
X92586032Y-113234207D01*
X92784146Y-113294305D01*
X92784149Y-113294306D01*
X92880975Y-113346061D01*
X92966729Y-113391897D01*
X93126765Y-113523235D01*
X93258103Y-113683271D01*
X93303939Y-113769025D01*
X93355694Y-113865851D01*
X93355695Y-113865854D01*
X93415793Y-114063968D01*
X93436085Y-114270000D01*
X93415793Y-114476032D01*
X93355695Y-114674146D01*
X93355694Y-114674149D01*
X93303939Y-114770975D01*
X93258103Y-114856729D01*
X93126765Y-115016765D01*
X92966729Y-115148103D01*
X92880975Y-115193939D01*
X92784149Y-115245694D01*
X92784146Y-115245695D01*
X92586032Y-115305793D01*
X92483097Y-115315931D01*
X92431631Y-115321000D01*
X92328369Y-115321000D01*
X92276903Y-115315931D01*
X92173968Y-115305793D01*
X91975854Y-115245695D01*
X91975851Y-115245694D01*
X91879025Y-115193939D01*
X91793271Y-115148103D01*
X91633235Y-115016765D01*
X91501897Y-114856729D01*
X91456061Y-114770975D01*
X91404306Y-114674149D01*
X91404305Y-114674146D01*
X91344207Y-114476032D01*
X91323915Y-114270000D01*
X91344207Y-114063968D01*
X91404305Y-113865854D01*
X91404306Y-113865851D01*
X91456061Y-113769025D01*
X91501897Y-113683271D01*
X91633235Y-113523235D01*
X91793271Y-113391897D01*
X91879025Y-113346061D01*
X91975851Y-113294306D01*
X91975854Y-113294305D01*
X92173968Y-113234207D01*
X92276903Y-113224069D01*
X92328369Y-113219000D01*
X92431631Y-113219000D01*
X92483097Y-113224069D01*
X92483097Y-113224069D01*
G37*
G36*
X107723097Y-113224069D02*
G01*
X107826032Y-113234207D01*
X108024146Y-113294305D01*
X108024149Y-113294306D01*
X108120975Y-113346061D01*
X108206729Y-113391897D01*
X108366765Y-113523235D01*
X108498103Y-113683271D01*
X108543939Y-113769025D01*
X108595694Y-113865851D01*
X108595695Y-113865854D01*
X108655793Y-114063968D01*
X108676085Y-114270000D01*
X108655793Y-114476032D01*
X108595695Y-114674146D01*
X108595694Y-114674149D01*
X108543939Y-114770975D01*
X108498103Y-114856729D01*
X108366765Y-115016765D01*
X108206729Y-115148103D01*
X108120975Y-115193939D01*
X108024149Y-115245694D01*
X108024146Y-115245695D01*
X107826032Y-115305793D01*
X107723097Y-115315931D01*
X107671631Y-115321000D01*
X107568369Y-115321000D01*
X107516903Y-115315931D01*
X107413968Y-115305793D01*
X107215854Y-115245695D01*
X107215851Y-115245694D01*
X107119025Y-115193939D01*
X107033271Y-115148103D01*
X106873235Y-115016765D01*
X106741897Y-114856729D01*
X106696061Y-114770975D01*
X106644306Y-114674149D01*
X106644305Y-114674146D01*
X106584207Y-114476032D01*
X106563915Y-114270000D01*
X106584207Y-114063968D01*
X106644305Y-113865854D01*
X106644306Y-113865851D01*
X106696061Y-113769025D01*
X106741897Y-113683271D01*
X106873235Y-113523235D01*
X107033271Y-113391897D01*
X107119025Y-113346061D01*
X107215851Y-113294306D01*
X107215854Y-113294305D01*
X107413968Y-113234207D01*
X107516903Y-113224069D01*
X107568369Y-113219000D01*
X107671631Y-113219000D01*
X107723097Y-113224069D01*
X107723097Y-113224069D01*
G37*
G36*
X107723097Y-110684069D02*
G01*
X107826032Y-110694207D01*
X108024146Y-110754305D01*
X108024149Y-110754306D01*
X108120975Y-110806061D01*
X108206729Y-110851897D01*
X108366765Y-110983235D01*
X108498103Y-111143271D01*
X108543939Y-111229025D01*
X108595694Y-111325851D01*
X108595695Y-111325854D01*
X108655793Y-111523968D01*
X108676085Y-111730000D01*
X108655793Y-111936032D01*
X108595695Y-112134146D01*
X108595694Y-112134149D01*
X108543939Y-112230975D01*
X108498103Y-112316729D01*
X108366765Y-112476765D01*
X108206729Y-112608103D01*
X108120975Y-112653939D01*
X108024149Y-112705694D01*
X108024146Y-112705695D01*
X107826032Y-112765793D01*
X107723097Y-112775931D01*
X107671631Y-112781000D01*
X107568369Y-112781000D01*
X107516903Y-112775931D01*
X107413968Y-112765793D01*
X107215854Y-112705695D01*
X107215851Y-112705694D01*
X107119025Y-112653939D01*
X107033271Y-112608103D01*
X106873235Y-112476765D01*
X106741897Y-112316729D01*
X106696061Y-112230975D01*
X106644306Y-112134149D01*
X106644305Y-112134146D01*
X106584207Y-111936032D01*
X106563915Y-111730000D01*
X106584207Y-111523968D01*
X106644305Y-111325854D01*
X106644306Y-111325851D01*
X106696061Y-111229025D01*
X106741897Y-111143271D01*
X106873235Y-110983235D01*
X107033271Y-110851897D01*
X107119025Y-110806061D01*
X107215851Y-110754306D01*
X107215854Y-110754305D01*
X107413968Y-110694207D01*
X107516903Y-110684069D01*
X107568369Y-110679000D01*
X107671631Y-110679000D01*
X107723097Y-110684069D01*
X107723097Y-110684069D01*
G37*
G36*
X92483097Y-110684069D02*
G01*
X92586032Y-110694207D01*
X92784146Y-110754305D01*
X92784149Y-110754306D01*
X92880975Y-110806061D01*
X92966729Y-110851897D01*
X93126765Y-110983235D01*
X93258103Y-111143271D01*
X93303939Y-111229025D01*
X93355694Y-111325851D01*
X93355695Y-111325854D01*
X93415793Y-111523968D01*
X93436085Y-111730000D01*
X93415793Y-111936032D01*
X93355695Y-112134146D01*
X93355694Y-112134149D01*
X93303939Y-112230975D01*
X93258103Y-112316729D01*
X93126765Y-112476765D01*
X92966729Y-112608103D01*
X92880975Y-112653939D01*
X92784149Y-112705694D01*
X92784146Y-112705695D01*
X92586032Y-112765793D01*
X92483097Y-112775931D01*
X92431631Y-112781000D01*
X92328369Y-112781000D01*
X92276903Y-112775931D01*
X92173968Y-112765793D01*
X91975854Y-112705695D01*
X91975851Y-112705694D01*
X91879025Y-112653939D01*
X91793271Y-112608103D01*
X91633235Y-112476765D01*
X91501897Y-112316729D01*
X91456061Y-112230975D01*
X91404306Y-112134149D01*
X91404305Y-112134146D01*
X91344207Y-111936032D01*
X91323915Y-111730000D01*
X91344207Y-111523968D01*
X91404305Y-111325854D01*
X91404306Y-111325851D01*
X91456061Y-111229025D01*
X91501897Y-111143271D01*
X91633235Y-110983235D01*
X91793271Y-110851897D01*
X91879025Y-110806061D01*
X91975851Y-110754306D01*
X91975854Y-110754305D01*
X92173968Y-110694207D01*
X92276903Y-110684069D01*
X92328369Y-110679000D01*
X92431631Y-110679000D01*
X92483097Y-110684069D01*
X92483097Y-110684069D01*
G37*
G36*
X107723097Y-108144069D02*
G01*
X107826032Y-108154207D01*
X108024146Y-108214305D01*
X108024149Y-108214306D01*
X108120975Y-108266061D01*
X108206729Y-108311897D01*
X108366765Y-108443235D01*
X108498103Y-108603271D01*
X108543939Y-108689025D01*
X108595694Y-108785851D01*
X108595695Y-108785854D01*
X108655793Y-108983968D01*
X108676085Y-109190000D01*
X108655793Y-109396032D01*
X108595695Y-109594146D01*
X108595694Y-109594149D01*
X108543939Y-109690975D01*
X108498103Y-109776729D01*
X108366765Y-109936765D01*
X108206729Y-110068103D01*
X108120975Y-110113939D01*
X108024149Y-110165694D01*
X108024146Y-110165695D01*
X107826032Y-110225793D01*
X107723097Y-110235931D01*
X107671631Y-110241000D01*
X107568369Y-110241000D01*
X107516903Y-110235931D01*
X107413968Y-110225793D01*
X107215854Y-110165695D01*
X107215851Y-110165694D01*
X107119025Y-110113939D01*
X107033271Y-110068103D01*
X106873235Y-109936765D01*
X106741897Y-109776729D01*
X106696061Y-109690975D01*
X106644306Y-109594149D01*
X106644305Y-109594146D01*
X106584207Y-109396032D01*
X106563915Y-109190000D01*
X106584207Y-108983968D01*
X106644305Y-108785854D01*
X106644306Y-108785851D01*
X106696061Y-108689025D01*
X106741897Y-108603271D01*
X106873235Y-108443235D01*
X107033271Y-108311897D01*
X107119025Y-108266061D01*
X107215851Y-108214306D01*
X107215854Y-108214305D01*
X107413968Y-108154207D01*
X107516903Y-108144069D01*
X107568369Y-108139000D01*
X107671631Y-108139000D01*
X107723097Y-108144069D01*
X107723097Y-108144069D01*
G37*
G36*
X92483097Y-108144069D02*
G01*
X92586032Y-108154207D01*
X92784146Y-108214305D01*
X92784149Y-108214306D01*
X92880975Y-108266061D01*
X92966729Y-108311897D01*
X93126765Y-108443235D01*
X93258103Y-108603271D01*
X93303939Y-108689025D01*
X93355694Y-108785851D01*
X93355695Y-108785854D01*
X93415793Y-108983968D01*
X93436085Y-109190000D01*
X93415793Y-109396032D01*
X93355695Y-109594146D01*
X93355694Y-109594149D01*
X93303939Y-109690975D01*
X93258103Y-109776729D01*
X93126765Y-109936765D01*
X92966729Y-110068103D01*
X92880975Y-110113939D01*
X92784149Y-110165694D01*
X92784146Y-110165695D01*
X92586032Y-110225793D01*
X92483097Y-110235931D01*
X92431631Y-110241000D01*
X92328369Y-110241000D01*
X92276903Y-110235931D01*
X92173968Y-110225793D01*
X91975854Y-110165695D01*
X91975851Y-110165694D01*
X91879025Y-110113939D01*
X91793271Y-110068103D01*
X91633235Y-109936765D01*
X91501897Y-109776729D01*
X91456061Y-109690975D01*
X91404306Y-109594149D01*
X91404305Y-109594146D01*
X91344207Y-109396032D01*
X91323915Y-109190000D01*
X91344207Y-108983968D01*
X91404305Y-108785854D01*
X91404306Y-108785851D01*
X91456061Y-108689025D01*
X91501897Y-108603271D01*
X91633235Y-108443235D01*
X91793271Y-108311897D01*
X91879025Y-108266061D01*
X91975851Y-108214306D01*
X91975854Y-108214305D01*
X92173968Y-108154207D01*
X92276903Y-108144069D01*
X92328369Y-108139000D01*
X92431631Y-108139000D01*
X92483097Y-108144069D01*
X92483097Y-108144069D01*
G37*
G36*
X107723097Y-105604069D02*
G01*
X107826032Y-105614207D01*
X108024146Y-105674305D01*
X108024149Y-105674306D01*
X108120975Y-105726061D01*
X108206729Y-105771897D01*
X108366765Y-105903235D01*
X108498103Y-106063271D01*
X108543939Y-106149025D01*
X108595694Y-106245851D01*
X108595695Y-106245854D01*
X108655793Y-106443968D01*
X108676085Y-106650000D01*
X108655793Y-106856032D01*
X108595695Y-107054146D01*
X108595694Y-107054149D01*
X108543939Y-107150975D01*
X108498103Y-107236729D01*
X108366765Y-107396765D01*
X108206729Y-107528103D01*
X108120975Y-107573939D01*
X108024149Y-107625694D01*
X108024146Y-107625695D01*
X107826032Y-107685793D01*
X107723097Y-107695931D01*
X107671631Y-107701000D01*
X107568369Y-107701000D01*
X107516903Y-107695931D01*
X107413968Y-107685793D01*
X107215854Y-107625695D01*
X107215851Y-107625694D01*
X107119025Y-107573939D01*
X107033271Y-107528103D01*
X106873235Y-107396765D01*
X106741897Y-107236729D01*
X106696061Y-107150975D01*
X106644306Y-107054149D01*
X106644305Y-107054146D01*
X106584207Y-106856032D01*
X106563915Y-106650000D01*
X106584207Y-106443968D01*
X106644305Y-106245854D01*
X106644306Y-106245851D01*
X106696061Y-106149025D01*
X106741897Y-106063271D01*
X106873235Y-105903235D01*
X107033271Y-105771897D01*
X107119025Y-105726061D01*
X107215851Y-105674306D01*
X107215854Y-105674305D01*
X107413968Y-105614207D01*
X107516903Y-105604069D01*
X107568369Y-105599000D01*
X107671631Y-105599000D01*
X107723097Y-105604069D01*
X107723097Y-105604069D01*
G37*
G36*
X92483097Y-105604069D02*
G01*
X92586032Y-105614207D01*
X92784146Y-105674305D01*
X92784149Y-105674306D01*
X92880975Y-105726061D01*
X92966729Y-105771897D01*
X93126765Y-105903235D01*
X93258103Y-106063271D01*
X93303939Y-106149025D01*
X93355694Y-106245851D01*
X93355695Y-106245854D01*
X93415793Y-106443968D01*
X93436085Y-106650000D01*
X93415793Y-106856032D01*
X93355695Y-107054146D01*
X93355694Y-107054149D01*
X93303939Y-107150975D01*
X93258103Y-107236729D01*
X93126765Y-107396765D01*
X92966729Y-107528103D01*
X92880975Y-107573939D01*
X92784149Y-107625694D01*
X92784146Y-107625695D01*
X92586032Y-107685793D01*
X92483097Y-107695931D01*
X92431631Y-107701000D01*
X92328369Y-107701000D01*
X92276903Y-107695931D01*
X92173968Y-107685793D01*
X91975854Y-107625695D01*
X91975851Y-107625694D01*
X91879025Y-107573939D01*
X91793271Y-107528103D01*
X91633235Y-107396765D01*
X91501897Y-107236729D01*
X91456061Y-107150975D01*
X91404306Y-107054149D01*
X91404305Y-107054146D01*
X91344207Y-106856032D01*
X91323915Y-106650000D01*
X91344207Y-106443968D01*
X91404305Y-106245854D01*
X91404306Y-106245851D01*
X91456061Y-106149025D01*
X91501897Y-106063271D01*
X91633235Y-105903235D01*
X91793271Y-105771897D01*
X91879025Y-105726061D01*
X91975851Y-105674306D01*
X91975854Y-105674305D01*
X92173968Y-105614207D01*
X92276903Y-105604069D01*
X92328369Y-105599000D01*
X92431631Y-105599000D01*
X92483097Y-105604069D01*
X92483097Y-105604069D01*
G37*
G36*
X107723097Y-103064069D02*
G01*
X107826032Y-103074207D01*
X108024146Y-103134305D01*
X108024149Y-103134306D01*
X108120975Y-103186061D01*
X108206729Y-103231897D01*
X108366765Y-103363235D01*
X108498103Y-103523271D01*
X108543939Y-103609025D01*
X108595694Y-103705851D01*
X108595695Y-103705854D01*
X108655793Y-103903968D01*
X108676085Y-104110000D01*
X108655793Y-104316032D01*
X108595695Y-104514146D01*
X108595694Y-104514149D01*
X108543939Y-104610975D01*
X108498103Y-104696729D01*
X108366765Y-104856765D01*
X108206729Y-104988103D01*
X108120975Y-105033939D01*
X108024149Y-105085694D01*
X108024146Y-105085695D01*
X107826032Y-105145793D01*
X107723097Y-105155931D01*
X107671631Y-105161000D01*
X107568369Y-105161000D01*
X107516903Y-105155931D01*
X107413968Y-105145793D01*
X107215854Y-105085695D01*
X107215851Y-105085694D01*
X107119025Y-105033939D01*
X107033271Y-104988103D01*
X106873235Y-104856765D01*
X106741897Y-104696729D01*
X106696061Y-104610975D01*
X106644306Y-104514149D01*
X106644305Y-104514146D01*
X106584207Y-104316032D01*
X106563915Y-104110000D01*
X106584207Y-103903968D01*
X106644305Y-103705854D01*
X106644306Y-103705851D01*
X106696061Y-103609025D01*
X106741897Y-103523271D01*
X106873235Y-103363235D01*
X107033271Y-103231897D01*
X107119025Y-103186061D01*
X107215851Y-103134306D01*
X107215854Y-103134305D01*
X107413968Y-103074207D01*
X107516903Y-103064069D01*
X107568369Y-103059000D01*
X107671631Y-103059000D01*
X107723097Y-103064069D01*
X107723097Y-103064069D01*
G37*
G36*
X92483097Y-103064069D02*
G01*
X92586032Y-103074207D01*
X92784146Y-103134305D01*
X92784149Y-103134306D01*
X92880975Y-103186061D01*
X92966729Y-103231897D01*
X93126765Y-103363235D01*
X93258103Y-103523271D01*
X93303939Y-103609025D01*
X93355694Y-103705851D01*
X93355695Y-103705854D01*
X93415793Y-103903968D01*
X93436085Y-104110000D01*
X93415793Y-104316032D01*
X93355695Y-104514146D01*
X93355694Y-104514149D01*
X93303939Y-104610975D01*
X93258103Y-104696729D01*
X93126765Y-104856765D01*
X92966729Y-104988103D01*
X92880975Y-105033939D01*
X92784149Y-105085694D01*
X92784146Y-105085695D01*
X92586032Y-105145793D01*
X92483097Y-105155931D01*
X92431631Y-105161000D01*
X92328369Y-105161000D01*
X92276903Y-105155931D01*
X92173968Y-105145793D01*
X91975854Y-105085695D01*
X91975851Y-105085694D01*
X91879025Y-105033939D01*
X91793271Y-104988103D01*
X91633235Y-104856765D01*
X91501897Y-104696729D01*
X91456061Y-104610975D01*
X91404306Y-104514149D01*
X91404305Y-104514146D01*
X91344207Y-104316032D01*
X91323915Y-104110000D01*
X91344207Y-103903968D01*
X91404305Y-103705854D01*
X91404306Y-103705851D01*
X91456061Y-103609025D01*
X91501897Y-103523271D01*
X91633235Y-103363235D01*
X91793271Y-103231897D01*
X91879025Y-103186061D01*
X91975851Y-103134306D01*
X91975854Y-103134305D01*
X92173968Y-103074207D01*
X92276903Y-103064069D01*
X92328369Y-103059000D01*
X92431631Y-103059000D01*
X92483097Y-103064069D01*
X92483097Y-103064069D01*
G37*
G36*
X100829329Y-95830682D02*
G01*
X101239971Y-95912363D01*
X102013604Y-96232812D01*
X102709855Y-96698033D01*
X103301967Y-97290145D01*
X103767188Y-97986396D01*
X104087637Y-98760029D01*
X104118793Y-98916660D01*
X104191253Y-99280941D01*
X104251000Y-99581313D01*
X104251000Y-100418687D01*
X104087637Y-101239971D01*
X103767188Y-102013604D01*
X103301967Y-102709855D01*
X102709855Y-103301967D01*
X102013604Y-103767188D01*
X101239971Y-104087637D01*
X101127544Y-104110000D01*
X100418688Y-104251000D01*
X99581312Y-104251000D01*
X98872456Y-104110000D01*
X98760029Y-104087637D01*
X97986396Y-103767188D01*
X97290145Y-103301967D01*
X96698033Y-102709855D01*
X96232812Y-102013604D01*
X95912363Y-101239971D01*
X95749000Y-100418687D01*
X95749000Y-99581313D01*
X95808748Y-99280941D01*
X95881207Y-98916660D01*
X95912363Y-98760029D01*
X96232812Y-97986396D01*
X96698033Y-97290145D01*
X97290145Y-96698033D01*
X97986396Y-96232812D01*
X98760029Y-95912363D01*
X99170671Y-95830681D01*
X99581312Y-95749000D01*
X100418688Y-95749000D01*
X100829329Y-95830682D01*
X100829329Y-95830682D01*
G37*
G36*
X108219059Y-100277860D02*
G01*
X108355732Y-100334472D01*
X108478735Y-100416660D01*
X108583340Y-100521265D01*
X108665528Y-100644268D01*
X108722140Y-100780941D01*
X108751000Y-100926033D01*
X108751000Y-101073967D01*
X108722140Y-101219059D01*
X108665528Y-101355732D01*
X108583340Y-101478735D01*
X108478735Y-101583340D01*
X108355732Y-101665528D01*
X108355731Y-101665529D01*
X108355730Y-101665529D01*
X108219059Y-101722140D01*
X108073968Y-101751000D01*
X107926032Y-101751000D01*
X107780941Y-101722140D01*
X107644270Y-101665529D01*
X107644269Y-101665529D01*
X107644268Y-101665528D01*
X107521265Y-101583340D01*
X107416660Y-101478735D01*
X107334472Y-101355732D01*
X107277860Y-101219059D01*
X107249000Y-101073967D01*
X107249000Y-100926033D01*
X107277860Y-100780941D01*
X107334472Y-100644268D01*
X107416660Y-100521265D01*
X107521265Y-100416660D01*
X107644268Y-100334472D01*
X107780941Y-100277860D01*
X107926032Y-100249000D01*
X108073968Y-100249000D01*
X108219059Y-100277860D01*
X108219059Y-100277860D01*
G37*
G36*
X106129415Y-98760029D02*
G01*
X106219059Y-98777860D01*
X106355732Y-98834472D01*
X106478735Y-98916660D01*
X106583340Y-99021265D01*
X106665528Y-99144268D01*
X106722140Y-99280941D01*
X106751000Y-99426033D01*
X106751000Y-99573967D01*
X106722140Y-99719059D01*
X106665528Y-99855732D01*
X106583340Y-99978735D01*
X106478735Y-100083340D01*
X106355732Y-100165528D01*
X106355731Y-100165529D01*
X106355730Y-100165529D01*
X106219059Y-100222140D01*
X106073968Y-100251000D01*
X105926032Y-100251000D01*
X105780941Y-100222140D01*
X105644270Y-100165529D01*
X105644269Y-100165529D01*
X105644268Y-100165528D01*
X105521265Y-100083340D01*
X105416660Y-99978735D01*
X105334472Y-99855732D01*
X105277860Y-99719059D01*
X105249000Y-99573967D01*
X105249000Y-99426033D01*
X105277860Y-99280941D01*
X105334472Y-99144268D01*
X105416660Y-99021265D01*
X105521265Y-98916660D01*
X105644268Y-98834472D01*
X105780941Y-98777860D01*
X105870585Y-98760029D01*
X105926032Y-98749000D01*
X106073968Y-98749000D01*
X106129415Y-98760029D01*
X106129415Y-98760029D01*
G37*
G36*
X92338855Y-94352140D02*
G01*
X92402618Y-94358420D01*
X92493404Y-94385960D01*
X92525336Y-94395646D01*
X92638425Y-94456094D01*
X92737554Y-94537446D01*
X92818906Y-94636575D01*
X92879354Y-94749664D01*
X92879355Y-94749668D01*
X92916580Y-94872382D01*
X92929149Y-95000000D01*
X92916580Y-95127618D01*
X92889040Y-95218404D01*
X92879354Y-95250336D01*
X92818906Y-95363425D01*
X92737554Y-95462554D01*
X92638425Y-95543906D01*
X92525336Y-95604354D01*
X92493404Y-95614040D01*
X92402618Y-95641580D01*
X92338855Y-95647860D01*
X92306974Y-95651000D01*
X91693026Y-95651000D01*
X91661145Y-95647860D01*
X91597382Y-95641580D01*
X91506596Y-95614040D01*
X91474664Y-95604354D01*
X91361575Y-95543906D01*
X91262446Y-95462554D01*
X91181094Y-95363425D01*
X91120646Y-95250336D01*
X91110960Y-95218404D01*
X91083420Y-95127618D01*
X91070851Y-95000000D01*
X91083420Y-94872382D01*
X91120645Y-94749668D01*
X91120646Y-94749664D01*
X91181094Y-94636575D01*
X91262446Y-94537446D01*
X91361575Y-94456094D01*
X91474664Y-94395646D01*
X91506596Y-94385960D01*
X91597382Y-94358420D01*
X91661145Y-94352140D01*
X91693026Y-94349000D01*
X92306974Y-94349000D01*
X92338855Y-94352140D01*
X92338855Y-94352140D01*
G37*
G36*
X108073665Y-92632622D02*
G01*
X108147222Y-92639867D01*
X108288786Y-92682810D01*
X108419252Y-92752546D01*
X108449040Y-92776992D01*
X108533607Y-92846393D01*
X108603008Y-92930960D01*
X108627454Y-92960748D01*
X108697190Y-93091214D01*
X108740133Y-93232778D01*
X108754633Y-93380000D01*
X108740133Y-93527222D01*
X108697190Y-93668786D01*
X108627454Y-93799252D01*
X108603008Y-93829040D01*
X108533607Y-93913607D01*
X108449040Y-93983008D01*
X108419252Y-94007454D01*
X108288786Y-94077190D01*
X108147222Y-94120133D01*
X108073665Y-94127378D01*
X108036888Y-94131000D01*
X107963112Y-94131000D01*
X107926335Y-94127378D01*
X107852778Y-94120133D01*
X107711214Y-94077190D01*
X107580748Y-94007454D01*
X107550960Y-93983008D01*
X107466393Y-93913607D01*
X107396992Y-93829040D01*
X107372546Y-93799252D01*
X107302810Y-93668786D01*
X107259867Y-93527222D01*
X107245367Y-93380000D01*
X107259867Y-93232778D01*
X107302810Y-93091214D01*
X107372546Y-92960748D01*
X107396992Y-92930960D01*
X107466393Y-92846393D01*
X107550960Y-92776992D01*
X107580748Y-92752546D01*
X107711214Y-92682810D01*
X107852778Y-92639867D01*
X107926335Y-92632622D01*
X107963112Y-92629000D01*
X108036888Y-92629000D01*
X108073665Y-92632622D01*
X108073665Y-92632622D01*
G37*
G36*
X92338855Y-92352140D02*
G01*
X92402618Y-92358420D01*
X92493404Y-92385960D01*
X92525336Y-92395646D01*
X92638425Y-92456094D01*
X92737554Y-92537446D01*
X92818906Y-92636575D01*
X92879354Y-92749664D01*
X92879355Y-92749668D01*
X92916580Y-92872382D01*
X92929149Y-93000000D01*
X92916580Y-93127618D01*
X92889040Y-93218404D01*
X92879354Y-93250336D01*
X92818906Y-93363425D01*
X92737554Y-93462554D01*
X92638425Y-93543906D01*
X92525336Y-93604354D01*
X92493404Y-93614040D01*
X92402618Y-93641580D01*
X92338855Y-93647860D01*
X92306974Y-93651000D01*
X91693026Y-93651000D01*
X91661145Y-93647860D01*
X91597382Y-93641580D01*
X91506596Y-93614040D01*
X91474664Y-93604354D01*
X91361575Y-93543906D01*
X91262446Y-93462554D01*
X91181094Y-93363425D01*
X91120646Y-93250336D01*
X91110960Y-93218404D01*
X91083420Y-93127618D01*
X91070851Y-93000000D01*
X91083420Y-92872382D01*
X91120645Y-92749668D01*
X91120646Y-92749664D01*
X91181094Y-92636575D01*
X91262446Y-92537446D01*
X91361575Y-92456094D01*
X91474664Y-92395646D01*
X91506596Y-92385960D01*
X91597382Y-92358420D01*
X91661145Y-92352140D01*
X91693026Y-92349000D01*
X92306974Y-92349000D01*
X92338855Y-92352140D01*
X92338855Y-92352140D01*
G37*
G36*
X106073665Y-91132622D02*
G01*
X106147222Y-91139867D01*
X106288786Y-91182810D01*
X106419252Y-91252546D01*
X106449040Y-91276992D01*
X106533607Y-91346393D01*
X106603008Y-91430960D01*
X106627454Y-91460748D01*
X106697190Y-91591214D01*
X106740133Y-91732778D01*
X106754633Y-91880000D01*
X106740133Y-92027222D01*
X106697190Y-92168786D01*
X106627454Y-92299252D01*
X106603008Y-92329040D01*
X106533607Y-92413607D01*
X106449040Y-92483008D01*
X106419252Y-92507454D01*
X106288786Y-92577190D01*
X106147222Y-92620133D01*
X106073665Y-92627378D01*
X106036888Y-92631000D01*
X105963112Y-92631000D01*
X105926335Y-92627378D01*
X105852778Y-92620133D01*
X105711214Y-92577190D01*
X105580748Y-92507454D01*
X105550960Y-92483008D01*
X105466393Y-92413607D01*
X105396992Y-92329040D01*
X105372546Y-92299252D01*
X105302810Y-92168786D01*
X105259867Y-92027222D01*
X105245367Y-91880000D01*
X105259867Y-91732778D01*
X105302810Y-91591214D01*
X105372546Y-91460748D01*
X105396992Y-91430960D01*
X105466393Y-91346393D01*
X105550960Y-91276992D01*
X105580748Y-91252546D01*
X105711214Y-91182810D01*
X105852778Y-91139867D01*
X105926335Y-91132622D01*
X105963112Y-91129000D01*
X106036888Y-91129000D01*
X106073665Y-91132622D01*
X106073665Y-91132622D01*
G37*
G36*
X92338855Y-90352140D02*
G01*
X92402618Y-90358420D01*
X92493404Y-90385960D01*
X92525336Y-90395646D01*
X92638425Y-90456094D01*
X92737554Y-90537446D01*
X92818906Y-90636575D01*
X92879354Y-90749664D01*
X92879355Y-90749668D01*
X92916580Y-90872382D01*
X92929149Y-91000000D01*
X92916580Y-91127618D01*
X92899837Y-91182811D01*
X92879354Y-91250336D01*
X92818906Y-91363425D01*
X92737554Y-91462554D01*
X92638425Y-91543906D01*
X92525336Y-91604354D01*
X92493404Y-91614040D01*
X92402618Y-91641580D01*
X92338855Y-91647860D01*
X92306974Y-91651000D01*
X91693026Y-91651000D01*
X91661145Y-91647860D01*
X91597382Y-91641580D01*
X91506596Y-91614040D01*
X91474664Y-91604354D01*
X91361575Y-91543906D01*
X91262446Y-91462554D01*
X91181094Y-91363425D01*
X91120646Y-91250336D01*
X91100163Y-91182811D01*
X91083420Y-91127618D01*
X91070851Y-91000000D01*
X91083420Y-90872382D01*
X91120645Y-90749668D01*
X91120646Y-90749664D01*
X91181094Y-90636575D01*
X91262446Y-90537446D01*
X91361575Y-90456094D01*
X91474664Y-90395646D01*
X91506596Y-90385960D01*
X91597382Y-90358420D01*
X91661145Y-90352140D01*
X91693026Y-90349000D01*
X92306974Y-90349000D01*
X92338855Y-90352140D01*
X92338855Y-90352140D01*
G37*
G36*
X92766242Y-88353404D02*
G01*
X92803337Y-88364657D01*
X92837515Y-88382925D01*
X92867481Y-88407519D01*
X92892075Y-88437485D01*
X92910343Y-88471663D01*
X92921596Y-88508758D01*
X92926000Y-88553474D01*
X92926000Y-89446526D01*
X92921596Y-89491242D01*
X92910343Y-89528337D01*
X92892075Y-89562515D01*
X92867481Y-89592481D01*
X92837515Y-89617075D01*
X92803337Y-89635343D01*
X92766242Y-89646596D01*
X92721526Y-89651000D01*
X91278474Y-89651000D01*
X91233758Y-89646596D01*
X91196663Y-89635343D01*
X91162485Y-89617075D01*
X91132519Y-89592481D01*
X91107925Y-89562515D01*
X91089657Y-89528337D01*
X91078404Y-89491242D01*
X91074000Y-89446526D01*
X91074000Y-88553474D01*
X91078404Y-88508758D01*
X91089657Y-88471663D01*
X91107925Y-88437485D01*
X91132519Y-88407519D01*
X91162485Y-88382925D01*
X91196663Y-88364657D01*
X91233758Y-88353404D01*
X91278474Y-88349000D01*
X92721526Y-88349000D01*
X92766242Y-88353404D01*
X92766242Y-88353404D01*
G37*
G36*
X107610442Y-87145518D02*
G01*
X107676627Y-87152037D01*
X107846466Y-87203557D01*
X108002991Y-87287222D01*
X108038729Y-87316552D01*
X108140186Y-87399814D01*
X108223448Y-87501271D01*
X108252778Y-87537009D01*
X108336443Y-87693534D01*
X108387963Y-87863373D01*
X108405359Y-88040000D01*
X108387963Y-88216627D01*
X108336443Y-88386466D01*
X108252778Y-88542991D01*
X108223448Y-88578729D01*
X108140186Y-88680186D01*
X108038729Y-88763448D01*
X108002991Y-88792778D01*
X107846466Y-88876443D01*
X107676627Y-88927963D01*
X107610442Y-88934482D01*
X107544260Y-88941000D01*
X107455740Y-88941000D01*
X107389558Y-88934482D01*
X107323373Y-88927963D01*
X107153534Y-88876443D01*
X106997009Y-88792778D01*
X106961271Y-88763448D01*
X106859814Y-88680186D01*
X106776552Y-88578729D01*
X106747222Y-88542991D01*
X106663557Y-88386466D01*
X106612037Y-88216627D01*
X106594641Y-88040000D01*
X106612037Y-87863373D01*
X106663557Y-87693534D01*
X106747222Y-87537009D01*
X106776552Y-87501271D01*
X106859814Y-87399814D01*
X106961271Y-87316552D01*
X106997009Y-87287222D01*
X107153534Y-87203557D01*
X107323373Y-87152037D01*
X107389558Y-87145518D01*
X107455740Y-87139000D01*
X107544260Y-87139000D01*
X107610442Y-87145518D01*
X107610442Y-87145518D01*
G37*
G36*
X101219059Y-85527860D02*
G01*
X101330374Y-85573968D01*
X101355732Y-85584472D01*
X101478735Y-85666660D01*
X101583340Y-85771265D01*
X101639779Y-85855732D01*
X101665529Y-85894270D01*
X101722140Y-86030941D01*
X101751000Y-86176032D01*
X101751000Y-86323968D01*
X101732788Y-86415528D01*
X101722140Y-86469059D01*
X101665528Y-86605732D01*
X101583340Y-86728735D01*
X101478735Y-86833340D01*
X101355732Y-86915528D01*
X101355731Y-86915529D01*
X101355730Y-86915529D01*
X101219059Y-86972140D01*
X101073968Y-87001000D01*
X100926032Y-87001000D01*
X100780941Y-86972140D01*
X100644270Y-86915529D01*
X100644269Y-86915529D01*
X100644268Y-86915528D01*
X100521265Y-86833340D01*
X100416660Y-86728735D01*
X100334472Y-86605732D01*
X100277860Y-86469059D01*
X100267212Y-86415528D01*
X100249000Y-86323968D01*
X100249000Y-86176032D01*
X100277860Y-86030941D01*
X100334471Y-85894270D01*
X100360221Y-85855732D01*
X100416660Y-85771265D01*
X100521265Y-85666660D01*
X100644268Y-85584472D01*
X100669627Y-85573968D01*
X100780941Y-85527860D01*
X100926032Y-85499000D01*
X101073968Y-85499000D01*
X101219059Y-85527860D01*
X101219059Y-85527860D01*
G37*
G36*
X98185903Y-85021265D02*
G01*
X98219059Y-85027860D01*
X98355732Y-85084472D01*
X98478735Y-85166660D01*
X98583340Y-85271265D01*
X98665528Y-85394268D01*
X98665529Y-85394270D01*
X98722140Y-85530941D01*
X98749136Y-85666659D01*
X98751000Y-85676033D01*
X98751000Y-85823967D01*
X98722140Y-85969059D01*
X98665528Y-86105732D01*
X98583340Y-86228735D01*
X98478735Y-86333340D01*
X98355732Y-86415528D01*
X98355731Y-86415529D01*
X98355730Y-86415529D01*
X98219059Y-86472140D01*
X98073968Y-86501000D01*
X97926032Y-86501000D01*
X97780941Y-86472140D01*
X97644270Y-86415529D01*
X97644269Y-86415529D01*
X97644268Y-86415528D01*
X97521265Y-86333340D01*
X97416660Y-86228735D01*
X97334472Y-86105732D01*
X97277860Y-85969059D01*
X97249000Y-85823967D01*
X97249000Y-85676033D01*
X97250865Y-85666659D01*
X97277860Y-85530941D01*
X97334471Y-85394270D01*
X97334472Y-85394268D01*
X97416660Y-85271265D01*
X97521265Y-85166660D01*
X97644268Y-85084472D01*
X97780941Y-85027860D01*
X97814097Y-85021265D01*
X97926032Y-84999000D01*
X98073968Y-84999000D01*
X98185903Y-85021265D01*
X98185903Y-85021265D01*
G37*
G36*
X108401000Y-86401000D02*
G01*
X106599000Y-86401000D01*
X106599000Y-84599000D01*
X108401000Y-84599000D01*
X108401000Y-86401000D01*
X108401000Y-86401000D01*
G37*
G36*
X95165567Y-84767220D02*
G01*
X95219059Y-84777860D01*
X95355732Y-84834472D01*
X95478735Y-84916660D01*
X95583340Y-85021265D01*
X95665528Y-85144268D01*
X95665529Y-85144270D01*
X95722140Y-85280941D01*
X95751000Y-85426032D01*
X95751000Y-85573968D01*
X95722140Y-85719059D01*
X95700516Y-85771265D01*
X95665528Y-85855732D01*
X95583340Y-85978735D01*
X95478735Y-86083340D01*
X95355732Y-86165528D01*
X95355731Y-86165529D01*
X95355730Y-86165529D01*
X95219059Y-86222140D01*
X95073968Y-86251000D01*
X94926032Y-86251000D01*
X94780941Y-86222140D01*
X94644270Y-86165529D01*
X94644269Y-86165529D01*
X94644268Y-86165528D01*
X94521265Y-86083340D01*
X94416660Y-85978735D01*
X94334472Y-85855732D01*
X94299485Y-85771265D01*
X94277860Y-85719059D01*
X94249000Y-85573968D01*
X94249000Y-85426032D01*
X94277860Y-85280941D01*
X94334471Y-85144270D01*
X94334472Y-85144268D01*
X94416660Y-85021265D01*
X94521265Y-84916660D01*
X94644268Y-84834472D01*
X94780941Y-84777860D01*
X94834433Y-84767220D01*
X94926032Y-84749000D01*
X95073968Y-84749000D01*
X95165567Y-84767220D01*
X95165567Y-84767220D01*
G37*
G36*
X104165567Y-84767220D02*
G01*
X104219059Y-84777860D01*
X104355732Y-84834472D01*
X104478735Y-84916660D01*
X104583340Y-85021265D01*
X104665528Y-85144268D01*
X104665529Y-85144270D01*
X104722140Y-85280941D01*
X104751000Y-85426032D01*
X104751000Y-85573968D01*
X104722140Y-85719059D01*
X104700516Y-85771265D01*
X104665528Y-85855732D01*
X104583340Y-85978735D01*
X104478735Y-86083340D01*
X104355732Y-86165528D01*
X104355731Y-86165529D01*
X104355730Y-86165529D01*
X104219059Y-86222140D01*
X104073968Y-86251000D01*
X103926032Y-86251000D01*
X103780941Y-86222140D01*
X103644270Y-86165529D01*
X103644269Y-86165529D01*
X103644268Y-86165528D01*
X103521265Y-86083340D01*
X103416660Y-85978735D01*
X103334472Y-85855732D01*
X103299485Y-85771265D01*
X103277860Y-85719059D01*
X103249000Y-85573968D01*
X103249000Y-85426032D01*
X103277860Y-85280941D01*
X103334471Y-85144270D01*
X103334472Y-85144268D01*
X103416660Y-85021265D01*
X103521265Y-84916660D01*
X103644268Y-84834472D01*
X103780941Y-84777860D01*
X103834433Y-84767220D01*
X103926032Y-84749000D01*
X104073968Y-84749000D01*
X104165567Y-84767220D01*
X104165567Y-84767220D01*
G37*
G36*
X92073665Y-83872622D02*
G01*
X92147222Y-83879867D01*
X92288786Y-83922810D01*
X92419252Y-83992546D01*
X92449040Y-84016992D01*
X92533607Y-84086393D01*
X92603008Y-84170960D01*
X92627454Y-84200748D01*
X92697190Y-84331214D01*
X92740133Y-84472778D01*
X92754633Y-84620000D01*
X92740133Y-84767222D01*
X92697190Y-84908786D01*
X92627454Y-85039252D01*
X92603008Y-85069040D01*
X92533607Y-85153607D01*
X92449040Y-85223008D01*
X92419252Y-85247454D01*
X92288786Y-85317190D01*
X92147222Y-85360133D01*
X92073665Y-85367378D01*
X92036888Y-85371000D01*
X91963112Y-85371000D01*
X91926335Y-85367378D01*
X91852778Y-85360133D01*
X91711214Y-85317190D01*
X91580748Y-85247454D01*
X91550960Y-85223008D01*
X91466393Y-85153607D01*
X91396992Y-85069040D01*
X91372546Y-85039252D01*
X91302810Y-84908786D01*
X91259867Y-84767222D01*
X91245367Y-84620000D01*
X91259867Y-84472778D01*
X91302810Y-84331214D01*
X91372546Y-84200748D01*
X91396992Y-84170960D01*
X91466393Y-84086393D01*
X91550960Y-84016992D01*
X91580748Y-83992546D01*
X91711214Y-83922810D01*
X91852778Y-83879867D01*
X91926335Y-83872622D01*
X91963112Y-83869000D01*
X92036888Y-83869000D01*
X92073665Y-83872622D01*
X92073665Y-83872622D01*
G37*
G36*
X108901000Y-81901000D02*
G01*
X107099000Y-81901000D01*
X107099000Y-80099000D01*
X108901000Y-80099000D01*
X108901000Y-81901000D01*
X108901000Y-81901000D01*
G37*
G36*
X101073665Y-77882622D02*
G01*
X101147222Y-77889867D01*
X101288786Y-77932810D01*
X101419252Y-78002546D01*
X101449040Y-78026992D01*
X101533607Y-78096393D01*
X101603008Y-78180960D01*
X101627454Y-78210748D01*
X101697190Y-78341214D01*
X101740133Y-78482778D01*
X101754633Y-78630000D01*
X101740133Y-78777222D01*
X101697190Y-78918786D01*
X101627454Y-79049252D01*
X101603008Y-79079040D01*
X101533607Y-79163607D01*
X101473690Y-79212778D01*
X101419252Y-79257454D01*
X101288786Y-79327190D01*
X101147222Y-79370133D01*
X101073665Y-79377378D01*
X101036888Y-79381000D01*
X100963112Y-79381000D01*
X100926335Y-79377378D01*
X100852778Y-79370133D01*
X100711214Y-79327190D01*
X100580748Y-79257454D01*
X100526310Y-79212778D01*
X100466393Y-79163607D01*
X100396992Y-79079040D01*
X100372546Y-79049252D01*
X100302810Y-78918786D01*
X100259867Y-78777222D01*
X100245367Y-78630000D01*
X100259867Y-78482778D01*
X100302810Y-78341214D01*
X100372546Y-78210748D01*
X100396992Y-78180960D01*
X100466393Y-78096393D01*
X100550960Y-78026992D01*
X100580748Y-78002546D01*
X100711214Y-77932810D01*
X100852778Y-77889867D01*
X100926335Y-77882622D01*
X100963112Y-77879000D01*
X101036888Y-77879000D01*
X101073665Y-77882622D01*
X101073665Y-77882622D01*
G37*
G36*
X108110443Y-77565519D02*
G01*
X108176627Y-77572037D01*
X108346466Y-77623557D01*
X108502991Y-77707222D01*
X108534131Y-77732778D01*
X108640186Y-77819814D01*
X108697676Y-77889867D01*
X108752778Y-77957009D01*
X108836443Y-78113534D01*
X108887963Y-78283373D01*
X108905359Y-78460000D01*
X108887963Y-78636627D01*
X108836443Y-78806466D01*
X108752778Y-78962991D01*
X108723448Y-78998729D01*
X108640186Y-79100186D01*
X108562907Y-79163606D01*
X108502991Y-79212778D01*
X108346466Y-79296443D01*
X108176627Y-79347963D01*
X108110443Y-79354481D01*
X108044260Y-79361000D01*
X107955740Y-79361000D01*
X107889557Y-79354481D01*
X107823373Y-79347963D01*
X107653534Y-79296443D01*
X107497009Y-79212778D01*
X107437093Y-79163606D01*
X107359814Y-79100186D01*
X107276552Y-78998729D01*
X107247222Y-78962991D01*
X107163557Y-78806466D01*
X107112037Y-78636627D01*
X107094641Y-78460000D01*
X107112037Y-78283373D01*
X107163557Y-78113534D01*
X107247222Y-77957009D01*
X107302324Y-77889867D01*
X107359814Y-77819814D01*
X107465869Y-77732778D01*
X107497009Y-77707222D01*
X107653534Y-77623557D01*
X107823373Y-77572037D01*
X107889557Y-77565519D01*
X107955740Y-77559000D01*
X108044260Y-77559000D01*
X108110443Y-77565519D01*
X108110443Y-77565519D01*
G37*
G36*
X98073665Y-77382622D02*
G01*
X98147222Y-77389867D01*
X98288786Y-77432810D01*
X98419252Y-77502546D01*
X98449040Y-77526992D01*
X98533607Y-77596393D01*
X98590343Y-77665528D01*
X98627454Y-77710748D01*
X98697190Y-77841214D01*
X98740133Y-77982778D01*
X98754633Y-78130000D01*
X98740133Y-78277222D01*
X98697190Y-78418786D01*
X98627454Y-78549252D01*
X98604527Y-78577189D01*
X98533607Y-78663607D01*
X98449040Y-78733008D01*
X98419252Y-78757454D01*
X98288786Y-78827190D01*
X98147222Y-78870133D01*
X98073665Y-78877378D01*
X98036888Y-78881000D01*
X97963112Y-78881000D01*
X97926335Y-78877378D01*
X97852778Y-78870133D01*
X97711214Y-78827190D01*
X97580748Y-78757454D01*
X97550960Y-78733008D01*
X97466393Y-78663607D01*
X97395473Y-78577189D01*
X97372546Y-78549252D01*
X97302810Y-78418786D01*
X97259867Y-78277222D01*
X97245367Y-78130000D01*
X97259867Y-77982778D01*
X97302810Y-77841214D01*
X97372546Y-77710748D01*
X97409657Y-77665528D01*
X97466393Y-77596393D01*
X97550960Y-77526992D01*
X97580748Y-77502546D01*
X97711214Y-77432810D01*
X97852778Y-77389867D01*
X97926335Y-77382622D01*
X97963112Y-77379000D01*
X98036888Y-77379000D01*
X98073665Y-77382622D01*
X98073665Y-77382622D01*
G37*
G36*
X95073665Y-77132622D02*
G01*
X95147222Y-77139867D01*
X95288786Y-77182810D01*
X95419252Y-77252546D01*
X95449040Y-77276992D01*
X95533607Y-77346393D01*
X95603008Y-77430960D01*
X95627454Y-77460748D01*
X95697190Y-77591214D01*
X95740133Y-77732778D01*
X95754633Y-77880000D01*
X95740133Y-78027222D01*
X95697190Y-78168786D01*
X95627454Y-78299252D01*
X95603008Y-78329040D01*
X95533607Y-78413607D01*
X95449320Y-78482778D01*
X95419252Y-78507454D01*
X95288786Y-78577190D01*
X95147222Y-78620133D01*
X95073665Y-78627378D01*
X95036888Y-78631000D01*
X94963112Y-78631000D01*
X94926335Y-78627378D01*
X94852778Y-78620133D01*
X94711214Y-78577190D01*
X94580748Y-78507454D01*
X94550680Y-78482778D01*
X94466393Y-78413607D01*
X94396992Y-78329040D01*
X94372546Y-78299252D01*
X94302810Y-78168786D01*
X94259867Y-78027222D01*
X94245367Y-77880000D01*
X94259867Y-77732778D01*
X94302810Y-77591214D01*
X94372546Y-77460748D01*
X94396992Y-77430960D01*
X94466393Y-77346393D01*
X94550960Y-77276992D01*
X94580748Y-77252546D01*
X94711214Y-77182810D01*
X94852778Y-77139867D01*
X94926335Y-77132622D01*
X94963112Y-77129000D01*
X95036888Y-77129000D01*
X95073665Y-77132622D01*
X95073665Y-77132622D01*
G37*
G36*
X104073665Y-77132622D02*
G01*
X104147222Y-77139867D01*
X104288786Y-77182810D01*
X104419252Y-77252546D01*
X104449040Y-77276992D01*
X104533607Y-77346393D01*
X104603008Y-77430960D01*
X104627454Y-77460748D01*
X104697190Y-77591214D01*
X104740133Y-77732778D01*
X104754633Y-77880000D01*
X104740133Y-78027222D01*
X104697190Y-78168786D01*
X104627454Y-78299252D01*
X104603008Y-78329040D01*
X104533607Y-78413607D01*
X104449320Y-78482778D01*
X104419252Y-78507454D01*
X104288786Y-78577190D01*
X104147222Y-78620133D01*
X104073665Y-78627378D01*
X104036888Y-78631000D01*
X103963112Y-78631000D01*
X103926335Y-78627378D01*
X103852778Y-78620133D01*
X103711214Y-78577190D01*
X103580748Y-78507454D01*
X103550680Y-78482778D01*
X103466393Y-78413607D01*
X103396992Y-78329040D01*
X103372546Y-78299252D01*
X103302810Y-78168786D01*
X103259867Y-78027222D01*
X103245367Y-77880000D01*
X103259867Y-77732778D01*
X103302810Y-77591214D01*
X103372546Y-77460748D01*
X103396992Y-77430960D01*
X103466393Y-77346393D01*
X103550960Y-77276992D01*
X103580748Y-77252546D01*
X103711214Y-77182810D01*
X103852778Y-77139867D01*
X103926335Y-77132622D01*
X103963112Y-77129000D01*
X104036888Y-77129000D01*
X104073665Y-77132622D01*
X104073665Y-77132622D01*
G37*
G36*
X92219059Y-76277860D02*
G01*
X92355732Y-76334472D01*
X92478735Y-76416660D01*
X92583340Y-76521265D01*
X92609346Y-76560186D01*
X92665529Y-76644270D01*
X92722140Y-76780941D01*
X92751000Y-76926032D01*
X92751000Y-77073968D01*
X92722140Y-77219059D01*
X92669397Y-77346393D01*
X92665528Y-77355732D01*
X92583340Y-77478735D01*
X92478735Y-77583340D01*
X92355732Y-77665528D01*
X92355731Y-77665529D01*
X92355730Y-77665529D01*
X92219059Y-77722140D01*
X92073968Y-77751000D01*
X91926032Y-77751000D01*
X91780941Y-77722140D01*
X91644270Y-77665529D01*
X91644269Y-77665529D01*
X91644268Y-77665528D01*
X91521265Y-77583340D01*
X91416660Y-77478735D01*
X91334472Y-77355732D01*
X91330604Y-77346393D01*
X91277860Y-77219059D01*
X91249000Y-77073968D01*
X91249000Y-76926032D01*
X91277860Y-76780941D01*
X91334471Y-76644270D01*
X91390654Y-76560186D01*
X91416660Y-76521265D01*
X91521265Y-76416660D01*
X91644268Y-76334472D01*
X91780941Y-76277860D01*
X91926032Y-76249000D01*
X92073968Y-76249000D01*
X92219059Y-76277860D01*
X92219059Y-76277860D01*
G37*
G36*
X108110442Y-75025518D02*
G01*
X108176627Y-75032037D01*
X108346466Y-75083557D01*
X108502991Y-75167222D01*
X108538729Y-75196552D01*
X108640186Y-75279814D01*
X108723448Y-75381271D01*
X108752778Y-75417009D01*
X108836443Y-75573534D01*
X108887963Y-75743373D01*
X108905359Y-75920000D01*
X108887963Y-76096627D01*
X108836443Y-76266466D01*
X108752778Y-76422991D01*
X108723448Y-76458729D01*
X108640186Y-76560186D01*
X108538729Y-76643448D01*
X108502991Y-76672778D01*
X108346466Y-76756443D01*
X108176627Y-76807963D01*
X108110443Y-76814481D01*
X108044260Y-76821000D01*
X107955740Y-76821000D01*
X107889557Y-76814481D01*
X107823373Y-76807963D01*
X107653534Y-76756443D01*
X107497009Y-76672778D01*
X107461271Y-76643448D01*
X107359814Y-76560186D01*
X107276552Y-76458729D01*
X107247222Y-76422991D01*
X107163557Y-76266466D01*
X107112037Y-76096627D01*
X107094641Y-75920000D01*
X107112037Y-75743373D01*
X107163557Y-75573534D01*
X107247222Y-75417009D01*
X107276552Y-75381271D01*
X107359814Y-75279814D01*
X107461271Y-75196552D01*
X107497009Y-75167222D01*
X107653534Y-75083557D01*
X107823373Y-75032037D01*
X107889558Y-75025518D01*
X107955740Y-75019000D01*
X108044260Y-75019000D01*
X108110442Y-75025518D01*
X108110442Y-75025518D01*
G37*
G36*
X100792587Y-67823373D02*
G01*
X101239971Y-67912363D01*
X102013604Y-68232812D01*
X102709855Y-68698033D01*
X103301967Y-69290145D01*
X103767188Y-69986396D01*
X104087637Y-70760029D01*
X104087637Y-70760030D01*
X104251000Y-71581312D01*
X104251000Y-72418688D01*
X104191737Y-72716625D01*
X104087637Y-73239971D01*
X103767188Y-74013604D01*
X103301967Y-74709855D01*
X102709855Y-75301967D01*
X102013604Y-75767188D01*
X101239971Y-76087637D01*
X100829329Y-76169318D01*
X100418688Y-76251000D01*
X99581312Y-76251000D01*
X99170671Y-76169318D01*
X98760029Y-76087637D01*
X97986396Y-75767188D01*
X97290145Y-75301967D01*
X96698033Y-74709855D01*
X96232812Y-74013604D01*
X95912363Y-73239971D01*
X95808263Y-72716625D01*
X95749000Y-72418688D01*
X95749000Y-71581312D01*
X95912363Y-70760030D01*
X95912363Y-70760029D01*
X96232812Y-69986396D01*
X96698033Y-69290145D01*
X97290145Y-68698033D01*
X97986396Y-68232812D01*
X98760029Y-67912363D01*
X99207413Y-67823373D01*
X99581312Y-67749000D01*
X100418688Y-67749000D01*
X100792587Y-67823373D01*
X100792587Y-67823373D01*
G37*
G36*
X92110442Y-71645518D02*
G01*
X92176627Y-71652037D01*
X92346466Y-71703557D01*
X92502991Y-71787222D01*
X92538729Y-71816552D01*
X92640186Y-71899814D01*
X92723448Y-72001271D01*
X92752778Y-72037009D01*
X92836443Y-72193534D01*
X92887963Y-72363373D01*
X92905359Y-72540000D01*
X92887963Y-72716627D01*
X92836443Y-72886466D01*
X92752778Y-73042991D01*
X92723448Y-73078729D01*
X92640186Y-73180186D01*
X92538729Y-73263448D01*
X92502991Y-73292778D01*
X92346466Y-73376443D01*
X92176627Y-73427963D01*
X92110442Y-73434482D01*
X92044260Y-73441000D01*
X91955740Y-73441000D01*
X91889558Y-73434482D01*
X91823373Y-73427963D01*
X91653534Y-73376443D01*
X91497009Y-73292778D01*
X91461271Y-73263448D01*
X91359814Y-73180186D01*
X91276552Y-73078729D01*
X91247222Y-73042991D01*
X91163557Y-72886466D01*
X91112037Y-72716627D01*
X91094641Y-72540000D01*
X91112037Y-72363373D01*
X91163557Y-72193534D01*
X91247222Y-72037009D01*
X91276552Y-72001271D01*
X91359814Y-71899814D01*
X91461271Y-71816552D01*
X91497009Y-71787222D01*
X91653534Y-71703557D01*
X91823373Y-71652037D01*
X91889558Y-71645518D01*
X91955740Y-71639000D01*
X92044260Y-71639000D01*
X92110442Y-71645518D01*
X92110442Y-71645518D01*
G37*
G36*
X106901000Y-72901000D02*
G01*
X105099000Y-72901000D01*
X105099000Y-71099000D01*
X106901000Y-71099000D01*
X106901000Y-72901000D01*
X106901000Y-72901000D01*
G37*
G36*
X92901000Y-70901000D02*
G01*
X91099000Y-70901000D01*
X91099000Y-69099000D01*
X92901000Y-69099000D01*
X92901000Y-70901000D01*
X92901000Y-70901000D01*
G37*
G36*
X108110442Y-67105518D02*
G01*
X108176627Y-67112037D01*
X108346466Y-67163557D01*
X108502991Y-67247222D01*
X108538729Y-67276552D01*
X108640186Y-67359814D01*
X108723448Y-67461271D01*
X108752778Y-67497009D01*
X108836443Y-67653534D01*
X108887963Y-67823373D01*
X108905359Y-68000000D01*
X108887963Y-68176627D01*
X108836443Y-68346466D01*
X108752778Y-68502991D01*
X108723448Y-68538729D01*
X108640186Y-68640186D01*
X108569699Y-68698032D01*
X108502991Y-68752778D01*
X108346466Y-68836443D01*
X108176627Y-68887963D01*
X108110443Y-68894481D01*
X108044260Y-68901000D01*
X107955740Y-68901000D01*
X107889557Y-68894481D01*
X107823373Y-68887963D01*
X107653534Y-68836443D01*
X107497009Y-68752778D01*
X107430301Y-68698032D01*
X107359814Y-68640186D01*
X107276552Y-68538729D01*
X107247222Y-68502991D01*
X107163557Y-68346466D01*
X107112037Y-68176627D01*
X107094641Y-68000000D01*
X107112037Y-67823373D01*
X107163557Y-67653534D01*
X107247222Y-67497009D01*
X107276552Y-67461271D01*
X107359814Y-67359814D01*
X107461271Y-67276552D01*
X107497009Y-67247222D01*
X107653534Y-67163557D01*
X107823373Y-67112037D01*
X107889558Y-67105518D01*
X107955740Y-67099000D01*
X108044260Y-67099000D01*
X108110442Y-67105518D01*
X108110442Y-67105518D01*
G37*
G36*
X106361000Y-68901000D02*
G01*
X104559000Y-68901000D01*
X104559000Y-67099000D01*
X106361000Y-67099000D01*
X106361000Y-68901000D01*
X106361000Y-68901000D01*
G37*
M02*
