G04 #@! TF.GenerationSoftware,KiCad,Pcbnew,5.1.2-f72e74a~84~ubuntu18.04.1*
G04 #@! TF.CreationDate,2019-08-23T19:05:58+08:00*
G04 #@! TF.ProjectId,handyfan,68616e64-7966-4616-9e2e-6b696361645f,rev?*
G04 #@! TF.SameCoordinates,Original*
G04 #@! TF.FileFunction,Legend,Bot*
G04 #@! TF.FilePolarity,Positive*
%FSLAX46Y46*%
G04 Gerber Fmt 4.6, Leading zero omitted, Abs format (unit mm)*
G04 Created by KiCad (PCBNEW 5.1.2-f72e74a~84~ubuntu18.04.1) date 2019-08-23 19:05:58*
%MOMM*%
%LPD*%
G04 APERTURE LIST*
%ADD10C,0.120000*%
%ADD11C,0.150000*%
G04 APERTURE END LIST*
D10*
X90190000Y-86940000D02*
X94910000Y-86940000D01*
X94910000Y-86940000D02*
X94910000Y-97060000D01*
X94910000Y-97060000D02*
X90190000Y-97060000D01*
X90190000Y-97060000D02*
X90190000Y-86940000D01*
X90190000Y-88700000D02*
X89990000Y-88700000D01*
X89990000Y-88700000D02*
X89990000Y-88400000D01*
X89990000Y-88400000D02*
X90190000Y-88400000D01*
X90090000Y-88700000D02*
X90090000Y-88400000D01*
X90190000Y-89500000D02*
X90800000Y-89500000D01*
X90800000Y-89500000D02*
X90800000Y-87550000D01*
X90800000Y-87550000D02*
X94300000Y-87550000D01*
X94300000Y-87550000D02*
X94300000Y-96450000D01*
X94300000Y-96450000D02*
X90800000Y-96450000D01*
X90800000Y-96450000D02*
X90800000Y-94500000D01*
X90800000Y-94500000D02*
X90190000Y-94500000D01*
X91500000Y-86940000D02*
X91500000Y-87550000D01*
X92800000Y-86940000D02*
X92800000Y-87550000D01*
X91500000Y-97060000D02*
X91500000Y-96450000D01*
X92800000Y-97060000D02*
X92800000Y-96450000D01*
X94300000Y-89900000D02*
X93800000Y-89900000D01*
X93800000Y-89900000D02*
X93800000Y-90100000D01*
X93800000Y-90100000D02*
X94300000Y-90100000D01*
X94300000Y-90000000D02*
X93800000Y-90000000D01*
X94300000Y-91900000D02*
X93800000Y-91900000D01*
X93800000Y-91900000D02*
X93800000Y-92100000D01*
X93800000Y-92100000D02*
X94300000Y-92100000D01*
X94300000Y-92000000D02*
X93800000Y-92000000D01*
X94300000Y-93900000D02*
X93800000Y-93900000D01*
X93800000Y-93900000D02*
X93800000Y-94100000D01*
X93800000Y-94100000D02*
X94300000Y-94100000D01*
X94300000Y-94000000D02*
X93800000Y-94000000D01*
X89890000Y-87890000D02*
X89890000Y-86640000D01*
X89890000Y-86640000D02*
X91140000Y-86640000D01*
X91080000Y-78890000D02*
X92920000Y-78890000D01*
X92920000Y-78890000D02*
X92920000Y-82730000D01*
X92920000Y-82730000D02*
X91080000Y-82730000D01*
X91080000Y-82730000D02*
X91080000Y-78890000D01*
X92000000Y-77940000D02*
X92000000Y-78890000D01*
X92000000Y-83680000D02*
X92000000Y-82730000D01*
X95000000Y-78820000D02*
X95000000Y-79770000D01*
X95000000Y-84560000D02*
X95000000Y-83610000D01*
X95920000Y-79770000D02*
X95920000Y-83610000D01*
X94080000Y-79770000D02*
X95920000Y-79770000D01*
X94080000Y-83610000D02*
X94080000Y-79770000D01*
X95920000Y-83610000D02*
X94080000Y-83610000D01*
X106000000Y-92820000D02*
X106000000Y-93770000D01*
X106000000Y-98560000D02*
X106000000Y-97610000D01*
X106920000Y-93770000D02*
X106920000Y-97610000D01*
X105080000Y-93770000D02*
X106920000Y-93770000D01*
X105080000Y-97610000D02*
X105080000Y-93770000D01*
X106920000Y-97610000D02*
X105080000Y-97610000D01*
X101920000Y-84360000D02*
X100080000Y-84360000D01*
X100080000Y-84360000D02*
X100080000Y-80520000D01*
X100080000Y-80520000D02*
X101920000Y-80520000D01*
X101920000Y-80520000D02*
X101920000Y-84360000D01*
X101000000Y-85310000D02*
X101000000Y-84360000D01*
X101000000Y-79570000D02*
X101000000Y-80520000D01*
X98920000Y-83860000D02*
X97080000Y-83860000D01*
X97080000Y-83860000D02*
X97080000Y-80020000D01*
X97080000Y-80020000D02*
X98920000Y-80020000D01*
X98920000Y-80020000D02*
X98920000Y-83860000D01*
X98000000Y-84810000D02*
X98000000Y-83860000D01*
X98000000Y-79070000D02*
X98000000Y-80020000D01*
X108000000Y-94320000D02*
X108000000Y-95270000D01*
X108000000Y-100060000D02*
X108000000Y-99110000D01*
X108920000Y-95270000D02*
X108920000Y-99110000D01*
X107080000Y-95270000D02*
X108920000Y-95270000D01*
X107080000Y-99110000D02*
X107080000Y-95270000D01*
X108920000Y-99110000D02*
X107080000Y-99110000D01*
X104920000Y-83610000D02*
X103080000Y-83610000D01*
X103080000Y-83610000D02*
X103080000Y-79770000D01*
X103080000Y-79770000D02*
X104920000Y-79770000D01*
X104920000Y-79770000D02*
X104920000Y-83610000D01*
X104000000Y-84560000D02*
X104000000Y-83610000D01*
X104000000Y-78820000D02*
X104000000Y-79770000D01*
D11*
X88552380Y-91666666D02*
X89266666Y-91666666D01*
X89409523Y-91619047D01*
X89504761Y-91523809D01*
X89552380Y-91380952D01*
X89552380Y-91285714D01*
X88552380Y-92571428D02*
X88552380Y-92380952D01*
X88600000Y-92285714D01*
X88647619Y-92238095D01*
X88790476Y-92142857D01*
X88980952Y-92095238D01*
X89361904Y-92095238D01*
X89457142Y-92142857D01*
X89504761Y-92190476D01*
X89552380Y-92285714D01*
X89552380Y-92476190D01*
X89504761Y-92571428D01*
X89457142Y-92619047D01*
X89361904Y-92666666D01*
X89123809Y-92666666D01*
X89028571Y-92619047D01*
X88980952Y-92571428D01*
X88933333Y-92476190D01*
X88933333Y-92285714D01*
X88980952Y-92190476D01*
X89028571Y-92142857D01*
X89123809Y-92095238D01*
M02*
