G04 #@! TF.GenerationSoftware,KiCad,Pcbnew,5.1.2-f72e74a~84~ubuntu18.04.1*
G04 #@! TF.CreationDate,2019-08-23T19:05:58+08:00*
G04 #@! TF.ProjectId,handyfan,68616e64-7966-4616-9e2e-6b696361645f,rev?*
G04 #@! TF.SameCoordinates,Original*
G04 #@! TF.FileFunction,Copper,L1,Top*
G04 #@! TF.FilePolarity,Positive*
%FSLAX46Y46*%
G04 Gerber Fmt 4.6, Leading zero omitted, Abs format (unit mm)*
G04 Created by KiCad (PCBNEW 5.1.2-f72e74a~84~ubuntu18.04.1) date 2019-08-23 19:05:58*
%MOMM*%
%LPD*%
G04 APERTURE LIST*
%ADD10C,2.100000*%
%ADD11R,1.700000X1.700000*%
%ADD12O,1.700000X1.700000*%
%ADD13C,0.100000*%
%ADD14C,1.200000*%
%ADD15O,1.750000X1.200000*%
%ADD16C,1.400000*%
%ADD17O,1.400000X1.400000*%
%ADD18O,2.000000X2.000000*%
%ADD19R,0.900000X0.800000*%
%ADD20C,0.800000*%
%ADD21C,0.250000*%
%ADD22C,0.200000*%
%ADD23C,0.600000*%
G04 APERTURE END LIST*
D10*
X107620000Y-153700000D03*
X107620000Y-151160000D03*
X107620000Y-148620000D03*
X107620000Y-146080000D03*
X107620000Y-143540000D03*
X107620000Y-141000000D03*
X107620000Y-138460000D03*
X107620000Y-135920000D03*
X107620000Y-133380000D03*
X107620000Y-130840000D03*
X107620000Y-128300000D03*
X107620000Y-125760000D03*
X92380000Y-125760000D03*
X92380000Y-128300000D03*
X92380000Y-130840000D03*
X92380000Y-133380000D03*
X92380000Y-135920000D03*
X92380000Y-138460000D03*
X92380000Y-141000000D03*
X92380000Y-143540000D03*
X92380000Y-146080000D03*
X92380000Y-148620000D03*
X92380000Y-151160000D03*
X92380000Y-153700000D03*
D11*
X106000000Y-72000000D03*
X105460000Y-68000000D03*
D12*
X108000000Y-68000000D03*
D11*
X92000000Y-70000000D03*
D12*
X92000000Y-72540000D03*
X107500000Y-88040000D03*
D11*
X107500000Y-85500000D03*
X108000000Y-81000000D03*
D12*
X108000000Y-78460000D03*
X108000000Y-75920000D03*
D13*
G36*
X92649505Y-88401204D02*
G01*
X92673773Y-88404804D01*
X92697572Y-88410765D01*
X92720671Y-88419030D01*
X92742850Y-88429520D01*
X92763893Y-88442132D01*
X92783599Y-88456747D01*
X92801777Y-88473223D01*
X92818253Y-88491401D01*
X92832868Y-88511107D01*
X92845480Y-88532150D01*
X92855970Y-88554329D01*
X92864235Y-88577428D01*
X92870196Y-88601227D01*
X92873796Y-88625495D01*
X92875000Y-88649999D01*
X92875000Y-89350001D01*
X92873796Y-89374505D01*
X92870196Y-89398773D01*
X92864235Y-89422572D01*
X92855970Y-89445671D01*
X92845480Y-89467850D01*
X92832868Y-89488893D01*
X92818253Y-89508599D01*
X92801777Y-89526777D01*
X92783599Y-89543253D01*
X92763893Y-89557868D01*
X92742850Y-89570480D01*
X92720671Y-89580970D01*
X92697572Y-89589235D01*
X92673773Y-89595196D01*
X92649505Y-89598796D01*
X92625001Y-89600000D01*
X91374999Y-89600000D01*
X91350495Y-89598796D01*
X91326227Y-89595196D01*
X91302428Y-89589235D01*
X91279329Y-89580970D01*
X91257150Y-89570480D01*
X91236107Y-89557868D01*
X91216401Y-89543253D01*
X91198223Y-89526777D01*
X91181747Y-89508599D01*
X91167132Y-89488893D01*
X91154520Y-89467850D01*
X91144030Y-89445671D01*
X91135765Y-89422572D01*
X91129804Y-89398773D01*
X91126204Y-89374505D01*
X91125000Y-89350001D01*
X91125000Y-88649999D01*
X91126204Y-88625495D01*
X91129804Y-88601227D01*
X91135765Y-88577428D01*
X91144030Y-88554329D01*
X91154520Y-88532150D01*
X91167132Y-88511107D01*
X91181747Y-88491401D01*
X91198223Y-88473223D01*
X91216401Y-88456747D01*
X91236107Y-88442132D01*
X91257150Y-88429520D01*
X91279329Y-88419030D01*
X91302428Y-88410765D01*
X91326227Y-88404804D01*
X91350495Y-88401204D01*
X91374999Y-88400000D01*
X92625001Y-88400000D01*
X92649505Y-88401204D01*
X92649505Y-88401204D01*
G37*
D14*
X92000000Y-89000000D03*
D15*
X92000000Y-91000000D03*
X92000000Y-93000000D03*
X92000000Y-95000000D03*
D16*
X92000000Y-77000000D03*
D17*
X92000000Y-84620000D03*
X95000000Y-77880000D03*
D16*
X95000000Y-85500000D03*
D17*
X106000000Y-91880000D03*
D16*
X106000000Y-99500000D03*
X101000000Y-86250000D03*
D17*
X101000000Y-78630000D03*
D16*
X98000000Y-85750000D03*
D17*
X98000000Y-78130000D03*
X108000000Y-93380000D03*
D16*
X108000000Y-101000000D03*
D18*
X92380000Y-104110000D03*
X92380000Y-106650000D03*
X92380000Y-109190000D03*
X92380000Y-111730000D03*
X92380000Y-114270000D03*
X92380000Y-116810000D03*
X92380000Y-119350000D03*
X92380000Y-121890000D03*
X107620000Y-121890000D03*
X107620000Y-119350000D03*
X107620000Y-116810000D03*
X107620000Y-114270000D03*
X107620000Y-111730000D03*
X107620000Y-109190000D03*
X107620000Y-106650000D03*
X107620000Y-104110000D03*
D16*
X104000000Y-85500000D03*
D17*
X104000000Y-77880000D03*
D19*
X94000000Y-81950000D03*
X94000000Y-80050000D03*
X92000000Y-81000000D03*
D20*
X91500000Y-101000000D03*
X102700011Y-89682055D03*
X92053026Y-99739852D03*
X92000000Y-98000000D03*
X101755018Y-105755018D03*
X108000000Y-102500000D03*
X106397666Y-102418367D03*
X99000000Y-107000000D03*
X97844987Y-107644977D03*
X97986731Y-108773164D03*
X105562388Y-108192996D03*
D21*
X92050000Y-79050000D02*
X92050000Y-79800000D01*
X92474988Y-78641111D02*
X92458889Y-78641111D01*
X93500000Y-76500000D02*
X93500000Y-77616099D01*
X93500000Y-77616099D02*
X92474988Y-78641111D01*
X92458889Y-78641111D02*
X92050000Y-79050000D01*
D22*
X102550000Y-76500000D02*
X106000000Y-73050000D01*
X106000000Y-73050000D02*
X106000000Y-72000000D01*
X93500000Y-76500000D02*
X102550000Y-76500000D01*
X92000000Y-79850000D02*
X92000000Y-81000000D01*
X92050000Y-79800000D02*
X92000000Y-79850000D01*
D23*
X92380000Y-153700000D02*
X90750000Y-152070000D01*
X90750000Y-105740000D02*
X92380000Y-104110000D01*
X90750000Y-152070000D02*
X90750000Y-105740000D01*
X90750000Y-105740000D02*
X90599999Y-105589999D01*
X90599999Y-100567999D02*
X90624990Y-100543008D01*
X90599999Y-105589999D02*
X90599999Y-100567999D01*
X90624990Y-68775008D02*
X92649998Y-66750000D01*
X102760000Y-66750000D02*
X104010000Y-68000000D01*
X104010000Y-68000000D02*
X105460000Y-68000000D01*
X90624990Y-100543008D02*
X90624990Y-68775008D01*
X92649998Y-66750000D02*
X102760000Y-66750000D01*
X105960000Y-75920000D02*
X104000000Y-77880000D01*
X108000000Y-75920000D02*
X105960000Y-75920000D01*
X94300001Y-78579999D02*
X95000000Y-77880000D01*
X94080001Y-78799999D02*
X94300001Y-78579999D01*
D22*
X103249999Y-77129999D02*
X104000000Y-77880000D01*
X96739950Y-77129999D02*
X103249999Y-77129999D01*
X95000000Y-77880000D02*
X95989949Y-77880000D01*
X95989949Y-77880000D02*
X96739950Y-77129999D01*
D23*
X108000000Y-89742081D02*
X108000000Y-93380000D01*
X107500000Y-88040000D02*
X107500000Y-89242081D01*
X91500000Y-101000000D02*
X92065685Y-101000000D01*
X107500000Y-89242081D02*
X108000000Y-89742081D01*
X92065685Y-101000000D02*
X94499988Y-98565697D01*
X102300012Y-90082054D02*
X102700011Y-89682055D01*
X94499988Y-98565697D02*
X94499988Y-97412624D01*
X101830558Y-90082054D02*
X102300012Y-90082054D01*
X94499988Y-97412624D02*
X101830558Y-90082054D01*
D22*
X94000000Y-78880000D02*
X94000000Y-80050000D01*
X94080001Y-78799999D02*
X94000000Y-78880000D01*
D23*
X101000000Y-86250000D02*
X101000000Y-89781226D01*
X93699977Y-98092901D02*
X92453025Y-99339853D01*
X101000000Y-89781226D02*
X93699977Y-97081249D01*
X92453025Y-99339853D02*
X92053026Y-99739852D01*
X93699977Y-97081249D02*
X93699977Y-98092901D01*
X92000000Y-72540000D02*
X92000000Y-73103998D01*
X98000000Y-86739949D02*
X98000000Y-85750000D01*
X98000000Y-91434315D02*
X98000000Y-86739949D01*
X92000000Y-97434315D02*
X98000000Y-91434315D01*
X92000000Y-98000000D02*
X92000000Y-97434315D01*
D22*
X106450000Y-85500000D02*
X106000000Y-85950000D01*
X107500000Y-85500000D02*
X106450000Y-85500000D01*
X106900009Y-90334309D02*
X106900009Y-90979991D01*
X106000000Y-89434300D02*
X106900009Y-90334309D01*
X106699999Y-91180001D02*
X106000000Y-91880000D01*
X106000000Y-85950000D02*
X106000000Y-89434300D01*
X106900009Y-90979991D02*
X106699999Y-91180001D01*
D23*
X92500000Y-106530000D02*
X92380000Y-106650000D01*
X93000000Y-106530000D02*
X92500000Y-106530000D01*
X107472476Y-111730000D02*
X107620000Y-111730000D01*
X94015000Y-105515000D02*
X101257476Y-105515000D01*
X94015000Y-105515000D02*
X93000000Y-106530000D01*
X93429999Y-145030001D02*
X92380000Y-146080000D01*
X94380010Y-108150010D02*
X94380010Y-144079990D01*
X92880000Y-106650000D02*
X94380010Y-108150010D01*
X94380010Y-144079990D02*
X93429999Y-145030001D01*
X92380000Y-106650000D02*
X92880000Y-106650000D01*
X101441002Y-105515000D02*
X94015000Y-105515000D01*
X103899990Y-89148530D02*
X103899990Y-90148528D01*
X97743999Y-95299999D02*
X95299999Y-97743999D01*
X108000000Y-81000000D02*
X106550000Y-81000000D01*
X98748519Y-95299999D02*
X97743999Y-95299999D01*
X101441002Y-105515000D02*
X101515000Y-105515000D01*
X102799999Y-84750001D02*
X102799999Y-88048539D01*
X101515000Y-105515000D02*
X101755018Y-105755018D01*
X103899990Y-90148528D02*
X98748519Y-95299999D01*
X106550000Y-81000000D02*
X102799999Y-84750001D01*
X102799999Y-88048539D02*
X103899990Y-89148530D01*
X98558998Y-105515000D02*
X101441002Y-105515000D01*
X95299999Y-102256001D02*
X98558998Y-105515000D01*
X95299999Y-97743999D02*
X95299999Y-102256001D01*
D22*
X109500000Y-79960000D02*
X109500000Y-98000000D01*
X108000000Y-78460000D02*
X109500000Y-79960000D01*
X109500000Y-98000000D02*
X108500000Y-99000000D01*
X108500000Y-99000000D02*
X109000000Y-99500000D01*
X109000000Y-99500000D02*
X109000000Y-101500000D01*
X109000000Y-101500000D02*
X108000000Y-102500000D01*
D21*
X93950000Y-82670000D02*
X92000000Y-84620000D01*
X94120000Y-84620000D02*
X95000000Y-85500000D01*
X92000000Y-84620000D02*
X94120000Y-84620000D01*
D22*
X94000000Y-82620000D02*
X93950000Y-82670000D01*
X94000000Y-81950000D02*
X94000000Y-82620000D01*
X106319999Y-105833681D02*
X106319999Y-103061719D01*
X105325010Y-140703012D02*
X105325010Y-109865377D01*
X105325010Y-109865377D02*
X104399988Y-108940355D01*
X106397666Y-102984052D02*
X106397666Y-102418367D01*
X104399988Y-108940355D02*
X104399988Y-107753692D01*
X106319999Y-103061719D02*
X106397666Y-102984052D01*
X104399988Y-107753692D02*
X106319999Y-105833681D01*
X106971999Y-142350001D02*
X105325010Y-140703012D01*
X106971999Y-142891999D02*
X107620000Y-143540000D01*
X106971999Y-142350001D02*
X106971999Y-142891999D01*
X103500000Y-105046038D02*
X103500000Y-102989949D01*
X103500000Y-102989949D02*
X106000000Y-100489949D01*
X101546038Y-107000000D02*
X103500000Y-105046038D01*
X99000000Y-107000000D02*
X101546038Y-107000000D01*
X106000000Y-100489949D02*
X106000000Y-99500000D01*
X107000001Y-100214328D02*
X104699999Y-102514330D01*
X101066762Y-108044976D02*
X98244986Y-108044976D01*
X104699999Y-102514330D02*
X104699999Y-104411739D01*
X104699999Y-104411739D02*
X101066762Y-108044976D01*
X98244986Y-108044976D02*
X97844987Y-107644977D01*
X107000001Y-97500001D02*
X107000001Y-100214328D01*
X104699999Y-86199999D02*
X104699999Y-95199999D01*
X104699999Y-95199999D02*
X107000001Y-97500001D01*
X104000000Y-85500000D02*
X104699999Y-86199999D01*
X97986731Y-108773164D02*
X101032834Y-108773164D01*
X105697664Y-104108334D02*
X105697664Y-102082365D01*
X106780029Y-101000000D02*
X107010051Y-101000000D01*
X101032834Y-108773164D02*
X105697664Y-104108334D01*
X107010051Y-101000000D02*
X108000000Y-101000000D01*
X105697664Y-102082365D02*
X106780029Y-101000000D01*
X105922994Y-107492994D02*
X106620001Y-108190001D01*
X104862386Y-107856994D02*
X105226386Y-107492994D01*
X106620001Y-108190001D02*
X107620000Y-109190000D01*
X107620000Y-141000000D02*
X105725021Y-139105019D01*
X104862386Y-108837053D02*
X104862386Y-107856994D01*
X105725021Y-139105019D02*
X105725021Y-109699688D01*
X105226386Y-107492994D02*
X105922994Y-107492994D01*
X105725021Y-109699688D02*
X104862386Y-108837053D01*
X105962387Y-108592995D02*
X105562388Y-108192996D01*
X106125032Y-136965032D02*
X106125032Y-108755640D01*
X106125032Y-108755640D02*
X105962387Y-108592995D01*
X107620000Y-138460000D02*
X106125032Y-136965032D01*
X108669999Y-134328003D02*
X109000000Y-133998002D01*
X108669999Y-134870001D02*
X108669999Y-134328003D01*
X107620000Y-135920000D02*
X108669999Y-134870001D01*
X109000000Y-105490000D02*
X107620000Y-104110000D01*
X109000000Y-133998002D02*
X109000000Y-105490000D01*
M02*
