G04 #@! TF.GenerationSoftware,KiCad,Pcbnew,5.1.2-f72e74a~84~ubuntu18.04.1*
G04 #@! TF.CreationDate,2019-08-23T19:05:58+08:00*
G04 #@! TF.ProjectId,handyfan,68616e64-7966-4616-9e2e-6b696361645f,rev?*
G04 #@! TF.SameCoordinates,Original*
G04 #@! TF.FileFunction,Legend,Top*
G04 #@! TF.FilePolarity,Positive*
%FSLAX46Y46*%
G04 Gerber Fmt 4.6, Leading zero omitted, Abs format (unit mm)*
G04 Created by KiCad (PCBNEW 5.1.2-f72e74a~84~ubuntu18.04.1) date 2019-08-23 19:05:58*
%MOMM*%
%LPD*%
G04 APERTURE LIST*
%ADD10C,0.125000*%
%ADD11C,0.150000*%
%ADD12C,0.120000*%
G04 APERTURE END LIST*
D10*
X107357142Y-83726190D02*
X107023809Y-83488095D01*
X106785714Y-83726190D02*
X106785714Y-83226190D01*
X107166666Y-83226190D01*
X107261904Y-83250000D01*
X107309523Y-83273809D01*
X107357142Y-83321428D01*
X107357142Y-83392857D01*
X107309523Y-83440476D01*
X107261904Y-83464285D01*
X107166666Y-83488095D01*
X106785714Y-83488095D01*
X107785714Y-83464285D02*
X108119047Y-83464285D01*
X108261904Y-83726190D02*
X107785714Y-83726190D01*
X107785714Y-83226190D01*
X108261904Y-83226190D01*
X108690476Y-83726190D02*
X108690476Y-83226190D01*
X108928571Y-83226190D01*
X109071428Y-83250000D01*
X109166666Y-83297619D01*
X109214285Y-83345238D01*
X109261904Y-83440476D01*
X109261904Y-83511904D01*
X109214285Y-83607142D01*
X109166666Y-83654761D01*
X109071428Y-83702380D01*
X108928571Y-83726190D01*
X108690476Y-83726190D01*
X107357142Y-82976190D02*
X107023809Y-82738095D01*
X106785714Y-82976190D02*
X106785714Y-82476190D01*
X107166666Y-82476190D01*
X107261904Y-82500000D01*
X107309523Y-82523809D01*
X107357142Y-82571428D01*
X107357142Y-82642857D01*
X107309523Y-82690476D01*
X107261904Y-82714285D01*
X107166666Y-82738095D01*
X106785714Y-82738095D01*
X107785714Y-82714285D02*
X108119047Y-82714285D01*
X108261904Y-82976190D02*
X107785714Y-82976190D01*
X107785714Y-82476190D01*
X108261904Y-82476190D01*
X108690476Y-82976190D02*
X108690476Y-82476190D01*
X108928571Y-82476190D01*
X109071428Y-82500000D01*
X109166666Y-82547619D01*
X109214285Y-82595238D01*
X109261904Y-82690476D01*
X109261904Y-82761904D01*
X109214285Y-82857142D01*
X109166666Y-82904761D01*
X109071428Y-82952380D01*
X108928571Y-82976190D01*
X108690476Y-82976190D01*
D11*
X101357142Y-67452380D02*
X101023809Y-66976190D01*
X100785714Y-67452380D02*
X100785714Y-66452380D01*
X101166666Y-66452380D01*
X101261904Y-66500000D01*
X101309523Y-66547619D01*
X101357142Y-66642857D01*
X101357142Y-66785714D01*
X101309523Y-66880952D01*
X101261904Y-66928571D01*
X101166666Y-66976190D01*
X100785714Y-66976190D01*
X101785714Y-66928571D02*
X102119047Y-66928571D01*
X102261904Y-67452380D02*
X101785714Y-67452380D01*
X101785714Y-66452380D01*
X102261904Y-66452380D01*
X102690476Y-67452380D02*
X102690476Y-66452380D01*
X102928571Y-66452380D01*
X103071428Y-66500000D01*
X103166666Y-66595238D01*
X103214285Y-66690476D01*
X103261904Y-66880952D01*
X103261904Y-67023809D01*
X103214285Y-67214285D01*
X103166666Y-67309523D01*
X103071428Y-67404761D01*
X102928571Y-67452380D01*
X102690476Y-67452380D01*
X94357142Y-69452380D02*
X94023809Y-68976190D01*
X93785714Y-69452380D02*
X93785714Y-68452380D01*
X94166666Y-68452380D01*
X94261904Y-68500000D01*
X94309523Y-68547619D01*
X94357142Y-68642857D01*
X94357142Y-68785714D01*
X94309523Y-68880952D01*
X94261904Y-68928571D01*
X94166666Y-68976190D01*
X93785714Y-68976190D01*
X94785714Y-68928571D02*
X95119047Y-68928571D01*
X95261904Y-69452380D02*
X94785714Y-69452380D01*
X94785714Y-68452380D01*
X95261904Y-68452380D01*
X95690476Y-69452380D02*
X95690476Y-68452380D01*
X95928571Y-68452380D01*
X96071428Y-68500000D01*
X96166666Y-68595238D01*
X96214285Y-68690476D01*
X96261904Y-68880952D01*
X96261904Y-69023809D01*
X96214285Y-69214285D01*
X96166666Y-69309523D01*
X96071428Y-69404761D01*
X95928571Y-69452380D01*
X95690476Y-69452380D01*
D12*
X100000000Y-90000000D02*
X100000000Y-128000000D01*
X91110000Y-157510000D02*
X91110000Y-124490000D01*
X91110000Y-124490000D02*
X108890000Y-124490000D01*
X108890000Y-124490000D02*
X108890000Y-157510000D01*
X108890000Y-157510000D02*
X91110000Y-157510000D01*
X103810000Y-158780000D02*
X103810000Y-154970000D01*
X103810000Y-154970000D02*
X96190000Y-154970000D01*
X96190000Y-154970000D02*
X96190000Y-158780000D01*
X96190000Y-158780000D02*
X103810000Y-158780000D01*
X104670000Y-73330000D02*
X107330000Y-73330000D01*
X104670000Y-73270000D02*
X104670000Y-73330000D01*
X107330000Y-73270000D02*
X107330000Y-73330000D01*
X104670000Y-73270000D02*
X107330000Y-73270000D01*
X104670000Y-72000000D02*
X104670000Y-70670000D01*
X104670000Y-70670000D02*
X106000000Y-70670000D01*
X109330000Y-69330000D02*
X109330000Y-66670000D01*
X106730000Y-69330000D02*
X109330000Y-69330000D01*
X106730000Y-66670000D02*
X109330000Y-66670000D01*
X106730000Y-69330000D02*
X106730000Y-66670000D01*
X105460000Y-69330000D02*
X104130000Y-69330000D01*
X104130000Y-69330000D02*
X104130000Y-68000000D01*
X90670000Y-73870000D02*
X93330000Y-73870000D01*
X90670000Y-71270000D02*
X90670000Y-73870000D01*
X93330000Y-71270000D02*
X93330000Y-73870000D01*
X90670000Y-71270000D02*
X93330000Y-71270000D01*
X90670000Y-70000000D02*
X90670000Y-68670000D01*
X90670000Y-68670000D02*
X92000000Y-68670000D01*
X106170000Y-84170000D02*
X107500000Y-84170000D01*
X106170000Y-85500000D02*
X106170000Y-84170000D01*
X106170000Y-86770000D02*
X108830000Y-86770000D01*
X108830000Y-86770000D02*
X108830000Y-89370000D01*
X106170000Y-86770000D02*
X106170000Y-89370000D01*
X106170000Y-89370000D02*
X108830000Y-89370000D01*
X109330000Y-74590000D02*
X106670000Y-74590000D01*
X109330000Y-79730000D02*
X109330000Y-74590000D01*
X106670000Y-79730000D02*
X106670000Y-74590000D01*
X109330000Y-79730000D02*
X106670000Y-79730000D01*
X109330000Y-81000000D02*
X109330000Y-82330000D01*
X109330000Y-82330000D02*
X108000000Y-82330000D01*
X90000000Y-113000000D02*
X90000000Y-103000000D01*
X90000000Y-103000000D02*
X110000000Y-103000000D01*
X110000000Y-103000000D02*
X110000000Y-123000000D01*
X110000000Y-123000000D02*
X90000000Y-123000000D01*
X90000000Y-123000000D02*
X90000000Y-113000000D01*
X92240000Y-79420000D02*
X92240000Y-80350000D01*
X92240000Y-82580000D02*
X92240000Y-81650000D01*
X92240000Y-82580000D02*
X94400000Y-82580000D01*
X92240000Y-79420000D02*
X93700000Y-79420000D01*
D11*
X99238095Y-122672380D02*
X99238095Y-123481904D01*
X99285714Y-123577142D01*
X99333333Y-123624761D01*
X99428571Y-123672380D01*
X99619047Y-123672380D01*
X99714285Y-123624761D01*
X99761904Y-123577142D01*
X99809523Y-123481904D01*
X99809523Y-122672380D01*
X100238095Y-122767619D02*
X100285714Y-122720000D01*
X100380952Y-122672380D01*
X100619047Y-122672380D01*
X100714285Y-122720000D01*
X100761904Y-122767619D01*
X100809523Y-122862857D01*
X100809523Y-122958095D01*
X100761904Y-123100952D01*
X100190476Y-123672380D01*
X100809523Y-123672380D01*
X98666666Y-63052380D02*
X98333333Y-62576190D01*
X98095238Y-63052380D02*
X98095238Y-62052380D01*
X98476190Y-62052380D01*
X98571428Y-62100000D01*
X98619047Y-62147619D01*
X98666666Y-62242857D01*
X98666666Y-62385714D01*
X98619047Y-62480952D01*
X98571428Y-62528571D01*
X98476190Y-62576190D01*
X98095238Y-62576190D01*
X99095238Y-62528571D02*
X99428571Y-62528571D01*
X99571428Y-63052380D02*
X99095238Y-63052380D01*
X99095238Y-62052380D01*
X99571428Y-62052380D01*
X100333333Y-62528571D02*
X100000000Y-62528571D01*
X100000000Y-63052380D02*
X100000000Y-62052380D01*
X100476190Y-62052380D01*
X101000000Y-62052380D02*
X101000000Y-62290476D01*
X100761904Y-62195238D02*
X101000000Y-62290476D01*
X101238095Y-62195238D01*
X100857142Y-62480952D02*
X101000000Y-62290476D01*
X101142857Y-62480952D01*
X101761904Y-62052380D02*
X101761904Y-62290476D01*
X101523809Y-62195238D02*
X101761904Y-62290476D01*
X102000000Y-62195238D01*
X101619047Y-62480952D02*
X101761904Y-62290476D01*
X101904761Y-62480952D01*
X98666666Y-91052380D02*
X98333333Y-90576190D01*
X98095238Y-91052380D02*
X98095238Y-90052380D01*
X98476190Y-90052380D01*
X98571428Y-90100000D01*
X98619047Y-90147619D01*
X98666666Y-90242857D01*
X98666666Y-90385714D01*
X98619047Y-90480952D01*
X98571428Y-90528571D01*
X98476190Y-90576190D01*
X98095238Y-90576190D01*
X99095238Y-90528571D02*
X99428571Y-90528571D01*
X99571428Y-91052380D02*
X99095238Y-91052380D01*
X99095238Y-90052380D01*
X99571428Y-90052380D01*
X100333333Y-90528571D02*
X100000000Y-90528571D01*
X100000000Y-91052380D02*
X100000000Y-90052380D01*
X100476190Y-90052380D01*
X101000000Y-90052380D02*
X101000000Y-90290476D01*
X100761904Y-90195238D02*
X101000000Y-90290476D01*
X101238095Y-90195238D01*
X100857142Y-90480952D02*
X101000000Y-90290476D01*
X101142857Y-90480952D01*
X101761904Y-90052380D02*
X101761904Y-90290476D01*
X101523809Y-90195238D02*
X101761904Y-90290476D01*
X102000000Y-90195238D01*
X101619047Y-90480952D02*
X101761904Y-90290476D01*
X101904761Y-90480952D01*
D10*
X104130952Y-74452380D02*
X104130952Y-73452380D01*
X104321428Y-73452380D01*
X104369047Y-73500000D01*
X104392857Y-73547619D01*
X104416666Y-73642857D01*
X104416666Y-73785714D01*
X104392857Y-73880952D01*
X104369047Y-73928571D01*
X104321428Y-73976190D01*
X104130952Y-73976190D01*
X104726190Y-73452380D02*
X104821428Y-73452380D01*
X104869047Y-73500000D01*
X104916666Y-73595238D01*
X104940476Y-73785714D01*
X104940476Y-74119047D01*
X104916666Y-74309523D01*
X104869047Y-74404761D01*
X104821428Y-74452380D01*
X104726190Y-74452380D01*
X104678571Y-74404761D01*
X104630952Y-74309523D01*
X104607142Y-74119047D01*
X104607142Y-73785714D01*
X104630952Y-73595238D01*
X104678571Y-73500000D01*
X104726190Y-73452380D01*
X105107142Y-73452380D02*
X105226190Y-74452380D01*
X105321428Y-73738095D01*
X105416666Y-74452380D01*
X105535714Y-73452380D01*
X105726190Y-73928571D02*
X105892857Y-73928571D01*
X105964285Y-74452380D02*
X105726190Y-74452380D01*
X105726190Y-73452380D01*
X105964285Y-73452380D01*
X106464285Y-74452380D02*
X106297619Y-73976190D01*
X106178571Y-74452380D02*
X106178571Y-73452380D01*
X106369047Y-73452380D01*
X106416666Y-73500000D01*
X106440476Y-73547619D01*
X106464285Y-73642857D01*
X106464285Y-73785714D01*
X106440476Y-73880952D01*
X106416666Y-73928571D01*
X106369047Y-73976190D01*
X106178571Y-73976190D01*
X106559523Y-74547619D02*
X106940476Y-74547619D01*
X107035714Y-74404761D02*
X107107142Y-74452380D01*
X107226190Y-74452380D01*
X107273809Y-74404761D01*
X107297619Y-74357142D01*
X107321428Y-74261904D01*
X107321428Y-74166666D01*
X107297619Y-74071428D01*
X107273809Y-74023809D01*
X107226190Y-73976190D01*
X107130952Y-73928571D01*
X107083333Y-73880952D01*
X107059523Y-73833333D01*
X107035714Y-73738095D01*
X107035714Y-73642857D01*
X107059523Y-73547619D01*
X107083333Y-73500000D01*
X107130952Y-73452380D01*
X107250000Y-73452380D01*
X107321428Y-73500000D01*
X107488095Y-73452380D02*
X107607142Y-74452380D01*
X107702380Y-73738095D01*
X107797619Y-74452380D01*
X107916666Y-73452380D01*
D11*
X104690476Y-70452380D02*
X104690476Y-69452380D01*
X105071428Y-69452380D01*
X105166666Y-69500000D01*
X105214285Y-69547619D01*
X105261904Y-69642857D01*
X105261904Y-69785714D01*
X105214285Y-69880952D01*
X105166666Y-69928571D01*
X105071428Y-69976190D01*
X104690476Y-69976190D01*
X105880952Y-69452380D02*
X106071428Y-69452380D01*
X106166666Y-69500000D01*
X106261904Y-69595238D01*
X106309523Y-69785714D01*
X106309523Y-70119047D01*
X106261904Y-70309523D01*
X106166666Y-70404761D01*
X106071428Y-70452380D01*
X105880952Y-70452380D01*
X105785714Y-70404761D01*
X105690476Y-70309523D01*
X105642857Y-70119047D01*
X105642857Y-69785714D01*
X105690476Y-69595238D01*
X105785714Y-69500000D01*
X105880952Y-69452380D01*
X106642857Y-69452380D02*
X106880952Y-70452380D01*
X107071428Y-69738095D01*
X107261904Y-70452380D01*
X107500000Y-69452380D01*
X107880952Y-69928571D02*
X108214285Y-69928571D01*
X108357142Y-70452380D02*
X107880952Y-70452380D01*
X107880952Y-69452380D01*
X108357142Y-69452380D01*
X109357142Y-70452380D02*
X109023809Y-69976190D01*
X108785714Y-70452380D02*
X108785714Y-69452380D01*
X109166666Y-69452380D01*
X109261904Y-69500000D01*
X109309523Y-69547619D01*
X109357142Y-69642857D01*
X109357142Y-69785714D01*
X109309523Y-69880952D01*
X109261904Y-69928571D01*
X109166666Y-69976190D01*
X108785714Y-69976190D01*
X90738095Y-75452380D02*
X90738095Y-74452380D01*
X91071428Y-75166666D01*
X91404761Y-74452380D01*
X91404761Y-75452380D01*
X92071428Y-74452380D02*
X92261904Y-74452380D01*
X92357142Y-74500000D01*
X92452380Y-74595238D01*
X92500000Y-74785714D01*
X92500000Y-75119047D01*
X92452380Y-75309523D01*
X92357142Y-75404761D01*
X92261904Y-75452380D01*
X92071428Y-75452380D01*
X91976190Y-75404761D01*
X91880952Y-75309523D01*
X91833333Y-75119047D01*
X91833333Y-74785714D01*
X91880952Y-74595238D01*
X91976190Y-74500000D01*
X92071428Y-74452380D01*
X92785714Y-74452380D02*
X93357142Y-74452380D01*
X93071428Y-75452380D02*
X93071428Y-74452380D01*
X93880952Y-74452380D02*
X94071428Y-74452380D01*
X94166666Y-74500000D01*
X94261904Y-74595238D01*
X94309523Y-74785714D01*
X94309523Y-75119047D01*
X94261904Y-75309523D01*
X94166666Y-75404761D01*
X94071428Y-75452380D01*
X93880952Y-75452380D01*
X93785714Y-75404761D01*
X93690476Y-75309523D01*
X93642857Y-75119047D01*
X93642857Y-74785714D01*
X93690476Y-74595238D01*
X93785714Y-74500000D01*
X93880952Y-74452380D01*
X95309523Y-75452380D02*
X94976190Y-74976190D01*
X94738095Y-75452380D02*
X94738095Y-74452380D01*
X95119047Y-74452380D01*
X95214285Y-74500000D01*
X95261904Y-74547619D01*
X95309523Y-74642857D01*
X95309523Y-74785714D01*
X95261904Y-74880952D01*
X95214285Y-74928571D01*
X95119047Y-74976190D01*
X94738095Y-74976190D01*
X104904761Y-90619047D02*
X104952380Y-90476190D01*
X104952380Y-90238095D01*
X104904761Y-90142857D01*
X104857142Y-90095238D01*
X104761904Y-90047619D01*
X104666666Y-90047619D01*
X104571428Y-90095238D01*
X104523809Y-90142857D01*
X104476190Y-90238095D01*
X104428571Y-90428571D01*
X104380952Y-90523809D01*
X104333333Y-90571428D01*
X104238095Y-90619047D01*
X104142857Y-90619047D01*
X104047619Y-90571428D01*
X104000000Y-90523809D01*
X103952380Y-90428571D01*
X103952380Y-90190476D01*
X104000000Y-90047619D01*
X104952380Y-89619047D02*
X103952380Y-89619047D01*
X103952380Y-89238095D01*
X104000000Y-89142857D01*
X104047619Y-89095238D01*
X104142857Y-89047619D01*
X104285714Y-89047619D01*
X104380952Y-89095238D01*
X104428571Y-89142857D01*
X104476190Y-89238095D01*
X104476190Y-89619047D01*
X104428571Y-88619047D02*
X104428571Y-88285714D01*
X104952380Y-88142857D02*
X104952380Y-88619047D01*
X103952380Y-88619047D01*
X103952380Y-88142857D01*
X104666666Y-87761904D02*
X104666666Y-87285714D01*
X104952380Y-87857142D02*
X103952380Y-87523809D01*
X104952380Y-87190476D01*
X104952380Y-86857142D02*
X103952380Y-86857142D01*
X104952380Y-86285714D02*
X104380952Y-86714285D01*
X103952380Y-86285714D02*
X104523809Y-86857142D01*
X104428571Y-85857142D02*
X104428571Y-85523809D01*
X104952380Y-85380952D02*
X104952380Y-85857142D01*
X103952380Y-85857142D01*
X103952380Y-85380952D01*
X104952380Y-84380952D02*
X104476190Y-84714285D01*
X104952380Y-84952380D02*
X103952380Y-84952380D01*
X103952380Y-84571428D01*
X104000000Y-84476190D01*
X104047619Y-84428571D01*
X104142857Y-84380952D01*
X104285714Y-84380952D01*
X104380952Y-84428571D01*
X104428571Y-84476190D01*
X104476190Y-84571428D01*
X104476190Y-84952380D01*
X106452380Y-82000000D02*
X105452380Y-82000000D01*
X106452380Y-81428571D01*
X105452380Y-81428571D01*
X106404761Y-80571428D02*
X106452380Y-80666666D01*
X106452380Y-80857142D01*
X106404761Y-80952380D01*
X106309523Y-81000000D01*
X105928571Y-81000000D01*
X105833333Y-80952380D01*
X105785714Y-80857142D01*
X105785714Y-80666666D01*
X105833333Y-80571428D01*
X105928571Y-80523809D01*
X106023809Y-80523809D01*
X106119047Y-81000000D01*
X106452380Y-79952380D02*
X106404761Y-80047619D01*
X106357142Y-80095238D01*
X106261904Y-80142857D01*
X105976190Y-80142857D01*
X105880952Y-80095238D01*
X105833333Y-80047619D01*
X105785714Y-79952380D01*
X105785714Y-79809523D01*
X105833333Y-79714285D01*
X105880952Y-79666666D01*
X105976190Y-79619047D01*
X106261904Y-79619047D01*
X106357142Y-79666666D01*
X106404761Y-79714285D01*
X106452380Y-79809523D01*
X106452380Y-79952380D01*
X106452380Y-79190476D02*
X105452380Y-79190476D01*
X105452380Y-78809523D01*
X105500000Y-78714285D01*
X105547619Y-78666666D01*
X105642857Y-78619047D01*
X105785714Y-78619047D01*
X105880952Y-78666666D01*
X105928571Y-78714285D01*
X105976190Y-78809523D01*
X105976190Y-79190476D01*
X106452380Y-78190476D02*
X105785714Y-78190476D01*
X105452380Y-78190476D02*
X105500000Y-78238095D01*
X105547619Y-78190476D01*
X105500000Y-78142857D01*
X105452380Y-78190476D01*
X105547619Y-78190476D01*
X106452380Y-77809523D02*
X105785714Y-77285714D01*
X105785714Y-77809523D02*
X106452380Y-77285714D01*
X106404761Y-76523809D02*
X106452380Y-76619047D01*
X106452380Y-76809523D01*
X106404761Y-76904761D01*
X106309523Y-76952380D01*
X105928571Y-76952380D01*
X105833333Y-76904761D01*
X105785714Y-76809523D01*
X105785714Y-76619047D01*
X105833333Y-76523809D01*
X105928571Y-76476190D01*
X106023809Y-76476190D01*
X106119047Y-76952380D01*
X106452380Y-75904761D02*
X106404761Y-76000000D01*
X106309523Y-76047619D01*
X105452380Y-76047619D01*
X99238095Y-101022380D02*
X99238095Y-101831904D01*
X99285714Y-101927142D01*
X99333333Y-101974761D01*
X99428571Y-102022380D01*
X99619047Y-102022380D01*
X99714285Y-101974761D01*
X99761904Y-101927142D01*
X99809523Y-101831904D01*
X99809523Y-101022380D01*
X100809523Y-102022380D02*
X100238095Y-102022380D01*
X100523809Y-102022380D02*
X100523809Y-101022380D01*
X100428571Y-101165238D01*
X100333333Y-101260476D01*
X100238095Y-101308095D01*
X92904761Y-84047619D02*
X92809523Y-84000000D01*
X92714285Y-83904761D01*
X92571428Y-83761904D01*
X92476190Y-83714285D01*
X92380952Y-83714285D01*
X92428571Y-83952380D02*
X92333333Y-83904761D01*
X92238095Y-83809523D01*
X92190476Y-83619047D01*
X92190476Y-83285714D01*
X92238095Y-83095238D01*
X92333333Y-83000000D01*
X92428571Y-82952380D01*
X92619047Y-82952380D01*
X92714285Y-83000000D01*
X92809523Y-83095238D01*
X92857142Y-83285714D01*
X92857142Y-83619047D01*
X92809523Y-83809523D01*
X92714285Y-83904761D01*
X92619047Y-83952380D01*
X92428571Y-83952380D01*
X93809523Y-83952380D02*
X93238095Y-83952380D01*
X93523809Y-83952380D02*
X93523809Y-82952380D01*
X93428571Y-83095238D01*
X93333333Y-83190476D01*
X93238095Y-83238095D01*
M02*
