M48
; DRILL file {KiCad 5.1.2-f72e74a~84~ubuntu18.04.1} date 2019年08月23日 19時06分05秒
; FORMAT={-:-/ absolute / inch / decimal}
; #@! TF.CreationDate,2019-08-23T19:06:05+08:00
; #@! TF.GenerationSoftware,Kicad,Pcbnew,5.1.2-f72e74a~84~ubuntu18.04.1
; #@! TF.FileFunction,Plated,1,2,PTH
FMAT,2
INCH
T1C0.0157
T2C0.0276
T3C0.0295
T4C0.0394
T5C0.0472
T6C0.0591
%
G90
G05
T1
X3.6024Y-3.9764
X3.622Y-3.8583
X3.6241Y-3.9268
X3.8522Y-4.238
X3.8577Y-4.2824
X3.8976Y-4.2126
X4.0061Y-4.1636
X4.0433Y-3.5308
X4.156Y-4.2596
X4.1889Y-4.0322
X4.252Y-4.0354
T2
X4.1732Y-3.6173
X4.1732Y-3.9173
X3.7402Y-3.0661
X3.7402Y-3.3661
X3.9764Y-3.0957
X3.9764Y-3.3957
X4.0945Y-3.0661
X4.0945Y-3.3661
X3.622Y-3.0315
X3.622Y-3.3315
X4.252Y-3.6764
X4.252Y-3.9764
X3.8583Y-3.076
X3.8583Y-3.376
T3
X3.622Y-3.5039
X3.622Y-3.5827
X3.622Y-3.6614
X3.622Y-3.7402
T4
X4.2323Y-3.3661
X4.2323Y-3.4661
X4.1732Y-2.8346
X4.152Y-2.6772
X4.252Y-2.6772
X4.252Y-2.989
X4.252Y-3.089
X4.252Y-3.189
X3.622Y-2.7559
X3.622Y-2.8559
T5
X3.637Y-4.9512
X3.637Y-5.0512
X3.637Y-5.1512
X3.637Y-5.2512
X3.637Y-5.3512
X3.637Y-5.4512
X3.637Y-5.5512
X3.637Y-5.6512
X3.637Y-5.7512
X3.637Y-5.8512
X3.637Y-5.9512
X3.637Y-6.0512
X4.237Y-4.9512
X4.237Y-5.0512
X4.237Y-5.1512
X4.237Y-5.2512
X4.237Y-5.3512
X4.237Y-5.4512
X4.237Y-5.5512
X4.237Y-5.6512
X4.237Y-5.7512
X4.237Y-5.8512
X4.237Y-5.9512
X4.237Y-6.0512
T6
X3.637Y-4.0988
X3.637Y-4.1988
X3.637Y-4.2988
X3.637Y-4.3988
X3.637Y-4.4988
X3.637Y-4.5988
X3.637Y-4.6988
X3.637Y-4.7988
X4.237Y-4.0988
X4.237Y-4.1988
X4.237Y-4.2988
X4.237Y-4.3988
X4.237Y-4.4988
X4.237Y-4.5988
X4.237Y-4.6988
X4.237Y-4.7988
T0
M30
